<?xml version="1.0" standalone="no"?>
<!DOCTYPE svg PUBLIC "-//W3C//DTD SVG 1.1//EN" "http://www.w3.org/Graphics/SVG/1.1/DTD/svg11.dtd" >
<svg xmlns="http://www.w3.org/2000/svg" xmlns:xlink="http://www.w3.org/1999/xlink" version="1.1">
<metadata>
Created by FontForge 20170731 at Thu Apr 12 20:04:41 2007
 By Aleksey,,,
(c) Copyright 2006, 2007 Berthold LLC. All Rights Reserved. This font software computer program is the property of Berthold. You may not reproduce, modify, adapt, translate, alter nor create derivative works of the font software. You may not reverse engineer, decompile, decrypt, disassemble, nor seek to discover the source code of the font software.
</metadata>
<defs>
<font id="AkzidenzGroteskPro-Regular" horiz-adv-x="375" >
  <font-face 
    font-family="Akzidenz-Grotesk Pro Regular"
    font-weight="400"
    font-stretch="normal"
    units-per-em="1000"
    panose-1="2 0 5 3 3 0 0 2 0 3"
    ascent="750"
    descent="-250"
    x-height="471"
    cap-height="706"
    bbox="-138 -292 1225 998"
    underline-thickness="50"
    underline-position="-250"
    unicode-range="U+0020-FB02"
  />
<missing-glyph horiz-adv-x="500" 
d="M0 0v706h500v-706h-500zM250 401l170 255h-340zM280 353l170 -258v516zM80 50h340l-170 258zM50 611v-516l170 258z" />
    <glyph glyph-name="fi" unicode="fi" horiz-adv-x="479" 
d="M416 614h-77v92h77v-92zM416 0h-77v471h77v-471zM167 471h89v-66h-89v-405h-78v405h-78v66h78v41q0 94 12 124q25 65 112 65q26 0 58 -6v-63q-15 5 -44 5q-60 0 -60 -76v-90z" />
    <glyph glyph-name="fl" unicode="fl" horiz-adv-x="479" 
d="M414 0h-76v706h76v-706zM167 471h89v-66h-89v-405h-78v405h-78v66h78v41q0 94 12 124q25 65 112 65q26 0 58 -6v-63q-15 5 -44 5q-60 0 -60 -76v-90z" />
    <glyph glyph-name=".notdef" horiz-adv-x="500" 
d="M0 0v706h500v-706h-500zM250 401l170 255h-340zM280 353l170 -258v516zM80 50h340l-170 258zM50 611v-516l170 258z" />
    <glyph glyph-name=".null" horiz-adv-x="0" 
 />
    <glyph glyph-name="nonmarkingreturn" horiz-adv-x="333" 
 />
    <glyph glyph-name="space" unicode=" " horiz-adv-x="271" 
 />
    <glyph glyph-name="exclam" unicode="!" horiz-adv-x="271" 
d="M115 706h79v-288l-24 -271h-31l-24 282v277zM194 0h-79v90h79v-90z" />
    <glyph glyph-name="quotedbl" unicode="&#x22;" horiz-adv-x="347" 
d="M302 743l-28 -294h-31l-29 294h88zM133 743l-28 -294h-32l-29 294h89z" />
    <glyph glyph-name="numbersign" unicode="#" horiz-adv-x="667" 
d="M625 414h-148l-16 -108h139v-77h-150l-33 -229h-79l33 229h-111l-33 -229h-81l35 229h-139v77h149l16 108h-142v77h152l31 214h80l-31 -214h110l32 214h78l-30 -214h138v-77zM397 414h-111l-16 -108h112z" />
    <glyph glyph-name="dollar" unicode="$" horiz-adv-x="625" 
d="M287 -137v119q-97 14 -158 55q-84 57 -109 167l102 11q13 -60 55 -101t110 -53v253q-32 9 -57 18t-58 27t-55 38.5t-37.5 53t-15.5 70.5q0 48 22 86t57 60t71.5 34t72.5 15v110h67v-111q33 -5 65 -16t65.5 -32t60 -57t37.5 -83l-93 -9q-15 48 -49.5 81t-85.5 40v-236
q34 -10 58.5 -18t63 -27t63 -40.5t43 -56t18.5 -74.5q0 -88 -72 -146.5t-166 -58.5h-8v-119h-67zM287 422v220q-47 -2 -84.5 -31.5t-37.5 -78.5q0 -26 11 -45t31.5 -31.5t37.5 -19.5t42 -14zM354 295v-237q54 0 98 30t44 84q0 44 -33 71.5t-109 51.5z" />
    <glyph glyph-name="percent" unicode="%" horiz-adv-x="896" 
d="M620 656l-317 -685l-55 26l318 685zM26 452q0 54 14 103.5t53 88.5t96 39q68 0 116 -61t48 -171q0 -36 -7 -72t-24 -72.5t-51 -59.5t-81 -23q-76 0 -120 63.5t-44 164.5zM288 450q0 55 -10.5 93.5t-28 54.5t-32 22t-29.5 6q-48 0 -72 -47t-24 -121q0 -22 2 -42t10 -55.5
t30 -57t56 -21.5q44 0 71 40t27 128zM522 219q0 54 14 103.5t53 88.5t96 39q68 0 116 -61t48 -171q0 -36 -7 -72t-24 -72.5t-51 -59.5t-81 -23q-76 0 -120 63.5t-44 164.5zM784 217q0 55 -10.5 93.5t-28 54.5t-32 22t-29.5 6q-48 0 -72 -47t-24 -121q0 -22 2 -42t10 -55.5
t30 -57t56 -21.5q44 0 71 40t27 128z" />
    <glyph glyph-name="ampersand" unicode="&#x26;" horiz-adv-x="604" 
d="M467 325h77q-14 -95 -76 -197q37 -52 97 -52q9 0 28 3v-83q-21 -4 -38 -4q-83 0 -146 72q-81 -73 -178 -73q-29 0 -60.5 10.5t-62.5 32t-50.5 61t-19.5 90.5q0 44 14.5 80.5t42.5 63.5t51 42.5t57 34.5q-2 4 -7 18t-7 19t-6 17t-5.5 18.5t-3.5 17t-3 20.5t-1 20
q0 70 44.5 117.5t113.5 47.5q61 0 103 -40t42 -101q0 -87 -96 -153q-11 -8 -57 -34q31 -68 100 -178q30 57 47 130zM283 443q57 25 84 59t27 68q0 29 -18.5 49.5t-48.5 20.5q-26 0 -51.5 -21.5t-25.5 -65.5q0 -43 33 -110zM362 121q-3 4 -70 115q-44 75 -56 101
q-62 -27 -87.5 -67t-25.5 -75q0 -49 34 -87.5t90 -38.5q58 0 115 52z" />
    <glyph glyph-name="quotesingle" unicode="'" horiz-adv-x="177" 
d="M133 743l-28 -294h-32l-29 294h89z" />
    <glyph glyph-name="parenleft" unicode="(" horiz-adv-x="315" 
d="M319 -117l-32 -46q-118 88 -182.5 213t-64.5 271q0 141 62 268.5t182 208.5l33 -40q-94 -82 -139 -187t-45 -243q0 -137 50 -257t136 -188z" />
    <glyph glyph-name="parenright" unicode=")" horiz-adv-x="319" 
d="M4 755l33 46q119 -87 182.5 -213t63.5 -271q0 -144 -64.5 -272t-180.5 -205l-33 39q185 163 185 432q0 138 -50 257.5t-136 186.5z" />
    <glyph glyph-name="asterisk" unicode="*" horiz-adv-x="349" 
d="M323 583l-104 -37l63 -83l-48 -37l-66 85l-59 -85l-50 36l59 85l-100 28l17 57l102 -27v103h62v-105l103 34z" />
    <glyph glyph-name="plus" unicode="+" horiz-adv-x="724" 
d="M631 262h-225v-229h-88v229h-224v78h224v228h88v-228h225v-78z" />
    <glyph glyph-name="comma" unicode="," horiz-adv-x="229" 
d="M63 109h99v-60q0 -113 -41 -205h-47q33 95 33 156h-44v109z" />
    <glyph glyph-name="hyphen" unicode="-" horiz-adv-x="370" 
d="M325 262h-280v76h280v-76z" />
    <glyph glyph-name="period" unicode="." horiz-adv-x="229" 
d="M163 0h-99v113h99v-113z" />
    <glyph glyph-name="slash" unicode="/" horiz-adv-x="333" 
d="M321 702l-231 -702h-77l233 702h75z" />
    <glyph glyph-name="zero" unicode="0" horiz-adv-x="583" 
d="M49 334q0 153 64.5 249.5t176.5 96.5q106 0 175.5 -92t69.5 -248q0 -155 -64 -250.5t-180 -95.5q-42 0 -82 17t-77 53.5t-60 106t-23 163.5zM138 330q0 -117 40 -187.5t115 -70.5q46 0 78 27t47 71.5t21 85t6 82.5q0 25 -2 50.5t-10.5 66.5t-23.5 71t-45.5 52.5
t-70.5 22.5q-155 0 -155 -271z" />
    <glyph glyph-name="one" unicode="1" horiz-adv-x="583" 
d="M357 0h-94v493h-145v62q114 0 151 59q17 26 21 60h67v-674z" />
    <glyph glyph-name="two" unicode="2" horiz-adv-x="583" 
d="M520 0h-441v85q96 51 209 157q61 56 96 110.5t35 120.5q0 60 -33.5 94.5t-93.5 34.5q-67 0 -97 -37t-30 -96q0 -32 12 -80h-88q-12 41 -12 80q0 103 63 159q59 52 155 52q86 0 145 -50q72 -60 72 -163q0 -145 -166 -282q-72 -58 -149 -108h323v-77z" />
    <glyph glyph-name="three" unicode="3" horiz-adv-x="583" 
d="M40 223h90q5 -73 37 -111t121 -38q14 0 26.5 1t36.5 7.5t40.5 18t30 36t13.5 58.5q0 113 -148 113q-36 0 -66 -3v81q28 -2 51 -2q147 0 147 108q0 55 -42 84.5t-94 29.5q-73 0 -108 -56q-19 -31 -23 -102l-89 4q3 58 13 89q12 37 34 64.5t44.5 41.5t50.5 22t45 9.5
t34 1.5q104 0 164.5 -53t60.5 -135q0 -99 -82 -143q43 -17 72.5 -58t29.5 -103q0 -76 -52 -129q-64 -65 -182 -65q-51 0 -95 12.5t-81 38.5t-58 71.5t-21 106.5z" />
    <glyph glyph-name="four" unicode="4" horiz-adv-x="583" 
d="M532 162h-98v-162h-87v162h-305v81l322 431h70v-436h98v-76zM133 238h214l4 302z" />
    <glyph glyph-name="five" unicode="5" horiz-adv-x="583" 
d="M72 307l22 367h383v-79h-315l-9 -177q62 54 149 54q105 0 164 -70.5t59 -165.5q0 -99 -63 -170.5t-175 -71.5q-53 0 -95.5 15.5t-68.5 41t-40.5 48.5t-23.5 47q-8 25 -12 64l89 6q8 -60 43.5 -102.5t104.5 -42.5q21 0 42.5 6.5t47 22.5t42 52t16.5 87q0 68 -37.5 111.5
t-108.5 43.5q-92 0 -133 -87h-81z" />
    <glyph glyph-name="six" unicode="6" horiz-adv-x="583" 
d="M509 506l-87 -12q-7 49 -37.5 79.5t-79.5 30.5q-44 0 -76 -21.5t-49 -58t-24.5 -76.5t-7.5 -85q22 33 65.5 57.5t101.5 24.5q50 0 96.5 -21.5t81 -73t34.5 -122.5q0 -39 -12.5 -77.5t-37.5 -75t-70 -59t-104 -22.5q-54 0 -104 24.5t-83 75.5q-30 46 -42 100t-12 135
q0 73 13 133.5t40.5 110.5t75.5 78.5t113 28.5q166 0 205 -174zM162 220q0 -63 40.5 -104.5t102.5 -41.5q60 0 97 42.5t37 102.5q0 21 -6.5 44t-20.5 47t-42.5 39t-67.5 15q-71 0 -105.5 -46t-34.5 -98z" />
    <glyph glyph-name="seven" unicode="7" horiz-adv-x="583" 
d="M96 466v208h413v-97q0 -9 -1 -17t-2 -13t-5.5 -14t-6.5 -13.5t-11 -19t-13 -22.5l-35 -61q-139 -241 -161 -417h-106q23 179 204 461l30 47q22 35 27.5 48.5t5.5 37.5h-267v-128h-72z" />
    <glyph glyph-name="eight" unicode="8" horiz-adv-x="583" 
d="M438 362q19 -12 30 -20.5t29 -28t27 -47t9 -63.5q0 -87 -61 -148t-180 -61q-62 0 -110 18.5t-75 49.5t-41 66.5t-14 72.5q0 51 24 94.5t68 66.5q-75 50 -75 139q0 86 57.5 132.5t166.5 46.5q58 0 101.5 -14.5t65.5 -34t35 -46.5t16 -45.5t3 -38.5q0 -94 -76 -139z
M424 507q0 37 -32.5 66.5t-103.5 29.5q-56 0 -93 -24.5t-37 -75.5q0 -41 28.5 -73.5t105.5 -32.5q132 0 132 110zM143 202q0 -45 25.5 -75t57.5 -40.5t68 -10.5q25 0 48.5 6t46.5 19t37 39t14 61q0 65 -43.5 93t-107.5 28q-78 0 -112 -36.5t-34 -83.5z" />
    <glyph glyph-name="nine" unicode="9" horiz-adv-x="583" 
d="M73 162l87 16q23 -108 121 -108q55 0 92 36q33 32 49.5 89t16.5 109q-67 -86 -167 -86q-98 0 -159 63.5t-61 162.5q0 42 12.5 81t38 74t71.5 56.5t106 21.5q123 0 184 -87.5t61 -248.5q0 -172 -75 -270q-59 -77 -175 -77q-85 0 -136 50t-66 118zM430 435q0 68 -40 117.5
t-111 49.5q-40 0 -69 -16.5t-43 -43.5t-20 -52.5t-6 -50.5q0 -69 41 -105t100 -36q73 0 110.5 42t37.5 95z" />
    <glyph glyph-name="colon" unicode=":" horiz-adv-x="271" 
d="M205 377h-99v112h99v-112zM205 0h-99v113h99v-113z" />
    <glyph glyph-name="semicolon" unicode=";" horiz-adv-x="271" 
d="M206 380h-99v110h99v-110zM107 111h99v-61q0 -121 -39 -205h-45q25 78 25 155h-40v111z" />
    <glyph glyph-name="less" unicode="&#x3c;" horiz-adv-x="724" 
d="M579 23l-465 234v89l465 235v-88l-384 -190l384 -189v-91z" />
    <glyph glyph-name="equal" unicode="=" horiz-adv-x="724" 
d="M625 350h-526v78h526v-78zM625 163h-526v77h526v-77z" />
    <glyph glyph-name="greater" unicode="&#x3e;" horiz-adv-x="724" 
d="M609 256l-465 -235v89l384 189l-384 189v91l465 -233v-90z" />
    <glyph glyph-name="question" unicode="?" horiz-adv-x="562" 
d="M257 150v236h31q69 0 112 30t43 91q0 60 -44 95t-106 35q-73 0 -104 -45.5t-31 -104.5v-16h-87v18q0 92 61 157.5t164 65.5q94 0 162 -60.5t68 -155.5q0 -86 -54 -137.5t-136 -56.5v-152h-79zM340 0h-89v97h89v-97z" />
    <glyph glyph-name="at" unicode="@" horiz-adv-x="896" 
d="M580 495h68l-33 -150q-28 -126 -28 -172q0 -43 31 -43t65 41q41 48 63.5 115.5t22.5 134.5q0 111 -66 174t-178 63q-110 0 -203 -60t-145 -157t-52 -206q0 -141 92 -222.5t235 -81.5q184 0 335 146l33 -41q-160 -160 -367 -160q-90 0 -174 35q-103 44 -156.5 127
t-53.5 196q0 126 60 236t166.5 176t233.5 66q133 0 215.5 -77.5t82.5 -210.5q0 -74 -23 -146q-25 -77 -81.5 -142.5t-126.5 -65.5q-39 0 -61 23t-22 63q-65 -85 -144 -85q-64 0 -97 47.5t-33 114.5q0 64 24.5 128t74.5 110t112 46q40 0 70 -22.5t45 -61.5zM540 357
q0 40 -22.5 68.5t-61.5 28.5q-61 0 -99.5 -71t-38.5 -145q0 -43 20 -73t60 -30q39 0 69 27t44.5 66.5t21.5 73t7 55.5z" />
    <glyph glyph-name="A" unicode="A" horiz-adv-x="646" 
d="M634 0h-99l-77 216h-269l-79 -216h-100l269 706h98zM430 295l-103 295l-108 -295h211z" />
    <glyph glyph-name="B" unicode="B" horiz-adv-x="688" 
d="M77 0v706h339q82 0 142.5 -48.5t60.5 -132.5q0 -54 -29.5 -96.5t-78.5 -56.5q129 -39 129 -177q0 -45 -15 -80.5t-37.5 -56.5t-53 -34.5t-58.5 -18.5t-57 -5h-342zM166 409h209q145 0 145 111q0 47 -29 75t-92 28h-233v-214zM166 83h229q31 0 53 3.5t46 15t36.5 37
t12.5 63.5q0 62 -39.5 94.5t-105.5 32.5h-232v-246z" />
    <glyph glyph-name="C" unicode="C" horiz-adv-x="764" 
d="M640 268l102 -12q-10 -47 -34 -92t-64.5 -87.5t-105.5 -68.5t-144 -26q-158 0 -251.5 102t-93.5 269t95.5 269t261.5 102q124 0 205 -56t117 -160l-95 -19q-21 67 -78.5 113.5t-149.5 46.5q-119 0 -185.5 -79.5t-66.5 -211.5q0 -145 70.5 -221t182.5 -76q88 0 153 52.5
t81 154.5z" />
    <glyph glyph-name="D" unicode="D" horiz-adv-x="708" 
d="M78 706h280q133 0 216.5 -92t83.5 -262q0 -71 -16 -130t-51.5 -111t-101.5 -81.5t-158 -29.5h-253v706zM175 623v-541h167q108 0 164 71.5t56 199.5q0 122 -55.5 196t-169.5 74h-162z" />
    <glyph glyph-name="E" unicode="E" horiz-adv-x="604" 
d="M577 0h-498v706h486v-83h-396v-218h344v-82h-344v-241h408v-82z" />
    <glyph glyph-name="F" unicode="F" horiz-adv-x="542" 
d="M531 622h-359v-208h334v-82h-334v-332h-94v706h453v-84z" />
    <glyph glyph-name="G" unicode="G" horiz-adv-x="812" 
d="M741 0h-82v99q-26 -44 -92 -80.5t-166 -36.5q-157 0 -254 101t-97 261q0 175 103 277.5t261 102.5q46 0 89.5 -10t88.5 -32t84 -63.5t65 -99.5l-98 -25q-22 72 -82 112t-144 40q-66 0 -117.5 -25t-82.5 -66.5t-47 -92.5t-16 -107q0 -143 75.5 -217t185.5 -74
q102 0 173 59.5t71 160.5v10h-246v79h328v-373z" />
    <glyph glyph-name="H" unicode="H" horiz-adv-x="729" 
d="M651 0h-95v323h-384v-323h-93v706h93v-300h384v300h95v-706z" />
    <glyph glyph-name="I" unicode="I" horiz-adv-x="229" 
d="M162 0h-95v706h95v-706z" />
    <glyph glyph-name="J" unicode="J" 
d="M297 706v-519q0 -36 -1.5 -54t-10 -43t-26.5 -46q-53 -62 -154 -62q-44 0 -96 10v103q40 -20 93 -20q58 0 83 37q11 16 13.5 39.5t2.5 76.5v478h96z" />
    <glyph glyph-name="K" unicode="K" horiz-adv-x="625" 
d="M624 0h-115l-248 348l-100 -102v-246h-94v706h94v-345l335 345h116l-286 -292z" />
    <glyph glyph-name="L" unicode="L" horiz-adv-x="521" 
d="M504 0h-436v706h94v-622h342v-84z" />
    <glyph glyph-name="M" unicode="M" horiz-adv-x="812" 
d="M746 0h-94l13 592l-223 -592h-73l-219 583q10 -562 10 -583h-92v706h122l216 -579l218 579h122v-706z" />
    <glyph glyph-name="N" unicode="N" horiz-adv-x="708" 
d="M630 0h-85l-387 574q9 -560 9 -574h-89v706h89l382 -566q-4 544 -4 566h85v-706z" />
    <glyph glyph-name="O" unicode="O" horiz-adv-x="812" 
d="M762 359q0 -54 -11.5 -105.5t-38.5 -101.5t-67.5 -87t-102.5 -60t-138 -23q-70 0 -132.5 23t-112.5 67.5t-79 117t-29 164.5q0 93 30 166t80.5 116.5t113 65.5t132.5 22q160 0 257.5 -101.5t97.5 -263.5zM153 353q0 -137 68.5 -217t187.5 -80q111 0 181 76.5t70 226.5
q0 56 -13.5 105t-41.5 91.5t-79 67.5t-119 25q-67 0 -118 -25t-79.5 -68t-42.5 -93.5t-14 -108.5z" />
    <glyph glyph-name="P" unicode="P" horiz-adv-x="625" 
d="M76 706h335q99 0 151 -55.5t52 -143.5q0 -53 -18.5 -98t-67 -77.5t-120.5 -32.5h-241v-299h-91v706zM167 383h227q58 0 92.5 32t34.5 94q0 59 -34 87.5t-92 28.5h-228v-242z" />
    <glyph glyph-name="Q" unicode="Q" horiz-adv-x="812" 
d="M806 34l-60 -70l-112 95q-104 -77 -231 -77q-154 0 -255 98t-101 273q0 71 21.5 135.5t64 118t113.5 85.5t162 32q158 0 256 -99.5t98 -274.5q0 -120 -65 -222zM150 356q0 -55 14 -105.5t42.5 -95t80.5 -71t121 -26.5q66 0 116.5 25.5t79.5 69t43 93.5t14 105
q0 127 -65.5 213.5t-190.5 86.5q-65 0 -115.5 -25.5t-80 -68.5t-44.5 -94t-15 -107z" />
    <glyph glyph-name="R" unicode="R" horiz-adv-x="667" 
d="M657 0h-112l-193 300h-182v-300h-92v706h318q106 0 167.5 -51.5t61.5 -154.5q0 -73 -38.5 -126t-127.5 -68zM170 379h208q154 0 154 121q0 60 -37 94t-104 34h-221v-249z" />
    <glyph glyph-name="S" unicode="S" horiz-adv-x="667" 
d="M37 226l101 13q0 -10 1 -19t5.5 -29t12 -36t23 -35.5t36 -32.5t53 -22t72.5 -9q26 0 53 6t56.5 20t48 43.5t18.5 71.5q0 54 -34 79t-100 38l-64 13q-126 25 -187 70.5t-61 130.5q0 82 67 138q70 58 183 58q126 0 195 -53q43 -32 61.5 -69.5t28.5 -94.5l-95 -6
q0 15 -3.5 31.5t-15 38.5t-30 39t-53.5 29t-80 12q-38 0 -72 -9t-61.5 -35t-27.5 -67q0 -47 35.5 -70.5t105.5 -40.5l129 -31q20 -5 32.5 -8.5t44 -19t51 -34.5t36 -54t16.5 -79q0 -87 -59 -145q-78 -76 -223 -76q-117 0 -193 49q-93 60 -106 195z" />
    <glyph glyph-name="T" unicode="T" horiz-adv-x="542" 
d="M528 624h-211v-624h-94v624h-212v82h517v-82z" />
    <glyph glyph-name="U" unicode="U" horiz-adv-x="688" 
d="M76 706h94v-467q0 -79 40.5 -128t128.5 -49q93 0 135 53t42 137v454h95v-473q0 -105 -70 -178t-203 -73q-126 0 -194 68t-68 173v483z" />
    <glyph glyph-name="V" unicode="V" horiz-adv-x="604" 
d="M592 706l-249 -706h-93l-239 706h100l187 -590l194 590h100z" />
    <glyph glyph-name="W" unicode="W" horiz-adv-x="1021" 
d="M1003 706l-216 -706h-92l-186 585l-180 -585h-94l-217 706h99l167 -585l179 585h92l186 -585l165 585h97z" />
    <glyph glyph-name="X" unicode="X" horiz-adv-x="625" 
d="M605 0h-111l-183 287l-181 -287h-109l235 370l-222 336h112l165 -254l158 254h111l-216 -336z" />
    <glyph glyph-name="Y" unicode="Y" horiz-adv-x="625" 
d="M611 706l-254 -383v-323h-95v323l-248 383h111l186 -299l188 299h112z" />
    <glyph glyph-name="Z" unicode="Z" horiz-adv-x="604" 
d="M571 0h-553v92l436 528h-401v86h508v-88l-434 -533h444v-85z" />
    <glyph glyph-name="bracketleft" unicode="[" horiz-adv-x="277" 
d="M252 -144h-184v923h184v-59h-104v-805h104v-59z" />
    <glyph glyph-name="backslash" unicode="\" horiz-adv-x="333" 
d="M321 0h-75l-233 702h77z" />
    <glyph glyph-name="bracketright" unicode="]" horiz-adv-x="276" 
d="M207 -143h-184v59h104v805h-104v58h184v-922z" />
    <glyph glyph-name="asciicircum" unicode="^" horiz-adv-x="724" 
d="M611 287h-91l-156 339l-157 -339h-94l204 419h91z" />
    <glyph glyph-name="underscore" unicode="_" horiz-adv-x="500" 
d="M510 -214h-520v75h520v-75z" />
    <glyph glyph-name="grave" unicode="`" horiz-adv-x="271" 
d="M201 521h-48l-83 144h89z" />
    <glyph glyph-name="a" unicode="a" horiz-adv-x="500" 
d="M346 282v16q0 19 -1 31t-6.5 32t-15.5 32.5t-31 22t-51 9.5q-49 0 -75.5 -24t-26.5 -68v-7l-83 5q0 11 2.5 25.5t13.5 38.5t29 43t53.5 33.5t82.5 14.5q71 0 118 -28q46 -26 58.5 -62.5t12.5 -108.5v-166q0 -18 1.5 -27.5t10 -18.5t24.5 -9q6 0 24 4v-67q-27 -9 -51 -9
q-33 0 -50 12q-13 10 -22 28t-10 30q-71 -77 -161 -77q-71 0 -115.5 37.5t-44.5 97.5q0 63 51 102q59 44 191 53zM347 230q-145 -23 -169 -34q-58 -23 -58 -72q0 -29 22.5 -49.5t66.5 -20.5q20 0 40.5 5t44 18.5t38.5 43.5t15 72v37z" />
    <glyph glyph-name="b" unicode="b" horiz-adv-x="562" 
d="M65 706h80v-300q54 80 162 80q94 0 155.5 -67.5t61.5 -182.5q0 -110 -56.5 -180.5t-161.5 -70.5q-103 0 -161 76v-61h-80v706zM143 234q0 -72 36 -126.5t114 -54.5q58 0 102 44t44 146q0 80 -42 125t-104 45q-59 0 -104.5 -42.5t-45.5 -136.5z" />
    <glyph glyph-name="c" unicode="c" horiz-adv-x="521" 
d="M408 178l86 -8q-35 -185 -222 -185q-109 0 -171 68.5t-62 178.5q0 111 59.5 182.5t169.5 71.5q97 0 151.5 -48.5t65.5 -109.5l-88 -8q-9 52 -42.5 80t-85.5 28q-61 0 -101.5 -45.5t-40.5 -145.5q0 -86 38 -138t109 -52q118 0 134 131z" />
    <glyph glyph-name="d" unicode="d" horiz-adv-x="562" 
d="M497 0h-80v60q-64 -75 -161 -75q-101 0 -159 70t-58 182q0 65 20 115.5t52.5 78.5t69 41.5t74.5 13.5q57 0 101 -25t61 -52v297h80v-706zM125 234q0 -73 34.5 -125.5t112.5 -52.5q61 0 104 43.5t43 142.5q0 74 -39.5 122.5t-105.5 48.5q-75 0 -112 -52t-37 -127z" />
    <glyph glyph-name="e" unicode="e" horiz-adv-x="521" 
d="M125 221v-6q0 -65 38 -117.5t115 -52.5q55 0 84.5 33.5t39.5 76.5l81 -11q-53 -159 -213 -159q-97 0 -164 62.5t-67 192.5q0 64 21.5 113.5t56 77t73 41.5t77.5 14q88 0 152 -62.5t64 -189.5v-13h-358zM127 279h269q0 60 -38 102.5t-97 42.5q-60 0 -94 -41.5t-40 -103.5z
" />
    <glyph glyph-name="f" unicode="f" horiz-adv-x="271" 
d="M167 471h89v-66h-89v-405h-78v405h-78v66h78v41q0 94 12 124q25 65 112 65q26 0 58 -6v-63q-15 5 -44 5q-60 0 -60 -76v-90z" />
    <glyph glyph-name="g" unicode="g" horiz-adv-x="562" 
d="M497 471v-480q0 -63 -18 -107.5t-50.5 -68t-69.5 -34t-82 -10.5q-87 0 -146.5 44.5t-67.5 130.5h90q0 -54 35.5 -82t94.5 -28q72 0 101.5 35.5t29.5 106.5v91q-61 -84 -155 -84q-93 0 -155.5 66.5t-62.5 181.5q0 45 11 86.5t34.5 80.5t68.5 62.5t105 23.5q86 0 154 -79
v64h83zM417 242q0 80 -41 126t-107 46q-64 0 -105 -47t-41 -132q0 -79 37.5 -128.5t111.5 -49.5q73 0 109 51.5t36 133.5z" />
    <glyph glyph-name="h" unicode="h" horiz-adv-x="521" 
d="M458 0h-81v276q0 52 -9 78q-22 62 -95 62q-70 0 -105 -59q-22 -38 -22 -123v-234h-80v706h80v-283q58 63 143 63q169 0 169 -181v-305z" />
    <glyph glyph-name="i" unicode="i" horiz-adv-x="208" 
d="M146 614h-77v92h77v-92zM146 0h-77v471h77v-471z" />
    <glyph glyph-name="j" unicode="j" horiz-adv-x="208" 
d="M143 613h-78v93h78v-93zM143 471v-575q0 -68 -25 -95q-28 -30 -81 -30q-33 0 -60 4v71q28 -3 36 -3q22 0 36 10q11 8 13.5 20.5t2.5 44.5v553h78z" />
    <glyph glyph-name="k" unicode="k" horiz-adv-x="458" 
d="M472 0h-100l-169 226l-57 -60v-166h-81v706h81v-435l188 200h98l-175 -186z" />
    <glyph glyph-name="l" unicode="l" horiz-adv-x="208" 
d="M143 0h-76v706h76v-706z" />
    <glyph glyph-name="m" unicode="m" horiz-adv-x="771" 
d="M707 0h-79v314q0 55 -26.5 76t-59.5 21q-35 0 -69 -22.5t-44 -55.5q-6 -18 -6 -68v-265h-78v307q0 33 -9.5 55t-24.5 31.5t-27.5 13t-25.5 3.5q-33 0 -67 -20t-45 -50q-7 -18 -7 -60v-280h-75v471h75v-64q67 79 142 79q59 0 98 -44q9 -10 29 -43l18 18q18 18 27.5 25
t29 20t40 18.5t43.5 5.5q67 0 109 -52q32 -38 32 -123v-311z" />
    <glyph glyph-name="n" unicode="n" horiz-adv-x="521" 
d="M455 0h-79v309q0 51 -31 76.5t-76 25.5q-52 0 -88.5 -35.5t-36.5 -96.5v-279h-80v471h80v-69q19 33 56 58.5t92 25.5q16 0 35 -3.5t49.5 -19t49.5 -42.5q29 -41 29 -123v-298z" />
    <glyph glyph-name="o" unicode="o" horiz-adv-x="542" 
d="M40 235q0 27 5 55.5t20.5 65t40.5 64.5t69.5 47t102.5 19q91 0 157.5 -63.5t66.5 -182.5q0 -122 -65.5 -188.5t-165.5 -66.5q-102 0 -166.5 66t-64.5 184zM127 231q0 -20 2.5 -40.5t11.5 -47.5t24 -46.5t42 -33.5t63 -14q71 0 108.5 52t37.5 145q0 72 -33 124t-106 52
q-42 0 -72.5 -18t-45 -40t-22.5 -53.5t-9 -47t-1 -32.5z" />
    <glyph glyph-name="p" unicode="p" horiz-adv-x="562" 
d="M65 471h78v-67q25 31 69 56.5t99 25.5q83 0 147.5 -65t64.5 -187q0 -44 -11.5 -85t-35.5 -79.5t-69 -61.5t-105 -23q-48 0 -91 18t-68 52v-279h-78v695zM143 227q0 -80 39.5 -126t108.5 -46q73 0 111.5 49t38.5 133q0 88 -43.5 131t-101.5 43q-69 0 -111 -49t-42 -135z
" />
    <glyph glyph-name="q" unicode="q" horiz-adv-x="562" 
d="M497 -225h-81v281q-58 -71 -162 -71q-94 0 -154 62t-60 180q0 69 19.5 121.5t51.5 81t68.5 42.5t75.5 14q106 0 161 -85v70h81v-696zM422 219q0 30 -6 59.5t-21 61.5t-46 51.5t-75 19.5q-147 0 -147 -182q0 -92 42 -135.5t105 -43.5q13 0 26.5 1.5t37 11t40.5 26
t30.5 50.5t13.5 80z" />
    <glyph glyph-name="r" unicode="r" horiz-adv-x="313" 
d="M65 471h80v-86q17 33 44 54q48 38 117 38v-86q-15 3 -31 3q-44 0 -77.5 -23.5t-45.5 -65.5q-7 -28 -7 -87v-218h-80v471z" />
    <glyph glyph-name="s" unicode="s" horiz-adv-x="479" 
d="M31 152l91 13q0 -55 26 -83q33 -36 106 -36q41 0 75 17.5t34 61.5q0 20 -8 34t-25.5 22t-30 11.5t-34.5 7.5l-46 9q-93 18 -130.5 51.5t-37.5 85.5q0 71 54.5 105.5t128.5 34.5q66 0 110 -25t66 -58q19 -29 25 -72l-86 -10q-1 32 -7 44q-11 23 -42 41.5t-77 18.5
q-45 0 -69 -21.5t-24 -47.5q0 -29 27 -44.5t87 -29.5l46 -11q76 -18 116.5 -48t40.5 -89q0 -67 -56 -108t-141 -41q-194 0 -219 167z" />
    <glyph glyph-name="t" unicode="t" horiz-adv-x="292" 
d="M174 405v-303q0 -25 8 -36t27 -11q20 0 50 11v-66q-56 -8 -76 -8q-55 0 -73 20t-18 65v328h-76v66h76v149h82v-149h85v-66h-85z" />
    <glyph glyph-name="u" unicode="u" horiz-adv-x="521" 
d="M454 0h-79v72q-26 -39 -69.5 -61.5t-90.5 -22.5q-88 0 -126 62q-24 40 -24 118v303h79v-268q0 -72 11 -95q23 -45 86 -45q75 0 112 54q23 34 23 113v241h78v-471z" />
    <glyph glyph-name="v" unicode="v" horiz-adv-x="437" 
d="M426 471l-170 -471h-72l-172 471h83l125 -361l124 361h82z" />
    <glyph glyph-name="w" unicode="w" horiz-adv-x="729" 
d="M719 471l-173 -471h-70l-113 351l-115 -351h-73l-164 471h86l118 -350l116 350h70l111 -350l123 350h84z" />
    <glyph glyph-name="x" unicode="x" horiz-adv-x="396" 
d="M387 0h-90l-100 168l-98 -168h-90l146 239l-139 232h92l94 -162l95 162h90l-142 -232z" />
    <glyph glyph-name="y" unicode="y" horiz-adv-x="437" 
d="M342 471h83l-198 -557q-30 -85 -59 -116t-88 -31q-35 0 -71 10v72q24 -8 53 -8q35 0 53.5 19.5t38.5 78.5l20 58l-160 474h85l118 -374z" />
    <glyph glyph-name="z" unicode="z" horiz-adv-x="417" 
d="M389 0h-376v66l271 336h-245v69h344v-64l-274 -341h280v-66z" />
    <glyph glyph-name="braceleft" unicode="{" horiz-adv-x="281" 
d="M268 -148h-40q-60 0 -93 29t-33 108v192q0 64 -16 83t-69 24v60q52 4 68.5 23.5t16.5 82.5v192q0 71 30.5 104t106.5 33h29v-58h-16q-46 0 -57.5 -20.5t-11.5 -74.5v-178q0 -62 -16.5 -89t-65.5 -46q46 -14 64 -43t18 -91v-196q0 -44 15.5 -60.5t59.5 -16.5h10v-58z" />
    <glyph glyph-name="bar" unicode="|" horiz-adv-x="236" 
d="M157 -143h-80v922h80v-922z" />
    <glyph glyph-name="braceright" unicode="}" horiz-adv-x="281" 
d="M12 782h44q57 0 90 -30.5t33 -108.5v-201q0 -52 16.5 -71.5t67.5 -23.5v-60q-51 -6 -67.5 -23.5t-16.5 -72.5v-197q0 -72 -28 -107t-103 -35h-36v58h19q43 0 55 21.5t12 74.5v176q0 62 16.5 89.5t64.5 46.5q-43 11 -62 41t-19 87v199q0 45 -15 62t-59 17h-12v58z" />
    <glyph glyph-name="asciitilde" unicode="~" horiz-adv-x="724" 
d="M119 226l-45 61q38 54 74.5 77.5t83.5 23.5q41 0 133 -41l45 -20q58 -25 79 -25q55 0 117 73l45 -60q-86 -100 -158 -100q-47 0 -127 38l-35 17q-65 31 -104 31q-29 0 -47.5 -13t-54.5 -55z" />
    <glyph glyph-name="uni00A0" unicode="&#xa0;" horiz-adv-x="271" 
 />
    <glyph glyph-name="exclamdown" unicode="&#xa1;" horiz-adv-x="271" 
d="M156 616h-79v90h79v-90zM156 0h-79v288l24 271h31l24 -282v-277z" />
    <glyph glyph-name="cent" unicode="&#xa2;" horiz-adv-x="500" 
d="M396 180l88 -8q-11 -53 -34.5 -91t-52.5 -56.5t-54.5 -27t-51.5 -9.5v-103h-60v103q-95 9 -149 80.5t-54 168.5q0 93 52.5 161.5t151.5 82.5v96h59v-95q25 -4 44.5 -10t48 -21.5t52 -47.5t38.5 -79l-90 -8q-8 78 -93 101v-364q99 17 105 127zM231 54v365
q-118 -33 -118 -182q0 -41 8.5 -75.5t36.5 -66.5t73 -41z" />
    <glyph glyph-name="sterling" unicode="&#xa3;" horiz-adv-x="667" 
d="M560 178l93 -6q-3 -32 -12.5 -61.5t-28 -58.5t-51.5 -46.5t-76 -17.5q-19 0 -38.5 3t-33 6t-34 10.5t-28 11t-28.5 13.5t-24 11q-67 -58 -141 -58q-43 0 -77.5 24t-34.5 68q0 39 30 63t79 24q47 0 100 -18q2 8 2 17q0 24 -13 58.5t-31 59.5h-177v65h131q-61 99 -61 168
q0 96 79.5 153t182.5 57q65 0 115 -22t77.5 -57.5t41 -72.5t13.5 -73l-105 -10q1 10 1 19q0 21 -6.5 43t-22 46.5t-47 39.5t-74.5 15q-63 0 -105 -35t-42 -94q0 -26 8 -52t15.5 -40t27.5 -44t26 -41h209v-65h-173q2 -5 6.5 -19t6 -19t4 -15t3.5 -19.5t1 -20.5q0 -33 -11 -76
q1 0 11.5 -6t17 -9l19.5 -9t23.5 -9t25 -5.5t27.5 -2.5q46 0 72 30.5t27 76.5zM227 77q-42 17 -70 17q-32 0 -32 -24q0 -9 8.5 -16.5t23.5 -7.5q35 0 70 31z" />
    <glyph glyph-name="currency" unicode="&#xa4;" horiz-adv-x="663" 
d="M618 569l-75 -75q51 -76 51 -155q0 -82 -52 -156l75 -76l-56 -55l-75 76q-45 -30 -77.5 -41t-77.5 -11q-46 0 -79.5 11.5t-75.5 40.5l-76 -74l-55 55l76 74q-52 73 -52 157q0 81 52 155l-74 74l55 55l74 -74q72 52 156 52q90 0 155 -52l75 75zM508 338q0 77 -50 128.5
t-126 51.5q-75 0 -126 -51t-51 -127q0 -77 51.5 -128t128.5 -51q73 0 123 51t50 126z" />
    <glyph glyph-name="yen" unicode="&#xa5;" horiz-adv-x="625" 
d="M611 677l-171 -247h112v-72h-159l-38 -52h197v-72h-195v-234h-94v234h-194v72h194l-32 51h-162v71h113l-168 249h112l185 -287l189 287h111z" />
    <glyph glyph-name="brokenbar" unicode="&#xa6;" horiz-adv-x="252" 
d="M167 383h-82v402h82v-402zM167 -137h-82v401h82v-401z" />
    <glyph glyph-name="section" unicode="&#xa7;" horiz-adv-x="625" 
d="M540 698l-40 -71q-41 24 -66 36t-63.5 23.5t-75.5 11.5q-24 0 -48 -6t-45 -22.5t-21 -41.5q0 -22 15.5 -38.5t28.5 -22t40 -15.5q116 -42 172 -69q71 -34 111.5 -76.5t40.5 -109.5q0 -48 -25.5 -90.5t-68.5 -66.5q50 -45 50 -100q0 -58 -54 -110t-151 -52q-101 0 -261 81
l40 74q48 -34 108 -55t116 -21q40 0 71.5 17.5t31.5 56.5q0 12 -4.5 22t-9.5 16.5t-17.5 14t-18 10t-22 9.5t-20.5 9q-3 1 -51.5 22t-69 31t-59 30t-63 38.5t-39.5 37.5q-35 43 -35 100q0 46 26.5 87.5t68.5 65.5q-42 42 -42 89q0 73 61 115.5t141 42.5q100 0 248 -73z
M275 456l-64 26q-32 -11 -57.5 -40.5t-25.5 -60.5q0 -40 38 -73q16 -14 52.5 -33.5t66 -33t76 -34t54.5 -24.5q35 13 61 41.5t26 63.5q0 19 -7.5 36t-24 31.5t-31.5 26t-41 23.5t-41.5 18.5t-44 17.5t-37.5 15z" />
    <glyph glyph-name="dieresis" unicode="&#xa8;" horiz-adv-x="271" 
d="M278 541h-89v103h89v-103zM80 541h-87v103h87v-103z" />
    <glyph glyph-name="copyright" unicode="&#xa9;" horiz-adv-x="840" 
d="M776 360q0 -155 -102 -259t-255 -104q-148 0 -251.5 104t-103.5 252q0 149 104 252.5t253 103.5q146 0 250.5 -103t104.5 -246zM740 346q0 140 -92 234.5t-228 94.5q-133 0 -226.5 -94.5t-93.5 -228.5t93 -227.5t227 -93.5q130 0 225 93.5t95 221.5zM552 290l68 -14
q-45 -157 -197 -157q-94 0 -151.5 62.5t-57.5 163.5q0 106 61 173.5t158 67.5q71 0 115 -33t68 -105l-67 -19q-21 52 -46.5 72t-70.5 20q-66 0 -105 -46.5t-39 -125.5q0 -75 37 -119t99 -44q50 0 80.5 25t47.5 79z" />
    <glyph glyph-name="ordfeminine" unicode="&#xaa;" horiz-adv-x="313" 
d="M298 475v-46q-15 -6 -29 -6q-39 0 -55 37q-37 -41 -92 -41q-38 0 -65 20t-27 59q0 28 12.5 47t39 29t55.5 14.5t74 7.5v11q0 34 -11 52t-45 18q-57 0 -57 -53v-6l-55 4q12 96 111 96q47 0 77 -24t30 -75v-109q0 -40 22 -40q8 0 15 5zM211 543v17l-21 -3q-58 -8 -80 -20.5
t-22 -36.5q0 -20 14.5 -29t34.5 -9q28 0 51 18.5t23 62.5z" />
    <glyph glyph-name="guillemotleft" unicode="&#xab;" horiz-adv-x="396" 
d="M334 141l-134 113v83l134 116v-89l-80 -71l80 -66v-86zM177 137l-135 113v85l135 117v-91l-78 -68l78 -67v-89z" />
    <glyph glyph-name="logicalnot" unicode="&#xac;" horiz-adv-x="724" 
d="M636 6h-89v255h-477v80h566v-335z" />
    <glyph glyph-name="uni00AD" unicode="&#xad;" horiz-adv-x="370" 
d="M325 262h-280v76h280v-76z" />
    <glyph glyph-name="registered" unicode="&#xae;" horiz-adv-x="840" 
d="M776 360q0 -155 -102 -259t-255 -104q-148 0 -251.5 104t-103.5 252q0 149 104 252.5t253 103.5q146 0 250.5 -103t104.5 -246zM740 346q0 140 -92 234.5t-228 94.5q-133 0 -226 -94.5t-93 -228.5t93 -227.5t226 -93.5q130 0 225 93.5t95 221.5zM281 578h130
q83 0 121 -31t38 -98q0 -100 -96 -126l102 -195h-77l-95 189h-54v-189h-69v450zM351 517v-139h57q48 0 70 16.5t22 53.5t-23 53t-76 16h-50z" />
    <glyph glyph-name="macron" unicode="&#xaf;" horiz-adv-x="271" 
d="M278 541h-285v68h285v-68z" />
    <glyph glyph-name="degree" unicode="&#xb0;" horiz-adv-x="354" 
d="M338 594q0 -67 -47 -114.5t-114 -47.5t-114 47.5t-47 114.5t47 114t114 47q68 0 114.5 -46.5t46.5 -114.5zM256 596q0 33 -23 56t-56 23t-56 -23t-23 -56q0 -32 23.5 -55.5t55.5 -23.5q33 0 56 23t23 56z" />
    <glyph glyph-name="plusminus" unicode="&#xb1;" horiz-adv-x="724" 
d="M631 355h-225v-219h-88v219h-224v78h224v217h88v-217h225v-78zM630 0h-536v79h536v-79z" />
    <glyph glyph-name="twosuperior" unicode="&#xb2;" 
d="M341 233h-297v61l10 6q51 31 105.5 76.5t81.5 87.5q29 44 29 82q0 37 -24 58.5t-61 21.5q-39 0 -58.5 -24.5t-19.5 -62.5q0 -16 8 -52h-65q-6 26 -6 53q0 66 40.5 104.5t106.5 38.5q62 0 103.5 -37.5t41.5 -100.5q0 -123 -204 -256h209v-56z" />
    <glyph glyph-name="threesuperior" unicode="&#xb3;" 
d="M21 376h67q0 -94 101 -94q49 0 70.5 21.5t21.5 54.5q0 71 -85 71h-43v59h34q10 0 20 1.5t26 7t26.5 20.5t10.5 37q0 35 -25.5 53.5t-58.5 18.5q-86 0 -86 -99v-5h-65v12q0 21 6 43.5t20.5 48t46.5 41.5t77 16q61 0 106.5 -33.5t45.5 -96.5q0 -69 -72 -91q86 -17 86 -105
q0 -52 -38.5 -92.5t-119.5 -40.5q-49 0 -84.5 14t-53.5 37.5t-26 48.5t-8 52z" />
    <glyph glyph-name="acute" unicode="&#xb4;" horiz-adv-x="271" 
d="M199 666l-86 -144h-41l41 144h86z" />
    <glyph glyph-name="mu" unicode="&#xb5;" horiz-adv-x="564" 
d="M86 470h80v-236q0 -102 22 -134q29 -44 86 -44q68 0 98 68q17 38 17 130v216h80v-347q0 -40 7 -54t26 -14q12 0 28 7v-64q-28 -7 -43 -7q-41 0 -61.5 18.5t-26.5 61.5q-23 -44 -51.5 -63t-74.5 -19q-68 0 -109 59q4 -235 4 -264h-82v686z" />
    <glyph glyph-name="paragraph" unicode="&#xb6;" horiz-adv-x="642" 
d="M525 652h-33v-819h-57v819h-146v-819h-57v490q-72 8 -114 58t-42 128q0 90 55.5 143.5t157.5 53.5h236v-54z" />
    <glyph glyph-name="periodcentered" unicode="&#xb7;" horiz-adv-x="200" 
d="M151 228h-102v124h102v-124z" />
    <glyph glyph-name="cedilla" unicode="&#xb8;" horiz-adv-x="271" 
d="M141 16l29 -7l-29 -52l24 -13q19 -10 28.5 -27.5t9.5 -33.5q0 -40 -36.5 -63t-85.5 -23h-5v23q3 -1 10 -1q17 0 29.5 10t12.5 27q0 9 -3.5 16t-11.5 12t-14 8t-17 7t-14 5z" />
    <glyph glyph-name="onesuperior" unicode="&#xb9;" 
d="M233 233h-67v323h-86v45q45 3 70 18.5t33 60.5h50v-447z" />
    <glyph glyph-name="ordmasculine" unicode="&#xba;" horiz-adv-x="333" 
d="M307 565q0 -65 -38 -106.5t-103 -41.5q-63 0 -101.5 41.5t-38.5 102.5q0 78 43 116.5t99 38.5q65 0 102 -44.5t37 -106.5zM250 567q0 41 -20.5 72.5t-63.5 31.5q-36 0 -59.5 -26t-23.5 -80q0 -40 19 -72t65 -32q37 0 60 25.5t23 80.5z" />
    <glyph glyph-name="guillemotright" unicode="&#xbb;" horiz-adv-x="396" 
d="M353 253l-135 -117v90l79 69l-79 66v89l135 -113v-84zM196 250l-134 -116v90l80 70l-80 67v85l134 -113v-83z" />
    <glyph glyph-name="onequarter" unicode="&#xbc;" horiz-adv-x="875" 
d="M853 109h-65v-109h-63v109h-203v58l214 283h53v-285h64v-56zM620 656l-317 -685l-55 26l318 685zM728 356l-139 -191h137zM233 233h-67v323h-86v45q45 3 70 18.5t33 60.5h50v-447z" />
    <glyph glyph-name="onehalf" unicode="&#xbd;" horiz-adv-x="875" 
d="M841 0h-297v61l11 6q61 33 110 78.5t72 78.5q33 48 33 90q0 27 -19 53.5t-64 26.5q-39 0 -59.5 -24.5t-20.5 -63.5q0 -16 8 -51h-65q-6 26 -6 52q0 66 40 104.5t107 38.5q62 0 103 -37t41 -101q0 -124 -203 -255h209v-57zM596 656l-317 -685l-55 26l318 685zM233 233h-67
v323h-86v45q45 3 70 18.5t33 60.5h50v-447z" />
    <glyph glyph-name="threequarters" unicode="&#xbe;" horiz-adv-x="875" 
d="M853 109h-65v-109h-63v109h-203v58l214 283h53v-285h64v-56zM663 656l-317 -685l-55 26l318 685zM728 356l-139 -191h137zM21 376h67q0 -94 101 -94q49 0 70.5 21.5t21.5 54.5q0 71 -85 71h-43v59h34q10 0 20 1.5t26 7t26.5 20.5t10.5 37q0 35 -25.5 53.5t-58.5 18.5
q-86 0 -86 -99v-5h-65v12q0 21 6 43.5t20.5 48t46.5 41.5t77 16q61 0 106.5 -33.5t45.5 -96.5q0 -69 -72 -91q86 -17 86 -105q0 -52 -38.5 -92.5t-119.5 -40.5q-49 0 -84.5 14t-53.5 37.5t-26 48.5t-8 52z" />
    <glyph glyph-name="questiondown" unicode="&#xbf;" horiz-adv-x="562" 
d="M306 556v-236h-31q-69 0 -112 -30t-43 -91q0 -60 44 -95t106 -35q73 0 104 45.5t31 104.5v16h87v-18q0 -92 -61 -157.5t-164 -65.5q-94 0 -162 60.5t-68 155.5q0 86 54 137.5t136 56.5v152h79zM222 706h89v-97h-89v97z" />
    <glyph glyph-name="Agrave" unicode="&#xc0;" horiz-adv-x="646" 
d="M634 0h-99l-77 216h-269l-79 -216h-100l269 706h98zM430 295l-103 295l-108 -295h211zM364 771h-59l-87 124h99z" />
    <glyph glyph-name="Aacute" unicode="&#xc1;" horiz-adv-x="646" 
d="M634 0h-99l-77 216h-269l-79 -216h-100l269 706h98zM430 295l-103 295l-108 -295h211zM427 895l-87 -124h-60l48 124h99z" />
    <glyph glyph-name="Acircumflex" unicode="&#xc2;" horiz-adv-x="646" 
d="M634 0h-99l-77 216h-269l-79 -216h-100l269 706h98zM430 295l-103 295l-108 -295h211zM461 771h-77l-62 74l-59 -74h-75l101 124h65z" />
    <glyph glyph-name="Atilde" unicode="&#xc3;" horiz-adv-x="646" 
d="M634 0h-99l-77 216h-269l-79 -216h-100l269 706h98zM430 295l-103 295l-108 -295h211zM417 882h47q-14 -101 -78 -101q-24 0 -67 17.5t-58 17.5q-22 0 -30 -30h-48q4 34 14.5 56t25 30.5t23.5 10.5t21 2q23 0 61.5 -16.5t59.5 -16.5q13 0 18.5 6.5t10.5 23.5z" />
    <glyph glyph-name="Adieresis" unicode="&#xc4;" horiz-adv-x="646" 
d="M634 0h-99l-77 216h-269l-79 -216h-100l269 706h98zM430 295l-103 295l-108 -295h211zM468 781h-88v102h88v-102zM271 781h-87v102h87v-102z" />
    <glyph glyph-name="Aring" unicode="&#xc5;" horiz-adv-x="646" 
d="M634 0h-99l-77 216h-269l-79 -216h-100l269 706h98zM430 295l-103 295l-108 -295h211zM423 848q0 -39 -28.5 -67t-67.5 -28q-40 0 -67.5 28t-27.5 68q0 39 28 66.5t68 27.5q39 0 67 -27.5t28 -67.5zM378 849q0 21 -15 35.5t-36 14.5t-35.5 -15t-14.5 -36t15 -35.5
t36 -14.5q20 0 35 15t15 36z" />
    <glyph glyph-name="AE" unicode="&#xc6;" horiz-adv-x="1042" 
d="M1014 0h-500v232h-252l-154 -232h-110l483 706h521v-83h-395v-231h319v-79h-319v-231h407v-82zM514 313v302l-197 -302h197z" />
    <glyph glyph-name="Ccedilla" unicode="&#xc7;" horiz-adv-x="764" 
d="M640 268l102 -12q-21 -107 -111 -188.5t-210 -82.5l-16 -28q1 -1 11 -6t17 -10t15.5 -13t13.5 -19.5t5 -25.5q0 -38 -34 -62t-93 -24v23q2 -1 7 -1q22 0 33.5 11t11.5 25q0 19 -14 28.5t-46 20.5l52 79q-143 1 -239 99.5t-96 272.5q0 166 96 267.5t262 101.5
q135 0 214 -62.5t107 -153.5l-95 -20q-24 72 -81.5 116.5t-145.5 44.5q-46 0 -88.5 -15t-80.5 -47t-61 -92t-23 -140q0 -55 14 -105.5t42.5 -94t79 -69.5t116.5 -26q93 0 156 55t79 153z" />
    <glyph glyph-name="Egrave" unicode="&#xc8;" horiz-adv-x="604" 
d="M577 0h-498v706h486v-83h-396v-218h344v-82h-344v-241h408v-82zM354 771h-59l-87 124h99z" />
    <glyph glyph-name="Eacute" unicode="&#xc9;" horiz-adv-x="604" 
d="M577 0h-498v706h486v-83h-396v-218h344v-82h-344v-241h408v-82zM417 895l-87 -124h-60l48 124h99z" />
    <glyph glyph-name="Ecircumflex" unicode="&#xca;" horiz-adv-x="604" 
d="M577 0h-498v706h486v-83h-396v-218h344v-82h-344v-241h408v-82zM456 771h-77l-62 74l-59 -74h-75l101 124h65z" />
    <glyph glyph-name="Edieresis" unicode="&#xcb;" horiz-adv-x="604" 
d="M577 0h-498v706h486v-83h-396v-218h344v-82h-344v-241h408v-82zM460 781h-88v102h88v-102zM263 781h-87v102h87v-102z" />
    <glyph glyph-name="Igrave" unicode="&#xcc;" horiz-adv-x="229" 
d="M162 0h-95v706h95v-706zM156 771h-59l-87 124h99z" />
    <glyph glyph-name="Iacute" unicode="&#xcd;" horiz-adv-x="229" 
d="M162 0h-95v706h95v-706zM220 895l-87 -124h-60l48 124h99z" />
    <glyph glyph-name="Icircumflex" unicode="&#xce;" horiz-adv-x="229" 
d="M162 0h-95v706h95v-706zM253 771h-77l-62 74l-59 -74h-75l101 124h65z" />
    <glyph glyph-name="Idieresis" unicode="&#xcf;" horiz-adv-x="229" 
d="M162 0h-95v706h95v-706zM257 781h-88v102h88v-102zM60 781h-87v102h87v-102z" />
    <glyph glyph-name="Eth" unicode="&#xd0;" horiz-adv-x="708" 
d="M78 706h248q88 0 133 -15q92 -32 145.5 -118t53.5 -227q0 -17 -0.5 -32.5t-5.5 -47.5t-13 -58.5t-25 -59.5t-40.5 -58.5t-61 -47.5t-83.5 -33q-42 -9 -107 -9h-244v341h-65v60h65v305zM175 623v-222h168v-60h-168v-259h125q90 0 132 17q61 25 95.5 88.5t34.5 161.5
q0 223 -153 264q-39 10 -108 10h-126z" />
    <glyph glyph-name="Ntilde" unicode="&#xd1;" horiz-adv-x="708" 
d="M630 0h-85l-387 574q9 -560 9 -574h-89v706h89l382 -566q-4 544 -4 566h85v-706zM448 882h47q-14 -101 -78 -101q-24 0 -67 17.5t-58 17.5q-22 0 -30 -30h-48q4 34 14.5 56t25 30.5t23.5 10.5t21 2q23 0 61.5 -16.5t59.5 -16.5q13 0 18.5 6.5t10.5 23.5z" />
    <glyph glyph-name="Ograve" unicode="&#xd2;" horiz-adv-x="812" 
d="M762 359q0 -54 -11.5 -105.5t-38.5 -101.5t-67.5 -87t-102.5 -60t-138 -23q-70 0 -132.5 23t-112.5 67.5t-79 117t-29 164.5q0 93 30 166t80.5 116.5t113 65.5t132.5 22q160 0 257.5 -101.5t97.5 -263.5zM153 353q0 -137 68.5 -217t187.5 -80q111 0 181 76.5t70 226.5
q0 56 -13.5 105t-41.5 91.5t-79 67.5t-119 25q-67 0 -118 -25t-79.5 -68t-42.5 -93.5t-14 -108.5zM448 771h-59l-87 124h99z" />
    <glyph glyph-name="Oacute" unicode="&#xd3;" horiz-adv-x="812" 
d="M762 359q0 -54 -11.5 -105.5t-38.5 -101.5t-67.5 -87t-102.5 -60t-138 -23q-70 0 -132.5 23t-112.5 67.5t-79 117t-29 164.5q0 93 30 166t80.5 116.5t113 65.5t132.5 22q160 0 257.5 -101.5t97.5 -263.5zM153 353q0 -137 68.5 -217t187.5 -80q111 0 181 76.5t70 226.5
q0 56 -13.5 105t-41.5 91.5t-79 67.5t-119 25q-67 0 -118 -25t-79.5 -68t-42.5 -93.5t-14 -108.5zM511 895l-87 -124h-60l48 124h99z" />
    <glyph glyph-name="Ocircumflex" unicode="&#xd4;" horiz-adv-x="812" 
d="M762 359q0 -54 -11.5 -105.5t-38.5 -101.5t-67.5 -87t-102.5 -60t-138 -23q-70 0 -132.5 23t-112.5 67.5t-79 117t-29 164.5q0 93 30 166t80.5 116.5t113 65.5t132.5 22q160 0 257.5 -101.5t97.5 -263.5zM153 353q0 -137 68.5 -217t187.5 -80q111 0 181 76.5t70 226.5
q0 56 -13.5 105t-41.5 91.5t-79 67.5t-119 25q-67 0 -118 -25t-79.5 -68t-42.5 -93.5t-14 -108.5zM544 771h-77l-62 74l-59 -74h-75l101 124h65z" />
    <glyph glyph-name="Otilde" unicode="&#xd5;" horiz-adv-x="812" 
d="M762 359q0 -54 -11.5 -105.5t-38.5 -101.5t-67.5 -87t-102.5 -60t-138 -23q-70 0 -132.5 23t-112.5 67.5t-79 117t-29 164.5q0 93 30 166t80.5 116.5t113 65.5t132.5 22q160 0 257.5 -101.5t97.5 -263.5zM153 353q0 -137 68.5 -217t187.5 -80q111 0 181 76.5t70 226.5
q0 56 -13.5 105t-41.5 91.5t-79 67.5t-119 25q-67 0 -118 -25t-79.5 -68t-42.5 -93.5t-14 -108.5zM500 882h47q-14 -101 -78 -101q-24 0 -67 17.5t-58 17.5q-22 0 -30 -30h-48q4 34 14.5 56t25 30.5t23.5 10.5t21 2q23 0 61.5 -16.5t59.5 -16.5q13 0 18.5 6.5t10.5 23.5z
" />
    <glyph glyph-name="Odieresis" unicode="&#xd6;" horiz-adv-x="812" 
d="M762 359q0 -54 -11.5 -105.5t-38.5 -101.5t-67.5 -87t-102.5 -60t-138 -23q-70 0 -132.5 23t-112.5 67.5t-79 117t-29 164.5q0 93 30 166t80.5 116.5t113 65.5t132.5 22q160 0 257.5 -101.5t97.5 -263.5zM153 353q0 -137 68.5 -217t187.5 -80q111 0 181 76.5t70 226.5
q0 56 -13.5 105t-41.5 91.5t-79 67.5t-119 25q-67 0 -118 -25t-79.5 -68t-42.5 -93.5t-14 -108.5zM553 781h-88v102h88v-102zM356 781h-87v102h87v-102z" />
    <glyph glyph-name="multiply" unicode="&#xd7;" horiz-adv-x="724" 
d="M576 146l-61 -62l-163 159l-158 -160l-56 55l158 160l-164 161l62 62l163 -160l157 160l56 -55l-157 -160z" />
    <glyph glyph-name="Oslash" unicode="&#xd8;" horiz-adv-x="812" 
d="M715 699l48 -51l-70 -68q70 -102 70 -225q0 -42 -10 -88t-36 -98t-65 -92.5t-105 -67.5t-148 -27q-72 0 -126 21t-112 68l-65 -62l-49 50l69 66q-66 114 -66 228q0 64 19.5 126t59.5 118.5t111.5 91.5t163.5 35q80 0 130.5 -21.5t111.5 -68.5zM186 193l394 378
q-70 78 -179 78q-121 0 -184 -85.5t-63 -213.5q0 -82 32 -157zM621 512l-397 -381q76 -75 182 -75q66 0 117 26.5t79.5 70t42.5 91.5t14 97q0 93 -38 171z" />
    <glyph glyph-name="Ugrave" unicode="&#xd9;" horiz-adv-x="688" 
d="M76 706h94v-467q0 -79 40.5 -128t128.5 -49q93 0 135 53t42 137v454h95v-473q0 -105 -70 -178t-203 -73q-126 0 -194 68t-68 173v483zM385 771h-59l-87 124h99z" />
    <glyph glyph-name="Uacute" unicode="&#xda;" horiz-adv-x="688" 
d="M76 706h94v-467q0 -79 40.5 -128t128.5 -49q93 0 135 53t42 137v454h95v-473q0 -105 -70 -178t-203 -73q-126 0 -194 68t-68 173v483zM449 895l-87 -124h-60l48 124h99z" />
    <glyph glyph-name="Ucircumflex" unicode="&#xdb;" horiz-adv-x="688" 
d="M76 706h94v-467q0 -79 40.5 -128t128.5 -49q93 0 135 53t42 137v454h95v-473q0 -105 -70 -178t-203 -73q-126 0 -194 68t-68 173v483zM482 771h-77l-62 74l-59 -74h-75l101 124h65z" />
    <glyph glyph-name="Udieresis" unicode="&#xdc;" horiz-adv-x="688" 
d="M76 706h94v-467q0 -79 40.5 -128t128.5 -49q93 0 135 53t42 137v454h95v-473q0 -105 -70 -178t-203 -73q-126 0 -194 68t-68 173v483zM485 781h-88v102h88v-102zM288 781h-87v102h87v-102z" />
    <glyph glyph-name="Yacute" unicode="&#xdd;" horiz-adv-x="625" 
d="M611 706l-254 -383v-323h-95v323l-248 383h111l186 -299l188 299h112zM417 895l-87 -124h-60l48 124h99z" />
    <glyph glyph-name="Thorn" unicode="&#xde;" horiz-adv-x="625" 
d="M76 706h91v-129h249q100 0 149 -60t49 -141q0 -84 -51.5 -145t-157.5 -61h-238v-170h-91v706zM167 495v-242h221q37 0 65 10t49 42q19 29 19 73q0 117 -131 117h-223z" />
    <glyph glyph-name="germandbls" unicode="&#xdf;" horiz-adv-x="542" 
d="M143 0h-79v506q0 103 33 149q49 69 162 69q79 0 128 -35q63 -45 63 -126q0 -13 -3 -28t-11 -37t-27.5 -42t-48.5 -31q34 -5 60.5 -20t41.5 -36t22.5 -37t11.5 -31q7 -29 7 -69q0 -157 -97 -213q-52 -30 -120 -30q-42 0 -94 15v84q63 -21 99 -21q67 0 101 46q30 41 30 111
q0 64 -34 104q-27 31 -68 43t-120 12v79q14 -2 41 -2q65 0 97 28.5t32 71.5t-31 66.5t-75 23.5q-33 0 -57 -9t-36 -22t-18.5 -33.5t-8 -35.5t-1.5 -37v-513z" />
    <glyph glyph-name="agrave" unicode="&#xe0;" horiz-adv-x="500" 
d="M346 282v16q0 19 -1 31t-6.5 32t-15.5 32.5t-31 22t-51 9.5q-49 0 -75.5 -24t-26.5 -68v-7l-83 5q0 11 2.5 25.5t13.5 38.5t29 43t53.5 33.5t82.5 14.5q71 0 118 -28q46 -26 58.5 -62.5t12.5 -108.5v-166q0 -18 1.5 -27.5t10 -18.5t24.5 -9q6 0 24 4v-67q-27 -9 -51 -9
q-33 0 -50 12q-13 10 -22 28t-10 30q-71 -77 -161 -77q-71 0 -115.5 37.5t-44.5 97.5q0 63 51 102q59 44 191 53zM347 230q-145 -23 -169 -34q-58 -23 -58 -72q0 -29 22.5 -49.5t66.5 -20.5q20 0 40.5 5t44 18.5t38.5 43.5t15 72v37zM280 521h-48l-83 144h89z" />
    <glyph glyph-name="aacute" unicode="&#xe1;" horiz-adv-x="500" 
d="M346 282v16q0 19 -1 31t-6.5 32t-15.5 32.5t-31 22t-51 9.5q-49 0 -75.5 -24t-26.5 -68v-7l-83 5q0 11 2.5 25.5t13.5 38.5t29 43t53.5 33.5t82.5 14.5q71 0 118 -28q46 -26 58.5 -62.5t12.5 -108.5v-166q0 -18 1.5 -27.5t10 -18.5t24.5 -9q6 0 24 4v-67q-27 -9 -51 -9
q-33 0 -50 12q-13 10 -22 28t-10 30q-71 -77 -161 -77q-71 0 -115.5 37.5t-44.5 97.5q0 63 51 102q59 44 191 53zM347 230q-145 -23 -169 -34q-58 -23 -58 -72q0 -29 22.5 -49.5t66.5 -20.5q20 0 40.5 5t44 18.5t38.5 43.5t15 72v37zM344 666l-86 -144h-41l41 144h86z" />
    <glyph glyph-name="acircumflex" unicode="&#xe2;" horiz-adv-x="500" 
d="M346 282v16q0 19 -1 31t-6.5 32t-15.5 32.5t-31 22t-51 9.5q-49 0 -75.5 -24t-26.5 -68v-7l-83 5q0 11 2.5 25.5t13.5 38.5t29 43t53.5 33.5t82.5 14.5q71 0 118 -28q46 -26 58.5 -62.5t12.5 -108.5v-166q0 -18 1.5 -27.5t10 -18.5t24.5 -9q6 0 24 4v-67q-27 -9 -51 -9
q-33 0 -50 12q-13 10 -22 28t-10 30q-71 -77 -161 -77q-71 0 -115.5 37.5t-44.5 97.5q0 63 51 102q59 44 191 53zM347 230q-145 -23 -169 -34q-58 -23 -58 -72q0 -29 22.5 -49.5t66.5 -20.5q20 0 40.5 5t44 18.5t38.5 43.5t15 72v37zM375 523h-75l-61 95l-59 -95h-70l94 151
h67z" />
    <glyph glyph-name="atilde" unicode="&#xe3;" horiz-adv-x="500" 
d="M346 282v16q0 19 -1 31t-6.5 32t-15.5 32.5t-31 22t-51 9.5q-49 0 -75.5 -24t-26.5 -68v-7l-83 5q0 11 2.5 25.5t13.5 38.5t29 43t53.5 33.5t82.5 14.5q71 0 118 -28q46 -26 58.5 -62.5t12.5 -108.5v-166q0 -18 1.5 -27.5t10 -18.5t24.5 -9q6 0 24 4v-67q-27 -9 -51 -9
q-33 0 -50 12q-13 10 -22 28t-10 30q-71 -77 -161 -77q-71 0 -115.5 37.5t-44.5 97.5q0 63 51 102q59 44 191 53zM347 230q-145 -23 -169 -34q-58 -23 -58 -72q0 -29 22.5 -49.5t66.5 -20.5q20 0 40.5 5t44 18.5t38.5 43.5t15 72v37zM339 635h50q-3 -27 -8.5 -46
t-23.5 -36.5t-46 -17.5q-22 0 -64.5 17t-56.5 17q-16 0 -23.5 -11t-7.5 -19h-49q12 99 82 99q23 0 64 -16.5t54 -16.5q29 0 29 30z" />
    <glyph glyph-name="adieresis" unicode="&#xe4;" horiz-adv-x="500" 
d="M346 282v16q0 19 -1 31t-6.5 32t-15.5 32.5t-31 22t-51 9.5q-49 0 -75.5 -24t-26.5 -68v-7l-83 5q0 11 2.5 25.5t13.5 38.5t29 43t53.5 33.5t82.5 14.5q71 0 118 -28q46 -26 58.5 -62.5t12.5 -108.5v-166q0 -18 1.5 -27.5t10 -18.5t24.5 -9q6 0 24 4v-67q-27 -9 -51 -9
q-33 0 -50 12q-13 10 -22 28t-10 30q-71 -77 -161 -77q-71 0 -115.5 37.5t-44.5 97.5q0 63 51 102q59 44 191 53zM347 230q-145 -23 -169 -34q-58 -23 -58 -72q0 -29 22.5 -49.5t66.5 -20.5q20 0 40.5 5t44 18.5t38.5 43.5t15 72v37zM390 541h-89v103h89v-103zM192 541h-87
v103h87v-103z" />
    <glyph glyph-name="aring" unicode="&#xe5;" horiz-adv-x="500" 
d="M346 282v16q0 19 -1 31t-6.5 32t-15.5 32.5t-31 22t-51 9.5q-49 0 -75.5 -24t-26.5 -68v-7l-83 5q0 11 2.5 25.5t13.5 38.5t29 43t53.5 33.5t82.5 14.5q71 0 118 -28q46 -26 58.5 -62.5t12.5 -108.5v-166q0 -18 1.5 -27.5t10 -18.5t24.5 -9q6 0 24 4v-67q-27 -9 -51 -9
q-33 0 -50 12q-13 10 -22 28t-10 30q-71 -77 -161 -77q-71 0 -115.5 37.5t-44.5 97.5q0 63 51 102q59 44 191 53zM347 230q-145 -23 -169 -34q-58 -23 -58 -72q0 -29 22.5 -49.5t66.5 -20.5q20 0 40.5 5t44 18.5t38.5 43.5t15 72v37zM341 608q0 -40 -27.5 -67.5t-67.5 -27.5
q-39 0 -66.5 28t-27.5 67t27.5 67t66.5 28q42 0 68.5 -29.5t26.5 -65.5zM298 609q0 21 -15 36t-37 15t-36.5 -15t-14.5 -36t15 -36.5t36 -15.5q22 0 37 15.5t15 36.5z" />
    <glyph glyph-name="ae" unicode="&#xe6;" horiz-adv-x="812" 
d="M779 214h-342q0 -73 34 -117q36 -47 101 -47q44 0 75.5 28t39.5 72l84 -13q-14 -54 -55 -93q-62 -59 -154 -59q-121 0 -177 99q-77 -99 -191 -99q-67 0 -114 35t-47 98q0 44 25 78.5t66 52.5q54 23 160 23h73v19q0 55 -31.5 94.5t-83.5 39.5q-40 0 -69 -24.5t-32 -70.5
l-84 6q5 41 20 68q18 32 58.5 57t104.5 25q111 0 159 -84q58 84 162 84q98 0 160 -76q58 -73 58 -191v-5zM436 272h258q-3 62 -36 101q-39 47 -96 47q-62 0 -99 -56q-27 -40 -27 -92zM357 214h-63q-78 0 -128 -24t-50 -69q0 -27 23.5 -50t70.5 -23q69 0 108 49t39 107v10z
" />
    <glyph glyph-name="ccedilla" unicode="&#xe7;" horiz-adv-x="521" 
d="M408 178l86 -8q-35 -178 -201 -183l-18 -30q1 -1 11 -5.5t17 -9.5t16 -13t14 -20t5 -26q0 -38 -34 -62t-93 -24v23q2 -1 7 -1q22 0 33.5 11t11.5 25q0 12 -7.5 21t-14 13t-22 9.5t-16.5 5.5l52 82q-101 4 -158.5 72t-57.5 174q0 111 59.5 182.5t169.5 71.5
q97 0 151.5 -48.5t65.5 -109.5l-88 -8q-9 52 -42.5 80t-85.5 28q-61 0 -101.5 -45.5t-40.5 -145.5q0 -86 38 -138t109 -52q118 0 134 131z" />
    <glyph glyph-name="egrave" unicode="&#xe8;" horiz-adv-x="521" 
d="M125 221v-6q0 -65 38 -117.5t115 -52.5q55 0 84.5 33.5t39.5 76.5l81 -11q-53 -159 -213 -159q-97 0 -164 62.5t-67 192.5q0 64 21.5 113.5t56 77t73 41.5t77.5 14q88 0 152 -62.5t64 -189.5v-13h-358zM127 279h269q0 60 -38 102.5t-97 42.5q-60 0 -94 -41.5t-40 -103.5z
M303 521h-48l-83 144h89z" />
    <glyph glyph-name="eacute" unicode="&#xe9;" horiz-adv-x="521" 
d="M125 221v-6q0 -65 38 -117.5t115 -52.5q55 0 84.5 33.5t39.5 76.5l81 -11q-53 -159 -213 -159q-97 0 -164 62.5t-67 192.5q0 64 21.5 113.5t56 77t73 41.5t77.5 14q88 0 152 -62.5t64 -189.5v-13h-358zM127 279h269q0 60 -38 102.5t-97 42.5q-60 0 -94 -41.5t-40 -103.5z
M355 666l-86 -144h-41l41 144h86z" />
    <glyph glyph-name="ecircumflex" unicode="&#xea;" horiz-adv-x="521" 
d="M125 221v-6q0 -65 38 -117.5t115 -52.5q55 0 84.5 33.5t39.5 76.5l81 -11q-53 -159 -213 -159q-97 0 -164 62.5t-67 192.5q0 64 21.5 113.5t56 77t73 41.5t77.5 14q88 0 152 -62.5t64 -189.5v-13h-358zM127 279h269q0 60 -38 102.5t-97 42.5q-60 0 -94 -41.5t-40 -103.5z
M396 523h-75l-61 95l-59 -95h-70l94 151h67z" />
    <glyph glyph-name="edieresis" unicode="&#xeb;" horiz-adv-x="521" 
d="M125 221v-6q0 -65 38 -117.5t115 -52.5q55 0 84.5 33.5t39.5 76.5l81 -11q-53 -159 -213 -159q-97 0 -164 62.5t-67 192.5q0 64 21.5 113.5t56 77t73 41.5t77.5 14q88 0 152 -62.5t64 -189.5v-13h-358zM127 279h269q0 60 -38 102.5t-97 42.5q-60 0 -94 -41.5t-40 -103.5z
M415 541h-89v103h89v-103zM217 541h-87v103h87v-103z" />
    <glyph glyph-name="igrave" unicode="&#xec;" horiz-adv-x="208" 
d="M144 0h-77v471h77v-471zM147 521h-48l-83 144h89z" />
    <glyph glyph-name="iacute" unicode="&#xed;" horiz-adv-x="208" 
d="M144 0h-77v471h77v-471zM196 666l-86 -144h-41l41 144h86z" />
    <glyph glyph-name="icircumflex" unicode="&#xee;" horiz-adv-x="208" 
d="M144 0h-77v471h77v-471zM240 523h-75l-61 95l-59 -95h-70l94 151h67z" />
    <glyph glyph-name="idieresis" unicode="&#xef;" horiz-adv-x="208" 
d="M144 0h-77v471h77v-471zM248 541h-89v103h89v-103zM50 541h-87v103h87v-103z" />
    <glyph glyph-name="eth" unicode="&#xf0;" horiz-adv-x="542" 
d="M461 664l19 -47l-74 -24q96 -153 96 -345q0 -45 -11 -87t-35 -83.5t-72 -67t-114 -25.5q-60 0 -105 21.5t-68 50t-37 67t-17 63.5t-3 48q0 68 21 119.5t56 78.5t72.5 40t77.5 13q79 0 134 -57q-20 88 -60 143l-178 -58l-18 45l165 55q-13 17 -71 75l62 29q21 -19 75 -83z
M127 231q0 -76 35.5 -129t109.5 -53q64 0 104 47t40 147q0 92 -39 135.5t-100 43.5q-43 0 -74 -17.5t-46.5 -47t-22.5 -60.5t-7 -66z" />
    <glyph glyph-name="ntilde" unicode="&#xf1;" horiz-adv-x="521" 
d="M455 0h-79v309q0 51 -31 76.5t-76 25.5q-52 0 -88.5 -35.5t-36.5 -96.5v-279h-80v471h80v-69q19 33 56 58.5t92 25.5q16 0 35 -3.5t49.5 -19t49.5 -42.5q29 -41 29 -123v-298zM349 635h50q-3 -27 -8.5 -46t-23.5 -36.5t-46 -17.5q-22 0 -64.5 17t-56.5 17
q-16 0 -23.5 -11t-7.5 -19h-49q12 99 82 99q23 0 64 -16.5t54 -16.5q29 0 29 30z" />
    <glyph glyph-name="ograve" unicode="&#xf2;" horiz-adv-x="542" 
d="M40 235q0 27 5 55.5t20.5 65t40.5 64.5t69.5 47t102.5 19q91 0 157.5 -63.5t66.5 -182.5q0 -122 -65.5 -188.5t-165.5 -66.5q-102 0 -166.5 66t-64.5 184zM127 231q0 -20 2.5 -40.5t11.5 -47.5t24 -46.5t42 -33.5t63 -14q71 0 108.5 52t37.5 145q0 72 -33 124t-106 52
q-42 0 -72.5 -18t-45 -40t-22.5 -53.5t-9 -47t-1 -32.5zM306 521h-48l-83 144h89z" />
    <glyph glyph-name="oacute" unicode="&#xf3;" horiz-adv-x="542" 
d="M40 235q0 27 5 55.5t20.5 65t40.5 64.5t69.5 47t102.5 19q91 0 157.5 -63.5t66.5 -182.5q0 -122 -65.5 -188.5t-165.5 -66.5q-102 0 -166.5 66t-64.5 184zM127 231q0 -20 2.5 -40.5t11.5 -47.5t24 -46.5t42 -33.5t63 -14q71 0 108.5 52t37.5 145q0 72 -33 124t-106 52
q-42 0 -72.5 -18t-45 -40t-22.5 -53.5t-9 -47t-1 -32.5zM370 666l-86 -144h-41l41 144h86z" />
    <glyph glyph-name="ocircumflex" unicode="&#xf4;" horiz-adv-x="542" 
d="M40 235q0 27 5 55.5t20.5 65t40.5 64.5t69.5 47t102.5 19q91 0 157.5 -63.5t66.5 -182.5q0 -122 -65.5 -188.5t-165.5 -66.5q-102 0 -166.5 66t-64.5 184zM127 231q0 -20 2.5 -40.5t11.5 -47.5t24 -46.5t42 -33.5t63 -14q71 0 108.5 52t37.5 145q0 72 -33 124t-106 52
q-42 0 -72.5 -18t-45 -40t-22.5 -53.5t-9 -47t-1 -32.5zM407 523h-75l-61 95l-59 -95h-70l94 151h67z" />
    <glyph glyph-name="otilde" unicode="&#xf5;" horiz-adv-x="542" 
d="M40 235q0 27 5 55.5t20.5 65t40.5 64.5t69.5 47t102.5 19q91 0 157.5 -63.5t66.5 -182.5q0 -122 -65.5 -188.5t-165.5 -66.5q-102 0 -166.5 66t-64.5 184zM127 231q0 -20 2.5 -40.5t11.5 -47.5t24 -46.5t42 -33.5t63 -14q71 0 108.5 52t37.5 145q0 72 -33 124t-106 52
q-42 0 -72.5 -18t-45 -40t-22.5 -53.5t-9 -47t-1 -32.5zM361 635h50q-3 -27 -8.5 -46t-23.5 -36.5t-46 -17.5q-22 0 -64.5 17t-56.5 17q-16 0 -23.5 -11t-7.5 -19h-49q12 99 82 99q23 0 64 -16.5t54 -16.5q29 0 29 30z" />
    <glyph glyph-name="odieresis" unicode="&#xf6;" horiz-adv-x="542" 
d="M40 235q0 27 5 55.5t20.5 65t40.5 64.5t69.5 47t102.5 19q91 0 157.5 -63.5t66.5 -182.5q0 -122 -65.5 -188.5t-165.5 -66.5q-102 0 -166.5 66t-64.5 184zM127 231q0 -20 2.5 -40.5t11.5 -47.5t24 -46.5t42 -33.5t63 -14q71 0 108.5 52t37.5 145q0 72 -33 124t-106 52
q-42 0 -72.5 -18t-45 -40t-22.5 -53.5t-9 -47t-1 -32.5zM418 541h-89v103h89v-103zM220 541h-87v103h87v-103z" />
    <glyph glyph-name="divide" unicode="&#xf7;" horiz-adv-x="724" 
d="M407 409h-89v110h89v-110zM645 260h-566v81h566v-81zM407 82h-89v110h89v-110z" />
    <glyph glyph-name="oslash" unicode="&#xf8;" horiz-adv-x="542" 
d="M471 468l35 -36l-46 -46q43 -67 43 -152q0 -51 -15 -95q-8 -23 -21.5 -45t-38.5 -49t-66 -43.5t-92 -16.5q-96 0 -157 64l-40 -40l-35 36l43 42q-40 65 -40 146q0 60 20 109q27 66 84 105t128 39q85 0 154 -61zM142 148l231 224q-47 50 -104 50q-60 0 -102 -49t-42 -131
q0 -51 17 -94zM401 328l-232 -225q36 -54 104 -54q63 0 105.5 48t42.5 133q0 59 -20 98z" />
    <glyph glyph-name="ugrave" unicode="&#xf9;" horiz-adv-x="521" 
d="M454 0h-79v72q-26 -39 -69.5 -61.5t-90.5 -22.5q-88 0 -126 62q-24 40 -24 118v303h79v-268q0 -72 11 -95q23 -45 86 -45q75 0 112 54q23 34 23 113v241h78v-471zM295 521h-48l-83 144h89z" />
    <glyph glyph-name="uacute" unicode="&#xfa;" horiz-adv-x="521" 
d="M454 0h-79v72q-26 -39 -69.5 -61.5t-90.5 -22.5q-88 0 -126 62q-24 40 -24 118v303h79v-268q0 -72 11 -95q23 -45 86 -45q75 0 112 54q23 34 23 113v241h78v-471zM360 666l-86 -144h-41l41 144h86z" />
    <glyph glyph-name="ucircumflex" unicode="&#xfb;" horiz-adv-x="521" 
d="M454 0h-79v72q-26 -39 -69.5 -61.5t-90.5 -22.5q-88 0 -126 62q-24 40 -24 118v303h79v-268q0 -72 11 -95q23 -45 86 -45q75 0 112 54q23 34 23 113v241h78v-471zM396 523h-75l-61 95l-59 -95h-70l94 151h67z" />
    <glyph glyph-name="udieresis" unicode="&#xfc;" horiz-adv-x="521" 
d="M454 0h-79v72q-26 -39 -69.5 -61.5t-90.5 -22.5q-88 0 -126 62q-24 40 -24 118v303h79v-268q0 -72 11 -95q23 -45 86 -45q75 0 112 54q23 34 23 113v241h78v-471zM401 541h-89v103h89v-103zM203 541h-87v103h87v-103z" />
    <glyph glyph-name="yacute" unicode="&#xfd;" horiz-adv-x="437" 
d="M342 471h83l-198 -557q-30 -85 -59 -116t-88 -31q-35 0 -71 10v72q24 -8 53 -8q35 0 53.5 19.5t38.5 78.5l20 58l-160 474h85l118 -374zM323 666l-86 -144h-41l41 144h86z" />
    <glyph glyph-name="thorn" unicode="&#xfe;" horiz-adv-x="562" 
d="M65 706h78v-303q70 83 169 83q34 0 68.5 -13.5t67.5 -41t54 -78t21 -116.5q0 -106 -56.5 -179t-163.5 -73q-105 0 -160 70v-279h-78v930zM143 225q0 -72 37.5 -121t111.5 -49q71 0 110 47.5t39 133.5q0 72 -36 123.5t-109 51.5q-66 0 -109.5 -47t-43.5 -139z" />
    <glyph glyph-name="ydieresis" unicode="&#xff;" horiz-adv-x="437" 
d="M342 471h83l-198 -557q-30 -85 -59 -116t-88 -31q-35 0 -71 10v72q24 -8 53 -8q35 0 53.5 19.5t38.5 78.5l20 58l-160 474h85l118 -374zM363 541h-89v103h89v-103zM165 541h-87v103h87v-103z" />
    <glyph glyph-name="Amacron" unicode="&#x100;" horiz-adv-x="646" 
d="M634 0h-99l-77 216h-269l-79 -216h-100l269 706h98zM430 295l-103 295l-108 -295h211zM471 781h-285v68h285v-68z" />
    <glyph glyph-name="amacron" unicode="&#x101;" horiz-adv-x="500" 
d="M346 282v16q0 19 -1 31t-6.5 32t-15.5 32.5t-31 22t-51 9.5q-49 0 -75.5 -24t-26.5 -68v-7l-83 5q0 11 2.5 25.5t13.5 38.5t29 43t53.5 33.5t82.5 14.5q71 0 118 -28q46 -26 58.5 -62.5t12.5 -108.5v-166q0 -18 1.5 -27.5t10 -18.5t24.5 -9q6 0 24 4v-67q-27 -9 -51 -9
q-33 0 -50 12q-13 10 -22 28t-10 30q-71 -77 -161 -77q-71 0 -115.5 37.5t-44.5 97.5q0 63 51 102q59 44 191 53zM347 230q-145 -23 -169 -34q-58 -23 -58 -72q0 -29 22.5 -49.5t66.5 -20.5q20 0 40.5 5t44 18.5t38.5 43.5t15 72v37zM392 541h-285v68h285v-68z" />
    <glyph glyph-name="Abreve" unicode="&#x102;" horiz-adv-x="646" 
d="M634 0h-99l-77 216h-269l-79 -216h-100l269 706h98zM430 295l-103 295l-108 -295h211zM408 880h52q0 -40 -39.5 -74.5t-92.5 -34.5q-49 0 -90 30.5t-42 78.5h50q8 -23 31 -34.5t52 -11.5q31 0 52.5 14t26.5 32z" />
    <glyph glyph-name="abreve" unicode="&#x103;" horiz-adv-x="500" 
d="M346 282v16q0 19 -1 31t-6.5 32t-15.5 32.5t-31 22t-51 9.5q-49 0 -75.5 -24t-26.5 -68v-7l-83 5q0 11 2.5 25.5t13.5 38.5t29 43t53.5 33.5t82.5 14.5q71 0 118 -28q46 -26 58.5 -62.5t12.5 -108.5v-166q0 -18 1.5 -27.5t10 -18.5t24.5 -9q6 0 24 4v-67q-27 -9 -51 -9
q-33 0 -50 12q-13 10 -22 28t-10 30q-71 -77 -161 -77q-71 0 -115.5 37.5t-44.5 97.5q0 63 51 102q59 44 191 53zM347 230q-145 -23 -169 -34q-58 -23 -58 -72q0 -29 22.5 -49.5t66.5 -20.5q20 0 40.5 5t44 18.5t38.5 43.5t15 72v37zM128 654h50q8 -29 29.5 -46t48.5 -17
q26 0 47 18t27 46h52q0 -41 -35 -85.5t-93 -44.5q-54 0 -90 38t-36 91z" />
    <glyph glyph-name="Aogonek" unicode="&#x104;" horiz-adv-x="646" 
d="M634 0h-17q-25 -10 -45 -31t-20 -44q0 -38 61 -38h12v-74h-9q-74 0 -111.5 14t-37.5 59q0 34 15.5 57t52.5 57l-77 216h-269l-79 -216h-100l269 706h98zM430 295l-103 295l-108 -295h211z" />
    <glyph glyph-name="aogonek" unicode="&#x105;" horiz-adv-x="500" 
d="M486 70v-67q-27 -9 -54 -9q-21 -10 -38 -28.5t-17 -40.5q0 -38 61 -38h12v-74h-9q-74 0 -111.5 14t-37.5 59q0 35 17.5 59t67.5 69q-22 24 -24 50q-71 -77 -161 -77q-71 0 -115.5 37.5t-44.5 97.5q0 63 51 102q59 44 191 53l72 5v16q0 19 -1 31t-6.5 32t-15.5 32.5
t-31 22t-51 9.5q-49 0 -75.5 -24t-26.5 -68v-7l-83 5q0 11 2.5 25.5t13.5 38.5t29 43t53.5 33.5t82.5 14.5q71 0 118 -28q46 -26 58.5 -62t12.5 -109v-166q0 -18 1.5 -27.5t10 -18.5t24.5 -9q6 0 24 4zM347 193v37q-145 -23 -169 -34q-58 -23 -58 -72q0 -29 22.5 -49.5
t66.5 -20.5q20 0 40.5 5t44 18.5t38.5 43.5t15 72z" />
    <glyph glyph-name="Cacute" unicode="&#x106;" horiz-adv-x="764" 
d="M640 268l102 -12q-10 -47 -34 -92t-64.5 -87.5t-105.5 -68.5t-144 -26q-158 0 -251.5 102t-93.5 269t95.5 269t261.5 102q124 0 205 -56t117 -160l-95 -19q-21 67 -78.5 113.5t-149.5 46.5q-119 0 -185.5 -79.5t-66.5 -211.5q0 -145 70.5 -221t182.5 -76q88 0 153 52.5
t81 154.5zM492 895l-87 -124h-60l48 124h99z" />
    <glyph glyph-name="cacute" unicode="&#x107;" horiz-adv-x="521" 
d="M408 178l86 -8q-35 -185 -222 -185q-109 0 -171 68.5t-62 178.5q0 111 59.5 182.5t169.5 71.5q97 0 151.5 -48.5t65.5 -109.5l-88 -8q-9 52 -42.5 80t-85.5 28q-61 0 -101.5 -45.5t-40.5 -145.5q0 -86 38 -138t109 -52q118 0 134 131zM349 666l-86 -144h-41l41 144h86z
" />
    <glyph glyph-name="Ccircumflex" unicode="&#x108;" horiz-adv-x="764" 
d="M640 268l102 -12q-10 -47 -34 -92t-64.5 -87.5t-105.5 -68.5t-144 -26q-158 0 -251.5 102t-93.5 269t95.5 269t261.5 102q124 0 205 -56t117 -160l-95 -19q-21 67 -78.5 113.5t-149.5 46.5q-119 0 -185.5 -79.5t-66.5 -211.5q0 -145 70.5 -221t182.5 -76q88 0 153 52.5
t81 154.5zM538 771h-77l-62 74l-59 -74h-75l101 124h65z" />
    <glyph glyph-name="ccircumflex" unicode="&#x109;" horiz-adv-x="521" 
d="M408 178l86 -8q-35 -185 -222 -185q-109 0 -171 68.5t-62 178.5q0 111 59.5 182.5t169.5 71.5q97 0 151.5 -48.5t65.5 -109.5l-88 -8q-9 52 -42.5 80t-85.5 28q-61 0 -101.5 -45.5t-40.5 -145.5q0 -86 38 -138t109 -52q118 0 134 131zM403 523h-75l-61 95l-59 -95h-70
l94 151h67z" />
    <glyph glyph-name="Cdotaccent" unicode="&#x10a;" horiz-adv-x="764" 
d="M640 268l102 -12q-10 -47 -34 -92t-64.5 -87.5t-105.5 -68.5t-144 -26q-158 0 -251.5 102t-93.5 269t95.5 269t261.5 102q124 0 205 -56t117 -160l-95 -19q-21 67 -78.5 113.5t-149.5 46.5q-119 0 -185.5 -79.5t-66.5 -211.5q0 -145 70.5 -221t182.5 -76q88 0 153 52.5
t81 154.5zM447 781h-87v99h87v-99z" />
    <glyph glyph-name="cdotaccent" unicode="&#x10b;" horiz-adv-x="521" 
d="M408 178l86 -8q-35 -185 -222 -185q-109 0 -171 68.5t-62 178.5q0 111 59.5 182.5t169.5 71.5q97 0 151.5 -48.5t65.5 -109.5l-88 -8q-9 52 -42.5 80t-85.5 28q-61 0 -101.5 -45.5t-40.5 -145.5q0 -86 38 -138t109 -52q118 0 134 131zM319 541h-87v99h87v-99z" />
    <glyph glyph-name="Ccaron" unicode="&#x10c;" horiz-adv-x="764" 
d="M640 268l102 -12q-10 -47 -34 -92t-64.5 -87.5t-105.5 -68.5t-144 -26q-158 0 -251.5 102t-93.5 269t95.5 269t261.5 102q124 0 205 -56t117 -160l-95 -19q-21 67 -78.5 113.5t-149.5 46.5q-119 0 -185.5 -79.5t-66.5 -211.5q0 -145 70.5 -221t182.5 -76q88 0 153 52.5
t81 154.5zM530 895l-101 -124h-66l-105 124h76l62 -77l59 77h75z" />
    <glyph glyph-name="ccaron" unicode="&#x10d;" horiz-adv-x="521" 
d="M408 178l86 -8q-35 -185 -222 -185q-109 0 -171 68.5t-62 178.5q0 111 59.5 182.5t169.5 71.5q97 0 151.5 -48.5t65.5 -109.5l-88 -8q-9 52 -42.5 80t-85.5 28q-61 0 -101.5 -45.5t-40.5 -145.5q0 -86 38 -138t109 -52q118 0 134 131zM398 673l-96 -151h-67l-102 151h74
l61 -96l59 96h71z" />
    <glyph glyph-name="Dcaron" unicode="&#x10e;" horiz-adv-x="708" 
d="M78 706h280q133 0 216.5 -92t83.5 -262q0 -71 -16 -130t-51.5 -111t-101.5 -81.5t-158 -29.5h-253v706zM175 623v-541h167q108 0 164 71.5t56 199.5q0 122 -55.5 196t-169.5 74h-162zM438 895l-101 -124h-66l-105 124h76l62 -77l59 77h75z" />
    <glyph glyph-name="dcaron" unicode="&#x10f;" horiz-adv-x="562" 
d="M497 0h-80v60q-64 -75 -161 -75q-101 0 -159 70t-58 182q0 65 20 115.5t52.5 78.5t69 41.5t74.5 13.5q57 0 101 -25t61 -52v297h80v-706zM125 234q0 -73 34.5 -125.5t112.5 -52.5q61 0 104 43.5t43 142.5q0 74 -39.5 122.5t-105.5 48.5q-75 0 -112 -52t-37 -127zM532 706
h75v-38q0 -49 -6.5 -78.5t-23.5 -76.5h-36q20 52 24 110h-33v83z" />
    <glyph glyph-name="Dcroat" unicode="&#x110;" horiz-adv-x="708" 
d="M78 706h248q88 0 133 -15q92 -32 145.5 -118t53.5 -227q0 -17 -0.5 -32.5t-5.5 -47.5t-13 -58.5t-25 -59.5t-40.5 -58.5t-61 -47.5t-83.5 -33q-42 -9 -107 -9h-244v341h-65v60h65v305zM175 623v-222h168v-60h-168v-259h125q90 0 132 17q61 25 95.5 88.5t34.5 161.5
q0 223 -153 264q-39 10 -108 10h-126z" />
    <glyph glyph-name="dcroat" unicode="&#x111;" horiz-adv-x="562" 
d="M497 0h-80v60q-64 -75 -161 -75q-101 0 -159 70t-58 182q0 65 20 115.5t52.5 78.5t69 41.5t74.5 13.5q57 0 101 -25t61 -52v153h-156v59h156v85h80v-85h65v-59h-65v-562zM125 234q0 -73 34.5 -125.5t112.5 -52.5q61 0 104 43.5t43 142.5q0 74 -39.5 122.5t-105.5 48.5
q-75 0 -112 -52t-37 -127z" />
    <glyph glyph-name="Emacron" unicode="&#x112;" horiz-adv-x="604" 
d="M577 0h-498v706h486v-83h-396v-218h344v-82h-344v-241h408v-82zM465 781h-285v68h285v-68z" />
    <glyph glyph-name="emacron" unicode="&#x113;" horiz-adv-x="521" 
d="M125 221v-6q0 -65 38 -117.5t115 -52.5q55 0 84.5 33.5t39.5 76.5l81 -11q-53 -159 -213 -159q-97 0 -164 62.5t-67 192.5q0 64 21.5 113.5t56 77t73 41.5t77.5 14q88 0 152 -62.5t64 -189.5v-13h-358zM127 279h269q0 60 -38 102.5t-97 42.5q-60 0 -94 -41.5t-40 -103.5z
M404 541h-285v68h285v-68z" />
    <glyph glyph-name="Ebreve" unicode="&#x114;" horiz-adv-x="604" 
d="M577 0h-498v706h486v-83h-396v-218h344v-82h-344v-241h408v-82zM401 880h52q0 -40 -39.5 -74.5t-92.5 -34.5q-49 0 -90 30.5t-42 78.5h50q8 -23 31.5 -34.5t51.5 -11.5q31 0 52.5 14t26.5 32z" />
    <glyph glyph-name="ebreve" unicode="&#x115;" horiz-adv-x="521" 
d="M125 221v-6q0 -65 38 -117.5t115 -52.5q55 0 84.5 33.5t39.5 76.5l81 -11q-53 -159 -213 -159q-97 0 -164 62.5t-67 192.5q0 64 21.5 113.5t56 77t73 41.5t77.5 14q88 0 152 -62.5t64 -189.5v-13h-358zM127 279h269q0 60 -38 102.5t-97 42.5q-60 0 -94 -41.5t-40 -103.5z
M137 654h50q8 -29 29.5 -46t48.5 -17q26 0 47 18t27 46h52q0 -41 -35 -85.5t-93 -44.5q-54 0 -90 38t-36 91z" />
    <glyph glyph-name="Edotaccent" unicode="&#x116;" horiz-adv-x="604" 
d="M577 0h-498v706h486v-83h-396v-218h344v-82h-344v-241h408v-82zM371 781h-87v99h87v-99z" />
    <glyph glyph-name="edotaccent" unicode="&#x117;" horiz-adv-x="521" 
d="M125 221v-6q0 -65 38 -117.5t115 -52.5q55 0 84.5 33.5t39.5 76.5l81 -11q-53 -159 -213 -159q-97 0 -164 62.5t-67 192.5q0 64 21.5 113.5t56 77t73 41.5t77.5 14q88 0 152 -62.5t64 -189.5v-13h-358zM127 279h269q0 60 -38 102.5t-97 42.5q-60 0 -94 -41.5t-40 -103.5z
M303 541h-87v99h87v-99z" />
    <glyph glyph-name="Eogonek" unicode="&#x118;" horiz-adv-x="604" 
d="M577 0h-29q-27 -12 -46 -32t-19 -43q0 -38 61 -38h12v-74h-9q-74 0 -111.5 14t-37.5 59q0 34 15.5 57t52.5 57h-387v706h486v-83h-396v-218h344v-82h-344v-241h408v-82z" />
    <glyph glyph-name="eogonek" unicode="&#x119;" horiz-adv-x="521" 
d="M483 221h-358v-6q0 -65 38 -117.5t115 -52.5q55 0 84.5 33.5t39.5 76.5l81 -11q-32 -91 -99 -131q-82 -48 -82 -88q0 -38 61 -38h12v-74h-9q-74 0 -111.5 14t-37.5 59q0 30 13 52t40 47q-98 0 -164.5 62.5t-66.5 192.5q0 64 21.5 113.5t56 77t73 41.5t77.5 14
q88 0 152 -62.5t64 -189.5v-13zM127 279h269q0 60 -38 102.5t-97 42.5q-60 0 -94 -41.5t-40 -103.5z" />
    <glyph glyph-name="Ecaron" unicode="&#x11a;" horiz-adv-x="604" 
d="M577 0h-498v706h486v-83h-396v-218h344v-82h-344v-241h408v-82zM460 895l-101 -124h-66l-105 124h76l62 -77l59 77h75z" />
    <glyph glyph-name="ecaron" unicode="&#x11b;" horiz-adv-x="521" 
d="M125 221v-6q0 -65 38 -117.5t115 -52.5q55 0 84.5 33.5t39.5 76.5l81 -11q-53 -159 -213 -159q-97 0 -164 62.5t-67 192.5q0 64 21.5 113.5t56 77t73 41.5t77.5 14q88 0 152 -62.5t64 -189.5v-13h-358zM127 279h269q0 60 -38 102.5t-97 42.5q-60 0 -94 -41.5t-40 -103.5z
M392 673l-96 -151h-67l-102 151h74l61 -96l59 96h71z" />
    <glyph glyph-name="Gcircumflex" unicode="&#x11c;" horiz-adv-x="812" 
d="M741 0h-82v99q-26 -44 -92 -80.5t-166 -36.5q-157 0 -254 101t-97 261q0 175 103 277.5t261 102.5q46 0 89.5 -10t88.5 -32t84 -63.5t65 -99.5l-98 -25q-22 72 -82 112t-144 40q-66 0 -117.5 -25t-82.5 -66.5t-47 -92.5t-16 -107q0 -143 75.5 -217t185.5 -74
q102 0 173 59.5t71 160.5v10h-246v79h328v-373zM555 771h-77l-62 74l-59 -74h-75l101 124h65z" />
    <glyph glyph-name="gcircumflex" unicode="&#x11d;" horiz-adv-x="562" 
d="M497 471v-480q0 -63 -18 -107.5t-50.5 -68t-69.5 -34t-82 -10.5q-87 0 -146.5 44.5t-67.5 130.5h90q0 -54 35.5 -82t94.5 -28q72 0 101.5 35.5t29.5 106.5v91q-61 -84 -155 -84q-93 0 -155.5 66.5t-62.5 181.5q0 45 11 86.5t34.5 80.5t68.5 62.5t105 23.5q86 0 154 -79
v64h83zM417 242q0 80 -41 126t-107 46q-64 0 -105 -47t-41 -132q0 -79 37.5 -128.5t111.5 -49.5q73 0 109 51.5t36 133.5zM394 523h-75l-61 95l-59 -95h-70l94 151h67z" />
    <glyph glyph-name="Gbreve" unicode="&#x11e;" horiz-adv-x="812" 
d="M741 0h-82v99q-26 -44 -92 -80.5t-166 -36.5q-157 0 -254 101t-97 261q0 175 103 277.5t261 102.5q46 0 89.5 -10t88.5 -32t84 -63.5t65 -99.5l-98 -25q-22 72 -82 112t-144 40q-66 0 -117.5 -25t-82.5 -66.5t-47 -92.5t-16 -107q0 -143 75.5 -217t185.5 -74
q102 0 173 59.5t71 160.5v10h-246v79h328v-373zM486 880h52q0 -40 -39.5 -74.5t-92.5 -34.5q-49 0 -90 30.5t-42 78.5h50q8 -23 31 -34.5t52 -11.5q31 0 52.5 14t26.5 32z" />
    <glyph glyph-name="gbreve" unicode="&#x11f;" horiz-adv-x="562" 
d="M497 471v-480q0 -63 -18 -107.5t-50.5 -68t-69.5 -34t-82 -10.5q-87 0 -146.5 44.5t-67.5 130.5h90q0 -54 35.5 -82t94.5 -28q72 0 101.5 35.5t29.5 106.5v91q-61 -84 -155 -84q-93 0 -155.5 66.5t-62.5 181.5q0 45 11 86.5t34.5 80.5t68.5 62.5t105 23.5q86 0 154 -79
v64h83zM417 242q0 80 -41 126t-107 46q-64 0 -105 -47t-41 -132q0 -79 37.5 -128.5t111.5 -49.5q73 0 109 51.5t36 133.5zM134 654h50q8 -29 29.5 -46t48.5 -17q26 0 47 18t27 46h52q0 -41 -35 -85.5t-93 -44.5q-54 0 -90 38t-36 91z" />
    <glyph glyph-name="Gdotaccent" unicode="&#x120;" horiz-adv-x="812" 
d="M741 0h-82v99q-26 -44 -92 -80.5t-166 -36.5q-157 0 -254 101t-97 261q0 175 103 277.5t261 102.5q46 0 89.5 -10t88.5 -32t84 -63.5t65 -99.5l-98 -25q-22 72 -82 112t-144 40q-66 0 -117.5 -25t-82.5 -66.5t-47 -92.5t-16 -107q0 -143 75.5 -217t185.5 -74
q102 0 173 59.5t71 160.5v10h-246v79h328v-373zM449 781h-87v99h87v-99z" />
    <glyph glyph-name="gdotaccent" unicode="&#x121;" horiz-adv-x="562" 
d="M497 471v-480q0 -63 -18 -107.5t-50.5 -68t-69.5 -34t-82 -10.5q-87 0 -146.5 44.5t-67.5 130.5h90q0 -54 35.5 -82t94.5 -28q72 0 101.5 35.5t29.5 106.5v91q-61 -84 -155 -84q-93 0 -155.5 66.5t-62.5 181.5q0 45 11 86.5t34.5 80.5t68.5 62.5t105 23.5q86 0 154 -79
v64h83zM417 242q0 80 -41 126t-107 46q-64 0 -105 -47t-41 -132q0 -79 37.5 -128.5t111.5 -49.5q73 0 109 51.5t36 133.5zM306 541h-87v99h87v-99z" />
    <glyph glyph-name="Gcommaaccent" unicode="&#x122;" horiz-adv-x="812" 
d="M741 0h-82v99q-26 -44 -92 -80.5t-166 -36.5q-157 0 -254 101t-97 261q0 175 103 277.5t261 102.5q46 0 89.5 -10t88.5 -32t84 -63.5t65 -99.5l-98 -25q-22 72 -82 112t-144 40q-66 0 -117.5 -25t-82.5 -66.5t-47 -92.5t-16 -107q0 -143 75.5 -217t185.5 -74
q102 0 173 59.5t71 160.5v10h-246v79h328v-373zM369 -38h80v-31q0 -59 -29 -113h-39q17 33 20 69h-32v75z" />
    <glyph glyph-name="gcommaaccent" unicode="&#x123;" horiz-adv-x="562" 
d="M497 471v-480q0 -63 -18 -107.5t-50.5 -68t-69.5 -34t-82 -10.5q-87 0 -146.5 44.5t-67.5 130.5h90q0 -54 35.5 -82t94.5 -28q72 0 101.5 35.5t29.5 106.5v91q-61 -84 -155 -84q-93 0 -155.5 66.5t-62.5 181.5q0 45 11 86.5t34.5 80.5t68.5 62.5t105 23.5q86 0 154 -79
v64h83zM417 242q0 80 -41 126t-107 46q-64 0 -105 -47t-41 -132q0 -79 37.5 -128.5t111.5 -49.5q73 0 109 51.5t36 133.5zM309 522h-80v31q0 59 29 113h39q-17 -33 -20 -69h32v-75z" />
    <glyph glyph-name="Hcircumflex" unicode="&#x124;" horiz-adv-x="729" 
d="M651 0h-95v323h-384v-323h-93v706h93v-300h384v300h95v-706zM501 771h-77l-62 74l-59 -74h-75l101 124h65z" />
    <glyph glyph-name="hcircumflex" unicode="&#x125;" horiz-adv-x="521" 
d="M458 0h-81v276q0 52 -9 78q-22 62 -95 62q-70 0 -105 -59q-22 -38 -22 -123v-234h-80v706h80v-283q58 63 143 63q169 0 169 -181v-305zM239 771h-77l-62 74l-59 -74h-75l101 124h65z" />
    <glyph glyph-name="Hbar" unicode="&#x126;" horiz-adv-x="729" 
d="M651 0h-95v323h-384v-323h-93v523h-64v73h64v110h93v-110h384v110h95v-110h62v-73h-62v-523zM172 406h384v117h-384v-117z" />
    <glyph glyph-name="hbar" unicode="&#x127;" horiz-adv-x="521" 
d="M0 621h66v85h80v-85h156v-59h-156v-139q58 63 143 63q169 0 169 -181v-305h-81v276q0 52 -9 78q-22 62 -95 62q-70 0 -105 -59q-22 -38 -22 -123v-234h-80v562h-66v59z" />
    <glyph glyph-name="Itilde" unicode="&#x128;" horiz-adv-x="229" 
d="M162 0h-95v706h95v-706zM208 882h47q-14 -101 -78 -101q-24 0 -67 17.5t-58 17.5q-22 0 -30 -30h-48q4 34 14.5 56t25 30.5t23.5 10.5t21 2q23 0 61.5 -16.5t59.5 -16.5q13 0 18.5 6.5t10.5 23.5z" />
    <glyph glyph-name="itilde" unicode="&#x129;" horiz-adv-x="208" 
d="M144 0h-77v471h77v-471zM193 635h50q-3 -27 -8.5 -46t-23.5 -36.5t-46 -17.5q-22 0 -64.5 17t-56.5 17q-16 0 -23.5 -11t-7.5 -19h-49q12 99 82 99q23 0 64 -16.5t54 -16.5q29 0 29 30z" />
    <glyph glyph-name="uni012A" unicode="&#x12a;" horiz-adv-x="229" 
d="M162 0h-95v706h95v-706zM232 781h-235v68h235v-68z" />
    <glyph glyph-name="imacron" unicode="&#x12b;" horiz-adv-x="208" 
d="M144 0h-77v471h77v-471zM212 541h-216v68h216v-68z" />
    <glyph glyph-name="Ibreve" unicode="&#x12c;" horiz-adv-x="229" 
d="M162 0h-95v706h95v-706zM195 880h52q0 -40 -39.5 -74.5t-92.5 -34.5q-49 0 -90 30.5t-42 78.5h50q8 -23 31.5 -34.5t51.5 -11.5q31 0 52.5 14t26.5 32z" />
    <glyph glyph-name="uni012D" unicode="&#x12d;" horiz-adv-x="208" 
d="M144 0h-77v471h77v-471zM-23 654h50q8 -29 29.5 -46t48.5 -17q26 0 47 18t27 46h52q0 -41 -35 -85.5t-93 -44.5q-54 0 -90 38t-36 91z" />
    <glyph glyph-name="Iogonek" unicode="&#x12e;" horiz-adv-x="229" 
d="M67 706h95v-706q-57 -41 -57 -75q0 -38 61 -38h12v-74h-9q-74 0 -111.5 14t-37.5 59q0 34 15.5 57t52.5 57h-21v706z" />
    <glyph glyph-name="iogonek" unicode="&#x12f;" horiz-adv-x="208" 
d="M69 471h77v-471q-57 -42 -57 -74q0 -39 61 -39h12v-74h-9q-74 0 -111.5 14t-37.5 59q0 23 10 44t20.5 33.5t34.5 36.5v471zM146 614h-77v92h77v-92z" />
    <glyph glyph-name="Idotaccent" unicode="&#x130;" horiz-adv-x="229" 
d="M162 0h-95v706h95v-706zM158 781h-87v99h87v-99z" />
    <glyph glyph-name="dotlessi" unicode="&#x131;" horiz-adv-x="208" 
d="M144 0h-77v471h77v-471z" />
    <glyph glyph-name="IJ" unicode="&#x132;" horiz-adv-x="604" 
d="M162 0h-95v706h95v-706zM526 706v-519q0 -36 -1.5 -54t-10 -43t-26.5 -46q-53 -62 -154 -62q-44 0 -96 10v103q40 -20 93 -20q58 0 83 37q11 16 13.5 39.5t2.5 76.5v478h96z" />
    <glyph glyph-name="ij" unicode="&#x133;" horiz-adv-x="416" 
d="M146 614h-77v92h77v-92zM146 0h-77v471h77v-471zM351 613h-78v93h78v-93zM351 471v-575q0 -68 -25 -95q-28 -30 -81 -30q-33 0 -60 4v71q28 -3 36 -3q22 0 36 10q11 8 13.5 20.5t2.5 44.5v553h78z" />
    <glyph glyph-name="Jcircumflex" unicode="&#x134;" 
d="M297 706v-519q0 -36 -1.5 -54t-10 -43t-26.5 -46q-53 -62 -154 -62q-44 0 -96 10v103q40 -20 93 -20q58 0 83 37q11 16 13.5 39.5t2.5 76.5v478h96zM383 771h-77l-62 74l-59 -74h-75l101 124h65z" />
    <glyph glyph-name="jcircumflex" unicode="&#x135;" horiz-adv-x="208" 
d="M143 471v-575q0 -68 -25 -95q-28 -30 -81 -30q-33 0 -60 4v71q28 -3 36 -3q22 0 36 10q11 8 13.5 20.5t2.5 44.5v553h78zM237 523h-75l-61 95l-59 -95h-70l94 151h67z" />
    <glyph glyph-name="Kcommaaccent" unicode="&#x136;" horiz-adv-x="625" 
d="M624 0h-115l-248 348l-100 -102v-246h-94v706h94v-345l335 345h116l-286 -292zM289 -38h80v-31q0 -59 -29 -113h-39q17 33 20 69h-32v75z" />
    <glyph glyph-name="kcommaaccent" unicode="&#x137;" horiz-adv-x="458" 
d="M472 0h-100l-169 226l-57 -60v-166h-81v706h81v-435l188 200h98l-175 -186zM212 -38h80v-31q0 -59 -29 -113h-39q17 33 20 69h-32v75z" />
    <glyph glyph-name="kgreenlandic" unicode="&#x138;" horiz-adv-x="458" 
d="M472 0h-100l-169 226l-57 -60v-166h-81v471h81v-200l188 200h98l-175 -186z" />
    <glyph glyph-name="Lacute" unicode="&#x139;" horiz-adv-x="521" 
d="M504 0h-436v706h94v-622h342v-84zM215 895l-87 -124h-60l48 124h99z" />
    <glyph glyph-name="lacute" unicode="&#x13a;" horiz-adv-x="208" 
d="M143 0h-76v706h76v-706zM206 895l-87 -124h-60l48 124h99z" />
    <glyph glyph-name="Lcommaaccent" unicode="&#x13b;" horiz-adv-x="521" 
d="M504 0h-436v706h94v-622h342v-84zM249 -38h80v-31q0 -59 -29 -113h-39q17 33 20 69h-32v75z" />
    <glyph glyph-name="lcommaaccent" unicode="&#x13c;" horiz-adv-x="208" 
d="M143 0h-76v706h76v-706zM67 -38h80v-31q0 -59 -29 -113h-39q17 33 20 69h-32v75z" />
    <glyph glyph-name="Lcaron" unicode="&#x13d;" horiz-adv-x="521" 
d="M504 0h-436v706h94v-622h342v-84zM201 706h75v-38q0 -49 -6.5 -78.5t-23.5 -76.5h-36q20 52 24 110h-33v83z" />
    <glyph glyph-name="lcaron" unicode="&#x13e;" horiz-adv-x="208" 
d="M143 0h-76v706h76v-706zM178 706h75v-38q0 -49 -6.5 -78.5t-23.5 -76.5h-36q20 52 24 110h-33v83z" />
    <glyph glyph-name="Ldot" unicode="&#x13f;" horiz-adv-x="521" 
d="M504 0h-436v706h94v-622h342v-84zM399 322h-86v102h86v-102z" />
    <glyph glyph-name="ldot" unicode="&#x140;" horiz-adv-x="264" 
d="M143 0h-76v706h76v-706zM278 318h-80v98h80v-98z" />
    <glyph glyph-name="Lslash" unicode="&#x141;" horiz-adv-x="521" 
d="M504 0h-436v234l-63 -60v79l63 60v393h94v-306l154 141v-78l-154 -140v-239h342v-84z" />
    <glyph glyph-name="lslash" unicode="&#x142;" horiz-adv-x="208" 
d="M197 447l-54 -50v-397h-76v326l-56 -48v67l56 50v311h76v-238l54 49v-70z" />
    <glyph glyph-name="Nacute" unicode="&#x143;" horiz-adv-x="708" 
d="M630 0h-85l-387 574q9 -560 9 -574h-89v706h89l382 -566q-4 544 -4 566h85v-706zM461 895l-87 -124h-60l48 124h99z" />
    <glyph glyph-name="nacute" unicode="&#x144;" horiz-adv-x="521" 
d="M455 0h-79v309q0 51 -31 76.5t-76 25.5q-52 0 -88.5 -35.5t-36.5 -96.5v-279h-80v471h80v-69q19 33 56 58.5t92 25.5q16 0 35 -3.5t49.5 -19t49.5 -42.5q29 -41 29 -123v-298zM362 666l-86 -144h-41l41 144h86z" />
    <glyph glyph-name="Ncommaaccent" unicode="&#x145;" horiz-adv-x="708" 
d="M630 0h-85l-387 574q9 -560 9 -574h-89v706h89l382 -566q-4 544 -4 566h85v-706zM314 -38h80v-31q0 -59 -29 -113h-39q17 33 20 69h-32v75z" />
    <glyph glyph-name="ncommaaccent" unicode="&#x146;" horiz-adv-x="521" 
d="M455 0h-79v309q0 51 -31 76.5t-76 25.5q-52 0 -88.5 -35.5t-36.5 -96.5v-279h-80v471h80v-69q19 33 56 58.5t92 25.5q16 0 35 -3.5t49.5 -19t49.5 -42.5q29 -41 29 -123v-298zM221 -38h80v-31q0 -59 -29 -113h-39q17 33 20 69h-32v75z" />
    <glyph glyph-name="Ncaron" unicode="&#x147;" horiz-adv-x="708" 
d="M630 0h-85l-387 574q9 -560 9 -574h-89v706h89l382 -566q-4 544 -4 566h85v-706zM488 895l-101 -124h-66l-105 124h76l62 -77l59 77h75z" />
    <glyph glyph-name="ncaron" unicode="&#x148;" horiz-adv-x="521" 
d="M455 0h-79v309q0 51 -31 76.5t-76 25.5q-52 0 -88.5 -35.5t-36.5 -96.5v-279h-80v471h80v-69q19 33 56 58.5t92 25.5q16 0 35 -3.5t49.5 -19t49.5 -42.5q29 -41 29 -123v-298zM391 673l-96 -151h-67l-102 151h74l61 -96l59 96h71z" />
    <glyph glyph-name="napostrophe" unicode="&#x149;" horiz-adv-x="521" 
d="M455 0h-79v309q0 51 -31 76.5t-76 25.5q-52 0 -88.5 -35.5t-36.5 -96.5v-279h-80v471h80v-69q19 33 56 58.5t92 25.5q16 0 35 -3.5t49.5 -19t49.5 -42.5q29 -41 29 -123v-298zM23 706h75v-38q0 -49 -6.5 -78.5t-23.5 -76.5h-36q20 52 24 110h-33v83z" />
    <glyph glyph-name="Eng" unicode="&#x14a;" horiz-adv-x="708" 
d="M630 706v-765q0 -68 -26 -95q-29 -30 -80 -30q-30 0 -56 7v73q18 -6 34 -6q21 0 33 9q13 9 13 64v33l-390 578q9 -560 9 -574h-89v706h89l382 -566q-4 544 -4 566h85z" />
    <glyph glyph-name="eng" unicode="&#x14b;" horiz-adv-x="521" 
d="M144 0h-80v471h80v-69q19 33 56 58.5t92 25.5q16 0 35 -3.5t49.5 -19t49.5 -42.5q29 -41 29 -123v-322q0 -79 -25 -109q-27 -32 -80 -32q-26 0 -53 6v70q19 -6 33 -6q20 0 31 9q15 13 15 73v322q0 51 -31 76.5t-76 25.5q-52 0 -88.5 -35.5t-36.5 -96.5v-279z" />
    <glyph glyph-name="Omacron" unicode="&#x14c;" horiz-adv-x="812" 
d="M762 359q0 -54 -11.5 -105.5t-38.5 -101.5t-67.5 -87t-102.5 -60t-138 -23q-70 0 -132.5 23t-112.5 67.5t-79 117t-29 164.5q0 93 30 166t80.5 116.5t113 65.5t132.5 22q160 0 257.5 -101.5t97.5 -263.5zM153 353q0 -137 68.5 -217t187.5 -80q111 0 181 76.5t70 226.5
q0 56 -13.5 105t-41.5 91.5t-79 67.5t-119 25q-67 0 -118 -25t-79.5 -68t-42.5 -93.5t-14 -108.5zM548 781h-285v68h285v-68z" />
    <glyph glyph-name="omacron" unicode="&#x14d;" horiz-adv-x="542" 
d="M40 235q0 27 5 55.5t20.5 65t40.5 64.5t69.5 47t102.5 19q91 0 157.5 -63.5t66.5 -182.5q0 -122 -65.5 -188.5t-165.5 -66.5q-102 0 -166.5 66t-64.5 184zM127 231q0 -20 2.5 -40.5t11.5 -47.5t24 -46.5t42 -33.5t63 -14q71 0 108.5 52t37.5 145q0 72 -33 124t-106 52
q-42 0 -72.5 -18t-45 -40t-22.5 -53.5t-9 -47t-1 -32.5zM413 541h-285v68h285v-68z" />
    <glyph glyph-name="Obreve" unicode="&#x14e;" horiz-adv-x="812" 
d="M762 359q0 -54 -11.5 -105.5t-38.5 -101.5t-67.5 -87t-102.5 -60t-138 -23q-70 0 -132.5 23t-112.5 67.5t-79 117t-29 164.5q0 93 30 166t80.5 116.5t113 65.5t132.5 22q160 0 257.5 -101.5t97.5 -263.5zM153 353q0 -137 68.5 -217t187.5 -80q111 0 181 76.5t70 226.5
q0 56 -13.5 105t-41.5 91.5t-79 67.5t-119 25q-67 0 -118 -25t-79.5 -68t-42.5 -93.5t-14 -108.5zM490 880h52q0 -40 -39.5 -74.5t-92.5 -34.5q-49 0 -90 30.5t-42 78.5h50q8 -23 31 -34.5t52 -11.5q31 0 52.5 14t26.5 32z" />
    <glyph glyph-name="obreve" unicode="&#x14f;" horiz-adv-x="542" 
d="M40 235q0 27 5 55.5t20.5 65t40.5 64.5t69.5 47t102.5 19q91 0 157.5 -63.5t66.5 -182.5q0 -122 -65.5 -188.5t-165.5 -66.5q-102 0 -166.5 66t-64.5 184zM127 231q0 -20 2.5 -40.5t11.5 -47.5t24 -46.5t42 -33.5t63 -14q71 0 108.5 52t37.5 145q0 72 -33 124t-106 52
q-42 0 -72.5 -18t-45 -40t-22.5 -53.5t-9 -47t-1 -32.5zM152 654h50q8 -29 29.5 -46t48.5 -17q26 0 47 18t27 46h52q0 -41 -35 -85.5t-93 -44.5q-54 0 -90 38t-36 91z" />
    <glyph glyph-name="Ohungarumlaut" unicode="&#x150;" horiz-adv-x="812" 
d="M762 359q0 -54 -11.5 -105.5t-38.5 -101.5t-67.5 -87t-102.5 -60t-138 -23q-70 0 -132.5 23t-112.5 67.5t-79 117t-29 164.5q0 93 30 166t80.5 116.5t113 65.5t132.5 22q160 0 257.5 -101.5t97.5 -263.5zM153 353q0 -137 68.5 -217t187.5 -80q111 0 181 76.5t70 226.5
q0 56 -13.5 105t-41.5 91.5t-79 67.5t-119 25q-67 0 -118 -25t-79.5 -68t-42.5 -93.5t-14 -108.5zM446 895l-87 -124h-58l53 124h92zM588 895l-87 -124h-58l53 124h92z" />
    <glyph glyph-name="ohungarumlaut" unicode="&#x151;" horiz-adv-x="542" 
d="M40 235q0 27 5 55.5t20.5 65t40.5 64.5t69.5 47t102.5 19q91 0 157.5 -63.5t66.5 -182.5q0 -122 -65.5 -188.5t-165.5 -66.5q-102 0 -166.5 66t-64.5 184zM127 231q0 -20 2.5 -40.5t11.5 -47.5t24 -46.5t42 -33.5t63 -14q71 0 108.5 52t37.5 145q0 72 -33 124t-106 52
q-42 0 -72.5 -18t-45 -40t-22.5 -53.5t-9 -47t-1 -32.5zM436 665l-86 -144h-41l43 144h84zM302 665l-88 -144h-41l46 144h83z" />
    <glyph glyph-name="OE" unicode="&#x152;" horiz-adv-x="1146" 
d="M1119 0h-501v82q-92 -100 -232 -100q-65 0 -124.5 24.5t-107 70t-76 118t-28.5 161.5q0 170 98 269t242 99q146 0 228 -92v74h490v-84h-400v-219h323v-82h-323v-239h411v-82zM618 361q0 86 -22.5 146.5t-59.5 90t-72 41.5t-73 12q-106 0 -173.5 -81t-67.5 -218
q0 -120 63 -206t175 -86q115 0 179 92q51 75 51 209z" />
    <glyph glyph-name="oe" unicode="&#x153;" horiz-adv-x="875" 
d="M838 214h-355q0 -63 34 -109q43 -56 112 -56q30 0 54 12t37.5 31t20 32.5t10.5 27.5l81 -11q-8 -22 -21 -45t-37 -50t-63.5 -44t-87.5 -17q-57 0 -104 25t-77 69q-62 -94 -174 -94q-93 0 -159.5 63.5t-66.5 187.5q0 90 40 151q65 99 189 99q104 0 171 -87q63 87 172 87
q108 0 169 -81q55 -74 55 -191zM483 274h267q-4 44 -20 75.5t-38 46t-40.5 20.5t-35.5 6q-61 0 -94.5 -44.5t-38.5 -103.5zM403 233q0 85 -36.5 135.5t-101.5 50.5q-57 0 -97.5 -47t-40.5 -141q0 -83 38.5 -131t99.5 -48q65 0 101.5 51.5t36.5 129.5z" />
    <glyph glyph-name="Racute" unicode="&#x154;" horiz-adv-x="667" 
d="M657 0h-112l-193 300h-182v-300h-92v706h318q106 0 167.5 -51.5t61.5 -154.5q0 -73 -38.5 -126t-127.5 -68zM170 379h208q154 0 154 121q0 60 -37 94t-104 34h-221v-249zM420 895l-87 -124h-60l48 124h99z" />
    <glyph glyph-name="racute" unicode="&#x155;" horiz-adv-x="313" 
d="M65 471h80v-86q17 33 44 54q48 38 117 38v-86q-15 3 -31 3q-44 0 -77.5 -23.5t-45.5 -65.5q-7 -28 -7 -87v-218h-80v471zM276 666l-86 -144h-41l41 144h86z" />
    <glyph glyph-name="Rcommaaccent" unicode="&#x156;" horiz-adv-x="667" 
d="M657 0h-112l-193 300h-182v-300h-92v706h318q106 0 167.5 -51.5t61.5 -154.5q0 -73 -38.5 -126t-127.5 -68zM170 379h208q154 0 154 121q0 60 -37 94t-104 34h-221v-249zM308 -38h80v-31q0 -59 -29 -113h-39q17 33 20 69h-32v75z" />
    <glyph glyph-name="rcommaaccent" unicode="&#x157;" horiz-adv-x="313" 
d="M65 471h80v-86q17 33 44 54q48 38 117 38v-86q-15 3 -31 3q-44 0 -77.5 -23.5t-45.5 -65.5q-7 -28 -7 -87v-218h-80v471zM66 -38h80v-31q0 -59 -29 -113h-39q17 33 20 69h-32v75z" />
    <glyph glyph-name="Rcaron" unicode="&#x158;" horiz-adv-x="667" 
d="M657 0h-112l-193 300h-182v-300h-92v706h318q106 0 167.5 -51.5t61.5 -154.5q0 -73 -38.5 -126t-127.5 -68zM170 379h208q154 0 154 121q0 60 -37 94t-104 34h-221v-249zM440 895l-101 -124h-66l-105 124h76l62 -77l59 77h75z" />
    <glyph glyph-name="rcaron" unicode="&#x159;" horiz-adv-x="313" 
d="M65 471h80v-86q17 33 44 54q48 38 117 38v-86q-15 3 -31 3q-44 0 -77.5 -23.5t-45.5 -65.5q-7 -28 -7 -87v-218h-80v471zM307 673l-96 -151h-67l-102 151h74l61 -96l59 96h71z" />
    <glyph glyph-name="Sacute" unicode="&#x15a;" horiz-adv-x="667" 
d="M37 226l101 13q0 -10 1 -19t5.5 -29t12 -36t23 -35.5t36 -32.5t53 -22t72.5 -9q26 0 53 6t56.5 20t48 43.5t18.5 71.5q0 54 -34 79t-100 38l-64 13q-126 25 -187 70.5t-61 130.5q0 82 67 138q70 58 183 58q126 0 195 -53q43 -32 61.5 -69.5t28.5 -94.5l-95 -6
q0 15 -3.5 31.5t-15 38.5t-30 39t-53.5 29t-80 12q-38 0 -72 -9t-61.5 -35t-27.5 -67q0 -47 35.5 -70.5t105.5 -40.5l129 -31q20 -5 32.5 -8.5t44 -19t51 -34.5t36 -54t16.5 -79q0 -87 -59 -145q-78 -76 -223 -76q-117 0 -193 49q-93 60 -106 195zM426 895l-87 -124h-60
l48 124h99z" />
    <glyph glyph-name="sacute" unicode="&#x15b;" horiz-adv-x="479" 
d="M31 152l91 13q0 -55 26 -83q33 -36 106 -36q41 0 75 17.5t34 61.5q0 20 -8 34t-25.5 22t-30 11.5t-34.5 7.5l-46 9q-93 18 -130.5 51.5t-37.5 85.5q0 71 54.5 105.5t128.5 34.5q66 0 110 -25t66 -58q19 -29 25 -72l-86 -10q-1 32 -7 44q-11 23 -42 41.5t-77 18.5
q-45 0 -69 -21.5t-24 -47.5q0 -29 27 -44.5t87 -29.5l46 -11q76 -18 116.5 -48t40.5 -89q0 -67 -56 -108t-141 -41q-194 0 -219 167zM330 666l-86 -144h-41l41 144h86z" />
    <glyph glyph-name="Scircumflex" unicode="&#x15c;" horiz-adv-x="667" 
d="M37 226l101 13q0 -10 1 -19t5.5 -29t12 -36t23 -35.5t36 -32.5t53 -22t72.5 -9q26 0 53 6t56.5 20t48 43.5t18.5 71.5q0 54 -34 79t-100 38l-64 13q-126 25 -187 70.5t-61 130.5q0 82 67 138q70 58 183 58q126 0 195 -53q43 -32 61.5 -69.5t28.5 -94.5l-95 -6
q0 15 -3.5 31.5t-15 38.5t-30 39t-53.5 29t-80 12q-38 0 -72 -9t-61.5 -35t-27.5 -67q0 -47 35.5 -70.5t105.5 -40.5l129 -31q20 -5 32.5 -8.5t44 -19t51 -34.5t36 -54t16.5 -79q0 -87 -59 -145q-78 -76 -223 -76q-117 0 -193 49q-93 60 -106 195zM482 771h-77l-62 74
l-59 -74h-75l101 124h65z" />
    <glyph glyph-name="scircumflex" unicode="&#x15d;" horiz-adv-x="479" 
d="M31 152l91 13q0 -55 26 -83q33 -36 106 -36q41 0 75 17.5t34 61.5q0 20 -8 34t-25.5 22t-30 11.5t-34.5 7.5l-46 9q-93 18 -130.5 51.5t-37.5 85.5q0 71 54.5 105.5t128.5 34.5q66 0 110 -25t66 -58q19 -29 25 -72l-86 -10q-1 32 -7 44q-11 23 -42 41.5t-77 18.5
q-45 0 -69 -21.5t-24 -47.5q0 -29 27 -44.5t87 -29.5l46 -11q76 -18 116.5 -48t40.5 -89q0 -67 -56 -108t-141 -41q-194 0 -219 167zM377 523h-75l-61 95l-59 -95h-70l94 151h67z" />
    <glyph glyph-name="Scedilla" unicode="&#x15e;" horiz-adv-x="667" 
d="M37 226l101 13q0 -10 1 -19t5.5 -29t12 -36t23 -35.5t36 -32.5t53 -22t72.5 -9q26 0 53 6t56.5 20t48 43.5t18.5 71.5q0 54 -34 79t-100 38l-64 13q-126 25 -187 70.5t-61 130.5q0 82 67 138q70 58 183 58q126 0 195 -53q43 -32 61.5 -69.5t28.5 -94.5l-95 -6
q0 15 -3.5 31.5t-15 38.5t-30 39t-53.5 29t-80 12q-38 0 -72 -9t-61.5 -35t-27.5 -67q0 -47 35.5 -70.5t105.5 -40.5l129 -31q20 -5 32.5 -8.5t44 -19t51 -34.5t36 -54t16.5 -79q0 -19 -3.5 -39.5t-19 -54t-42 -59.5t-79 -46t-122.5 -22l-14 -25l24 -13q19 -10 28.5 -27.5
t9.5 -33.5q0 -40 -36.5 -63t-85.5 -23h-5v23q3 -1 10 -1q17 0 29.5 10t12.5 27q0 9 -3.5 16t-11.5 12t-14 8t-17 7t-14 5l51 78q-106 6 -173 49q-93 60 -106 195z" />
    <glyph glyph-name="scedilla" unicode="&#x15f;" horiz-adv-x="479" 
d="M31 152l91 13q0 -55 26 -83q33 -36 106 -36q41 0 75 17.5t34 61.5q0 20 -8 34t-25.5 22t-30 11.5t-34.5 7.5l-46 9q-93 18 -130.5 51.5t-37.5 85.5q0 71 54.5 105.5t128.5 34.5q66 0 110 -25t66 -58q19 -29 25 -72l-86 -10q-1 32 -7 44q-11 23 -42 41.5t-77 18.5
q-45 0 -69 -21.5t-24 -47.5q0 -29 27 -44.5t87 -29.5l46 -11q76 -18 116.5 -48t40.5 -89q0 -64 -51.5 -104.5t-131.5 -43.5l-16 -29l24 -13q19 -10 28.5 -27.5t9.5 -33.5q0 -40 -36.5 -63t-85.5 -23h-5v23q3 -1 10 -1q17 0 29.5 10t12.5 27q0 9 -3.5 16t-11.5 12t-14 8
t-17 7t-14 5l53 82q-174 9 -197 166z" />
    <glyph glyph-name="Scaron" unicode="&#x160;" horiz-adv-x="667" 
d="M37 226l101 13q0 -10 1 -19t5.5 -29t12 -36t23 -35.5t36 -32.5t53 -22t72.5 -9q26 0 53 6t56.5 20t48 43.5t18.5 71.5q0 54 -34 79t-100 38l-64 13q-126 25 -187 70.5t-61 130.5q0 82 67 138q70 58 183 58q126 0 195 -53q43 -32 61.5 -69.5t28.5 -94.5l-95 -6
q0 15 -3.5 31.5t-15 38.5t-30 39t-53.5 29t-80 12q-38 0 -72 -9t-61.5 -35t-27.5 -67q0 -47 35.5 -70.5t105.5 -40.5l129 -31q20 -5 32.5 -8.5t44 -19t51 -34.5t36 -54t16.5 -79q0 -87 -59 -145q-78 -76 -223 -76q-117 0 -193 49q-93 60 -106 195zM468 895l-101 -124h-66
l-105 124h76l62 -77l59 77h75z" />
    <glyph glyph-name="scaron" unicode="&#x161;" horiz-adv-x="479" 
d="M31 152l91 13q0 -55 26 -83q33 -36 106 -36q41 0 75 17.5t34 61.5q0 20 -8 34t-25.5 22t-30 11.5t-34.5 7.5l-46 9q-93 18 -130.5 51.5t-37.5 85.5q0 71 54.5 105.5t128.5 34.5q66 0 110 -25t66 -58q19 -29 25 -72l-86 -10q-1 32 -7 44q-11 23 -42 41.5t-77 18.5
q-45 0 -69 -21.5t-24 -47.5q0 -29 27 -44.5t87 -29.5l46 -11q76 -18 116.5 -48t40.5 -89q0 -67 -56 -108t-141 -41q-194 0 -219 167zM366 673l-96 -151h-67l-102 151h74l61 -96l59 96h71z" />
    <glyph glyph-name="Tcommaaccent" unicode="&#x162;" horiz-adv-x="542" 
d="M528 624h-211v-624h-94v624h-212v82h517v-82zM232 -38h80v-31q0 -59 -29 -113h-39q17 33 20 69h-32v75z" />
    <glyph glyph-name="tcommaaccent" unicode="&#x163;" horiz-adv-x="292" 
d="M174 405v-303q0 -25 8 -36t27 -11q20 0 50 11v-66q-56 -8 -76 -8q-55 0 -73 20t-18 65v328h-76v66h76v149h82v-149h85v-66h-85zM128 -38h80v-31q0 -59 -29 -113h-39q17 33 20 69h-32v75z" />
    <glyph glyph-name="Tcaron" unicode="&#x164;" horiz-adv-x="542" 
d="M528 624h-211v-624h-94v624h-212v82h517v-82zM406 895l-101 -124h-66l-105 124h76l62 -77l59 77h75z" />
    <glyph glyph-name="tcaron" unicode="&#x165;" horiz-adv-x="292" 
d="M174 405v-303q0 -25 8 -36t27 -11q20 0 50 11v-66q-56 -8 -76 -8q-55 0 -73 20t-18 65v328h-76v66h76v149h82v-149h85v-66h-85zM209 706h75v-38q0 -49 -6.5 -78.5t-23.5 -76.5h-36q20 52 24 110h-33v83z" />
    <glyph glyph-name="Tbar" unicode="&#x166;" horiz-adv-x="542" 
d="M468 407h-151v-407h-94v407h-149v73h149v144h-212v82h517v-82h-211v-144h151v-73z" />
    <glyph glyph-name="tbar" unicode="&#x167;" horiz-adv-x="292" 
d="M239 263h-65v-161q0 -25 8 -36t27 -11q20 0 50 11v-66q-56 -8 -76 -8q-55 0 -73 20t-18 65v186h-66v64h66v78h-76v66h76v149h82v-149h85v-66h-85v-78h65v-64z" />
    <glyph glyph-name="Utilde" unicode="&#x168;" horiz-adv-x="688" 
d="M76 706h94v-467q0 -79 40.5 -128t128.5 -49q93 0 135 53t42 137v454h95v-473q0 -105 -70 -178t-203 -73q-126 0 -194 68t-68 173v483zM437 882h47q-14 -101 -78 -101q-24 0 -67 17.5t-58 17.5q-22 0 -30 -30h-48q4 34 14.5 56t25 30.5t23.5 10.5t21 2q23 0 61.5 -16.5
t59.5 -16.5q13 0 18.5 6.5t10.5 23.5z" />
    <glyph glyph-name="utilde" unicode="&#x169;" horiz-adv-x="521" 
d="M454 0h-79v72q-26 -39 -69.5 -61.5t-90.5 -22.5q-88 0 -126 62q-24 40 -24 118v303h79v-268q0 -72 11 -95q23 -45 86 -45q75 0 112 54q23 34 23 113v241h78v-471zM349 635h50q-3 -27 -8.5 -46t-23.5 -36.5t-46 -17.5q-22 0 -64.5 17t-56.5 17q-16 0 -23.5 -11t-7.5 -19
h-49q12 99 82 99q23 0 64 -16.5t54 -16.5q29 0 29 30z" />
    <glyph glyph-name="Umacron" unicode="&#x16a;" horiz-adv-x="688" 
d="M76 706h94v-467q0 -79 40.5 -128t128.5 -49q93 0 135 53t42 137v454h95v-473q0 -105 -70 -178t-203 -73q-126 0 -194 68t-68 173v483zM484 781h-285v68h285v-68z" />
    <glyph glyph-name="umacron" unicode="&#x16b;" horiz-adv-x="521" 
d="M454 0h-79v72q-26 -39 -69.5 -61.5t-90.5 -22.5q-88 0 -126 62q-24 40 -24 118v303h79v-268q0 -72 11 -95q23 -45 86 -45q75 0 112 54q23 34 23 113v241h78v-471zM402 541h-285v68h285v-68z" />
    <glyph glyph-name="Ubreve" unicode="&#x16c;" horiz-adv-x="688" 
d="M76 706h94v-467q0 -79 40.5 -128t128.5 -49q93 0 135 53t42 137v454h95v-473q0 -105 -70 -178t-203 -73q-126 0 -194 68t-68 173v483zM424 880h52q0 -40 -39.5 -74.5t-92.5 -34.5q-49 0 -90 30.5t-42 78.5h50q8 -23 31 -34.5t52 -11.5q31 0 52.5 14t26.5 32z" />
    <glyph glyph-name="ubreve" unicode="&#x16d;" horiz-adv-x="521" 
d="M454 0h-79v72q-26 -39 -69.5 -61.5t-90.5 -22.5q-88 0 -126 62q-24 40 -24 118v303h79v-268q0 -72 11 -95q23 -45 86 -45q75 0 112 54q23 34 23 113v241h78v-471zM133 654h50q8 -29 29.5 -46t48.5 -17q26 0 47 18t27 46h52q0 -41 -35 -85.5t-93 -44.5q-54 0 -90 38
t-36 91z" />
    <glyph glyph-name="Uring" unicode="&#x16e;" horiz-adv-x="688" 
d="M76 706h94v-467q0 -79 40.5 -128t128.5 -49q93 0 135 53t42 137v454h95v-473q0 -105 -70 -178t-203 -73q-126 0 -194 68t-68 173v483zM439 848q0 -39 -28.5 -67t-67.5 -28q-40 0 -67.5 28t-27.5 68q0 39 28 66.5t68 27.5q39 0 67 -27.5t28 -67.5zM394 849q0 21 -15 35.5
t-36 14.5t-35.5 -15t-14.5 -36t15 -35.5t36 -14.5q20 0 35 15t15 36z" />
    <glyph glyph-name="uring" unicode="&#x16f;" horiz-adv-x="521" 
d="M454 0h-79v72q-26 -39 -69.5 -61.5t-90.5 -22.5q-88 0 -126 62q-24 40 -24 118v303h79v-268q0 -72 11 -95q23 -45 86 -45q75 0 112 54q23 34 23 113v241h78v-471zM354 608q0 -40 -27.5 -67.5t-67.5 -27.5q-39 0 -66.5 28t-27.5 67t27.5 67t66.5 28q42 0 68.5 -29.5
t26.5 -65.5zM311 609q0 21 -15 36t-37 15t-36.5 -15t-14.5 -36t15 -36.5t36 -15.5q22 0 37 15.5t15 36.5z" />
    <glyph glyph-name="Uhungarumlaut" unicode="&#x170;" horiz-adv-x="688" 
d="M76 706h94v-467q0 -79 40.5 -128t128.5 -49q93 0 135 53t42 137v454h95v-473q0 -105 -70 -178t-203 -73q-126 0 -194 68t-68 173v483zM380 895l-87 -124h-58l53 124h92zM522 895l-87 -124h-58l53 124h92z" />
    <glyph glyph-name="uhungarumlaut" unicode="&#x171;" horiz-adv-x="521" 
d="M454 0h-79v72q-26 -39 -69.5 -61.5t-90.5 -22.5q-88 0 -126 62q-24 40 -24 118v303h79v-268q0 -72 11 -95q23 -45 86 -45q75 0 112 54q23 34 23 113v241h78v-471zM427 665l-86 -144h-41l43 144h84zM293 665l-88 -144h-41l46 144h83z" />
    <glyph glyph-name="Uogonek" unicode="&#x172;" horiz-adv-x="688" 
d="M76 706h94v-467q0 -79 40.5 -128t128.5 -49q93 0 135 53t42 137v454h95v-473q0 -91 -50.5 -156t-143.5 -87q-27 -6 -43.5 -26t-16.5 -39q0 -38 61 -38h12v-74h-9q-74 0 -111.5 14t-37.5 59q0 29 12 49.5t38 46.5q-119 4 -182.5 72t-63.5 169v483z" />
    <glyph glyph-name="uogonek" unicode="&#x173;" horiz-adv-x="521" 
d="M376 471h78v-471q-22 -6 -44.5 -29t-22.5 -46q0 -38 61 -38h12v-74h-9q-74 0 -111.5 14t-37.5 59q0 35 16.5 59t56.5 59v68q-26 -39 -69.5 -61.5t-90.5 -22.5q-88 0 -126 62q-24 40 -24 118v303h79v-268q0 -72 11 -95q23 -45 86 -45q75 0 112 54q23 34 23 113v241z" />
    <glyph glyph-name="Wcircumflex" unicode="&#x174;" horiz-adv-x="1021" 
d="M1003 706l-216 -706h-92l-186 585l-180 -585h-94l-217 706h99l167 -585l179 585h92l186 -585l165 585h97zM647 771h-77l-62 74l-59 -74h-75l101 124h65z" />
    <glyph glyph-name="wcircumflex" unicode="&#x175;" horiz-adv-x="729" 
d="M719 471l-173 -471h-70l-113 351l-115 -351h-73l-164 471h86l118 -350l116 350h70l111 -350l123 350h84zM497 523h-75l-61 95l-59 -95h-70l94 151h67z" />
    <glyph glyph-name="Ycircumflex" unicode="&#x176;" horiz-adv-x="625" 
d="M611 706l-254 -383v-323h-95v323l-248 383h111l186 -299l188 299h112zM449 771h-77l-62 74l-59 -74h-75l101 124h65z" />
    <glyph glyph-name="ycircumflex" unicode="&#x177;" horiz-adv-x="437" 
d="M342 471h83l-198 -557q-30 -85 -59 -116t-88 -31q-35 0 -71 10v72q24 -8 53 -8q35 0 53.5 19.5t38.5 78.5l20 58l-160 474h85l118 -374zM351 523h-75l-61 95l-59 -95h-70l94 151h67z" />
    <glyph glyph-name="Ydieresis" unicode="&#x178;" horiz-adv-x="625" 
d="M611 706l-254 -383v-323h-95v323l-248 383h111l186 -299l188 299h112zM455 781h-88v102h88v-102zM258 781h-87v102h87v-102z" />
    <glyph glyph-name="Zacute" unicode="&#x179;" horiz-adv-x="604" 
d="M571 0h-553v92l436 528h-401v86h508v-88l-434 -533h444v-85zM413 895l-87 -124h-60l48 124h99z" />
    <glyph glyph-name="zacute" unicode="&#x17a;" horiz-adv-x="417" 
d="M389 0h-376v66l271 336h-245v69h344v-64l-274 -341h280v-66zM303 666l-86 -144h-41l41 144h86z" />
    <glyph glyph-name="Zdotaccent" unicode="&#x17b;" horiz-adv-x="604" 
d="M571 0h-553v92l436 528h-401v86h508v-88l-434 -533h444v-85zM339 781h-87v99h87v-99z" />
    <glyph glyph-name="zdotaccent" unicode="&#x17c;" horiz-adv-x="417" 
d="M389 0h-376v66l271 336h-245v69h344v-64l-274 -341h280v-66zM244 541h-87v99h87v-99z" />
    <glyph glyph-name="Zcaron" unicode="&#x17d;" horiz-adv-x="604" 
d="M571 0h-553v92l436 528h-401v86h508v-88l-434 -533h444v-85zM437 895l-101 -124h-66l-105 124h76l62 -77l59 77h75z" />
    <glyph glyph-name="zcaron" unicode="&#x17e;" horiz-adv-x="417" 
d="M389 0h-376v66l271 336h-245v69h344v-64l-274 -341h280v-66zM334 673l-96 -151h-67l-102 151h74l61 -96l59 96h71z" />
    <glyph glyph-name="longs" unicode="&#x17f;" horiz-adv-x="236" 
d="M89 471v41q0 94 12 124q25 65 112 65q26 0 58 -6v-63q-15 5 -44 5q-60 0 -60 -76v-561h-78v405h-78v66h78z" />
    <glyph glyph-name="florin" unicode="&#x192;" horiz-adv-x="437" 
d="M437 704l-14 -60q-15 5 -36 5q-17 0 -27.5 -10.5t-14 -20.5t-9.5 -35l-27 -112h85l-15 -62h-84l-130 -541q-14 -58 -41.5 -77.5t-67.5 -19.5q-24 0 -60 12l15 59q18 -7 31 -7q19 0 30.5 10.5t15 20.5t8.5 30l121 513h-72l15 62h72l34 132q7 27 12.5 41.5t18 33.5
t33.5 27.5t51 8.5q29 0 56 -10z" />
    <glyph glyph-name="Aringacute" unicode="&#x1fa;" horiz-adv-x="646" 
d="M454 998l-127 -100h-60l84 100h103zM634 0h-99l-77 216h-269l-79 -216h-100l269 706h98zM430 295l-103 295l-108 -295h211zM397 809q0 -31 -20.5 -51t-49.5 -20q-30 0 -50 20t-20 51q0 29 20.5 49.5t49.5 20.5q30 0 50 -20t20 -50zM360 809q0 16 -9.5 25.5t-23.5 9.5
q-15 0 -24 -10t-9 -25q0 -35 33 -35q14 0 23.5 10t9.5 25z" />
    <glyph glyph-name="aringacute" unicode="&#x1fb;" horiz-adv-x="500" 
d="M355 861l-106 -138h-39l60 138h85zM486 70v-67q-27 -9 -51 -9q-33 0 -50 12q-13 10 -22 28t-10 30q-71 -77 -161 -77q-71 0 -115.5 37.5t-44.5 97.5q0 63 51 102q59 44 191 53l72 5v16q0 19 -1 31t-6.5 32t-15.5 32.5t-31 22t-51 9.5q-49 0 -75.5 -24t-26.5 -68v-7l-83 5
q0 11 2.5 25.5t13.5 38.5t29 43t53.5 33.5t82.5 14.5q71 0 118 -28q46 -26 58.5 -62.5t12.5 -108.5v-166q0 -18 1.5 -27.5t10 -18.5t24.5 -9q6 0 24 4zM347 193v37q-145 -23 -169 -34q-58 -23 -58 -72q0 -29 22.5 -49.5t66.5 -20.5q20 0 40.5 5t44 18.5t38.5 43.5t15 72z
M334 601q0 -37 -25.5 -62.5t-62.5 -25.5q-36 0 -61.5 26t-25.5 62t25.5 62t61.5 26q40 0 64 -27.5t24 -60.5zM291 602q0 19 -13 32t-32 13t-31.5 -13t-12.5 -32t12.5 -32.5t31.5 -13.5t32 13.5t13 32.5z" />
    <glyph glyph-name="AEacute" unicode="&#x1fc;" horiz-adv-x="1042" 
d="M1014 0h-500v232h-252l-154 -232h-110l483 706h521v-83h-395v-231h319v-79h-319v-231h407v-82zM514 313v302l-197 -302h197zM810 895l-87 -124h-60l48 124h99z" />
    <glyph glyph-name="aeacute" unicode="&#x1fd;" horiz-adv-x="812" 
d="M779 214h-342q0 -73 34 -117q36 -47 101 -47q44 0 75.5 28t39.5 72l84 -13q-14 -54 -55 -93q-62 -59 -154 -59q-121 0 -177 99q-77 -99 -191 -99q-67 0 -114 35t-47 98q0 44 25 78.5t66 52.5q54 23 160 23h73v19q0 55 -31.5 94.5t-83.5 39.5q-40 0 -69 -24.5t-32 -70.5
l-84 6q5 41 20 68q18 32 58.5 57t104.5 25q111 0 159 -84q58 84 162 84q98 0 160 -76q58 -73 58 -191v-5zM436 272h258q-3 62 -36 101q-39 47 -96 47q-62 0 -99 -56q-27 -40 -27 -92zM357 214h-63q-78 0 -128 -24t-50 -69q0 -27 23.5 -50t70.5 -23q69 0 108 49t39 107v10z
M496 666l-86 -144h-41l41 144h86z" />
    <glyph glyph-name="Oslashacute" unicode="&#x1fe;" horiz-adv-x="812" 
d="M715 699l48 -51l-70 -68q70 -102 70 -225q0 -42 -10 -88t-36 -98t-65 -92.5t-105 -67.5t-148 -27q-72 0 -126 21t-112 68l-65 -62l-49 50l69 66q-66 114 -66 228q0 64 19.5 126t59.5 118.5t111.5 91.5t163.5 35q80 0 130.5 -21.5t111.5 -68.5zM186 193l394 378
q-70 78 -179 78q-121 0 -184 -85.5t-63 -213.5q0 -82 32 -157zM621 512l-397 -381q76 -75 182 -75q66 0 117 26.5t79.5 70t42.5 91.5t14 97q0 93 -38 171zM502 895l-87 -124h-60l48 124h99z" />
    <glyph glyph-name="oslashacute" unicode="&#x1ff;" horiz-adv-x="542" 
d="M471 468l35 -36l-46 -46q43 -67 43 -152q0 -51 -15 -95q-8 -23 -21.5 -45t-38.5 -49t-66 -43.5t-92 -16.5q-96 0 -157 64l-40 -40l-35 36l43 42q-40 65 -40 146q0 60 20 109q27 66 84 105t128 39q85 0 154 -61zM142 148l231 224q-47 50 -104 50q-60 0 -102 -49t-42 -131
q0 -51 17 -94zM401 328l-232 -225q36 -54 104 -54q63 0 105.5 48t42.5 133q0 59 -20 98zM370 666l-86 -144h-41l41 144h86z" />
    <glyph glyph-name="Scommaaccent" unicode="&#x218;" horiz-adv-x="667" 
d="M37 226l101 13q0 -10 1 -19t5.5 -29t12 -36t23 -35.5t36 -32.5t53 -22t72.5 -9q26 0 53 6t56.5 20t48 43.5t18.5 71.5q0 54 -34 79t-100 38l-64 13q-126 25 -187 70.5t-61 130.5q0 82 67 138q70 58 183 58q126 0 195 -53q43 -32 61.5 -69.5t28.5 -94.5l-95 -6
q0 15 -3.5 31.5t-15 38.5t-30 39t-53.5 29t-80 12q-38 0 -72 -9t-61.5 -35t-27.5 -67q0 -47 35.5 -70.5t105.5 -40.5l129 -31q20 -5 32.5 -8.5t44 -19t51 -34.5t36 -54t16.5 -79q0 -87 -59 -145q-78 -76 -223 -76q-117 0 -193 49q-93 60 -106 195zM294 -38h80v-31
q0 -59 -29 -113h-39q17 33 20 69h-32v75z" />
    <glyph glyph-name="scommaaccent" unicode="&#x219;" horiz-adv-x="479" 
d="M31 152l91 13q0 -55 26 -83q33 -36 106 -36q41 0 75 17.5t34 61.5q0 20 -8 34t-25.5 22t-30 11.5t-34.5 7.5l-46 9q-93 18 -130.5 51.5t-37.5 85.5q0 71 54.5 105.5t128.5 34.5q66 0 110 -25t66 -58q19 -29 25 -72l-86 -10q-1 32 -7 44q-11 23 -42 41.5t-77 18.5
q-45 0 -69 -21.5t-24 -47.5q0 -29 27 -44.5t87 -29.5l46 -11q76 -18 116.5 -48t40.5 -89q0 -67 -56 -108t-141 -41q-194 0 -219 167zM203 -38h80v-31q0 -59 -29 -113h-39q17 33 20 69h-32v75z" />
    <glyph glyph-name="uni021A" unicode="&#x21a;" horiz-adv-x="542" 
d="M528 624h-211v-624h-94v624h-212v82h517v-82zM232 -38h80v-31q0 -59 -29 -113h-39q17 33 20 69h-32v75z" />
    <glyph glyph-name="uni021B" unicode="&#x21b;" horiz-adv-x="292" 
d="M174 405v-303q0 -25 8 -36t27 -11q20 0 50 11v-66q-56 -8 -76 -8q-55 0 -73 20t-18 65v328h-76v66h76v149h82v-149h85v-66h-85zM128 -38h80v-31q0 -59 -29 -113h-39q17 33 20 69h-32v75z" />
    <glyph glyph-name="circumflex" unicode="&#x2c6;" horiz-adv-x="271" 
d="M268 523h-75l-61 95l-59 -95h-70l94 151h67z" />
    <glyph glyph-name="caron" unicode="&#x2c7;" horiz-adv-x="271" 
d="M268 673l-96 -151h-67l-102 151h74l61 -96l59 96h71z" />
    <glyph glyph-name="uni02C9" unicode="&#x2c9;" horiz-adv-x="271" 
d="M278 541h-285v68h285v-68z" />
    <glyph glyph-name="breve" unicode="&#x2d8;" horiz-adv-x="271" 
d="M9 654h50q8 -29 29.5 -46t48.5 -17q26 0 47 18t27 46h52q0 -41 -35 -85.5t-93 -44.5q-54 0 -90 38t-36 91z" />
    <glyph glyph-name="dotaccent" unicode="&#x2d9;" horiz-adv-x="271" 
d="M179 541h-87v99h87v-99z" />
    <glyph glyph-name="ring" unicode="&#x2da;" horiz-adv-x="271" 
d="M230 608q0 -40 -27.5 -67.5t-67.5 -27.5q-39 0 -66.5 28t-27.5 67t27.5 67t66.5 28q42 0 68.5 -29.5t26.5 -65.5zM187 609q0 21 -15 36t-37 15t-36.5 -15t-14.5 -36t15 -36.5t36 -15.5q22 0 37 15.5t15 36.5z" />
    <glyph glyph-name="ogonek" unicode="&#x2db;" horiz-adv-x="271" 
d="M132 6q62 -1 73 -1q-19 -14 -29 -22.5t-22 -25.5t-12 -32q0 -38 61 -38h12v-74h-9q-74 0 -111.5 14t-37.5 59q0 25 11 46.5t23 34.5t41 39z" />
    <glyph glyph-name="tilde" unicode="&#x2dc;" horiz-adv-x="271" 
d="M225 635h50q-3 -27 -8.5 -46t-23.5 -36.5t-46 -17.5q-22 0 -64.5 17t-56.5 17q-16 0 -23.5 -11t-7.5 -19h-49q12 99 82 99q23 0 64 -16.5t54 -16.5q29 0 29 30z" />
    <glyph glyph-name="hungarumlaut" unicode="&#x2dd;" horiz-adv-x="271" 
d="M267 665l-86 -144h-41l43 144h84zM133 665l-88 -144h-41l46 144h83z" />
    <glyph glyph-name="uni037E" unicode="&#x37e;" horiz-adv-x="271" 
d="M206 380h-99v110h99v-110zM107 111h99v-61q0 -121 -39 -205h-45q25 78 25 155h-40v111z" />
    <glyph glyph-name="tonos" unicode="&#x384;" horiz-adv-x="271" 
d="M199 666l-86 -144h-41l41 144h86z" />
    <glyph glyph-name="dieresistonos" unicode="&#x385;" horiz-adv-x="544" 
d="M447 541h-81v96h81v-96zM355 683l-74 -142h-58l32 142h100zM183 541h-80v96h80v-96z" />
    <glyph glyph-name="Alphatonos" unicode="&#x386;" horiz-adv-x="646" 
d="M634 0h-99l-77 216h-269l-79 -216h-100l269 706h98zM430 295l-103 295l-108 -295h211zM139 706l-86 -144h-41l41 144h86z" />
    <glyph glyph-name="anoteleia" unicode="&#x387;" horiz-adv-x="200" 
d="M151 228h-102v124h102v-124z" />
    <glyph glyph-name="Epsilontonos" unicode="&#x388;" horiz-adv-x="604" 
d="M577 0h-498v706h486v-83h-396v-218h344v-82h-344v-241h408v-82zM9 706l-86 -144h-41l41 144h86z" />
    <glyph glyph-name="Etatonos" unicode="&#x389;" horiz-adv-x="729" 
d="M651 0h-95v323h-384v-323h-93v706h93v-300h384v300h95v-706zM9 706l-86 -144h-41l41 144h86z" />
    <glyph glyph-name="Iotatonos" unicode="&#x38a;" horiz-adv-x="229" 
d="M162 0h-95v706h95v-706zM9 706l-86 -144h-41l41 144h86z" />
    <glyph glyph-name="Omicrontonos" unicode="&#x38c;" horiz-adv-x="812" 
d="M762 359q0 -54 -11.5 -105.5t-38.5 -101.5t-67.5 -87t-102.5 -60t-138 -23q-70 0 -132.5 23t-112.5 67.5t-79 117t-29 164.5q0 93 30 166t80.5 116.5t113 65.5t132.5 22q160 0 257.5 -101.5t97.5 -263.5zM153 353q0 -137 68.5 -217t187.5 -80q111 0 181 76.5t70 226.5
q0 56 -13.5 105t-41.5 91.5t-79 67.5t-119 25q-67 0 -118 -25t-79.5 -68t-42.5 -93.5t-14 -108.5zM59 706l-86 -144h-41l41 144h86z" />
    <glyph glyph-name="Upsilontonos" unicode="&#x38e;" horiz-adv-x="625" 
d="M611 706l-254 -383v-323h-95v323l-248 383h111l186 -299l188 299h112zM-11 706l-86 -144h-41l41 144h86z" />
    <glyph glyph-name="Omegatonos" unicode="&#x38f;" horiz-adv-x="820" 
d="M765 374q0 -170 -159 -292h155v-82h-294v72q196 95 196 302q0 122 -67.5 198t-185.5 76t-185.5 -76t-67.5 -198q0 -207 196 -302v-72h-294v82h155q-159 122 -159 292q0 156 100.5 253t254.5 97t254.5 -97t100.5 -253zM59 706l-86 -144h-41l41 144h86z" />
    <glyph glyph-name="iotadieresistonos" unicode="&#x390;" horiz-adv-x="222" 
d="M202 66v-66q-27 -9 -57 -9q-80 0 -80 91v389h77v-354q0 -18 1.5 -27.5t10 -18.5t24.5 -9q8 0 24 4zM270 541h-81v96h81v-96zM178 683l-74 -142h-58l32 142h100zM6 541h-80v96h80v-96z" />
    <glyph glyph-name="Alpha" unicode="&#x391;" horiz-adv-x="646" 
d="M634 0h-99l-77 216h-269l-79 -216h-100l269 706h98zM430 295l-103 295l-108 -295h211z" />
    <glyph glyph-name="Beta" unicode="&#x392;" horiz-adv-x="688" 
d="M77 0v706h339q82 0 142.5 -48.5t60.5 -132.5q0 -54 -29.5 -96.5t-78.5 -56.5q129 -39 129 -177q0 -45 -15 -80.5t-37.5 -56.5t-53 -34.5t-58.5 -18.5t-57 -5h-342zM166 409h209q145 0 145 111q0 47 -29 75t-92 28h-233v-214zM166 83h229q31 0 53 3.5t46 15t36.5 37
t12.5 63.5q0 62 -39.5 94.5t-105.5 32.5h-232v-246z" />
    <glyph glyph-name="Gamma" unicode="&#x393;" horiz-adv-x="544" 
d="M507 622h-339v-622h-91v706h430v-84z" />
    <glyph glyph-name="uni0394" unicode="&#x394;" horiz-adv-x="640" 
d="M644 0h-648l277 706h97zM510 82l-191 510l-189 -510h380z" />
    <glyph glyph-name="Epsilon" unicode="&#x395;" horiz-adv-x="604" 
d="M577 0h-498v706h486v-83h-396v-218h344v-82h-344v-241h408v-82z" />
    <glyph glyph-name="Zeta" unicode="&#x396;" horiz-adv-x="604" 
d="M571 0h-553v92l436 528h-401v86h508v-88l-434 -533h444v-85z" />
    <glyph glyph-name="Eta" unicode="&#x397;" horiz-adv-x="729" 
d="M651 0h-95v323h-384v-323h-93v706h93v-300h384v300h95v-706z" />
    <glyph glyph-name="Theta" unicode="&#x398;" horiz-adv-x="812" 
d="M762 359q0 -54 -11.5 -105.5t-38.5 -101.5t-67.5 -87t-102.5 -60t-138 -23q-70 0 -132.5 23t-112.5 67.5t-79 117t-29 164.5q0 93 30 166t80.5 116.5t113 65.5t132.5 22q160 0 257.5 -101.5t97.5 -263.5zM153 353q0 -137 68.5 -217t187.5 -80q111 0 181 76.5t70 226.5
q0 56 -13.5 105t-41.5 91.5t-79 67.5t-119 25q-67 0 -118 -25t-79.5 -68t-42.5 -93.5t-14 -108.5zM574 325h-331v80h331v-80z" />
    <glyph glyph-name="Iota" unicode="&#x399;" horiz-adv-x="229" 
d="M162 0h-95v706h95v-706z" />
    <glyph glyph-name="Kappa" unicode="&#x39a;" horiz-adv-x="625" 
d="M624 0h-115l-248 348l-100 -102v-246h-94v706h94v-345l335 345h116l-286 -292z" />
    <glyph glyph-name="Lambda" unicode="&#x39b;" horiz-adv-x="639" 
d="M626 0h-104l-198 592l-207 -592h-104l264 706h96z" />
    <glyph glyph-name="Mu" unicode="&#x39c;" horiz-adv-x="812" 
d="M746 0h-94l13 592l-223 -592h-73l-219 583q10 -562 10 -583h-92v706h122l216 -579l218 579h122v-706z" />
    <glyph glyph-name="Nu" unicode="&#x39d;" horiz-adv-x="708" 
d="M630 0h-85l-387 574q9 -560 9 -574h-89v706h89l382 -566q-4 544 -4 566h85v-706z" />
    <glyph glyph-name="Xi" unicode="&#x39e;" horiz-adv-x="605" 
d="M571 619h-537v87h537v-87zM519 322h-433v87h433v-87zM577 0h-549v88h549v-88z" />
    <glyph glyph-name="Omicron" unicode="&#x39f;" horiz-adv-x="812" 
d="M762 359q0 -54 -11.5 -105.5t-38.5 -101.5t-67.5 -87t-102.5 -60t-138 -23q-70 0 -132.5 23t-112.5 67.5t-79 117t-29 164.5q0 93 30 166t80.5 116.5t113 65.5t132.5 22q160 0 257.5 -101.5t97.5 -263.5zM153 353q0 -137 68.5 -217t187.5 -80q111 0 181 76.5t70 226.5
q0 56 -13.5 105t-41.5 91.5t-79 67.5t-119 25q-67 0 -118 -25t-79.5 -68t-42.5 -93.5t-14 -108.5z" />
    <glyph glyph-name="Pi" unicode="&#x3a0;" horiz-adv-x="709" 
d="M632 0h-95v622h-367v-622h-93v706h555v-706z" />
    <glyph glyph-name="Rho" unicode="&#x3a1;" horiz-adv-x="625" 
d="M76 706h335q99 0 151 -55.5t52 -143.5q0 -53 -18.5 -98t-67 -77.5t-120.5 -32.5h-241v-299h-91v706zM167 383h227q58 0 92.5 32t34.5 94q0 59 -34 87.5t-92 28.5h-228v-242z" />
    <glyph glyph-name="Sigma" unicode="&#x3a3;" horiz-adv-x="594" 
d="M32 630v76h533v-83h-413l218 -251l-239 -287h444v-85h-553v92l235 277z" />
    <glyph glyph-name="Tau" unicode="&#x3a4;" horiz-adv-x="542" 
d="M528 624h-211v-624h-94v624h-212v82h517v-82z" />
    <glyph glyph-name="Upsilon" unicode="&#x3a5;" horiz-adv-x="625" 
d="M611 706l-254 -383v-323h-95v323l-248 383h111l186 -299l188 299h112z" />
    <glyph glyph-name="Phi" unicode="&#x3a6;" horiz-adv-x="845" 
d="M804 352q0 -52 -17 -99t-53 -91t-104 -72t-160 -33v-57h-95v57q-92 5 -160 33t-104 72t-53 91t-17 99t16 99.5t52 93t104 74.5t162 34v53h95v-53q76 -4 135.5 -24.5t96 -50.5t60.5 -69.5t33 -77.5t9 -79zM702 352q0 92 -59 157t-173 70v-449q112 5 172 68.5t60 153.5z
M375 130v449q-114 -5 -173 -70t-59 -157q0 -89 60 -153t172 -69z" />
    <glyph glyph-name="Chi" unicode="&#x3a7;" horiz-adv-x="625" 
d="M605 0h-111l-183 287l-181 -287h-109l235 370l-222 336h112l165 -254l158 254h111l-216 -336z" />
    <glyph glyph-name="Psi" unicode="&#x3a8;" horiz-adv-x="830" 
d="M773 429q0 -256 -311 -271v-158h-95v158q-27 1 -50 3.5t-56.5 10t-59.5 18.5t-54 32t-47 48t-31 68t-12 91v277h95v-291q0 -167 215 -179v470h95v-470q40 2 74 10.5t68 27t54 54.5t20 87v291h95v-277z" />
    <glyph glyph-name="uni03A9" unicode="&#x3a9;" horiz-adv-x="742" 
d="M692 0h-271v80q44 15 76 47.5t49 74.5t25 86t8 91q0 122 -55.5 194t-150.5 72q-100 0 -156 -74.5t-56 -207.5q0 -65 13.5 -118.5t50.5 -99.5t95 -65v-80h-271v80h158q-146 87 -146 300q0 154 86 248.5t226 94.5q142 0 223 -88t81 -242q0 -106 -40 -187t-114 -126h169v-80
z" />
    <glyph glyph-name="Iotadieresis" unicode="&#x3aa;" horiz-adv-x="229" 
d="M162 0h-95v706h95v-706zM257 781h-88v102h88v-102zM60 781h-87v102h87v-102z" />
    <glyph glyph-name="Upsilondieresis" unicode="&#x3ab;" horiz-adv-x="613" 
d="M605 706l-254 -383v-323h-95v323l-248 383h111l186 -299l188 299h112zM455 781h-88v102h88v-102zM258 781h-87v102h87v-102z" />
    <glyph glyph-name="alphatonos" unicode="&#x3ac;" horiz-adv-x="578" 
d="M386 666l-86 -144h-41l41 144h86zM498 471v-354q0 -18 1.5 -27.5t10 -18.5t24.5 -9q6 0 24 4v-66q-27 -9 -56 -9q-73 0 -79 78q-58 -84 -166 -84q-101 0 -159 70t-58 182q0 65 20 115.5t52.5 78.5t69 41.5t74.5 13.5q62 0 102.5 -26t59.5 -56v67h80zM420 242
q0 74 -39.5 122.5t-105.5 48.5q-75 0 -112 -52t-37 -127q0 -73 34.5 -125.5t112.5 -52.5q61 0 104 43.5t43 142.5z" />
    <glyph glyph-name="epsilontonos" unicode="&#x3ad;" horiz-adv-x="504" 
d="M484 110q-39 -69 -93 -97t-133 -28q-218 0 -218 142q0 46 33.5 82t84.5 43q-48 7 -73 35t-25 66q0 68 54.5 100.5t141.5 32.5q174 0 209 -134l-80 -19q-6 37 -34.5 65t-88.5 28q-116 0 -116 -78q0 -33 25 -51t71 -18h95v-57h-102q-46 0 -76 -21t-30 -68q0 -39 31 -62.5
t96 -23.5q117 0 156 94zM375 666l-86 -144h-41l41 144h86z" />
    <glyph glyph-name="etatonos" unicode="&#x3ae;" horiz-adv-x="547" 
d="M30 405v66q28 11 56 11q42 0 63 -17t21 -63q51 84 148 84q16 0 35 -3.5t49.5 -19t49.5 -42.5q29 -41 29 -123v-522h-79v533q0 51 -31 76.5t-76 25.5q-52 0 -88.5 -35.5t-36.5 -96.5v-279h-80v354q0 18 -1.5 27.5t-10 18.5t-24.5 9q-6 0 -24 -4zM380 666l-86 -144h-41
l41 144h86z" />
    <glyph glyph-name="iotatonos" unicode="&#x3af;" horiz-adv-x="222" 
d="M202 66v-66q-27 -9 -57 -9q-80 0 -80 91v389h77v-354q0 -18 1.5 -27.5t10 -18.5t24.5 -9q8 0 24 4zM186 666l-86 -144h-41l41 144h86z" />
    <glyph glyph-name="upsilondieresistonos" unicode="&#x3b0;" horiz-adv-x="479" 
d="M434 179q0 -194 -194 -194q-28 0 -52.5 4t-51.5 16.5t-46.5 32t-32 54.5t-12.5 81v298h79v-304q0 -63 34.5 -90.5t83.5 -27.5q114 0 114 126v296h78v-292zM413 541h-81v96h81v-96zM321 683l-74 -142h-58l32 142h100zM149 541h-80v96h80v-96z" />
    <glyph glyph-name="alpha" unicode="&#x3b1;" horiz-adv-x="578" 
d="M498 471v-354q0 -18 1.5 -27.5t10 -18.5t24.5 -9q6 0 24 4v-66q-27 -9 -56 -9q-73 0 -79 78q-58 -84 -166 -84q-101 0 -159 70t-58 182q0 65 20 115.5t52.5 78.5t69 41.5t74.5 13.5q62 0 102.5 -26t59.5 -56v67h80zM420 242q0 74 -39.5 122.5t-105.5 48.5q-75 0 -112 -52
t-37 -127q0 -73 34.5 -125.5t112.5 -52.5q61 0 104 43.5t43 142.5z" />
    <glyph glyph-name="beta" unicode="&#x3b2;" horiz-adv-x="541" 
d="M69 -224v683q0 242 210 242q102 0 151 -47t49 -115q0 -44 -28 -90.5t-95 -61.5q89 -12 130 -65t41 -132q0 -33 -11 -66.5t-34 -66t-68 -53t-105 -20.5q-47 0 -84.5 16.5t-53 31.5t-24.5 31v-287h-78zM444 193q0 78 -42 115.5t-137 37.5h-19v69h10q19 0 39.5 4t47 15.5
t43.5 38.5t17 66q0 43 -32.5 70.5t-89.5 27.5q-134 0 -134 -167v-239q0 -78 38 -128.5t120 -50.5q60 0 99.5 37.5t39.5 103.5z" />
    <glyph glyph-name="gamma" unicode="&#x3b3;" horiz-adv-x="480" 
d="M460 471l-172 -474v-221h-78v222l-123 352q-13 37 -21 44.5t-33 7.5h-13v69h32q45 0 66 -18t40 -75l93 -279l127 372h82z" />
    <glyph glyph-name="delta" unicode="&#x3b4;" horiz-adv-x="539" 
d="M504 228q0 -121 -67.5 -182t-163.5 -61q-106 0 -168.5 62.5t-62.5 171.5q0 96 50.5 161t149.5 71q-72 20 -106.5 56.5t-34.5 77.5q0 59 49 87.5t119 28.5q61 0 115 -26.5t75 -85.5l-80 -19q-12 36 -41.5 54.5t-64.5 18.5q-89 0 -89 -59q0 -19 12.5 -36t39 -32.5t43 -23
t49.5 -21.5q97 -40 136.5 -101t39.5 -142zM417 227q0 26 -5.5 51.5t-19.5 55t-45 48t-75 18.5q-68 0 -105.5 -50t-37.5 -131q0 -87 41 -128.5t104 -41.5q62 0 102.5 44t40.5 134z" />
    <glyph glyph-name="epsilon" unicode="&#x3b5;" horiz-adv-x="504" 
d="M484 110q-39 -69 -93 -97t-133 -28q-218 0 -218 142q0 46 33.5 82t84.5 43q-48 7 -73 35t-25 66q0 68 54.5 100.5t141.5 32.5q174 0 209 -134l-80 -19q-6 37 -34.5 65t-88.5 28q-116 0 -116 -78q0 -33 25 -51t71 -18h95v-57h-102q-46 0 -76 -21t-30 -68q0 -39 31 -62.5
t96 -23.5q117 0 156 94z" />
    <glyph glyph-name="zeta" unicode="&#x3b6;" horiz-adv-x="420" 
d="M64 624v72h358v-60q-55 -41 -103.5 -87.5t-94 -104t-72.5 -124t-27 -130.5q0 -71 35 -92.5t123 -22.5q74 -1 108 -21t34 -75q0 -40 -23.5 -77.5t-67.5 -85.5l-66 46q82 59 82 100q0 26 -17 32t-71 6q-224 0 -224 169q0 122 69.5 239.5t200.5 215.5h-244z" />
    <glyph glyph-name="eta" unicode="&#x3b7;" horiz-adv-x="547" 
d="M30 405v66q28 11 56 11q42 0 63 -17t21 -63q51 84 148 84q16 0 35 -3.5t49.5 -19t49.5 -42.5q29 -41 29 -123v-522h-79v533q0 51 -31 76.5t-76 25.5q-52 0 -88.5 -35.5t-36.5 -96.5v-279h-80v354q0 18 -1.5 27.5t-10 18.5t-24.5 9q-6 0 -24 -4z" />
    <glyph glyph-name="theta" unicode="&#x3b8;" horiz-adv-x="536" 
d="M492 360q0 -375 -226 -375q-222 0 -222 372q0 29 2.5 59t10 72t23.5 77.5t39.5 67t62 50t86.5 18.5q46 0 83.5 -17.5t61 -47.5t40 -65t24.5 -75.5t11.5 -72.5t3.5 -63zM407 394q0 43 -6 82t-20 78t-43 62t-70 23q-40 0 -68.5 -24t-43 -62.5t-21 -78t-6.5 -80.5h278z
M407 327h-279q0 -53 6.5 -99t21.5 -88t43.5 -66.5t68.5 -24.5q39 0 67.5 24t43.5 65.5t21.5 88t6.5 100.5z" />
    <glyph glyph-name="iota" unicode="&#x3b9;" horiz-adv-x="222" 
d="M202 66v-66q-27 -9 -57 -9q-80 0 -80 91v389h77v-354q0 -18 1.5 -27.5t10 -18.5t24.5 -9q8 0 24 4z" />
    <glyph glyph-name="kappa" unicode="&#x3ba;" horiz-adv-x="519" 
d="M237 233l-87 -77v-156h-81v471h81v-220l202 182q28 26 48.5 32t77.5 6v-69h-7q-27 -1 -41 -5.5t-35 -22.5l-99 -89l210 -285h-98z" />
    <glyph glyph-name="lambda" unicode="&#x3bb;" horiz-adv-x="490" 
d="M205 461l-20 58q-27 78 -39 98t-37 20q-29 0 -60 -15v61q27 18 68 18q22 0 38 -3.5t29.5 -13.5t22 -20t19 -33t17 -41.5t18.5 -54.5l137 -404q15 -43 26.5 -56t28.5 -13q18 0 29 4v-64q-20 -9 -55 -9q-31 0 -53.5 20.5t-42.5 79.5l-91 265l-148 -358h-86z" />
    <glyph glyph-name="uni03BC" unicode="&#x3bc;" horiz-adv-x="564" 
d="M86 470h80v-236q0 -102 22 -134q29 -44 86 -44q68 0 98 68q17 38 17 130v216h80v-347q0 -40 7 -54t26 -14q12 0 28 7v-64q-28 -7 -43 -7q-41 0 -61.5 18.5t-26.5 61.5q-23 -44 -51.5 -63t-74.5 -19q-68 0 -109 59q4 -235 4 -264h-82v686z" />
    <glyph glyph-name="nu" unicode="&#x3bd;" horiz-adv-x="448" 
d="M428 428q0 -35 -31 -105l-139 -323h-72l-172 471h83l128 -364l99 239q27 69 27 84q0 18 -6 41h78q5 -18 5 -43z" />
    <glyph glyph-name="xi" unicode="&#x3be;" horiz-adv-x="440" 
d="M371 411v-69h-71q-74 0 -125 -37.5t-51 -107.5q0 -63 33.5 -93.5t128.5 -30.5q78 0 113.5 -20t35.5 -76q0 -40 -23 -76t-68 -85l-66 46q82 59 82 100q0 26 -17 32t-71 6q-106 0 -171 44.5t-65 140.5q0 75 43 126t123 67q-61 9 -94 46t-33 86q0 48 29 78t71 41h-106v67
h361v-67h-90q-82 0 -132 -28t-50 -86q0 -33 12.5 -55.5t35 -32t42.5 -13t47 -3.5h76z" />
    <glyph glyph-name="omicron" unicode="&#x3bf;" horiz-adv-x="542" 
d="M502 240q0 -122 -65.5 -188.5t-165.5 -66.5q-102 0 -166.5 66t-64.5 184q0 27 5 55.5t20.5 65t40.5 64.5t69.5 47t102.5 19q91 0 157.5 -63.5t66.5 -182.5zM416 246q0 72 -33 124t-106 52q-42 0 -72.5 -18t-45 -40t-22.5 -53.5t-9 -47t-1 -32.5q0 -20 2.5 -40.5
t11.5 -47.5t24 -46.5t42 -33.5t63 -14q71 0 108.5 52t37.5 145z" />
    <glyph glyph-name="pi" unicode="&#x3c0;" horiz-adv-x="560" 
d="M527 0h-34q-64 0 -89.5 26t-25.5 80v296h-201v-402h-79v402h-54v69h468v-69h-54v-266q0 -43 10.5 -56t47.5 -13h11v-67z" />
    <glyph glyph-name="rho" unicode="&#x3c1;" horiz-adv-x="550" 
d="M288 -16q-112 0 -160 81v-289h-78v459q0 26 4.5 55t19.5 65t39 64t66.5 47.5t97.5 19.5q104 0 168.5 -62t64.5 -187q0 -44 -11.5 -85.5t-35.5 -80.5t-69.5 -63t-105.5 -24zM128 230q0 -77 38.5 -129t119.5 -52q72 0 106 52t34 138q0 183 -149 183q-39 0 -68.5 -15.5
t-44.5 -36t-23.5 -50t-10.5 -49.5t-2 -41z" />
    <glyph glyph-name="sigma1" unicode="&#x3c2;" horiz-adv-x="489" 
d="M270 428q-60 0 -101.5 -46t-41.5 -137q0 -79 34.5 -115t120.5 -47q27 -4 38.5 -5.5t35.5 -9t35 -17.5t21 -29t10 -45q0 -40 -23 -76t-68 -85l-66 46q82 59 82 100q0 7 -2 13.5t-6 11t-8.5 8.5t-12 6.5t-13 4.5t-16 4t-16 2.5t-17.5 2t-17 2.5q-199 30 -199 226
q0 103 60 173t169 70q161 0 207 -146l-80 -30q-9 53 -42 85.5t-84 32.5z" />
    <glyph glyph-name="sigma" unicode="&#x3c3;" horiz-adv-x="562" 
d="M532 402h-123q93 -44 93 -171q0 -116 -67.5 -181t-164.5 -65q-99 0 -164.5 63.5t-65.5 177.5q0 106 62 175.5t172 69.5h258v-69zM416 227q0 90 -42 132.5t-104 42.5t-102.5 -45.5t-40.5 -134.5q0 -88 40.5 -130.5t103.5 -42.5q61 0 103 46.5t42 131.5z" />
    <glyph glyph-name="tau" unicode="&#x3c4;" horiz-adv-x="438" 
d="M418 402h-153v-300q0 -25 8 -36t27 -11q20 0 50 11v-66q-56 -8 -76 -8q-55 0 -73 20t-18 65v325h-75q-36 0 -78 -21v70q39 20 105 20h283v-69z" />
    <glyph glyph-name="upsilon" unicode="&#x3c5;" horiz-adv-x="479" 
d="M434 179q0 -194 -194 -194q-28 0 -52.5 4t-51.5 16.5t-46.5 32t-32 54.5t-12.5 81v298h79v-304q0 -63 34.5 -90.5t83.5 -27.5q114 0 114 126v296h78v-292z" />
    <glyph glyph-name="phi" unicode="&#x3c6;" horiz-adv-x="644" 
d="M284 -224v211q-110 7 -177 70t-67 179q0 28 5 55.5t21 61.5t41.5 60t71.5 46t105 25v147h76v-147q101 -5 172.5 -66t71.5 -178q0 -119 -68.5 -182t-175.5 -71v-211h-76zM518 246q0 76 -39 123.5t-119 53.5v-375q158 16 158 198zM127 230q0 -33 7 -61t23 -55t48.5 -44.5
t78.5 -21.5v374q-157 -18 -157 -192z" />
    <glyph glyph-name="chi" unicode="&#x3c7;" horiz-adv-x="495" 
d="M453 -229q-41 0 -67 21t-52 83l-70 164l-129 -263h-90l178 354l-100 228q-16 35 -28 44t-36 9q-13 0 -29 -6v66q31 11 56 11q47 0 68 -17.5t42 -68.5l74 -173l123 248h90l-171 -340l92 -214q23 -52 36 -64.5t34 -12.5q18 0 29 4v-64q-19 -9 -50 -9z" />
    <glyph glyph-name="psi" unicode="&#x3c8;" horiz-adv-x="616" 
d="M571 228q0 -129 -59.5 -182.5t-165.5 -58.5v-211h-76v211q-106 5 -165.5 58.5t-59.5 182.5v243h79v-240q0 -103 36.5 -140t109.5 -42v582h76v-582q73 5 109.5 42t36.5 140v240h79v-243z" />
    <glyph glyph-name="omega" unicode="&#x3c9;" horiz-adv-x="673" 
d="M631 218q0 -100 -38.5 -166.5t-125.5 -66.5q-110 0 -131 85q-20 -85 -131 -85q-45 0 -78 19.5t-51 53.5t-26 73.5t-8 86.5q0 79 14 131.5t43 78.5t60 36.5t76 13.5v-64q-23 -2 -38 -8.5t-32.5 -25.5t-26.5 -59.5t-9 -102.5q0 -29 3.5 -56t12.5 -54t27 -43t43 -16
q83 0 83 134v139h77v-138q0 -135 83 -135q26 0 44 16t26.5 43t12 53.5t3.5 56.5q0 62 -9 102.5t-26.5 59.5t-32.5 25.5t-38 8.5v64q45 -3 76 -13.5t60 -36.5t43 -78.5t14 -131.5z" />
    <glyph glyph-name="iotadieresis" unicode="&#x3ca;" horiz-adv-x="222" 
d="M202 66v-66q-27 -9 -57 -9q-80 0 -80 91v389h77v-354q0 -18 1.5 -27.5t10 -18.5t24.5 -9q8 0 24 4zM225 541h-89v103h89v-103zM27 541h-87v103h87v-103z" />
    <glyph glyph-name="upsilondieresis" unicode="&#x3cb;" horiz-adv-x="479" 
d="M434 179q0 -194 -194 -194q-28 0 -52.5 4t-51.5 16.5t-46.5 32t-32 54.5t-12.5 81v298h79v-304q0 -63 34.5 -90.5t83.5 -27.5q114 0 114 126v296h78v-292zM383 541h-89v103h89v-103zM185 541h-87v103h87v-103z" />
    <glyph glyph-name="omicrontonos" unicode="&#x3cc;" horiz-adv-x="542" 
d="M502 240q0 -122 -65.5 -188.5t-165.5 -66.5q-102 0 -166.5 66t-64.5 184q0 27 5 55.5t20.5 65t40.5 64.5t69.5 47t102.5 19q91 0 157.5 -63.5t66.5 -182.5zM416 246q0 72 -33 124t-106 52q-42 0 -72.5 -18t-45 -40t-22.5 -53.5t-9 -47t-1 -32.5q0 -20 2.5 -40.5
t11.5 -47.5t24 -46.5t42 -33.5t63 -14q71 0 108.5 52t37.5 145zM380 666l-86 -144h-41l41 144h86z" />
    <glyph glyph-name="upsilontonos" unicode="&#x3cd;" horiz-adv-x="479" 
d="M434 179q0 -194 -194 -194q-28 0 -52.5 4t-51.5 16.5t-46.5 32t-32 54.5t-12.5 81v298h79v-304q0 -63 34.5 -90.5t83.5 -27.5q114 0 114 126v296h78v-292zM345 666l-86 -144h-41l41 144h86zM434 179q0 -194 -194 -194q-28 0 -52.5 4t-51.5 16.5t-46.5 32t-32 54.5
t-12.5 81v298h79v-304q0 -63 34.5 -90.5t83.5 -27.5q114 0 114 126v296h78v-292z" />
    <glyph glyph-name="omegatonos" unicode="&#x3ce;" horiz-adv-x="673" 
d="M631 218q0 -100 -38.5 -166.5t-125.5 -66.5q-110 0 -131 85q-20 -85 -131 -85q-45 0 -78 19.5t-51 53.5t-26 73.5t-8 86.5q0 79 14 131.5t43 78.5t60 36.5t76 13.5v-64q-23 -2 -38 -8.5t-32.5 -25.5t-26.5 -59.5t-9 -102.5q0 -29 3.5 -56t12.5 -54t27 -43t43 -16
q83 0 83 134v139h77v-138q0 -135 83 -135q26 0 44 16t26.5 43t12 53.5t3.5 56.5q0 62 -9 102.5t-26.5 59.5t-32.5 25.5t-38 8.5v64q45 -3 76 -13.5t60 -36.5t43 -78.5t14 -131.5zM441 666l-86 -144h-41l41 144h86z" />
    <glyph glyph-name="afii10023" unicode="&#x401;" horiz-adv-x="604" 
d="M577 0h-498v706h486v-83h-396v-218h344v-82h-344v-241h408v-82zM460 781h-88v102h88v-102zM263 781h-87v102h87v-102z" />
    <glyph glyph-name="afii10051" unicode="&#x402;" horiz-adv-x="750" 
d="M530 624h-212v-238q76 41 164 41q67 0 115 -18.5t72 -51t34.5 -68.5t10.5 -79q0 -41 -10.5 -75.5t-35.5 -66.5t-74 -50t-118 -18h-27v76q167 0 167 134q0 68 -35.5 101.5t-98.5 33.5q-88 0 -164 -43v-302h-94v624h-212v82h518v-82z" />
    <glyph glyph-name="afii10052" unicode="&#x403;" horiz-adv-x="542" 
d="M531 624h-359v-624h-94v706h453v-82zM409 895l-87 -124h-60l48 124h99z" />
    <glyph glyph-name="afii10053" unicode="&#x404;" horiz-adv-x="764" 
d="M642 231l100 -12q-34 -119 -127.5 -178t-220.5 -59q-157 0 -250.5 102t-93.5 269t95.5 269t260.5 102q257 0 326 -206l-95 -18q-14 45 -42.5 76.5t-63 46t-63 20t-58.5 5.5q-113 0 -178.5 -66t-77.5 -182h368v-82h-368q9 -112 70.5 -186t181.5 -74q87 0 154 50t82 123z
" />
    <glyph glyph-name="afii10054" unicode="&#x405;" horiz-adv-x="667" 
d="M37 226l101 13q0 -10 1 -19t5.5 -29t12 -36t23 -35.5t36 -32.5t53 -22t72.5 -9q26 0 53 6t56.5 20t48 43.5t18.5 71.5q0 54 -34 79t-100 38l-64 13q-126 25 -187 70.5t-61 130.5q0 82 67 138q70 58 183 58q126 0 195 -53q43 -32 61.5 -69.5t28.5 -94.5l-95 -6
q0 15 -3.5 31.5t-15 38.5t-30 39t-53.5 29t-80 12q-38 0 -72 -9t-61.5 -35t-27.5 -67q0 -47 35.5 -70.5t105.5 -40.5l129 -31q20 -5 32.5 -8.5t44 -19t51 -34.5t36 -54t16.5 -79q0 -87 -59 -145q-78 -76 -223 -76q-117 0 -193 49q-93 60 -106 195z" />
    <glyph glyph-name="afii10055" unicode="&#x406;" horiz-adv-x="229" 
d="M162 0h-95v706h95v-706z" />
    <glyph glyph-name="afii10056" unicode="&#x407;" horiz-adv-x="280" 
d="M187 0h-94v706h94v-706zM254 781h-84v102h84v-102zM110 781h-84v102h84v-102z" />
    <glyph glyph-name="afii10057" unicode="&#x408;" 
d="M297 706v-519q0 -36 -1.5 -54t-10 -43t-26.5 -46q-53 -62 -154 -62q-44 0 -96 10v103q40 -20 93 -20q58 0 83 37q11 16 13.5 39.5t2.5 76.5v478h96z" />
    <glyph glyph-name="afii10058" unicode="&#x409;" horiz-adv-x="1060" 
d="M584 706v-296h218q64 0 109.5 -17t69 -47t33.5 -63t10 -73q0 -41 -10.5 -75.5t-35.5 -66.5t-74 -50t-118 -18h-296v624h-252q0 -144 -3 -237.5t-13 -166.5t-24 -112t-40.5 -64.5t-57 -33.5t-80.5 -10h-10v82h10q30 3 46.5 9t33 28.5t24 60t14 109.5t8.5 169.5t2 247.5
h436zM584 328v-246h198q144 0 144 124q0 61 -35.5 91.5t-98.5 30.5h-208z" />
    <glyph glyph-name="afii10059" unicode="&#x40a;" horiz-adv-x="1100" 
d="M78 706h94v-296h358v296h94v-296h218q64 0 109.5 -17t69 -47t33.5 -63t10 -73q0 -41 -10.5 -75.5t-35.5 -66.5t-74 -50t-118 -18h-296v328h-358v-328h-94v706zM624 328v-246h198q144 0 144 124q0 61 -35.5 91.5t-98.5 30.5h-208z" />
    <glyph glyph-name="afii10060" unicode="&#x40b;" horiz-adv-x="760" 
d="M530 624h-212v-222q88 26 161 26q124 0 175.5 -46t51.5 -132v-250h-94v204q0 85 -31.5 113.5t-110.5 28.5q-77 0 -152 -26v-320h-94v624h-212v82h518v-82z" />
    <glyph glyph-name="afii10061" unicode="&#x40c;" horiz-adv-x="660" 
d="M78 706h94v-292h167q48 5 77 24.5t41.5 51t19.5 65t20.5 76.5t36.5 75h104q-33 -37 -52 -81t-26 -79.5t-16.5 -69t-33 -59.5t-66.5 -41q48 -11 75 -38t38.5 -66t18.5 -80.5t24.5 -95t47.5 -96.5h-108q-22 31 -33.5 77.5t-18 86.5t-19.5 78.5t-47 62t-91 27.5h-159v-332
h-94v706zM439 895l-87 -124h-60l48 124h99z" />
    <glyph glyph-name="afii10062" unicode="&#x40e;" horiz-adv-x="624" 
d="M120 706l204 -452l190 452h100l-208 -472q-47 -107 -79 -153t-73 -63.5t-117 -17.5h-30v82h30q63 0 89 14.5t45 58.5l-257 551h106zM411 888l72 -10q-7 -52 -51 -83t-106 -31t-106.5 31t-51.5 83l73 10q13 -54 85 -54q75 0 85 54z" />
    <glyph glyph-name="afii10145" unicode="&#x40f;" horiz-adv-x="708" 
d="M538 706h92v-706h-233v-170h-86v170h-233v706h94v-624h366v624z" />
    <glyph glyph-name="afii10017" unicode="&#x410;" horiz-adv-x="646" 
d="M634 0h-99l-77 216h-269l-79 -216h-100l269 706h98zM430 295l-103 295l-108 -295h211z" />
    <glyph glyph-name="afii10018" unicode="&#x411;" horiz-adv-x="680" 
d="M78 706h508v-82h-414v-214h250q64 0 109.5 -17t69 -47t33.5 -63t10 -73q0 -41 -10.5 -75.5t-35.5 -66.5t-74 -50t-118 -18h-328v706zM172 328v-246h230q144 0 144 124q0 61 -35.5 91.5t-98.5 30.5h-240z" />
    <glyph glyph-name="afii10019" unicode="&#x412;" horiz-adv-x="688" 
d="M77 0v706h339q82 0 142.5 -48.5t60.5 -132.5q0 -54 -29.5 -96.5t-78.5 -56.5q129 -39 129 -177q0 -45 -15 -80.5t-37.5 -56.5t-53 -34.5t-58.5 -18.5t-57 -5h-342zM166 409h209q145 0 145 111q0 47 -29 75t-92 28h-233v-214zM166 83h229q31 0 53 3.5t46 15t36.5 37
t12.5 63.5q0 62 -39.5 94.5t-105.5 32.5h-232v-246z" />
    <glyph glyph-name="afii10020" unicode="&#x413;" horiz-adv-x="542" 
d="M531 624h-359v-624h-94v706h453v-82z" />
    <glyph glyph-name="afii10021" unicode="&#x414;" horiz-adv-x="754" 
d="M172 706h460v-624h90v-232h-86v150h-538v-150h-86v232q29 2 56 26t51 72t38.5 133t14.5 197v196zM262 624v-114q0 -339 -104 -428h380v542h-276z" />
    <glyph glyph-name="afii10022" unicode="&#x415;" horiz-adv-x="604" 
d="M576 0h-498v706h486v-82h-392v-219h340v-82h-340v-241h404v-82z" />
    <glyph glyph-name="afii10024" unicode="&#x416;" horiz-adv-x="900" 
d="M403 706h94v-292h84q46 5 73 24.5t39 51t18.5 65t20 76.5t34.5 75h104q-32 -37 -50 -81t-24.5 -79.5t-15.5 -69t-31 -59.5t-63 -41q48 -11 75 -38t38.5 -66t18.5 -80.5t24.5 -95t47.5 -96.5h-108q-22 31 -33.5 77.5t-18 86.5t-19.5 78.5t-47 62t-91 27.5h-76v-332h-94
v332h-76q-57 -4 -91 -27.5t-47 -62t-19.5 -78.5t-18 -86.5t-33.5 -77.5h-108q30 43 47.5 96.5t24.5 95t18.5 80.5t38.5 66t75 38q-41 15 -63 41t-31 59.5t-15.5 69t-24.5 79.5t-50 81h104q21 -32 34.5 -75t20 -76.5t18.5 -65t39 -51t73 -24.5h84v292z" />
    <glyph glyph-name="afii10025" unicode="&#x417;" horiz-adv-x="662" 
d="M230 328v82h122q84 0 115.5 30t31.5 86q0 60 -43 91t-116 31q-80 0 -127.5 -40t-54.5 -108l-91 18q15 100 86.5 153t183.5 53q129 0 195.5 -51t66.5 -146q0 -111 -108 -155q57 -14 90 -58t33 -108q0 -224 -278 -224q-55 0 -102.5 10.5t-92 35t-73 72.5t-34.5 115l94 16
q0 -43 16 -76t38.5 -51t53 -29t54.5 -14t47 -3q88 0 131.5 42t43.5 108q0 20 -4.5 37.5t-16.5 38t-40 32.5t-70 12h-151z" />
    <glyph glyph-name="afii10026" unicode="&#x418;" horiz-adv-x="728" 
d="M78 706h94v-502l384 436v66h94v-706h-94v516l-384 -436v-80h-94v706z" />
    <glyph glyph-name="afii10027" unicode="&#x419;" horiz-adv-x="728" 
d="M78 706h94v-502l384 436v66h94v-706h-94v516l-384 -436v-80h-94v706zM449 888l72 -10q-7 -52 -51 -83t-106 -31t-106 31t-51 83l72 10q13 -54 85 -54q75 0 85 54z" />
    <glyph glyph-name="afii10028" unicode="&#x41a;" horiz-adv-x="660" 
d="M78 706h94v-292h167q48 5 77 24.5t41.5 51t19.5 65t20.5 76.5t36.5 75h104q-33 -37 -52 -81t-26 -79.5t-16.5 -69t-33 -59.5t-66.5 -41q48 -11 75 -38t38.5 -66t18.5 -80.5t24.5 -95t47.5 -96.5h-108q-22 31 -33.5 77.5t-18 86.5t-19.5 78.5t-47 62t-91 27.5h-159v-332
h-94v706z" />
    <glyph glyph-name="afii10029" unicode="&#x41b;" horiz-adv-x="686" 
d="M514 624h-276q0 -144 -3 -237.5t-13 -166.5t-24 -112t-40.5 -64.5t-57 -33.5t-80.5 -10h-10v82h10q30 3 46.5 9t33 28.5t24 60t14 109.5t8.5 169.5t2 247.5h460v-706h-94v624z" />
    <glyph glyph-name="afii10030" unicode="&#x41c;" horiz-adv-x="812" 
d="M746 0h-94l13 592l-223 -592h-73l-219 583q10 -562 10 -583h-92v706h122l216 -579l218 579h122v-706z" />
    <glyph glyph-name="afii10031" unicode="&#x41d;" horiz-adv-x="729" 
d="M651 0h-95v323h-384v-323h-93v706h93v-300h384v300h95v-706z" />
    <glyph glyph-name="afii10032" unicode="&#x41e;" horiz-adv-x="812" 
d="M762 359q0 -54 -11.5 -105.5t-38.5 -101.5t-67.5 -87t-102.5 -60t-138 -23q-70 0 -132.5 23t-112.5 67.5t-79 117t-29 164.5q0 93 30 166t80.5 116.5t113 65.5t132.5 22q160 0 257.5 -101.5t97.5 -263.5zM153 353q0 -137 68.5 -217t187.5 -80q111 0 181 76.5t70 226.5
q0 56 -13.5 105t-41.5 91.5t-79 67.5t-119 25q-67 0 -118 -25t-79.5 -68t-42.5 -93.5t-14 -108.5z" />
    <glyph glyph-name="afii10033" unicode="&#x41f;" horiz-adv-x="710" 
d="M78 706h554v-706h-94v624h-366v-624h-94v706z" />
    <glyph glyph-name="afii10034" unicode="&#x420;" horiz-adv-x="625" 
d="M76 706h335q99 0 151 -55.5t52 -143.5q0 -53 -18.5 -98t-67 -77.5t-120.5 -32.5h-241v-299h-91v706zM167 383h227q58 0 92.5 32t34.5 94q0 59 -34 87.5t-92 28.5h-228v-242z" />
    <glyph glyph-name="afii10035" unicode="&#x421;" horiz-adv-x="764" 
d="M640 268l102 -12q-10 -47 -34 -92t-64.5 -87.5t-105.5 -68.5t-144 -26q-158 0 -251.5 102t-93.5 269t95.5 269t261.5 102q124 0 205 -56t117 -160l-95 -19q-21 67 -78.5 113.5t-149.5 46.5q-119 0 -185.5 -79.5t-66.5 -211.5q0 -145 70.5 -221t182.5 -76q88 0 153 52.5
t81 154.5z" />
    <glyph glyph-name="afii10036" unicode="&#x422;" horiz-adv-x="542" 
d="M528 624h-211v-624h-94v624h-212v82h517v-82z" />
    <glyph glyph-name="afii10037" unicode="&#x423;" horiz-adv-x="624" 
d="M120 706l204 -452l190 452h100l-208 -472q-47 -107 -79 -153t-73 -63.5t-117 -17.5h-30v82h30q63 0 89 14.5t45 58.5l-257 551h106z" />
    <glyph glyph-name="afii10038" unicode="&#x424;" horiz-adv-x="794" 
d="M350 720h94v-111q93 0 154 -16t94 -50.5t45.5 -78t12.5 -108.5t-12.5 -108.5t-45.5 -77t-94 -49t-154 -15.5v-116h-94v116q-93 0 -154 15.5t-94 49t-45.5 76.5t-12.5 107q0 65 12.5 108.5t45.5 78.5t94 51.5t154 16.5v111zM350 182v351q-120 0 -164 -41.5t-44 -140.5
q0 -95 43 -132t165 -37zM444 533v-351q120 0 164 36.5t44 137.5q0 98 -42.5 137.5t-165.5 39.5z" />
    <glyph glyph-name="afii10039" unicode="&#x425;" horiz-adv-x="625" 
d="M605 0h-111l-183 287l-181 -287h-109l235 370l-222 336h112l165 -254l158 254h111l-216 -336z" />
    <glyph glyph-name="afii10040" unicode="&#x426;" horiz-adv-x="752" 
d="M536 706h94v-624h90v-232h-86v150h-556v706h94v-624h364v624z" />
    <glyph glyph-name="afii10041" unicode="&#x427;" horiz-adv-x="660" 
d="M148 706v-214q0 -85 37.5 -113.5t130.5 -28.5q73 0 172 18v338h94v-706h-94v286q-100 -18 -181 -18q-139 0 -196 46t-57 132v260h94z" />
    <glyph glyph-name="afii10042" unicode="&#x428;" horiz-adv-x="962" 
d="M78 706h94v-624h262v624h94v-624h262v624h94v-706h-806v706z" />
    <glyph glyph-name="afii10043" unicode="&#x429;" horiz-adv-x="1006" 
d="M78 706h94v-624h262v624h94v-624h262v624h94v-624h90v-232h-86v150h-810v706z" />
    <glyph glyph-name="afii10044" unicode="&#x42a;" horiz-adv-x="788" 
d="M10 706h282v-296h238q64 0 109.5 -17t69 -47t33.5 -63t10 -73q0 -41 -10.5 -75.5t-35.5 -66.5t-74 -50t-118 -18h-316v624h-188v82zM292 328v-246h218q144 0 144 124q0 61 -35.5 91.5t-98.5 30.5h-228z" />
    <glyph glyph-name="afii10045" unicode="&#x42b;" horiz-adv-x="860" 
d="M78 706h94v-296h218q64 0 109.5 -17t69 -47t33.5 -63t10 -73q0 -41 -10.5 -75.5t-35.5 -66.5t-74 -50t-118 -18h-296v706zM172 328v-246h198q144 0 144 124q0 61 -35.5 91.5t-98.5 30.5h-208zM782 0h-94v706h94v-706z" />
    <glyph glyph-name="afii10046" unicode="&#x42c;" horiz-adv-x="668" 
d="M78 706h94v-296h238q64 0 109.5 -17t69 -47t33.5 -63t10 -73q0 -41 -10.5 -75.5t-35.5 -66.5t-74 -50t-118 -18h-316v706zM172 328v-246h218q144 0 144 124q0 61 -35.5 91.5t-98.5 30.5h-228z" />
    <glyph glyph-name="afii10047" unicode="&#x42d;" horiz-adv-x="776" 
d="M34 219l100 12q15 -73 82 -123t154 -50q112 0 176.5 76.5t75.5 183.5h-368v82h368q-12 114 -79 181t-169 67q-23 0 -46.5 -4t-59.5 -17t-68.5 -45.5t-52.5 -81.5l-95 18q23 61 63.5 103.5t88.5 63.5t92 30t91 9q146 0 242.5 -96.5t96.5 -269.5q0 -85 -23.5 -153
t-60.5 -108.5t-85 -67.5t-93 -37t-89 -10q-122 0 -214.5 59t-126.5 178z" />
    <glyph glyph-name="afii10048" unicode="&#x42e;" horiz-adv-x="1062" 
d="M172 706v-300h160q16 157 112 237.5t229 80.5q72 0 131 -23.5t97 -60.5t63.5 -86t36.5 -97.5t11 -97.5q0 -56 -13 -109.5t-40.5 -102.5t-67 -85.5t-97 -58t-125.5 -21.5q-139 0 -235 88.5t-102 253.5h-160v-324h-94v706h94zM430 353q0 -137 66 -216t173 -79
q105 0 173 82.5t68 218.5q0 115 -64 202t-173 87q-118 0 -180.5 -85t-62.5 -210z" />
    <glyph glyph-name="afii10049" unicode="&#x42f;" horiz-adv-x="680" 
d="M602 706v-706h-94v302h-133q-71 0 -113 -22.5t-58 -59.5t-23 -76t-18 -80.5t-33 -63.5h-110q29 25 45 65t22.5 79t16.5 77t35.5 67t69.5 40q-61 11 -100 53t-39 116q0 101 64.5 155t168.5 54h299zM508 384v240h-212q-69 0 -98.5 -37t-29.5 -87q0 -63 33.5 -89.5
t108.5 -26.5h198z" />
    <glyph glyph-name="afii10065" unicode="&#x430;" horiz-adv-x="500" 
d="M346 282v16q0 19 -1 31t-6.5 32t-15.5 32.5t-31 22t-51 9.5q-49 0 -75.5 -24t-26.5 -68v-7l-83 5q0 11 2.5 25.5t13.5 38.5t29 43t53.5 33.5t82.5 14.5q71 0 118 -28q46 -26 58.5 -62.5t12.5 -108.5v-166q0 -18 1.5 -27.5t10 -18.5t24.5 -9q6 0 24 4v-67q-27 -9 -51 -9
q-33 0 -50 12q-13 10 -22 28t-10 30q-71 -77 -161 -77q-71 0 -115.5 37.5t-44.5 97.5q0 63 51 102q59 44 191 53zM347 230q-145 -23 -169 -34q-58 -23 -58 -72q0 -29 22.5 -49.5t66.5 -20.5q20 0 40.5 5t44 18.5t38.5 43.5t15 72v37z" />
    <glyph glyph-name="afii10066" unicode="&#x431;" horiz-adv-x="546" 
d="M406 706h80q0 -64 -36.5 -94t-114.5 -37q-105 -9 -153 -53.5t-59 -140.5q35 48 75 69t100 21q100 0 154 -65t54 -174q0 -45 -12.5 -87t-38.5 -79t-71.5 -59t-104.5 -22q-115 0 -174 73t-59 196q0 147 29.5 232.5t91.5 124.5t170 46q33 2 51 12.5t18 36.5zM420 237
q0 70 -37.5 121t-98.5 51q-68 0 -107 -51.5t-39 -123.5q0 -87 40 -136t105 -49q57 0 97 49.5t40 138.5z" />
    <glyph glyph-name="afii10067" unicode="&#x432;" horiz-adv-x="500" 
d="M66 471h231q151 0 151 -118q0 -73 -65 -108q85 -24 85 -120q0 -59 -43.5 -92t-121.5 -33h-237v471zM144 405v-126h130q46 0 71 12.5t25 49.5t-25 50.5t-71 13.5h-130zM144 213v-147h145q101 0 101 72q0 36 -22.5 55.5t-78.5 19.5h-145z" />
    <glyph glyph-name="afii10068" unicode="&#x433;" horiz-adv-x="416" 
d="M66 471h340v-66h-262v-405h-78v471z" />
    <glyph glyph-name="afii10069" unicode="&#x434;" horiz-adv-x="572" 
d="M474 471v-405h78v-186h-70v120h-402v-120h-70v186q124 30 126 331v74h338zM396 405h-188v-38q0 -83 -19.5 -172.5t-63.5 -128.5h271v339z" />
    <glyph glyph-name="afii10070" unicode="&#x435;" horiz-adv-x="521" 
d="M125 221v-6q0 -65 38 -117.5t115 -52.5q55 0 84.5 33.5t39.5 76.5l81 -11q-53 -159 -213 -159q-97 0 -164 62.5t-67 192.5q0 64 21.5 113.5t56 77t73 41.5t77.5 14q88 0 152 -62.5t64 -189.5v-13h-358zM127 279h269q0 60 -38 102.5t-97 42.5q-60 0 -94 -41.5t-40 -103.5z
" />
    <glyph glyph-name="afii10072" unicode="&#x436;" horiz-adv-x="642" 
d="M282 471h78v-187h47q36 0 54.5 21t22.5 47.5t12.5 62.5t23.5 56h90q-25 -23 -37.5 -58t-15.5 -64t-19 -56t-48 -39q41 -11 62 -42t25 -64.5t16.5 -76.5t36.5 -71h-90q-15 28 -24 72.5t-13.5 73t-30 50.5t-73.5 22h-39v-218h-78v218h-39q-48 0 -73.5 -22t-30 -50.5
t-13.5 -73t-24 -72.5h-90q24 28 36.5 71t16.5 76.5t25 64.5t62 42q-32 12 -48 39t-19 56t-15.5 64t-37.5 58h90q15 -20 23.5 -56t12.5 -62.5t22.5 -47.5t54.5 -21h47v187z" />
    <glyph glyph-name="afii10073" unicode="&#x437;" horiz-adv-x="478" 
d="M338 250q108 -19 108 -122q0 -68 -51.5 -105.5t-148.5 -37.5q-92 0 -148 35t-68 126l78 12q6 -27 12 -41.5t20 -33t40.5 -26.5t66.5 -8q117 0 117 79q0 42 -25.5 62t-86.5 20h-60v66h50q106 0 106 77q0 29 -25.5 50t-75.5 21q-43 0 -79 -21t-45 -71l-78 10q7 68 62.5 106
t144.5 38q42 0 79 -9.5t68 -39t31 -75.5q0 -41 -20.5 -68.5t-71.5 -43.5z" />
    <glyph glyph-name="afii10074" unicode="&#x438;" horiz-adv-x="540" 
d="M66 471h78v-317l252 267v50h78v-471h-78v325l-252 -267v-58h-78v471z" />
    <glyph glyph-name="afii10075" unicode="&#x439;" horiz-adv-x="540" 
d="M66 471h78v-317l252 267v50h78v-471h-78v325l-252 -267v-58h-78v471zM351 684l64 -10q-7 -55 -47.5 -87.5t-97.5 -32.5t-97.5 32.5t-47.5 87.5l64 10q12 -66 81 -66q71 0 81 66z" />
    <glyph glyph-name="afii10076" unicode="&#x43a;" horiz-adv-x="478" 
d="M66 471h78v-187h95q40 0 60.5 21t25 47.5t14 62.5t25.5 56h90q-27 -23 -40.5 -60t-17 -67.5t-20.5 -57t-52 -32.5q41 -11 62 -42t25 -64.5t16.5 -76.5t36.5 -71h-90q-16 28 -24.5 72.5t-13.5 73t-30.5 50.5t-74.5 22h-87v-218h-78v471z" />
    <glyph glyph-name="afii10077" unicode="&#x43b;" horiz-adv-x="514" 
d="M448 471v-471h-78v405h-188v-43q0 -86 -1 -125.5t-9 -95.5t-24.5 -80t-47.5 -42.5t-78 -18.5h-12v66h12q37 1 54.5 23.5t25.5 84.5t8 188v109h338z" />
    <glyph glyph-name="afii10078" unicode="&#x43c;" horiz-adv-x="640" 
d="M472 471h102v-471h-70v387l-142 -387h-82l-136 395v-395h-78v471h118l144 -391z" />
    <glyph glyph-name="afii10079" unicode="&#x43d;" horiz-adv-x="530" 
d="M66 471h78v-191h242v191h78v-471h-78v214h-242v-214h-78v471z" />
    <glyph glyph-name="afii10080" unicode="&#x43e;" horiz-adv-x="542" 
d="M40 235q0 27 5 55.5t20.5 65t40.5 64.5t69.5 47t102.5 19q99 0 161.5 -62.5t62.5 -183.5q0 -122 -65.5 -188.5t-165.5 -66.5q-102 0 -166.5 66t-64.5 184zM126 231q0 -20 2.5 -40.5t11.5 -47.5t24 -46.5t42.5 -33.5t63.5 -14q71 0 108.5 52t37.5 145q0 72 -33 124
t-106 52q-42 0 -73 -18t-45.5 -40t-22.5 -53.5t-9 -47t-1 -32.5z" />
    <glyph glyph-name="afii10081" unicode="&#x43f;" horiz-adv-x="522" 
d="M66 471h390v-471h-78v405h-234v-405h-78v471z" />
    <glyph glyph-name="afii10082" unicode="&#x440;" horiz-adv-x="562" 
d="M66 471h78v-67q25 31 69 56.5t99 25.5q83 0 147.5 -65t64.5 -187q0 -44 -11.5 -85t-35.5 -79.5t-69 -61.5t-105 -23q-48 0 -91 18t-68 52v-279h-78v695zM144 227q0 -80 39.5 -126t108.5 -46q71 0 108.5 49t37.5 133q0 88 -42.5 131.5t-98.5 43.5q-69 0 -111 -49t-42 -136
z" />
    <glyph glyph-name="afii10083" unicode="&#x441;" horiz-adv-x="521" 
d="M408 178l86 -8q-35 -185 -222 -185q-109 0 -171 68.5t-62 178.5q0 111 59.5 182.5t169.5 71.5q97 0 151.5 -48.5t65.5 -109.5l-88 -8q-9 52 -42.5 80t-85.5 28q-61 0 -101.5 -45.5t-40.5 -145.5q0 -86 38 -138t109 -52q118 0 134 131z" />
    <glyph glyph-name="afii10084" unicode="&#x442;" horiz-adv-x="420" 
d="M14 471h392v-66h-157v-405h-78v405h-157v66z" />
    <glyph glyph-name="afii10085" unicode="&#x443;" horiz-adv-x="437" 
d="M342 471h83l-198 -557q-30 -85 -59 -116t-88 -31q-35 0 -71 10v72q24 -8 53 -8q35 0 53.5 19.5t38.5 78.5l20 58l-160 474h85l118 -374z" />
    <glyph glyph-name="afii10086" unicode="&#x444;" horiz-adv-x="640" 
d="M281 706h78v-235q130 -8 185.5 -68t55.5 -166q0 -230 -241 -237v-224h-78v224q-241 5 -241 233q0 113 59.5 171t181.5 67v235zM281 64v343q-31 -3 -55 -10.5t-48.5 -25.5t-38 -53.5t-13.5 -86.5q0 -74 34.5 -117t120.5 -50zM359 407v-343q91 5 123 50.5t32 119.5
q0 79 -34 121.5t-121 51.5z" />
    <glyph glyph-name="afii10087" unicode="&#x445;" horiz-adv-x="396" 
d="M387 0h-90l-100 168l-98 -168h-90l146 239l-139 232h92l94 -162l95 162h90l-142 -232z" />
    <glyph glyph-name="afii10088" unicode="&#x446;" horiz-adv-x="554" 
d="M66 471h78v-405h234v405h78v-405h78v-186h-70v120h-398v471z" />
    <glyph glyph-name="afii10089" unicode="&#x447;" horiz-adv-x="472" 
d="M44 471h78v-141q0 -46 24.5 -65.5t76.5 -19.5q55 0 105 18v208h78v-471h-78v197q-76 -16 -131 -16q-72 0 -112.5 33t-40.5 95v162z" />
    <glyph glyph-name="afii10090" unicode="&#x448;" horiz-adv-x="734" 
d="M66 471h78v-400h184v400h78v-400h184v400h78v-471h-602v471z" />
    <glyph glyph-name="afii10091" unicode="&#x449;" horiz-adv-x="766" 
d="M66 471h78v-400h184v400h78v-400h184v400h78v-405h78v-186h-70v120h-610v471z" />
    <glyph glyph-name="afii10092" unicode="&#x44a;" horiz-adv-x="570" 
d="M226 471v-185h155q84 0 122.5 -39t38.5 -100q0 -82 -44 -114.5t-139 -32.5h-211v405h-138v66h216zM226 220v-154h125q107 0 107 78q0 44 -28.5 60t-85.5 16h-118z" />
    <glyph glyph-name="afii10093" unicode="&#x44b;" horiz-adv-x="636" 
d="M144 471v-185h130q85 0 123.5 -39t38.5 -100q0 -82 -44 -114.5t-140 -32.5h-186v471h78zM144 220v-154h100q108 0 108 78q0 44 -28.5 60t-86.5 16h-93zM492 471h78v-471h-78v471z" />
    <glyph glyph-name="afii10094" unicode="&#x44c;" horiz-adv-x="488" 
d="M144 471v-185h155q84 0 122.5 -39t38.5 -100q0 -82 -44 -114.5t-139 -32.5h-211v471h78zM144 220v-154h125q107 0 107 78q0 44 -28.5 60t-85.5 16h-118z" />
    <glyph glyph-name="afii10095" unicode="&#x44d;" horiz-adv-x="526" 
d="M126 332l-85 6q14 59 69.5 103.5t146.5 44.5q106 0 167.5 -63t61.5 -188q0 -30 -6 -61t-22.5 -66t-41.5 -61.5t-67.5 -44t-96.5 -17.5q-84 0 -144 39.5t-78 125.5l78 8q10 -45 40.5 -71.5t54.5 -32t47 -5.5q65 0 105.5 44t42.5 112h-222v66h222q-12 153 -143 153
q-46 0 -83 -24.5t-46 -67.5z" />
    <glyph glyph-name="afii10096" unicode="&#x44e;" horiz-adv-x="750" 
d="M144 471v-191h121q5 37 17.5 69.5t37 65t70 52t106.5 19.5q90 0 152 -63t62 -183q0 -116 -63.5 -185.5t-157.5 -69.5q-100 0 -160.5 59.5t-66.5 169.5h-118v-214h-78v471h78zM348 231q0 -28 5 -54t18 -57.5t43 -51t74 -19.5q70 0 103 54t33 140q0 71 -33.5 125t-102.5 54
q-33 0 -58.5 -11.5t-40 -32t-23.5 -40.5t-12.5 -45t-4.5 -37t-1 -25z" />
    <glyph glyph-name="afii10097" unicode="&#x44f;" horiz-adv-x="500" 
d="M434 471v-471h-78v189h-99q-45 0 -70.5 -23.5t-31 -52.5t-13 -64t-20.5 -49h-92q21 16 32 48.5t15 62.5t25 59.5t61 42.5q-42 6 -66 38t-24 71q0 149 166 149h195zM356 405h-126q-42 0 -60.5 -24.5t-18.5 -50.5q0 -32 18.5 -53.5t62.5 -21.5h124v150z" />
    <glyph glyph-name="afii10071" unicode="&#x451;" horiz-adv-x="521" 
d="M399 604h-78v102h78v-102zM212 604h-78v102h78v-102zM125 221v-6q0 -65 38 -117.5t115 -52.5q55 0 84.5 33.5t39.5 76.5l81 -11q-53 -159 -213 -159q-97 0 -164 62.5t-67 192.5q0 64 21.5 113.5t56 77t73 41.5t77.5 14q88 0 152 -62.5t64 -189.5v-13h-358zM127 279h269
q0 60 -38 102.5t-97 42.5q-60 0 -94 -41.5t-40 -103.5z" />
    <glyph glyph-name="afii10099" unicode="&#x452;" horiz-adv-x="521" 
d="M66 706h78v-106h190v-66h-190v-151q59 63 145 63q169 0 169 -181v-369q0 -68 -25 -95q-28 -30 -81 -30q-33 0 -60 4v71q28 -3 36 -3q22 0 36 10q11 8 13.5 20.5t2.5 44.5v318q0 52 -10 79q-24 61 -97 61q-71 0 -107 -59q-22 -38 -22 -123v-194h-78v534h-100v66h100v106z
" />
    <glyph glyph-name="afii10100" unicode="&#x453;" horiz-adv-x="416" 
d="M66 471h340v-66h-262v-405h-78v471zM319 666l-86 -144h-41l41 144h86z" />
    <glyph glyph-name="afii10101" unicode="&#x454;" horiz-adv-x="526" 
d="M418 158l78 -8q-18 -86 -78 -125.5t-144 -39.5q-110 0 -172 68.5t-62 178.5q0 111 60.5 182.5t172.5 71.5q100 0 155 -44t64 -104l-85 -6q-7 44 -42.5 68t-89.5 24q-61 0 -101.5 -38.5t-45.5 -114.5h222v-66h-222q2 -68 42.5 -112t105.5 -44q23 0 47 5.5t54.5 32
t40.5 71.5z" />
    <glyph glyph-name="afii10102" unicode="&#x455;" horiz-adv-x="479" 
d="M31 152l91 13q0 -55 26 -83q33 -36 106 -36q41 0 75 17.5t34 61.5q0 20 -8 34t-25.5 22t-30 11.5t-34.5 7.5l-46 9q-93 18 -130.5 51.5t-37.5 85.5q0 71 54.5 105.5t128.5 34.5q66 0 110 -25t66 -58q19 -29 25 -72l-86 -10q-1 32 -7 44q-11 23 -42 41.5t-77 18.5
q-45 0 -69 -21.5t-24 -47.5q0 -29 27 -44.5t87 -29.5l46 -11q76 -18 116.5 -48t40.5 -89q0 -67 -56 -108t-141 -41q-194 0 -219 167z" />
    <glyph glyph-name="afii10103" unicode="&#x456;" horiz-adv-x="208" 
d="M146 0h-77v471h77v-471zM144 604h-78v102h78v-102z" />
    <glyph glyph-name="afii10104" unicode="&#x457;" horiz-adv-x="240" 
d="M159 0h-78v471h78v-471zM220 604h-74v102h74v-102zM94 604h-74v102h74v-102z" />
    <glyph glyph-name="afii10105" unicode="&#x458;" horiz-adv-x="208" 
d="M143 613h-78v93h78v-93zM143 471v-575q0 -68 -25 -95q-28 -30 -81 -30q-33 0 -60 4v71q28 -3 36 -3q22 0 36 10q11 8 13.5 20.5t2.5 44.5v553h78z" />
    <glyph glyph-name="afii10106" unicode="&#x459;" horiz-adv-x="760" 
d="M436 471v-185h135q84 0 122.5 -39t38.5 -100q0 -82 -44 -114.5t-139 -32.5h-191v405h-176v-43q0 -86 -1 -125.5t-9 -95.5t-24.5 -80t-47.5 -42.5t-78 -18.5h-12v66h12q37 1 54.5 23.5t25.5 84.5t8 188v109h326zM436 220v-154h105q107 0 107 78q0 44 -28.5 60t-85.5 16
h-98z" />
    <glyph glyph-name="afii10107" unicode="&#x45a;" horiz-adv-x="780" 
d="M66 471h78v-185h234v185h78v-185h135q84 0 122.5 -39t38.5 -100q0 -82 -44 -114.5t-139 -32.5h-191v220h-234v-220h-78v471zM456 220v-154h105q107 0 107 78q0 44 -28.5 60t-85.5 16h-98z" />
    <glyph glyph-name="afii10108" unicode="&#x45b;" horiz-adv-x="521" 
d="M458 0h-78v236q0 52 -10 79q-24 61 -97 61q-71 0 -107 -59q-22 -38 -22 -123v-194h-78v534h-100v66h100v106h78v-106h190v-66h-190v-151q59 63 145 63q169 0 169 -181v-265z" />
    <glyph glyph-name="afii10109" unicode="&#x45c;" horiz-adv-x="478" 
d="M66 471h78v-187h95q40 0 60.5 21t25 47.5t14 62.5t25.5 56h90q-27 -23 -40.5 -60t-17 -67.5t-20.5 -57t-52 -32.5q41 -11 62 -42t25 -64.5t16.5 -76.5t36.5 -71h-90q-16 28 -24.5 72.5t-13.5 73t-30.5 50.5t-74.5 22h-87v-218h-78v471zM349 666l-86 -144h-41l41 144h86z
" />
    <glyph glyph-name="afii10110" unicode="&#x45e;" horiz-adv-x="437" 
d="M342 471h83l-198 -557q-30 -85 -59 -116t-88 -31q-35 0 -71 10v72q24 -8 53 -8q35 0 53.5 19.5t38.5 78.5l20 58l-160 474h85l118 -374zM307 684l64 -10q-7 -55 -47.5 -87.5t-97.5 -32.5t-97.5 32.5t-48.5 87.5l65 10q12 -66 81 -66q71 0 81 66z" />
    <glyph glyph-name="afii10193" unicode="&#x45f;" horiz-adv-x="522" 
d="M66 471h78v-405h234v405h78v-471h-160v-140h-70v140h-160v471z" />
    <glyph glyph-name="afii10050" unicode="&#x490;" horiz-adv-x="542" 
d="M78 706h367v150h86v-232h-359v-624h-94v706z" />
    <glyph glyph-name="afii10098" unicode="&#x491;" horiz-adv-x="416" 
d="M66 471h268v120h72v-186h-262v-405h-78v471z" />
    <glyph glyph-name="Wgrave" unicode="&#x1e80;" horiz-adv-x="1021" 
d="M1003 706l-216 -706h-92l-186 585l-180 -585h-94l-217 706h99l167 -585l179 585h92l186 -585l165 585h97zM561 771h-59l-87 124h99z" />
    <glyph glyph-name="wgrave" unicode="&#x1e81;" horiz-adv-x="729" 
d="M719 471l-173 -471h-70l-113 351l-115 -351h-73l-164 471h86l118 -350l116 350h70l111 -350l123 350h84zM410 521h-48l-83 144h89z" />
    <glyph glyph-name="Wacute" unicode="&#x1e82;" horiz-adv-x="1021" 
d="M1003 706l-216 -706h-92l-186 585l-180 -585h-94l-217 706h99l167 -585l179 585h92l186 -585l165 585h97zM600 895l-87 -124h-60l48 124h99z" />
    <glyph glyph-name="wacute" unicode="&#x1e83;" horiz-adv-x="729" 
d="M719 471l-173 -471h-70l-113 351l-115 -351h-73l-164 471h86l118 -350l116 350h70l111 -350l123 350h84zM451 666l-86 -144h-41l41 144h86z" />
    <glyph glyph-name="Wdieresis" unicode="&#x1e84;" horiz-adv-x="1021" 
d="M1003 706l-216 -706h-92l-186 585l-180 -585h-94l-217 706h99l167 -585l179 585h92l186 -585l165 585h97zM652 781h-88v102h88v-102zM455 781h-87v102h87v-102z" />
    <glyph glyph-name="wdieresis" unicode="&#x1e85;" horiz-adv-x="729" 
d="M719 471l-173 -471h-70l-113 351l-115 -351h-73l-164 471h86l118 -350l116 350h70l111 -350l123 350h84zM507 541h-89v103h89v-103zM309 541h-87v103h87v-103z" />
    <glyph glyph-name="Ygrave" unicode="&#x1ef2;" horiz-adv-x="625" 
d="M611 706l-254 -383v-323h-95v323l-248 383h111l186 -299l188 299h112zM368 771h-59l-87 124h99z" />
    <glyph glyph-name="ygrave" unicode="&#x1ef3;" horiz-adv-x="437" 
d="M342 471h83l-198 -557q-30 -85 -59 -116t-88 -31q-35 0 -71 10v72q24 -8 53 -8q35 0 53.5 19.5t38.5 78.5l20 58l-160 474h85l118 -374zM258 521h-48l-83 144h89z" />
    <glyph glyph-name="endash" unicode="&#x2013;" horiz-adv-x="600" 
d="M555 262h-510v76h510v-76z" />
    <glyph glyph-name="emdash" unicode="&#x2014;" horiz-adv-x="895" 
d="M850 262h-805v76h805v-76z" />
    <glyph glyph-name="quoteleft" unicode="&#x2018;" horiz-adv-x="229" 
d="M162 440h-99v51q0 64 8.5 106t33.5 109h47q-26 -76 -33 -157h43v-109z" />
    <glyph glyph-name="quoteright" unicode="&#x2019;" horiz-adv-x="229" 
d="M63 706h99v-52q0 -119 -41 -214h-47q33 95 33 156h-44v110z" />
    <glyph glyph-name="quotesinglbase" unicode="&#x201a;" horiz-adv-x="229" 
d="M63 109h99v-60q0 -113 -41 -205h-47q33 95 33 156h-44v109z" />
    <glyph glyph-name="quotedblleft" unicode="&#x201c;" 
d="M311 440h-99v57q0 113 42 209h46q-30 -70 -32 -157h43v-109zM162 440h-99v57q0 113 42 209h47q-33 -91 -33 -157h43v-109z" />
    <glyph glyph-name="quotedblright" unicode="&#x201d;" 
d="M212 706h99v-67q0 -105 -42 -199h-46q24 70 32 156h-43v110zM63 706h99v-61q0 -113 -41 -205h-47q33 95 33 156h-44v110z" />
    <glyph glyph-name="quotedblbase" unicode="&#x201e;" 
d="M212 109h99v-67q0 -102 -42 -198h-46q25 76 32 156h-43v109zM63 109h99v-60q0 -113 -41 -205h-47q33 95 33 156h-44v109z" />
    <glyph glyph-name="dagger" unicode="&#x2020;" horiz-adv-x="458" 
d="M441 421h-170v-421h-80v421h-171v79h171v206h80v-206h170v-79z" />
    <glyph glyph-name="daggerdbl" unicode="&#x2021;" horiz-adv-x="458" 
d="M441 181h-170v-181h-80v181h-172v79h172v161h-171v79h171v206h80v-206h170v-79h-170v-161h170v-79z" />
    <glyph glyph-name="bullet" unicode="&#x2022;" horiz-adv-x="333" 
d="M281 241h-228v227h228v-227z" />
    <glyph glyph-name="ellipsis" unicode="&#x2026;" horiz-adv-x="1000" 
d="M881 0h-95v93h95v-93zM547 0h-95v93h95v-93zM213 0h-94v93h94v-93z" />
    <glyph glyph-name="perthousand" unicode="&#x2030;" horiz-adv-x="1250" 
d="M620 656l-317 -685l-55 26l318 685zM26 452q0 54 14 103.5t53 88.5t96 39q68 0 116 -61t48 -171q0 -36 -7 -72t-24 -72.5t-51 -59.5t-81 -23q-76 0 -120 63.5t-44 164.5zM288 450q0 55 -10.5 93.5t-28 54.5t-32 22t-29.5 6q-48 0 -72 -47t-24 -121q0 -22 2 -42t10 -55.5
t30 -57t56 -21.5q44 0 71 40t27 128zM522 219q0 54 14 103.5t53 88.5t96 39q68 0 116 -61t48 -171q0 -36 -7 -72t-24 -72.5t-51 -59.5t-81 -23q-76 0 -120 63.5t-44 164.5zM784 217q0 55 -10.5 93.5t-28 54.5t-32 22t-29.5 6q-48 0 -72 -47t-24 -121q0 -22 2 -42t10 -55.5
t30 -57t56 -21.5q44 0 71 40t27 128zM898 219q0 54 14 103.5t53 88.5t96 39q68 0 116 -61t48 -171q0 -36 -7 -72t-24 -72.5t-51 -59.5t-81 -23q-76 0 -120 63.5t-44 164.5zM1160 217q0 55 -10.5 93.5t-28 54.5t-32 22t-29.5 6q-48 0 -72 -47t-24 -121q0 -22 2 -42t10 -55.5
t30 -57t56 -21.5q44 0 71 40t27 128z" />
    <glyph glyph-name="guilsinglleft" unicode="&#x2039;" horiz-adv-x="250" 
d="M182 141l-134 113v83l134 116v-89l-80 -71l80 -66v-86z" />
    <glyph glyph-name="guilsinglright" unicode="&#x203a;" horiz-adv-x="250" 
d="M202 250l-134 -116v90l80 70l-80 67v85l134 -113v-83z" />
    <glyph glyph-name="fraction" unicode="&#x2044;" horiz-adv-x="125" 
d="M249 656l-317 -685l-55 26l318 685z" />
    <glyph glyph-name="zero.superior" unicode="&#x2070;" 
d="M356 637q0 -105 -46 -168t-122 -63q-77 0 -123 61.5t-46 164.5t46.5 166.5t120.5 63.5q75 0 122.5 -62.5t47.5 -162.5zM288 635q0 80 -26.5 125t-73.5 45q-49 0 -75 -44t-26 -125q0 -82 26.5 -128t73.5 -46t74 45.5t27 127.5z" />
    <glyph glyph-name="four.superior" unicode="&#x2074;" 
d="M353 524h-65v-109h-63v109h-203v58l214 283h53v-285h64v-56zM228 771l-139 -191h137z" />
    <glyph glyph-name="five.superior" unicode="&#x2075;" 
d="M316 856v-57h-206l-6 -104q44 31 96 31q68 0 111.5 -44.5t43.5 -113.5q0 -72 -46.5 -117t-121.5 -45q-69 0 -114.5 36t-55.5 107l72 4q16 -90 101 -90q45 0 72.5 28.5t27.5 74.5t-28 74t-72 28q-64 0 -92 -55h-63l15 243h266z" />
    <glyph glyph-name="six.superior" unicode="&#x2076;" 
d="M345 748l-66 -8q-12 69 -76 69q-51 0 -76.5 -35.5t-31.5 -114.5q39 48 111 48q66 0 109 -41t43 -105q0 -67 -45 -111t-113 -44q-82 0 -127 58t-45 163q0 114 45.5 175.5t129.5 61.5q115 0 142 -116zM103 558q0 -41 26 -67.5t68 -26.5q40 0 65 25.5t25 65.5
q0 43 -25.5 68.5t-66.5 25.5t-66.5 -25.5t-25.5 -65.5z" />
    <glyph glyph-name="seven.superior" unicode="&#x2077;" 
d="M342 862v-67q0 -14 -7.5 -28.5t-36.5 -55.5q-35 -49 -60 -97q-52 -98 -70 -199h-72q7 66 40 142.5t80 141.5l46 65q15 20 16 42h-180v-86h-60v142h304z" />
    <glyph glyph-name="eight.superior" unicode="&#x2078;" 
d="M288 652q65 -40 65 -105q0 -64 -45 -102.5t-121 -38.5q-74 0 -119.5 38t-45.5 100q0 71 63 108q-51 33 -51 91q0 57 41 89t113 32q73 0 112.5 -31t39.5 -88q0 -62 -52 -93zM273 745q0 30 -23.5 46.5t-66.5 16.5q-38 0 -60.5 -17.5t-22.5 -47.5t23 -47.5t63 -17.5
q41 0 64 17.5t23 49.5zM284 545q0 37 -26 57.5t-72 20.5q-44 0 -70 -21t-26 -57q0 -37 26.5 -59t71.5 -22q44 0 70 22t26 59z" />
    <glyph glyph-name="nine.superior" unicode="&#x2079;" 
d="M33 523l66 8q12 -69 76 -69q51 0 76.5 35.5t31.5 113.5q-40 -48 -111 -48q-66 0 -109 41.5t-43 105.5q0 67 45 111t113 44q82 0 127 -58t45 -163q0 -114 -45.5 -176t-129.5 -62q-115 0 -142 117zM272 713q0 41 -26.5 67t-67.5 26t-65.5 -25t-24.5 -66q0 -42 25.5 -68
t65.5 -26q41 0 67 25.5t26 66.5z" />
    <glyph glyph-name="parenleft.superior" unicode="&#x207d;" horiz-adv-x="208" 
d="M209 342l-25 -29q-154 116 -154 302q0 88 38.5 167.5t113.5 130.5l27 -25q-114 -105 -114 -268q0 -86 30.5 -160.5t83.5 -117.5z" />
    <glyph glyph-name="parenright.superior" unicode="&#x207e;" horiz-adv-x="208" 
d="M-1 884l25 29q154 -116 154 -302q0 -88 -38.5 -167.5t-113.5 -130.5l-27 25q114 105 114 268q0 86 -30.5 160.5t-83.5 117.5z" />
    <glyph glyph-name="zero.inferior" unicode="&#x2080;" 
d="M356 72q0 -105 -46 -168t-122 -63q-77 0 -123 61.5t-46 164.5t46.5 166.5t120.5 63.5q75 0 122.5 -62.5t47.5 -162.5zM288 70q0 80 -26.5 125t-73.5 45q-49 0 -75 -44t-26 -125q0 -82 26.5 -128t73.5 -46t74 45.5t27 127.5z" />
    <glyph glyph-name="one.inferior" unicode="&#x2081;" 
d="M233 -150h-67v323h-86v45q45 3 70 18.5t33 60.5h50v-447z" />
    <glyph glyph-name="two.inferior" unicode="&#x2082;" 
d="M341 -150h-297v61l10 6q51 31 105.5 76.5t81.5 87.5q29 44 29 82q0 37 -24 58.5t-61 21.5q-39 0 -58.5 -24.5t-19.5 -62.5q0 -16 8 -52h-65q-6 26 -6 53q0 66 40.5 104.5t106.5 38.5q62 0 103.5 -37.5t41.5 -100.5q0 -123 -204 -256h209v-56z" />
    <glyph glyph-name="three.inferior" unicode="&#x2083;" 
d="M21 -7h67q0 -94 101 -94q49 0 70.5 21.5t21.5 54.5q0 71 -85 71h-43v59h34q10 0 20 1.5t26 7t26.5 20.5t10.5 37q0 35 -25.5 53.5t-58.5 18.5q-86 0 -86 -99v-5h-65v12q0 21 6 43.5t20.5 48t46.5 41.5t77 16q61 0 106.5 -33.5t45.5 -96.5q0 -69 -72 -91q86 -17 86 -105
q0 -52 -38.5 -92.5t-119.5 -40.5q-49 0 -84.5 14t-53.5 37.5t-26 48.5t-8 52z" />
    <glyph glyph-name="four.inferior" unicode="&#x2084;" 
d="M353 -41h-65v-109h-63v109h-203v58l214 283h53v-285h64v-56zM228 206l-139 -191h137z" />
    <glyph glyph-name="five.inferior" unicode="&#x2085;" 
d="M316 291v-57h-206l-6 -104q44 31 96 31q68 0 111.5 -44.5t43.5 -113.5q0 -72 -46.5 -117t-121.5 -45q-69 0 -114.5 36t-55.5 107l72 4q16 -90 101 -90q45 0 72.5 28.5t27.5 74.5t-28 74t-72 28q-64 0 -92 -55h-63l15 243h266z" />
    <glyph glyph-name="six.inferior" unicode="&#x2086;" 
d="M345 183l-66 -8q-12 69 -76 69q-51 0 -76.5 -35.5t-31.5 -114.5q39 48 111 48q66 0 109 -41t43 -105q0 -67 -45 -111t-113 -44q-82 0 -127 58t-45 163q0 114 45.5 175.5t129.5 61.5q115 0 142 -116zM103 -7q0 -41 26 -67.5t68 -26.5q40 0 65 25.5t25 65.5
q0 43 -25.5 68.5t-66.5 25.5t-66.5 -25.5t-25.5 -65.5z" />
    <glyph glyph-name="seven.inferior" unicode="&#x2087;" 
d="M342 297v-67q0 -14 -7.5 -28.5t-36.5 -55.5q-35 -49 -60 -97q-52 -98 -70 -199h-72q7 66 40 142.5t80 141.5l46 65q15 20 16 42h-180v-86h-60v142h304z" />
    <glyph glyph-name="eight.inferior" unicode="&#x2088;" 
d="M288 87q65 -40 65 -105q0 -64 -45 -102.5t-121 -38.5q-74 0 -119.5 38t-45.5 100q0 71 63 108q-51 33 -51 91q0 57 41 89t113 32q73 0 112.5 -31t39.5 -88q0 -62 -52 -93zM273 180q0 30 -23.5 46.5t-66.5 16.5q-38 0 -60.5 -17.5t-22.5 -47.5t23 -47.5t63 -17.5
q41 0 64 17.5t23 49.5zM284 -20q0 37 -26 57.5t-72 20.5q-44 0 -70 -21t-26 -57q0 -37 26.5 -59t71.5 -22q44 0 70 22t26 59z" />
    <glyph glyph-name="nine.inferior" unicode="&#x2089;" 
d="M33 -42l66 8q12 -69 76 -69q51 0 76.5 35.5t31.5 113.5q-40 -48 -111 -48q-66 0 -109 41.5t-43 105.5q0 67 45 111t113 44q82 0 127 -58t45 -163q0 -114 -45.5 -176t-129.5 -62q-115 0 -142 117zM272 148q0 41 -26.5 67t-67.5 26t-65.5 -25t-24.5 -66q0 -42 25.5 -68
t65.5 -26q41 0 67 25.5t26 66.5z" />
    <glyph glyph-name="parenleft.inferior" unicode="&#x208d;" horiz-adv-x="208" 
d="M209 -223l-25 -29q-154 116 -154 302q0 88 38.5 167.5t113.5 130.5l27 -25q-114 -105 -114 -268q0 -86 30.5 -160.5t83.5 -117.5z" />
    <glyph glyph-name="parenright.inferior" unicode="&#x208e;" horiz-adv-x="208" 
d="M-1 319l25 29q154 -116 154 -302q0 -88 -38.5 -167.5t-113.5 -130.5l-27 25q114 105 114 268q0 86 -30.5 160.5t-83.5 117.5z" />
    <glyph glyph-name="Euro" unicode="&#x20ac;" horiz-adv-x="700" 
d="M678 649l-32 -91q-71 91 -194 91q-202 0 -245 -209h399l-22 -62h-384v-20q0 -6 0.5 -16.5t0.5 -12.5h366l-22 -62h-337q18 -99 81.5 -152.5t163.5 -53.5q66 0 125.5 25.5t98.5 75.5v-106q-93 -74 -236 -74q-139 0 -228 74t-111 211h-79l23 62h50q0 33 2 49h-75l23 62h59
q26 137 112 210.5t225 73.5q76 0 131.5 -16t104.5 -59z" />
    <glyph glyph-name="afii61289" unicode="&#x2113;" horiz-adv-x="494" 
d="M440 139l44 -45q-46 -58 -90.5 -83.5t-102.5 -25.5q-33 0 -62 8.5t-55.5 27.5t-41.5 55.5t-15 86.5q-12 -9 -50 -35l-30 59q48 32 80 55v215q0 72 7 104.5t29 61.5q43 57 128 57q67 0 104 -38t37 -106q0 -97 -75 -185q-48 -56 -143 -136v-28q0 -62 27.5 -96t79.5 -34
q36 0 63.5 17.5t65.5 64.5zM203 296q81 79 111 131t30 104q0 37 -17 58.5t-47 21.5q-77 0 -77 -100v-215z" />
    <glyph glyph-name="afii61352" unicode="&#x2116;" horiz-adv-x="1146" 
d="M72 706h91l352 -543v543h92v-706h-90l-353 537v-537h-92v706zM702 209h359v-79h-359v79zM685 490q0 23 4.5 48t18 56t34.5 55t58 40.5t85 16.5q77 0 132 -54.5t55 -157.5q0 -102 -56.5 -162.5t-138.5 -60.5q-93 0 -142.5 65.5t-49.5 153.5zM769 489q0 -62 26 -105t80 -43
q55 0 84.5 46t29.5 108q0 59 -28 102.5t-81 43.5q-34 0 -58 -19t-34.5 -47.5t-14.5 -49.5t-4 -36z" />
    <glyph glyph-name="trademark" unicode="&#x2122;" horiz-adv-x="694" 
d="M621 374h-54l2 261l-78 -261h-54l-75 257q1 -223 1 -257h-56v332h78l82 -265l79 265h75v-332zM273 657h-95v-283h-59v283h-96v49h250v-49z" />
    <glyph glyph-name="Omega" unicode="&#x2126;" horiz-adv-x="742" 
d="M692 0h-271v80q44 15 76 47.5t49 74.5t25 86t8 91q0 122 -55.5 194t-150.5 72q-100 0 -156 -74.5t-56 -207.5q0 -65 13.5 -118.5t50.5 -99.5t95 -65v-80h-271v80h158q-146 87 -146 300q0 154 86 248.5t226 94.5q142 0 223 -88t81 -242q0 -106 -40 -187t-114 -126h169v-80
z" />
    <glyph glyph-name="estimated" unicode="&#x212e;" horiz-adv-x="806" 
d="M771 313h-637q11 -116 86.5 -182t198.5 -66q84 0 145.5 35.5t120.5 121.5l73 -39q-67 -98 -151 -143.5t-196 -45.5q-162 0 -266 97.5t-104 249.5q0 149 101 243.5t259 94.5q103 0 184 -40.5t129 -115.5q50 -79 57 -210zM135 387h538q-15 71 -42 111q-36 53 -96.5 83
t-133.5 30q-106 0 -179.5 -60t-86.5 -164z" />
    <glyph glyph-name="onethird" unicode="&#x2153;" horiz-adv-x="875" 
d="M580 656l-317 -685l-55 26l318 685zM503 143h67q0 -94 101 -94q49 0 70.5 21.5t21.5 54.5q0 71 -85 71h-43v59h34q10 0 20 1.5t26 7t26.5 20.5t10.5 37q0 35 -25.5 53.5t-58.5 18.5q-86 0 -86 -99v-5h-65v12q0 21 6 43.5t20.5 48t46.5 41.5t77 16q61 0 106.5 -33.5
t45.5 -96.5q0 -69 -72 -91q86 -17 86 -105q0 -52 -38.5 -92.5t-119.5 -40.5q-49 0 -84.5 14t-53.5 37.5t-26 48.5t-8 52zM226 233h-67v323h-86v45q45 3 70 18.5t33 60.5h50v-447z" />
    <glyph glyph-name="twothirds" unicode="&#x2154;" horiz-adv-x="875" 
d="M627 656l-317 -685l-55 26l318 685zM535 143h67q0 -94 101 -94q49 0 70.5 21.5t21.5 54.5q0 71 -85 71h-43v59h34q10 0 20 1.5t26 7t26.5 20.5t10.5 37q0 35 -25.5 53.5t-58.5 18.5q-86 0 -86 -99v-5h-65v12q0 21 6 43.5t20.5 48t46.5 41.5t77 16q61 0 106.5 -33.5
t45.5 -96.5q0 -69 -72 -91q86 -17 86 -105q0 -52 -38.5 -92.5t-119.5 -40.5q-49 0 -84.5 14t-53.5 37.5t-26 48.5t-8 52zM335 233h-297v61l10 6q51 31 105.5 76.5t81.5 87.5q29 44 29 82q0 37 -24 58.5t-61 21.5q-39 0 -58.5 -24.5t-19.5 -62.5q0 -16 8 -52h-65q-6 26 -6 53
q0 66 40.5 104.5t106.5 38.5q62 0 103.5 -37.5t41.5 -100.5q0 -123 -204 -256h209v-56z" />
    <glyph glyph-name="oneeighth" unicode="&#x215b;" horiz-adv-x="875" 
d="M576 656l-317 -685l-55 26l318 685zM763 237q65 -40 65 -105q0 -64 -45 -102.5t-121 -38.5q-74 0 -119.5 38t-45.5 100q0 71 63 108q-51 33 -51 91q0 57 41 89t113 32q73 0 112.5 -31t39.5 -88q0 -62 -52 -93zM748 330q0 30 -23.5 46.5t-66.5 16.5q-38 0 -60.5 -17.5
t-22.5 -47.5t23 -47.5t63 -17.5q41 0 64 17.5t23 49.5zM759 130q0 37 -26 57.5t-72 20.5q-44 0 -70 -21t-26 -57q0 -37 26.5 -59t71.5 -22q44 0 70 22t26 59zM221 233h-67v323h-86v45q45 3 70 18.5t33 60.5h50v-447z" />
    <glyph glyph-name="threeeighths" unicode="&#x215c;" horiz-adv-x="875" 
d="M616 656l-317 -685l-55 26l318 685zM794 237q65 -40 65 -105q0 -64 -45 -102.5t-121 -38.5q-74 0 -119.5 38t-45.5 100q0 71 63 108q-51 33 -51 91q0 57 41 89t113 32q73 0 112.5 -31t39.5 -88q0 -62 -52 -93zM779 330q0 30 -23.5 46.5t-66.5 16.5q-38 0 -60.5 -17.5
t-22.5 -47.5t23 -47.5t63 -17.5q41 0 64 17.5t23 49.5zM790 130q0 37 -26 57.5t-72 20.5q-44 0 -70 -21t-26 -57q0 -37 26.5 -59t71.5 -22q44 0 70 22t26 59zM17 376h67q0 -94 101 -94q49 0 70.5 21.5t21.5 54.5q0 71 -85 71h-43v59h34q10 0 20 1.5t26 7t26.5 20.5t10.5 37
q0 35 -25.5 53.5t-58.5 18.5q-86 0 -86 -99v-5h-65v12q0 21 6 43.5t20.5 48t46.5 41.5t77 16q61 0 106.5 -33.5t45.5 -96.5q0 -69 -72 -91q86 -17 86 -105q0 -52 -38.5 -92.5t-119.5 -40.5q-49 0 -84.5 14t-53.5 37.5t-26 48.5t-8 52z" />
    <glyph glyph-name="fiveeighths" unicode="&#x215d;" horiz-adv-x="875" 
d="M624 656l-317 -685l-55 26l318 685zM789 237q65 -40 65 -105q0 -64 -45 -102.5t-121 -38.5q-74 0 -119.5 38t-45.5 100q0 71 63 108q-51 33 -51 91q0 57 41 89t113 32q73 0 112.5 -31t39.5 -88q0 -62 -52 -93zM774 330q0 30 -23.5 46.5t-66.5 16.5q-38 0 -60.5 -17.5
t-22.5 -47.5t23 -47.5t63 -17.5q41 0 64 17.5t23 49.5zM785 130q0 37 -26 57.5t-72 20.5q-44 0 -70 -21t-26 -57q0 -37 26.5 -59t71.5 -22q44 0 70 22t26 59zM316 674v-57h-206l-6 -104q44 31 96 31q68 0 111.5 -44.5t43.5 -113.5q0 -72 -46.5 -117t-121.5 -45
q-69 0 -114.5 36t-55.5 107l72 4q16 -90 101 -90q45 0 72.5 28.5t27.5 74.5t-28 74t-72 28q-64 0 -92 -55h-63l15 243h266z" />
    <glyph glyph-name="seveneighths" unicode="&#x215e;" horiz-adv-x="875" 
d="M559 656l-317 -685l-55 26l318 685zM775 237q65 -40 65 -105q0 -64 -45 -102.5t-121 -38.5q-74 0 -119.5 38t-45.5 100q0 71 63 108q-51 33 -51 91q0 57 41 89t113 32q73 0 112.5 -31t39.5 -88q0 -62 -52 -93zM760 330q0 30 -23.5 46.5t-66.5 16.5q-38 0 -60.5 -17.5
t-22.5 -47.5t23 -47.5t63 -17.5q41 0 64 17.5t23 49.5zM771 130q0 37 -26 57.5t-72 20.5q-44 0 -70 -21t-26 -57q0 -37 26.5 -59t71.5 -22q44 0 70 22t26 59zM342 680v-67q0 -14 -7.5 -28.5t-36.5 -55.5q-35 -49 -60 -97q-52 -98 -70 -199h-72q7 66 40 142.5t80 141.5l46 65
q15 20 16 42h-180v-86h-60v142h304z" />
    <glyph glyph-name="partialdiff" unicode="&#x2202;" horiz-adv-x="543" 
d="M149 626l-11 74q59 21 119 21q112 0 164.5 -84t52.5 -264q0 -189 -54.5 -286.5t-175.5 -97.5q-90 0 -146 58.5t-56 152.5q0 102 58 165.5t152 63.5q74 0 133 -43v12q0 246 -144 246q-33 0 -92 -18zM379 301q-59 54 -122 54q-58 0 -92.5 -42t-34.5 -113q0 -64 31.5 -101
t84.5 -37q129 0 133 239z" />
    <glyph glyph-name="Delta" unicode="&#x2206;" horiz-adv-x="640" 
d="M644 0h-648l277 706h97zM510 82l-191 510l-189 -510h380z" />
    <glyph glyph-name="product" unicode="&#x220f;" horiz-adv-x="705" 
d="M636 -122h-89v745h-388v-745h-91v828h568v-828z" />
    <glyph glyph-name="summation" unicode="&#x2211;" horiz-adv-x="593" 
d="M569 623l-428 1l281 -320l-288 -343h434v-83h-539v78l279 345l-279 325v80h540v-83z" />
    <glyph glyph-name="minus" unicode="&#x2212;" horiz-adv-x="724" 
d="M645 260h-566v81h566v-81z" />
    <glyph glyph-name="uni2215" unicode="&#x2215;" horiz-adv-x="125" 
d="M249 656l-317 -685l-55 26l318 685z" />
    <glyph glyph-name="uni2219" unicode="&#x2219;" horiz-adv-x="200" 
d="M151 228h-102v124h102v-124z" />
    <glyph glyph-name="radical" unicode="&#x221a;" horiz-adv-x="725" 
d="M648 706l-264 -891h-87l-135 294l-68 -31l-32 72l149 67l124 -285l222 774h91z" />
    <glyph glyph-name="infinity" unicode="&#x221e;" horiz-adv-x="724" 
d="M365 363q46 66 86.5 95t85.5 29q67 0 111.5 -52t44.5 -132q0 -82 -47 -137t-117 -55q-51 0 -87 26t-85 96q-50 -70 -89 -95.5t-83 -25.5q-67 0 -110.5 52t-43.5 132q0 81 46.5 136t114.5 55q49 0 90 -29t83 -95zM409 300q36 -59 65 -85.5t62 -26.5q35 0 58 30.5t23 77.5
q0 49 -22.5 80.5t-56.5 31.5q-28 0 -58 -25t-71 -83zM315 297q-67 112 -126 112q-35 0 -58 -30.5t-23 -78.5t23 -79.5t58 -31.5q28 0 54 22t72 86z" />
    <glyph glyph-name="integral" unicode="&#x222b;" horiz-adv-x="337" 
d="M305 708v-81q-29 20 -50 20q-22 0 -33.5 -13.5t-11.5 -49.5v-640q0 -59 -31.5 -89.5t-79.5 -30.5q-32 0 -65 12v79q29 -18 48 -18q43 0 43 58v646q0 37 12.5 62.5t32 37t36.5 16t33 4.5q31 0 66 -13z" />
    <glyph glyph-name="approxequal" unicode="&#x2248;" horiz-adv-x="724" 
d="M607 472l44 -61q-45 -52 -83 -73.5t-82 -21.5q-46 0 -120 36l-35 17q-61 29 -104 29q-32 0 -54.5 -16t-54.5 -58l-44 60q38 53 74 75.5t83 22.5q28 0 53 -7t81 -32l45 -20q54 -24 79 -24q31 0 57.5 16t60.5 57zM607 277l44 -61q-46 -53 -83.5 -74t-81.5 -21
q-45 0 -120 36l-35 17q-59 29 -104 29q-32 0 -54.5 -16t-54.5 -58l-44 60q38 53 74 75.5t84 22.5q45 0 133 -39l45 -20q55 -24 79 -24q60 0 118 73z" />
    <glyph glyph-name="notequal" unicode="&#x2260;" horiz-adv-x="724" 
d="M625 163h-290l-83 -169h-76l82 169h-159v77h198l52 109h-250v79h290l78 158h76l-78 -158h160v-79h-200l-52 -109h252v-77z" />
    <glyph glyph-name="lessequal" unicode="&#x2264;" horiz-adv-x="724" 
d="M594 120l-466 226v90l466 219v-88l-385 -177l385 -179v-91zM594 0h-466v79h466v-79z" />
    <glyph glyph-name="greaterequal" unicode="&#x2265;" horiz-adv-x="724" 
d="M596 339l-466 -219v88l385 176l-385 179v92l466 -226v-90zM596 0h-466v79h466v-79z" />
    <glyph glyph-name="lozenge" unicode="&#x25ca;" horiz-adv-x="724" 
d="M585 353l-181 -353h-87l-178 353l182 353h88zM498 355l-133 273l-136 -274l131 -275z" />
    <glyph glyph-name="uniF6C1" unicode="&#xf6c1;" horiz-adv-x="667" 
d="M37 226l101 13q0 -10 1 -19t5.5 -29t12 -36t23 -35.5t36 -32.5t53 -22t72.5 -9q26 0 53 6t56.5 20t48 43.5t18.5 71.5q0 54 -34 79t-100 38l-64 13q-126 25 -187 70.5t-61 130.5q0 82 67 138q70 58 183 58q126 0 195 -53q43 -32 61.5 -69.5t28.5 -94.5l-95 -6
q0 15 -3.5 31.5t-15 38.5t-30 39t-53.5 29t-80 12q-38 0 -72 -9t-61.5 -35t-27.5 -67q0 -47 35.5 -70.5t105.5 -40.5l129 -31q20 -5 32.5 -8.5t44 -19t51 -34.5t36 -54t16.5 -79q0 -19 -3.5 -39.5t-19 -54t-42 -59.5t-79 -46t-122.5 -22l-14 -25l24 -13q19 -10 28.5 -27.5
t9.5 -33.5q0 -40 -36.5 -63t-85.5 -23h-5v23q3 -1 10 -1q17 0 29.5 10t12.5 27q0 9 -3.5 16t-11.5 12t-14 8t-17 7t-14 5l51 78q-106 6 -173 49q-93 60 -106 195z" />
    <glyph glyph-name="uniF6C2" unicode="&#xf6c2;" horiz-adv-x="479" 
d="M31 152l91 13q0 -55 26 -83q33 -36 106 -36q41 0 75 17.5t34 61.5q0 20 -8 34t-25.5 22t-30 11.5t-34.5 7.5l-46 9q-93 18 -130.5 51.5t-37.5 85.5q0 71 54.5 105.5t128.5 34.5q66 0 110 -25t66 -58q19 -29 25 -72l-86 -10q-1 32 -7 44q-11 23 -42 41.5t-77 18.5
q-45 0 -69 -21.5t-24 -47.5q0 -29 27 -44.5t87 -29.5l46 -11q76 -18 116.5 -48t40.5 -89q0 -64 -51.5 -104.5t-131.5 -43.5l-16 -29l24 -13q19 -10 28.5 -27.5t9.5 -33.5q0 -40 -36.5 -63t-85.5 -23h-5v23q3 -1 10 -1q17 0 29.5 10t12.5 27q0 9 -3.5 16t-11.5 12t-14 8
t-17 7t-14 5l53 82q-174 9 -197 166z" />
    <glyph glyph-name="acute.cap" horiz-adv-x="271" 
d="M209 895l-87 -124h-60l48 124h99z" />
    <glyph glyph-name="breve.cap" horiz-adv-x="271" 
d="M215 880h52q0 -40 -39.5 -74.5t-92.5 -34.5q-49 0 -90 30.5t-42 78.5h50q8 -23 31.5 -34.5t51.5 -11.5q31 0 52.5 14t26.5 32z" />
    <glyph glyph-name="caron.cap" horiz-adv-x="271" 
d="M272 895l-101 -124h-66l-105 124h76l62 -77l59 77h75z" />
    <glyph glyph-name="cedilla.cap" horiz-adv-x="271" 
d="M141 16l29 -7l-29 -52l24 -13q19 -10 28.5 -27.5t9.5 -33.5q0 -40 -36.5 -63t-85.5 -23h-5v23q3 -1 10 -1q17 0 29.5 10t12.5 27q0 9 -3.5 16t-11.5 12t-14 8t-17 7t-14 5z" />
    <glyph glyph-name="circumflex.cap" horiz-adv-x="271" 
d="M272 771h-77l-62 74l-59 -74h-75l101 124h65z" />
    <glyph glyph-name="commaaccent" horiz-adv-x="271" 
d="M95 -38h80v-31q0 -59 -29 -113h-39q17 33 20 69h-32v75z" />
    <glyph glyph-name="dieresis.cap" horiz-adv-x="271" 
d="M278 781h-88v102h88v-102zM81 781h-87v102h87v-102z" />
    <glyph glyph-name="dotaccent.cap" horiz-adv-x="271" 
d="M179 781h-87v99h87v-99z" />
    <glyph glyph-name="grave.cap" horiz-adv-x="271" 
d="M208 771h-59l-87 124h99z" />
    <glyph glyph-name="hungarumlaut.cap" horiz-adv-x="271" 
d="M137 895l-87 -124h-58l53 124h92zM279 895l-87 -124h-58l53 124h92z" />
    <glyph glyph-name="macron.cap" horiz-adv-x="271" 
d="M278 781h-285v68h285v-68z" />
    <glyph glyph-name="ring.cap" horiz-adv-x="271" 
d="M231 848q0 -39 -28.5 -67t-67.5 -28q-40 0 -67.5 28t-27.5 68q0 39 28 66.5t68 27.5q39 0 67 -27.5t28 -67.5zM186 849q0 21 -15 35.5t-36 14.5t-35.5 -15t-14.5 -36t15 -35.5t36 -14.5q20 0 35 15t15 36z" />
    <glyph glyph-name="tilde.cap" horiz-adv-x="271" 
d="M229 882h47q-14 -101 -78 -101q-24 0 -67 17.5t-58 17.5q-22 0 -30 -30h-48q4 34 14.5 56t25 30.5t23.5 10.5t21 2q23 0 61.5 -16.5t59.5 -16.5q13 0 18.5 6.5t10.5 23.5z" />
    <glyph glyph-name="caron.alt" horiz-adv-x="271" 
d="M98 706h75v-38q0 -49 -6.5 -78.5t-23.5 -76.5h-36q20 52 24 110h-33v83z" />
    <glyph glyph-name="zero.tab" horiz-adv-x="583" 
d="M49 334q0 153 64.5 249.5t176.5 96.5q106 0 175.5 -92t69.5 -248q0 -155 -64 -250.5t-180 -95.5q-42 0 -82 17t-77 53.5t-60 106t-23 163.5zM138 330q0 -117 40 -187.5t115 -70.5q46 0 78 27t47 71.5t21 85t6 82.5q0 25 -2 50.5t-10.5 66.5t-23.5 71t-45.5 52.5
t-70.5 22.5q-155 0 -155 -271z" />
    <glyph glyph-name="one.tab" horiz-adv-x="583" 
d="M357 0h-94v493h-145v62q114 0 151 59q17 26 21 60h67v-674z" />
    <glyph glyph-name="two.tab" horiz-adv-x="583" 
d="M520 0h-441v85q96 51 209 157q61 56 96 110.5t35 120.5q0 60 -33.5 94.5t-93.5 34.5q-67 0 -97 -37t-30 -96q0 -32 12 -80h-88q-12 41 -12 80q0 103 63 159q59 52 155 52q86 0 145 -50q72 -60 72 -163q0 -145 -166 -282q-72 -58 -149 -108h323v-77z" />
    <glyph glyph-name="three.tab" horiz-adv-x="583" 
d="M40 223h90q5 -73 37 -111t121 -38q14 0 26.5 1t36.5 7.5t40.5 18t30 36t13.5 58.5q0 113 -148 113q-36 0 -66 -3v81q28 -2 51 -2q147 0 147 108q0 55 -42 84.5t-94 29.5q-73 0 -108 -56q-19 -31 -23 -102l-89 4q3 58 13 89q12 37 34 64.5t44.5 41.5t50.5 22t45 9.5
t34 1.5q104 0 164.5 -53t60.5 -135q0 -99 -82 -143q43 -17 72.5 -58t29.5 -103q0 -76 -52 -129q-64 -65 -182 -65q-51 0 -95 12.5t-81 38.5t-58 71.5t-21 106.5z" />
    <glyph glyph-name="four.tab" horiz-adv-x="583" 
d="M532 162h-98v-162h-87v162h-305v81l322 431h70v-436h98v-76zM133 238h214l4 302z" />
    <glyph glyph-name="five.tab" horiz-adv-x="583" 
d="M72 307l22 367h383v-79h-315l-9 -177q62 54 149 54q105 0 164 -70.5t59 -165.5q0 -99 -63 -170.5t-175 -71.5q-53 0 -95.5 15.5t-68.5 41t-40.5 48.5t-23.5 47q-8 25 -12 64l89 6q8 -60 43.5 -102.5t104.5 -42.5q21 0 42.5 6.5t47 22.5t42 52t16.5 87q0 68 -37.5 111.5
t-108.5 43.5q-92 0 -133 -87h-81z" />
    <glyph glyph-name="six.tab" horiz-adv-x="583" 
d="M509 506l-87 -12q-7 49 -37.5 79.5t-79.5 30.5q-44 0 -76 -21.5t-49 -58t-24.5 -76.5t-7.5 -85q22 33 65.5 57.5t101.5 24.5q50 0 96.5 -21.5t81 -73t34.5 -122.5q0 -39 -12.5 -77.5t-37.5 -75t-70 -59t-104 -22.5q-54 0 -104 24.5t-83 75.5q-30 46 -42 100t-12 135
q0 73 13 133.5t40.5 110.5t75.5 78.5t113 28.5q166 0 205 -174zM162 220q0 -63 40.5 -104.5t102.5 -41.5q60 0 97 42.5t37 102.5q0 21 -6.5 44t-20.5 47t-42.5 39t-67.5 15q-71 0 -105.5 -46t-34.5 -98z" />
    <glyph glyph-name="seven.tab" horiz-adv-x="583" 
d="M96 466v208h413v-97q0 -9 -1 -17t-2 -13t-5.5 -14t-6.5 -13.5t-11 -19t-13 -22.5l-35 -61q-139 -241 -161 -417h-106q23 179 204 461l30 47q22 35 27.5 48.5t5.5 37.5h-267v-128h-72z" />
    <glyph glyph-name="eight.tab" horiz-adv-x="583" 
d="M438 362q19 -12 30 -20.5t29 -28t27 -47t9 -63.5q0 -87 -61 -148t-180 -61q-62 0 -110 18.5t-75 49.5t-41 66.5t-14 72.5q0 51 24 94.5t68 66.5q-75 50 -75 139q0 86 57.5 132.5t166.5 46.5q58 0 101.5 -14.5t65.5 -34t35 -46.5t16 -45.5t3 -38.5q0 -94 -76 -139z
M424 507q0 37 -32.5 66.5t-103.5 29.5q-56 0 -93 -24.5t-37 -75.5q0 -41 28.5 -73.5t105.5 -32.5q132 0 132 110zM143 202q0 -45 25.5 -75t57.5 -40.5t68 -10.5q25 0 48.5 6t46.5 19t37 39t14 61q0 65 -43.5 93t-107.5 28q-78 0 -112 -36.5t-34 -83.5z" />
    <glyph glyph-name="nine.tab" horiz-adv-x="583" 
d="M73 162l87 16q23 -108 121 -108q55 0 92 36q33 32 49.5 89t16.5 109q-67 -86 -167 -86q-98 0 -159 63.5t-61 162.5q0 42 12.5 81t38 74t71.5 56.5t106 21.5q123 0 184 -87.5t61 -248.5q0 -172 -75 -270q-59 -77 -175 -77q-85 0 -136 50t-66 118zM430 435q0 68 -40 117.5
t-111 49.5q-40 0 -69 -16.5t-43 -43.5t-20 -52.5t-6 -50.5q0 -69 41 -105t100 -36q73 0 110.5 42t37.5 95z" />
    <glyph glyph-name="i.dot" horiz-adv-x="208" 
d="M146 614h-77v92h77v-92zM146 0h-77v471h77v-471z" />
    <glyph glyph-name="zero.numerator" 
d="M356 455q0 -105 -46 -168t-122 -63q-77 0 -123 61.5t-46 164.5t46.5 166.5t120.5 63.5q75 0 122.5 -62.5t47.5 -162.5zM288 453q0 80 -26.5 125t-73.5 45q-49 0 -75 -44t-26 -125q0 -82 26.5 -128t73.5 -46t74 45.5t27 127.5z" />
    <glyph glyph-name="one.numerator" 
d="M233 233h-67v323h-86v45q45 3 70 18.5t33 60.5h50v-447z" />
    <glyph glyph-name="two.numerator" 
d="M341 233h-297v61l10 6q51 31 105.5 76.5t81.5 87.5q29 44 29 82q0 37 -24 58.5t-61 21.5q-39 0 -58.5 -24.5t-19.5 -62.5q0 -16 8 -52h-65q-6 26 -6 53q0 66 40.5 104.5t106.5 38.5q62 0 103.5 -37.5t41.5 -100.5q0 -123 -204 -256h209v-56z" />
    <glyph glyph-name="three.numerator" 
d="M21 376h67q0 -94 101 -94q49 0 70.5 21.5t21.5 54.5q0 71 -85 71h-43v59h34q10 0 20 1.5t26 7t26.5 20.5t10.5 37q0 35 -25.5 53.5t-58.5 18.5q-86 0 -86 -99v-5h-65v12q0 21 6 43.5t20.5 48t46.5 41.5t77 16q61 0 106.5 -33.5t45.5 -96.5q0 -69 -72 -91q86 -17 86 -105
q0 -52 -38.5 -92.5t-119.5 -40.5q-49 0 -84.5 14t-53.5 37.5t-26 48.5t-8 52z" />
    <glyph glyph-name="four.numerator" 
d="M353 342h-65v-109h-63v109h-203v58l214 283h53v-285h64v-56zM228 589l-139 -191h137z" />
    <glyph glyph-name="five.numerator" 
d="M316 674v-57h-206l-6 -104q44 31 96 31q68 0 111.5 -44.5t43.5 -113.5q0 -72 -46.5 -117t-121.5 -45q-69 0 -114.5 36t-55.5 107l72 4q16 -90 101 -90q45 0 72.5 28.5t27.5 74.5t-28 74t-72 28q-64 0 -92 -55h-63l15 243h266z" />
    <glyph glyph-name="six.numerator" 
d="M345 566l-66 -8q-12 69 -76 69q-51 0 -76.5 -35.5t-31.5 -114.5q39 48 111 48q66 0 109 -41t43 -105q0 -67 -45 -111t-113 -44q-82 0 -127 58t-45 163q0 114 45.5 175.5t129.5 61.5q115 0 142 -116zM103 376q0 -41 26 -67.5t68 -26.5q40 0 65 25.5t25 65.5
q0 43 -25.5 68.5t-66.5 25.5t-66.5 -25.5t-25.5 -65.5z" />
    <glyph glyph-name="seven.numerator" 
d="M342 680v-67q0 -14 -7.5 -28.5t-36.5 -55.5q-35 -49 -60 -97q-52 -98 -70 -199h-72q7 66 40 142.5t80 141.5l46 65q15 20 16 42h-180v-86h-60v142h304z" />
    <glyph glyph-name="eight.numerator" 
d="M288 470q65 -40 65 -105q0 -64 -45 -102.5t-121 -38.5q-74 0 -119.5 38t-45.5 100q0 71 63 108q-51 33 -51 91q0 57 41 89t113 32q73 0 112.5 -31t39.5 -88q0 -62 -52 -93zM273 563q0 30 -23.5 46.5t-66.5 16.5q-38 0 -60.5 -17.5t-22.5 -47.5t23 -47.5t63 -17.5
q41 0 64 17.5t23 49.5zM284 363q0 37 -26 57.5t-72 20.5q-44 0 -70 -21t-26 -57q0 -37 26.5 -59t71.5 -22q44 0 70 22t26 59z" />
    <glyph glyph-name="nine.numerator" 
d="M33 341l66 8q12 -69 76 -69q51 0 76.5 35.5t31.5 113.5q-40 -48 -111 -48q-66 0 -109 41.5t-43 105.5q0 67 45 111t113 44q82 0 127 -58t45 -163q0 -114 -45.5 -176t-129.5 -62q-115 0 -142 117zM272 531q0 41 -26.5 67t-67.5 26t-65.5 -25t-24.5 -66q0 -42 25.5 -68
t65.5 -26q41 0 67 25.5t26 66.5z" />
    <glyph glyph-name="period.numerator" horiz-adv-x="152" 
d="M110 233h-68v78h68v-78z" />
    <glyph glyph-name="comma.numerator" horiz-adv-x="152" 
d="M42 311h68v-47q0 -72 -25 -128h-36q21 57 21 97h-28v78z" />
    <glyph glyph-name="hyphen.numerator" horiz-adv-x="231" 
d="M203 419h-175v54h175v-54z" />
    <glyph glyph-name="parenleft.numerator" horiz-adv-x="208" 
d="M209 160l-25 -29q-154 116 -154 302q0 88 38.5 167.5t113.5 130.5l27 -25q-114 -105 -114 -268q0 -86 30.5 -160.5t83.5 -117.5z" />
    <glyph glyph-name="parenright.numerator" horiz-adv-x="208" 
d="M-1 702l25 29q154 -116 154 -302q0 -88 -38.5 -167.5t-113.5 -130.5l-27 25q114 105 114 268q0 86 -30.5 160.5t-83.5 117.5z" />
    <glyph glyph-name="dollar.numerator" horiz-adv-x="410" 
d="M186 158v74q-55 3 -104.5 39t-59.5 96l67 7q19 -74 97 -87v139q-76 22 -106.5 53t-30.5 75q0 52 37.5 84t99.5 36v64h47v-65q51 -2 91 -31t53 -85l-65 -6q-18 60 -79 68v-135q93 -28 120.5 -57.5t27.5 -76.5q0 -52 -43 -84t-105 -34v-74h-47zM186 496v125
q-35 -3 -54 -18.5t-19 -40.5t17 -40t56 -26zM233 414v-129q37 0 60 16t23 44q0 25 -17.5 40.5t-65.5 28.5z" />
    <glyph glyph-name="cent.numerator" horiz-adv-x="343" 
d="M265 350l60 -5q-22 -103 -120 -112v-66h-47v66q-58 6 -92.5 47.5t-34.5 101.5q0 56 33 97t95 49v59h46v-58q96 -10 116 -99l-61 -5q-13 43 -55 48v-185q51 8 60 62zM158 288v186q-29 -6 -47 -30t-18 -62q0 -78 65 -94z" />
    <glyph glyph-name="sterling.numerator" horiz-adv-x="416" 
d="M348 348l58 -4q-4 -48 -28 -83.5t-75 -35.5q-17 0 -35.5 4.5t-29.5 9.5t-28 14t-23 12q-38 -40 -89 -40q-29 0 -49.5 14.5t-20.5 44.5q0 28 18.5 45.5t50.5 17.5q25 0 62 -13q1 3 1 11q0 21 -27 60h-95v49h64q-33 50 -33 100q0 58 42.5 92t111.5 34q77 0 117.5 -42
t40.5 -97l-71 -6q1 6 1 12q0 31 -22 54t-64 23q-89 0 -89 -70q0 -36 46 -100h137v-49h-113q13 -29 13 -50q0 -27 -8 -42q63 -29 83 -29q51 0 54 64zM141 284q-23 11 -40 11q-19 0 -19 -14t19 -14q18 0 40 17z" />
    <glyph glyph-name="yen.numerator" horiz-adv-x="432" 
d="M421 674l-114 -156h73v-46h-104l-30 -41h134v-46h-133v-152h-66v152h-133v46h133l-25 41h-108v45h75l-112 157h81l122 -180l127 180h80z" />
    <glyph glyph-name="florin.numerator" horiz-adv-x="296" 
d="M279 671l-12 -52q-15 5 -28 5q-24 0 -34 -41l-13 -55h54l-12 -49h-53l-76 -311q-10 -41 -29 -59t-54 -18q-17 0 -42 5l12 51q12 -4 22 -4q13 0 19.5 7.5t12.5 31.5l70 297h-47l12 49h47l21 82q19 70 83 70q22 0 47 -9z" />
    <glyph glyph-name="Euro.numerator" horiz-adv-x="472" 
d="M454 634l-26 -66q-42 55 -120 55q-111 0 -138 -104h239l-15 -46h-227q-1 -14 -1 -41h219l-15 -46h-199q12 -51 50 -78.5t94 -27.5q85 0 135 54v-72q-58 -39 -143 -39q-83 0 -137.5 45t-67.5 118h-56l15 46h37q0 31 1 41h-53l16 46h42q37 162 204 162q88 0 146 -47z" />
    <glyph glyph-name="zero.denominator" 
d="M356 222q0 -105 -46 -168t-122 -63q-77 0 -123 61.5t-46 164.5t46.5 166.5t120.5 63.5q75 0 122.5 -62.5t47.5 -162.5zM288 220q0 80 -26.5 125t-73.5 45q-49 0 -75 -44t-26 -125q0 -82 26.5 -128t73.5 -46t74 45.5t27 127.5z" />
    <glyph glyph-name="one.denominator" 
d="M233 0h-67v323h-86v45q45 3 70 18.5t33 60.5h50v-447z" />
    <glyph glyph-name="two.denominator" 
d="M341 0h-297v61l10 6q51 31 105.5 76.5t81.5 87.5q29 44 29 82q0 37 -24 58.5t-61 21.5q-39 0 -58.5 -24.5t-19.5 -62.5q0 -16 8 -52h-65q-6 26 -6 53q0 66 40.5 104.5t106.5 38.5q62 0 103.5 -37.5t41.5 -100.5q0 -123 -204 -256h209v-56z" />
    <glyph glyph-name="three.denominator" 
d="M21 143h67q0 -94 101 -94q49 0 70.5 21.5t21.5 54.5q0 71 -85 71h-43v59h34q10 0 20 1.5t26 7t26.5 20.5t10.5 37q0 35 -25.5 53.5t-58.5 18.5q-86 0 -86 -99v-5h-65v12q0 21 6 43.5t20.5 48t46.5 41.5t77 16q61 0 106.5 -33.5t45.5 -96.5q0 -69 -72 -91q86 -17 86 -105
q0 -52 -38.5 -92.5t-119.5 -40.5q-49 0 -84.5 14t-53.5 37.5t-26 48.5t-8 52z" />
    <glyph glyph-name="four.denominator" 
d="M353 109h-65v-109h-63v109h-203v58l214 283h53v-285h64v-56zM228 356l-139 -191h137z" />
    <glyph glyph-name="five.denominator" 
d="M316 441v-57h-206l-6 -104q44 31 96 31q68 0 111.5 -44.5t43.5 -113.5q0 -72 -46.5 -117t-121.5 -45q-69 0 -114.5 36t-55.5 107l72 4q16 -90 101 -90q45 0 72.5 28.5t27.5 74.5t-28 74t-72 28q-64 0 -92 -55h-63l15 243h266z" />
    <glyph glyph-name="six.denominator" 
d="M345 333l-66 -8q-12 69 -76 69q-51 0 -76.5 -35.5t-31.5 -114.5q39 48 111 48q66 0 109 -41t43 -105q0 -67 -45 -111t-113 -44q-82 0 -127 58t-45 163q0 114 45.5 175.5t129.5 61.5q115 0 142 -116zM103 143q0 -41 26 -67.5t68 -26.5q40 0 65 25.5t25 65.5
q0 43 -25.5 68.5t-66.5 25.5t-66.5 -25.5t-25.5 -65.5z" />
    <glyph glyph-name="seven.denominator" 
d="M342 447v-67q0 -14 -7.5 -28.5t-36.5 -55.5q-35 -49 -60 -97q-52 -98 -70 -199h-72q7 66 40 142.5t80 141.5l46 65q15 20 16 42h-180v-86h-60v142h304z" />
    <glyph glyph-name="eight.denominator" 
d="M288 237q65 -40 65 -105q0 -64 -45 -102.5t-121 -38.5q-74 0 -119.5 38t-45.5 100q0 71 63 108q-51 33 -51 91q0 57 41 89t113 32q73 0 112.5 -31t39.5 -88q0 -62 -52 -93zM273 330q0 30 -23.5 46.5t-66.5 16.5q-38 0 -60.5 -17.5t-22.5 -47.5t23 -47.5t63 -17.5
q41 0 64 17.5t23 49.5zM284 130q0 37 -26 57.5t-72 20.5q-44 0 -70 -21t-26 -57q0 -37 26.5 -59t71.5 -22q44 0 70 22t26 59z" />
    <glyph glyph-name="nine.denominator" 
d="M33 108l66 8q12 -69 76 -69q51 0 76.5 35.5t31.5 113.5q-40 -48 -111 -48q-66 0 -109 41.5t-43 105.5q0 67 45 111t113 44q82 0 127 -58t45 -163q0 -114 -45.5 -176t-129.5 -62q-115 0 -142 117zM272 298q0 41 -26.5 67t-67.5 26t-65.5 -25t-24.5 -66q0 -42 25.5 -68
t65.5 -26q41 0 67 25.5t26 66.5z" />
    <glyph glyph-name="period.denominator" horiz-adv-x="152" 
d="M110 0h-68v78h68v-78z" />
    <glyph glyph-name="comma.denominator" horiz-adv-x="152" 
d="M42 78h68v-47q0 -72 -25 -128h-36q21 57 21 97h-28v78z" />
    <glyph glyph-name="hyphen.denominator" horiz-adv-x="231" 
d="M203 186h-175v54h175v-54z" />
    <glyph glyph-name="parenleft.denominator" horiz-adv-x="208" 
d="M209 -73l-25 -29q-154 116 -154 302q0 88 38.5 167.5t113.5 130.5l27 -25q-114 -105 -114 -268q0 -86 30.5 -160.5t83.5 -117.5z" />
    <glyph glyph-name="parenright.denominator" horiz-adv-x="208" 
d="M-1 469l25 29q154 -116 154 -302q0 -88 -38.5 -167.5t-113.5 -130.5l-27 25q114 105 114 268q0 86 -30.5 160.5t-83.5 117.5z" />
    <glyph glyph-name="dollar.denominator" horiz-adv-x="410" 
d="M186 -75v74q-55 3 -104.5 39t-59.5 96l67 7q19 -74 97 -87v139q-76 22 -106.5 53t-30.5 75q0 52 37.5 84t99.5 36v64h47v-65q51 -2 91 -31t53 -85l-65 -6q-18 60 -79 68v-135q93 -28 120.5 -57.5t27.5 -76.5q0 -52 -43 -84t-105 -34v-74h-47zM186 263v125
q-35 -3 -54 -18.5t-19 -40.5t17 -40t56 -26zM233 181v-129q37 0 60 16t23 44q0 25 -17.5 40.5t-65.5 28.5z" />
    <glyph glyph-name="cent.denominator" horiz-adv-x="343" 
d="M265 117l60 -5q-22 -103 -120 -112v-66h-47v66q-58 6 -92.5 47.5t-34.5 101.5q0 56 33 97t95 49v59h46v-58q96 -10 116 -99l-61 -5q-13 43 -55 48v-185q51 8 60 62zM158 55v186q-29 -6 -47 -30t-18 -62q0 -78 65 -94z" />
    <glyph glyph-name="sterling.denominator" horiz-adv-x="416" 
d="M348 115l58 -4q-4 -48 -28 -83.5t-75 -35.5q-17 0 -35.5 4.5t-29.5 9.5t-28 14t-23 12q-38 -40 -89 -40q-29 0 -49.5 14.5t-20.5 44.5q0 28 18.5 45.5t50.5 17.5q25 0 62 -13q1 3 1 11q0 21 -27 60h-95v49h64q-33 50 -33 100q0 58 42.5 92t111.5 34q77 0 117.5 -42
t40.5 -97l-71 -6q1 6 1 12q0 31 -22 54t-64 23q-89 0 -89 -70q0 -36 46 -100h137v-49h-113q13 -29 13 -50q0 -27 -8 -42q63 -29 83 -29q51 0 54 64zM141 51q-23 11 -40 11q-19 0 -19 -14t19 -14q18 0 40 17z" />
    <glyph glyph-name="yen.denominator" horiz-adv-x="432" 
d="M421 441l-114 -156h73v-46h-104l-30 -41h134v-46h-133v-152h-66v152h-133v46h133l-25 41h-108v45h75l-112 157h81l122 -180l127 180h80z" />
    <glyph glyph-name="florin.denominator" horiz-adv-x="296" 
d="M279 438l-12 -52q-15 5 -28 5q-24 0 -34 -41l-13 -55h54l-12 -49h-53l-76 -311q-10 -41 -29 -59t-54 -18q-17 0 -42 5l12 51q12 -4 22 -4q13 0 19.5 7.5t12.5 31.5l70 297h-47l12 49h47l21 82q19 70 83 70q22 0 47 -9z" />
    <glyph glyph-name="Euro.denominator" horiz-adv-x="472" 
d="M454 401l-26 -66q-42 55 -120 55q-111 0 -138 -104h239l-15 -46h-227q-1 -14 -1 -41h219l-15 -46h-199q12 -51 50 -78.5t94 -27.5q85 0 135 54v-72q-58 -39 -143 -39q-83 0 -137.5 45t-67.5 118h-56l15 46h37q0 31 1 41h-53l16 46h42q37 162 204 162q88 0 146 -47z" />
    <glyph glyph-name="one.superior" 
d="M233 415h-67v323h-86v45q45 3 70 18.5t33 60.5h50v-447z" />
    <glyph glyph-name="two.superior" 
d="M341 415h-297v61l10 6q51 31 105.5 76.5t81.5 87.5q29 44 29 82q0 37 -24 58.5t-61 21.5q-39 0 -58.5 -24.5t-19.5 -62.5q0 -16 8 -52h-65q-6 26 -6 53q0 66 40.5 104.5t106.5 38.5q62 0 103.5 -37.5t41.5 -100.5q0 -123 -204 -256h209v-56z" />
    <glyph glyph-name="three.superior" 
d="M21 558h67q0 -94 101 -94q49 0 70.5 21.5t21.5 54.5q0 71 -85 71h-43v59h34q10 0 20 1.5t26 7t26.5 20.5t10.5 37q0 35 -25.5 53.5t-58.5 18.5q-86 0 -86 -99v-5h-65v12q0 21 6 43.5t20.5 48t46.5 41.5t77 16q61 0 106.5 -33.5t45.5 -96.5q0 -69 -72 -91q86 -17 86 -105
q0 -52 -38.5 -92.5t-119.5 -40.5q-49 0 -84.5 14t-53.5 37.5t-26 48.5t-8 52z" />
    <glyph glyph-name="period.superior" horiz-adv-x="152" 
d="M110 415h-68v78h68v-78z" />
    <glyph glyph-name="comma.superior" horiz-adv-x="152" 
d="M42 493h68v-47q0 -72 -25 -128h-36q21 57 21 97h-28v78z" />
    <glyph glyph-name="hyphen.superior" horiz-adv-x="231" 
d="M203 601h-175v54h175v-54z" />
    <glyph glyph-name="dollar.superior" horiz-adv-x="410" 
d="M186 340v74q-55 3 -104.5 39t-59.5 96l67 7q19 -74 97 -87v139q-76 22 -106.5 53t-30.5 75q0 52 37.5 84t99.5 36v64h47v-65q51 -2 91 -31t53 -85l-65 -6q-18 60 -79 68v-135q93 -28 120.5 -57.5t27.5 -76.5q0 -52 -43 -84t-105 -34v-74h-47zM186 678v125
q-35 -3 -54 -18.5t-19 -40.5t17 -40t56 -26zM233 596v-129q37 0 60 16t23 44q0 25 -17.5 40.5t-65.5 28.5z" />
    <glyph glyph-name="cent.superior" horiz-adv-x="343" 
d="M265 532l60 -5q-22 -103 -120 -112v-66h-47v66q-58 6 -92.5 47.5t-34.5 101.5q0 56 33 97t95 49v59h46v-58q96 -10 116 -99l-61 -5q-13 43 -55 48v-185q51 8 60 62zM158 470v186q-29 -6 -47 -30t-18 -62q0 -78 65 -94z" />
    <glyph glyph-name="sterling.superior" horiz-adv-x="416" 
d="M348 530l58 -4q-4 -48 -28 -83.5t-75 -35.5q-17 0 -35.5 4.5t-29.5 9.5t-28 14t-23 12q-38 -40 -89 -40q-29 0 -49.5 14.5t-20.5 44.5q0 28 18.5 45.5t50.5 17.5q25 0 62 -13q1 3 1 11q0 21 -27 60h-95v49h64q-33 50 -33 100q0 58 42.5 92t111.5 34q77 0 117.5 -42
t40.5 -97l-71 -6q1 6 1 12q0 31 -22 54t-64 23q-89 0 -89 -70q0 -36 46 -100h137v-49h-113q13 -29 13 -50q0 -27 -8 -42q63 -29 83 -29q51 0 54 64zM141 466q-23 11 -40 11q-19 0 -19 -14t19 -14q18 0 40 17z" />
    <glyph glyph-name="yen.superior" horiz-adv-x="432" 
d="M421 856l-114 -156h73v-46h-104l-30 -41h134v-46h-133v-152h-66v152h-133v46h133l-25 41h-108v45h75l-112 157h81l122 -180l127 180h80z" />
    <glyph glyph-name="florin.superior" horiz-adv-x="296" 
d="M279 853l-12 -52q-15 5 -28 5q-24 0 -34 -41l-13 -55h54l-12 -49h-53l-76 -311q-10 -41 -29 -59t-54 -18q-17 0 -42 5l12 51q12 -4 22 -4q13 0 19.5 7.5t12.5 31.5l70 297h-47l12 49h47l21 82q19 70 83 70q22 0 47 -9z" />
    <glyph glyph-name="Euro.superior" horiz-adv-x="472" 
d="M454 816l-26 -66q-42 55 -120 55q-111 0 -138 -104h239l-15 -46h-227q-1 -14 -1 -41h219l-15 -46h-199q12 -51 50 -78.5t94 -27.5q85 0 135 54v-72q-58 -39 -143 -39q-83 0 -137.5 45t-67.5 118h-56l15 46h37q0 31 1 41h-53l16 46h42q37 162 204 162q88 0 146 -47z" />
    <glyph glyph-name="period.inferior" horiz-adv-x="152" 
d="M110 -150h-68v78h68v-78z" />
    <glyph glyph-name="comma.inferior" horiz-adv-x="152" 
d="M42 -72h68v-47q0 -72 -25 -128h-36q21 57 21 97h-28v78z" />
    <glyph glyph-name="hyphen.inferior" horiz-adv-x="231" 
d="M203 36h-175v54h175v-54z" />
    <glyph glyph-name="dollar.inferior" horiz-adv-x="410" 
d="M186 -225v74q-55 3 -104.5 39t-59.5 96l67 7q19 -74 97 -87v139q-76 22 -106.5 53t-30.5 75q0 52 37.5 84t99.5 36v64h47v-65q51 -2 91 -31t53 -85l-65 -6q-18 60 -79 68v-135q93 -28 120.5 -57.5t27.5 -76.5q0 -52 -43 -84t-105 -34v-74h-47zM186 113v125
q-35 -3 -54 -18.5t-19 -40.5t17 -40t56 -26zM233 31v-129q37 0 60 16t23 44q0 25 -17.5 40.5t-65.5 28.5z" />
    <glyph glyph-name="cent.inferior" horiz-adv-x="343" 
d="M265 -33l60 -5q-22 -103 -120 -112v-66h-47v66q-58 6 -92.5 47.5t-34.5 101.5q0 56 33 97t95 49v59h46v-58q96 -10 116 -99l-61 -5q-13 43 -55 48v-185q51 8 60 62zM158 -95v186q-29 -6 -47 -30t-18 -62q0 -78 65 -94z" />
    <glyph glyph-name="sterling.inferior" horiz-adv-x="416" 
d="M348 -35l58 -4q-4 -48 -28 -83.5t-75 -35.5q-17 0 -35.5 4.5t-29.5 9.5t-28 14t-23 12q-38 -40 -89 -40q-29 0 -49.5 14.5t-20.5 44.5q0 28 18.5 45.5t50.5 17.5q25 0 62 -13q1 3 1 11q0 21 -27 60h-95v49h64q-33 50 -33 100q0 58 42.5 92t111.5 34q77 0 117.5 -42
t40.5 -97l-71 -6q1 6 1 12q0 31 -22 54t-64 23q-89 0 -89 -70q0 -36 46 -100h137v-49h-113q13 -29 13 -50q0 -27 -8 -42q63 -29 83 -29q51 0 54 64zM141 -99q-23 11 -40 11q-19 0 -19 -14t19 -14q18 0 40 17z" />
    <glyph glyph-name="yen.inferior" horiz-adv-x="432" 
d="M421 291l-114 -156h73v-46h-104l-30 -41h134v-46h-133v-152h-66v152h-133v46h133l-25 41h-108v45h75l-112 157h81l122 -180l127 180h80z" />
    <glyph glyph-name="florin.inferior" horiz-adv-x="296" 
d="M279 288l-12 -52q-15 5 -28 5q-24 0 -34 -41l-13 -55h54l-12 -49h-53l-76 -311q-10 -41 -29 -59t-54 -18q-17 0 -42 5l12 51q12 -4 22 -4q13 0 19.5 7.5t12.5 31.5l70 297h-47l12 49h47l21 82q19 70 83 70q22 0 47 -9z" />
    <glyph glyph-name="Euro.inferior" horiz-adv-x="472" 
d="M454 251l-26 -66q-42 55 -120 55q-111 0 -138 -104h239l-15 -46h-227q-1 -14 -1 -41h219l-15 -46h-199q12 -51 50 -78.5t94 -27.5q85 0 135 54v-72q-58 -39 -143 -39q-83 0 -137.5 45t-67.5 118h-56l15 46h37q0 31 1 41h-53l16 46h42q37 162 204 162q88 0 146 -47z" />
    <glyph glyph-name="zero.fitted" horiz-adv-x="583" 
d="M49 334q0 153 64.5 249.5t176.5 96.5q106 0 175.5 -92t69.5 -248q0 -155 -64 -250.5t-180 -95.5q-42 0 -82 17t-77 53.5t-60 106t-23 163.5zM138 330q0 -117 40 -187.5t115 -70.5q46 0 78 27t47 71.5t21 85t6 82.5q0 25 -2 50.5t-10.5 66.5t-23.5 71t-45.5 52.5
t-70.5 22.5q-155 0 -155 -271z" />
    <glyph glyph-name="one.fitted" horiz-adv-x="336" 
d="M250 0h-94v493h-145v62q114 0 151 59q17 26 21 60h67v-674z" />
    <glyph glyph-name="two.fitted" horiz-adv-x="473" 
d="M458 0h-441v85q96 51 209 157q61 56 96 110.5t35 120.5q0 60 -33.5 94.5t-93.5 34.5q-67 0 -97 -37t-30 -96q0 -32 12 -80h-88q-12 41 -12 80q0 103 63 159q59 52 155 52q86 0 145 -50q72 -60 72 -163q0 -145 -166 -282q-72 -58 -149 -108h323v-77z" />
    <glyph glyph-name="three.fitted" horiz-adv-x="519" 
d="M13 223h90q5 -73 37 -111t121 -38q14 0 26.5 1t36.5 7.5t40.5 18t30 36t13.5 58.5q0 113 -148 113q-36 0 -66 -3v81q28 -2 51 -2q147 0 147 108q0 55 -42 84.5t-94 29.5q-73 0 -108 -56q-19 -31 -23 -102l-89 4q3 58 13 89q12 37 34 64.5t44.5 41.5t50.5 22t45 9.5
t34 1.5q104 0 164.5 -53t60.5 -135q0 -99 -82 -143q43 -17 72.5 -58t29.5 -103q0 -76 -52 -129q-64 -65 -182 -65q-51 0 -95 12.5t-81 38.5t-58 71.5t-21 106.5z" />
    <glyph glyph-name="four.fitted" horiz-adv-x="516" 
d="M502 162h-98v-162h-87v162h-305v81l322 431h70v-436h98v-76zM103 238h214l4 302z" />
    <glyph glyph-name="five.fitted" horiz-adv-x="508" 
d="M40 307l22 367h383v-79h-315l-9 -177q62 54 149 54q105 0 164 -70.5t59 -165.5q0 -99 -63 -170.5t-175 -71.5q-53 0 -95.5 15.5t-68.5 41t-40.5 48.5t-23.5 47q-8 25 -12 64l89 6q8 -60 43.5 -102.5t104.5 -42.5q21 0 42.5 6.5t47 22.5t42 52t16.5 87q0 68 -37.5 111.5
t-108.5 43.5q-93 0 -133 -87h-81z" />
    <glyph glyph-name="six.fitted" horiz-adv-x="495" 
d="M468 506l-87 -12q-7 49 -37.5 79.5t-79.5 30.5q-44 0 -76 -21.5t-49 -58t-24.5 -76.5t-7.5 -85q22 33 65.5 57.5t101.5 24.5q50 0 96.5 -21.5t81 -73t34.5 -122.5q0 -39 -12.5 -77.5t-37.5 -75t-70 -59t-104 -22.5q-54 0 -104 24.5t-83 75.5q-30 46 -42 100t-12 135
q0 73 13 133.5t40.5 110.5t75.5 78.5t113 28.5q166 0 205 -174zM121 220q0 -63 40.5 -104.5t102.5 -41.5q60 0 97 42.5t37 102.5q0 21 -6.5 44t-20.5 47t-42.5 39t-67.5 15q-71 0 -105.5 -46t-34.5 -98z" />
    <glyph glyph-name="seven.fitted" horiz-adv-x="441" 
d="M15 466v208h413v-97q0 -9 -1 -17t-2 -13t-5.5 -14t-6.5 -13.5t-11 -19t-13 -22.5l-35 -61q-139 -241 -161 -417h-106q23 179 204 461l30 47q22 35 27.5 48.5t5.5 37.5h-267v-128h-72z" />
    <glyph glyph-name="eight.fitted" horiz-adv-x="511" 
d="M401 362q19 -12 30 -20.5t29 -28t27 -47t9 -63.5q0 -87 -61 -148t-180 -61q-62 0 -110 18.5t-75 49.5t-41 66.5t-14 72.5q0 51 24 94.5t68 66.5q-75 50 -75 139q0 86 57.5 132.5t166.5 46.5q58 0 101.5 -14.5t65.5 -34t35 -46.5t16 -45.5t3 -38.5q0 -94 -76 -139z
M387 507q0 37 -32.5 66.5t-103.5 29.5q-56 0 -93 -24.5t-37 -75.5q0 -41 28.5 -73.5t105.5 -32.5q132 0 132 110zM106 202q0 -45 25.5 -75t57.5 -40.5t68 -10.5q25 0 48.5 6t46.5 19t37 39t14 61q0 65 -43.5 93t-107.5 28q-78 0 -112 -36.5t-34 -83.5z" />
    <glyph glyph-name="nine.fitted" horiz-adv-x="503" 
d="M31 162l87 16q23 -108 121 -108q55 0 92 36q33 32 49.5 89t16.5 109q-67 -86 -167 -86q-98 0 -159 63.5t-61 162.5q0 42 12.5 81t38 74t71.5 56.5t106 21.5q123 0 184 -87.5t61 -248.5q0 -172 -75 -270q-59 -77 -175 -77q-85 0 -136 50t-66 118zM388 435q0 68 -40 117.5
t-111 49.5q-40 0 -69 -16.5t-43 -43.5t-20 -52.5t-6 -50.5q0 -69 41 -105t100 -36q73 0 110.5 42t37.5 95z" />
    <glyph glyph-name="onefifth" horiz-adv-x="875" 
d="M566 656l-317 -685l-55 26l318 685zM223 233h-67v327h-86v45q45 3 70 18.5t33 60.5h50v-451zM791 441v-57h-206l-6 -104q44 31 96 31q68 0 111.5 -44.5t43.5 -113.5q0 -72 -46.5 -117t-121.5 -45q-69 0 -114.5 36t-55.5 107l72 4q16 -90 101 -90q45 0 72.5 28.5
t27.5 74.5t-28 74t-72 28q-64 0 -92 -55h-63l15 243h266z" />
    <glyph glyph-name="twofifths" horiz-adv-x="875" 
d="M619 656l-317 -685l-55 26l318 685zM820 441v-57h-206l-6 -104q44 31 96 31q68 0 111.5 -44.5t43.5 -113.5q0 -72 -46.5 -117t-121.5 -45q-69 0 -114.5 36t-55.5 107l72 4q16 -90 101 -90q45 0 72.5 28.5t27.5 74.5t-28 74t-72 28q-64 0 -92 -55h-63l15 243h266zM329 233
h-297v61l10 6q51 31 105.5 76.5t81.5 87.5q29 44 29 82q0 37 -24 58.5t-61 21.5q-39 0 -58.5 -24.5t-19.5 -62.5q0 -16 8 -52h-65q-6 26 -6 53q0 66 40.5 104.5t106.5 38.5q62 0 103.5 -37.5t41.5 -100.5q0 -123 -204 -256h209v-56z" />
    <glyph glyph-name="threefifths" horiz-adv-x="875" 
d="M615 656l-317 -685l-55 26l318 685zM823 441v-57h-206l-6 -104q44 31 96 31q68 0 111.5 -44.5t43.5 -113.5q0 -72 -46.5 -117t-121.5 -45q-69 0 -114.5 36t-55.5 107l72 4q16 -90 101 -90q45 0 72.5 28.5t27.5 74.5t-28 74t-72 28q-64 0 -92 -55h-63l15 243h266zM21 376
h67q0 -94 101 -94q49 0 70.5 21.5t21.5 54.5q0 71 -85 71h-43v59h34q10 0 20 1.5t26 7t26.5 20.5t10.5 37q0 35 -25.5 53.5t-58.5 18.5q-86 0 -86 -99v-5h-65v12q0 21 6 43.5t20.5 48t46.5 41.5t77 16q61 0 106.5 -33.5t45.5 -96.5q0 -69 -72 -91q86 -17 86 -105
q0 -52 -38.5 -92.5t-119.5 -40.5q-49 0 -84.5 14t-53.5 37.5t-26 48.5t-8 52z" />
    <glyph glyph-name="fourfifths" horiz-adv-x="875" 
d="M607 656l-317 -685l-55 26l318 685zM817 441v-57h-206l-6 -104q44 31 96 31q68 0 111.5 -44.5t43.5 -113.5q0 -72 -46.5 -117t-121.5 -45q-69 0 -114.5 36t-55.5 107l72 4q16 -90 101 -90q45 0 72.5 28.5t27.5 74.5t-28 74t-72 28q-64 0 -92 -55h-63l15 243h266zM346 342
h-65v-109h-63v109h-203v58l214 283h53v-285h64v-56zM221 589l-139 -191h137z" />
    <glyph glyph-name="braceleft.cap" horiz-adv-x="281" 
d="M268 -122h-40q-60 0 -93 29t-33 108v192q0 64 -16 83t-69 24v60q52 4 68.5 23.5t16.5 82.5v192q0 71 30.5 104t106.5 33h29v-58h-16q-46 0 -57.5 -20.5t-11.5 -74.5v-178q0 -62 -16.5 -89t-65.5 -46q46 -14 64 -43t18 -91v-196q0 -44 15.5 -60.5t59.5 -16.5h10v-58z" />
    <glyph glyph-name="braceright.cap" horiz-adv-x="281" 
d="M12 808h44q57 0 90 -30.5t33 -108.5v-201q0 -52 16.5 -71.5t67.5 -23.5v-60q-51 -6 -67.5 -23.5t-16.5 -72.5v-197q0 -72 -28 -107t-103 -35h-36v58h19q43 0 55 21.5t12 74.5v176q0 62 16.5 89.5t64.5 46.5q-43 11 -62 41t-19 87v199q0 45 -15 62t-59 17h-12v58z" />
    <glyph glyph-name="bracketleft.cap" horiz-adv-x="277" 
d="M252 -118h-184v923h184v-59h-104v-805h104v-59z" />
    <glyph glyph-name="bracketright.cap" horiz-adv-x="276" 
d="M207 -117h-184v59h104v805h-104v58h184v-922z" />
    <glyph glyph-name="emdash.cap" horiz-adv-x="895" 
d="M850 307h-805v76h805v-76z" />
    <glyph glyph-name="endash.cap" horiz-adv-x="600" 
d="M555 307h-510v76h510v-76z" />
    <glyph glyph-name="guillemotleft.cap" horiz-adv-x="396" 
d="M334 191l-134 113v83l134 116v-89l-80 -71l80 -66v-86zM177 187l-135 113v85l135 117v-91l-78 -68l78 -67v-89z" />
    <glyph glyph-name="guillemotright.cap" horiz-adv-x="396" 
d="M353 303l-135 -117v90l79 69l-79 66v89l135 -113v-84zM196 300l-134 -116v90l80 70l-80 67v85l134 -113v-83z" />
    <glyph glyph-name="guilsinglleft.cap" horiz-adv-x="250" 
d="M182 191l-134 113v83l134 116v-89l-80 -71l80 -66v-86z" />
    <glyph glyph-name="guilsinglright.cap" horiz-adv-x="250" 
d="M202 300l-134 -116v90l80 70l-80 67v85l134 -113v-83z" />
    <glyph glyph-name="hyphen.cap" horiz-adv-x="370" 
d="M325 307h-280v76h280v-76z" />
    <glyph glyph-name="parenleft.cap" horiz-adv-x="315" 
d="M319 -91l-32 -46q-118 88 -182.5 213t-64.5 271q0 141 62 268.5t182 208.5l33 -40q-94 -82 -139 -187t-45 -243q0 -137 50 -257t136 -188z" />
    <glyph glyph-name="parenright.cap" horiz-adv-x="319" 
d="M4 781l33 46q119 -87 182.5 -213t63.5 -271q0 -144 -64.5 -272t-180.5 -205l-33 39q185 163 185 432q0 138 -50 257.5t-136 186.5z" />
    <glyph glyph-name="periodcentered.cap" horiz-adv-x="200" 
d="M151 278h-102v124h102v-124z" />
    <glyph glyph-name="afii10066.locl" horiz-adv-x="546" 
d="M414 706h72q0 -128 -105 -128q-52 0 -90 12q-50 11 -71 11q-50 0 -50 -53q0 -60 115 -71l37 -4q91 -11 137.5 -74.5t46.5 -166.5q0 -118 -65.5 -182.5t-165.5 -64.5q-101 0 -165 65t-64 182q0 83 36 135.5t92 73.5q-36 7 -63 34.5t-27 76.5q0 58 35.5 95.5t90.5 37.5
q31 0 87 -14q41 -9 68 -9q44 0 49 44zM130 228q0 -26 5 -52t18.5 -57t44.5 -50.5t76 -19.5q71 0 108.5 50t37.5 138q0 70 -33 121t-106 51q-42 0 -73 -17t-45.5 -38t-22.5 -51t-9 -44.5t-1 -30.5z" />
    <glyph glyph-name="Imacron" horiz-adv-x="229" 
d="M162 0h-95v706h95v-706zM232 781h-235v68h235v-68z" />
    <glyph glyph-name="ibreve" horiz-adv-x="208" 
d="M144 0h-77v471h77v-471zM-23 654h50q8 -29 29.5 -46t48.5 -17q26 0 47 18t27 46h52q0 -41 -35 -85.5t-93 -44.5q-54 0 -90 38t-36 91z" />
    <glyph glyph-name="cyrbreve" horiz-adv-x="271" 
d="M217 684l64 -10q-7 -55 -47.5 -87.5t-97.5 -32.5t-97.5 32.5t-48.5 87.5l65 10q12 -66 81 -66q71 0 81 66z" />
    <glyph glyph-name="onefitted" horiz-adv-x="336" 
d="M249 0h-94v493h-145v62q114 0 151 59q17 26 21 60h67v-674z" />
    <glyph glyph-name="phi.salt" horiz-adv-x="638" 
d="M598 242q0 -51 -12 -93t-38.5 -78t-74.5 -58.5t-114 -26.5v-210h-78v210q-241 6 -241 258q0 86 52.5 158.5t135.5 80.5l10 -66q-54 -8 -82.5 -59.5t-28.5 -108.5q0 -196 154 -201v248q0 190 146 190q87 0 129 -64.5t42 -179.5zM512 239q0 183 -86 183q-67 0 -67 -105
v-269q153 16 153 191z" />
    <glyph glyph-name="xi.salt" horiz-adv-x="437" 
d="M367 423v-69h-67q-75 0 -125.5 -39t-50.5 -110q0 -65 34 -98.5t128 -33.5q78 0 113.5 -20t35.5 -76q0 -40 -23 -76t-68 -85l-66 46q82 59 82 100q0 26 -17 32t-71 6q-105 0 -170.5 46.5t-65.5 142.5q0 75 45 131t124 72q-62 10 -96.5 50.5t-34.5 98.5q0 57 34 95t77 51.5
t91 13.5q65 0 118 -27t73 -85l-80 -19q-15 67 -110 67q-47 0 -83 -23.5t-36 -76.5q0 -61 42 -87.5t97 -26.5h70z" />
    <glyph glyph-name="alpha.salt" horiz-adv-x="578" 
d="M498 471v-350q0 -18 1.5 -27.5t10 -18.5t24.5 -9q6 0 24 4v-67q-27 -9 -51 -9q-69 0 -83 75q-58 -84 -167 -84q-101 0 -159 70t-58 182q0 65 20 115.5t52.5 78.5t69 41.5t74.5 13.5q62 0 102.5 -26t59.5 -56v67h80zM420 242q0 74 -39.5 122.5t-105.5 48.5q-75 0 -112 -52
t-37 -127q0 -73 34.5 -125.5t112.5 -52.5q61 0 104 43.5t43 142.5z" />
    <glyph glyph-name="beta.salt" horiz-adv-x="541" 
d="M310 -15q-103 0 -161 76v-61h-80v467q0 234 207 234q102 0 151.5 -47t49.5 -115q0 -26 -8 -53.5t-37.5 -58t-75.5 -40.5q89 -12 130 -65t41 -132q0 -33 -10.5 -66t-34 -65.5t-68 -53t-104.5 -20.5zM444 193q0 78 -42 115.5t-137 37.5h-19v69h10q19 0 39.5 4t46.5 15.5
t42.5 38.5t16.5 66q0 45 -32.5 71.5t-90.5 26.5q-131 0 -131 -159v-244q0 -78 38 -129.5t120 -51.5q60 0 99.5 37t39.5 103z" />
    <glyph glyph-name="gamma.salt" horiz-adv-x="437" 
d="M180 0l-166 471h83l122 -372l122 372h82l-165 -471v-224h-78v224z" />
    <glyph glyph-name="zeta.salt" horiz-adv-x="417" 
d="M389 0h-376v66l271 336h-245v69h344v-64l-274 -341h280v-66z" />
    <glyph glyph-name="eta.salt" horiz-adv-x="525" 
d="M460 0h-79v309q0 51 -31 76.5t-76 25.5q-52 0 -88.5 -35.5t-36.5 -96.5v-279h-80v471h80v-69q19 33 56 58.5t92 25.5q16 0 35 -3.5t49.5 -19t49.5 -42.5q29 -41 29 -123v-298z" />
    <glyph glyph-name="iota.salt" horiz-adv-x="215" 
d="M146 0h-77v471h77v-471z" />
    <glyph glyph-name="kappa.salt" horiz-adv-x="496" 
d="M146 471v-211l199 211h98l-175 -186l215 -285h-100l-169 226l-68 -70v-156h-77v471h77z" />
    <glyph glyph-name="lambda.salt" horiz-adv-x="452" 
d="M199 461l-21 58q-28 77 -40.5 97.5t-37.5 20.5q-29 0 -60 -15v61q24 18 67 18q61 0 86.5 -33t60.5 -133l189 -535h-79l-128 358l-141 -358h-86z" />
    <glyph glyph-name="mu.salt" horiz-adv-x="527" 
d="M379 0v62q-41 -77 -121 -77q-71 0 -108 60q4 -247 4 -269h-85v695h79v-249q0 -54 4.5 -78.5t16.5 -42.5q12 -21 38.5 -36.5t50.5 -15.5q57 0 89.5 44t32.5 132v246h78v-471h-79z" />
    <glyph glyph-name="nu.salt" horiz-adv-x="437" 
d="M426 471l-170 -471h-72l-172 471h83l125 -361l124 361h82z" />
    <glyph glyph-name="pi.salt1" horiz-adv-x="545" 
d="M525 402h-69v-402h-79v402h-208v-402h-80v402h-69v69h505v-69z" />
    <glyph glyph-name="tau.salt" horiz-adv-x="401" 
d="M381 402h-143v-300q0 -25 8 -36t27 -11q20 0 50 11v-66q-56 -8 -76 -8q-55 0 -73 20t-18 65v325h-136v69h361v-69z" />
    <glyph glyph-name="chi.salt" horiz-adv-x="396" 
d="M387 0h-90l-100 168l-98 -168h-90l146 239l-139 232h92l94 -162l95 162h90l-142 -232z" />
    <glyph glyph-name="alphatonos.salt" horiz-adv-x="578" 
d="M498 471v-350q0 -18 1.5 -27.5t10 -18.5t24.5 -9q6 0 24 4v-67q-27 -9 -51 -9q-69 0 -83 75q-58 -84 -167 -84q-101 0 -159 70t-58 182q0 65 20 115.5t52.5 78.5t69 41.5t74.5 13.5q62 0 102.5 -26t59.5 -56v67h80zM420 242q0 74 -39.5 122.5t-105.5 48.5q-75 0 -112 -52
t-37 -127q0 -73 34.5 -125.5t112.5 -52.5q61 0 104 43.5t43 142.5zM387 666l-86 -144h-41l41 144h86z" />
    <glyph glyph-name="etatonos.salt" horiz-adv-x="525" 
d="M460 0h-79v309q0 51 -31 76.5t-76 25.5q-52 0 -88.5 -35.5t-36.5 -96.5v-279h-80v471h80v-69q19 33 56 58.5t92 25.5q16 0 35 -3.5t49.5 -19t49.5 -42.5q29 -41 29 -123v-298zM375 666l-86 -144h-41l41 144h86z" />
    <glyph glyph-name="iotatonos.salt" horiz-adv-x="215" 
d="M146 0h-77v471h77v-471zM219 666l-86 -144h-41l41 144h86z" />
    <glyph glyph-name="iotadieresis.salt" horiz-adv-x="215" 
d="M146 0h-77v471h77v-471zM258 541h-89v103h89v-103zM60 541h-87v103h87v-103z" />
    <glyph glyph-name="iotadieresistonos.salt" horiz-adv-x="215" 
d="M146 0h-77v471h77v-471zM303 541h-81v96h81v-96zM211 683l-74 -142h-58l32 142h100zM39 541h-80v96h80v-96z" />
    <glyph glyph-name="cyrBreve" horiz-adv-x="271" 
d="M221 888l72 -10q-7 -52 -51 -83t-106 -31t-106.5 31t-51.5 83l73 10q13 -54 85 -54q75 0 85 54z" />
    <glyph glyph-name="uni03A9.salt" horiz-adv-x="820" 
d="M765 374q0 -170 -159 -292h155v-82h-294v72q196 95 196 302q0 122 -67.5 198t-185.5 76t-185.5 -76t-67.5 -198q0 -207 196 -302v-72h-294v82h155q-159 122 -159 292q0 156 100.5 253t254.5 97t254.5 -97t100.5 -253z" />
    <glyph glyph-name="uni03BC.salt" horiz-adv-x="527" 
d="M379 0v62q-41 -77 -121 -77q-71 0 -108 60q4 -247 4 -269h-85v695h79v-293q0 -54 32 -91.5t78 -37.5q57 0 89.5 44t32.5 132v246h78v-471h-79z" />
    <glyph glyph-name="pi.salt" horiz-adv-x="545" 
d="M525 402h-69v-402h-79v402h-208v-402h-80v402h-69v69h505v-69z" />
    <glyph glyph-name="psi.salt" horiz-adv-x="616" 
d="M571 228q0 -129 -59.5 -182.5t-165.5 -58.5v-211h-76v211q-106 5 -165.5 58.5t-59.5 182.5v243h79v-240q0 -103 36.5 -140t109.5 -42v421h76v-421q73 5 109.5 42t36.5 140v240h79v-243z" />
    </font>
</defs>
</svg>
