<?xml version="1.0" standalone="no"?>
<!DOCTYPE svg PUBLIC "-//W3C//DTD SVG 1.1//EN" "http://www.w3.org/Graphics/SVG/1.1/DTD/svg11.dtd" >
<svg xmlns="http://www.w3.org/2000/svg" xmlns:xlink="http://www.w3.org/1999/xlink" version="1.1">
<metadata>
Created by FontForge 20170731 at Wed Oct  6 09:42:19 2021
 By Aleksey,,,
(c) 2011 Klim Type Foundry. All rights reserved.
</metadata>
<defs>
<font id="Calibre-Light" horiz-adv-x="1024" >
  <font-face 
    font-family="Calibre Light"
    font-weight="300"
    font-stretch="normal"
    units-per-em="2048"
    panose-1="2 11 3 3 3 2 2 6 2 3"
    ascent="1331"
    descent="-717"
    x-height="909"
    cap-height="1257"
    bbox="-246 -375 1782 1829"
    underline-thickness="61"
    underline-position="-204"
    unicode-range="U+0020-FB02"
  />
<missing-glyph horiz-adv-x="1245" 
 />
    <glyph glyph-name="f_f" unicode="ff" horiz-adv-x="1011" 
d="M1034 1331v-94q-48 23 -94 23q-74 0 -120 -52t-46 -145v-154h215v-88h-215v-821h-98v821h-383v-821h-100v821h-148v88h148v152q0 123 72.5 199.5t183.5 76.5q55 0 102 -18v-94q-42 22 -92 22q-74 0 -120 -51.5t-46 -144.5v-142h383v164q0 123 72.5 200t183.5 77
q53 0 102 -19z" />
    <glyph glyph-name=".notdef" horiz-adv-x="1245" 
 />
    <glyph glyph-name=".null" horiz-adv-x="0" 
 />
    <glyph glyph-name="nonmarkingreturn" horiz-adv-x="682" 
 />
    <glyph glyph-name="space" unicode=" " horiz-adv-x="452" 
 />
    <glyph glyph-name="exclam" unicode="!" horiz-adv-x="421" 
d="M133 72q0 34 23 57t55 23q31 0 53.5 -23.5t22.5 -56.5q0 -32 -22.5 -55t-53.5 -23q-32 0 -55 23t-23 55zM174 393l-20 864h114l-20 -864h-74z" />
    <glyph glyph-name="quotedbl" unicode="&#x22;" horiz-adv-x="452" 
d="M82 856v401h92v-401h-92zM279 856v401h92v-401h-92z" />
    <glyph glyph-name="numbersign" unicode="#" horiz-adv-x="1124" 
d="M985 473l-14 -82h-215l-92 -391h-93l93 391h-320l-94 -391h-88l92 391h-199l19 82h200l74 311h-211l17 82h213l94 391h90l-94 -391h321l94 391h91l-95 -391h201l-18 -82h-201l-74 -311h209zM438 784l-76 -311h322l74 311h-320z" />
    <glyph glyph-name="dollar" unicode="$" horiz-adv-x="948" 
d="M434 -174v203q-141 11 -242 85t-137 199h107q38 -97 120 -146.5t199 -49.5q131 0 214 61t83 170q0 79 -46.5 132t-153.5 83l-220 62q-132 37 -202 104t-70 186q0 141 98.5 225.5t249.5 90.5v182h92v-186q133 -17 219.5 -92.5t118.5 -194.5h-100q-71 203 -309 203
q-118 0 -195.5 -59.5t-77.5 -163.5q0 -86 54.5 -131.5t169.5 -77.5l192 -54q142 -40 209 -115t67 -192q0 -139 -97.5 -224.5t-250.5 -96.5v-203h-92z" />
    <glyph glyph-name="percent" unicode="%" horiz-adv-x="1271" 
d="M184 0l815 1257h88l-815 -1257h-88zM160 1014q0 -72 51.5 -123t124.5 -51t124.5 51t51.5 123q0 74 -51.5 126t-124.5 52t-124.5 -52t-51.5 -126zM1194 244q0 -109 -75.5 -185.5t-182.5 -76.5t-183.5 76.5t-76.5 185.5q0 107 76.5 182.5t183.5 75.5t182.5 -75.5
t75.5 -182.5zM596 1014q0 -107 -76.5 -182.5t-183.5 -75.5q-109 0 -184.5 75.5t-75.5 182.5q0 109 75.5 185.5t184.5 76.5q107 0 183.5 -76.5t76.5 -185.5zM1110 244q0 72 -51 123t-123 51q-73 0 -124.5 -51t-51.5 -123q0 -74 51.5 -126t124.5 -52q72 0 123 52t51 126z" />
    <glyph glyph-name="ampersand" unicode="&#x26;" horiz-adv-x="1150" 
d="M868 971h-100q-11 101 -71 160t-158 59q-100 0 -164 -60t-64 -163q0 -37 10 -69.5t38 -70.5t43.5 -55.5t60.5 -66.5l387 -412q80 135 86 328h96q-6 -224 -119 -396l213 -225h-131l-141 150q-155 -168 -381 -168q-171 0 -283 109t-112 274q0 116 68 211t176 139
q-55 65 -82 122.5t-27 129.5q0 139 92.5 224t233.5 85q147 0 231.5 -85t97.5 -220zM383 649q-90 -30 -148.5 -108.5t-58.5 -175.5q0 -126 84 -209.5t213 -83.5q197 0 322 141z" />
    <glyph glyph-name="quotesingle" unicode="'" horiz-adv-x="258" 
d="M82 856v401h94v-401h-94z" />
    <glyph glyph-name="parenleft" unicode="(" horiz-adv-x="665" 
d="M61 580q0 281 148 483t401 268v-102q-190 -46 -319 -221.5t-129 -427.5q0 -128 36 -240.5t97.5 -194.5t142 -137.5t172.5 -77.5v-102q-252 66 -400.5 268.5t-148.5 483.5z" />
    <glyph glyph-name="parenright" unicode=")" horiz-adv-x="665" 
d="M604 580q0 -281 -148.5 -483.5t-400.5 -268.5v102q123 30 223.5 115.5t163 225.5t62.5 309q0 128 -36 240.5t-98 194t-142.5 137t-172.5 77.5v102q253 -66 401 -268t148 -483z" />
    <glyph glyph-name="asterisk" unicode="*" horiz-adv-x="645" 
d="M256 1051l-193 110l35 58l191 -111v221h67v-221l191 111l33 -58l-193 -110l193 -111l-33 -57l-191 110v-219h-67v219l-191 -110l-35 57z" />
    <glyph glyph-name="plus" unicode="+" horiz-adv-x="1052" 
d="M481 983h88v-336h338v-88h-338v-336h-88v336h-336v88h336v336z" />
    <glyph glyph-name="comma" unicode="," horiz-adv-x="288" 
d="M18 -207l111 205q-26 5 -43.5 24t-17.5 50q0 34 21.5 56t53.5 22q34 0 56 -23t22 -59q0 -35 -31 -91l-98 -184h-74z" />
    <glyph glyph-name="hyphen" unicode="-" horiz-adv-x="657" 
d="M82 485v95h493v-95h-493z" />
    <glyph glyph-name="period" unicode="." horiz-adv-x="288" 
d="M68 72q0 34 22 57t53 23q32 0 55 -23t23 -57q0 -32 -23 -55t-55 -23q-31 0 -53 23t-22 55z" />
    <glyph glyph-name="slash" unicode="/" horiz-adv-x="626" 
d="M10 -172l508 1503h98l-507 -1503h-99z" />
    <glyph glyph-name="zero" unicode="0" horiz-adv-x="1097" 
d="M549 -18q-208 0 -335.5 179.5t-127.5 467.5t127.5 467.5t335.5 179.5q206 0 333.5 -179.5t127.5 -467.5t-127.5 -467.5t-333.5 -179.5zM549 1180q-165 0 -262 -152.5t-97 -398.5t97 -398.5t262 -152.5t261.5 152.5t96.5 398.5t-96.5 398.5t-261.5 152.5z" />
    <glyph glyph-name="one" unicode="1" horiz-adv-x="675" 
d="M496 1260v-1260h-103v1135l-330 -170v108l369 187h64z" />
    <glyph glyph-name="two" unicode="2" horiz-adv-x="909" 
d="M725 930q0 115 -72 182.5t-190 67.5q-132 0 -208.5 -81.5t-90.5 -219.5h-105q18 179 125.5 288t278.5 109q167 0 265.5 -95.5t98.5 -250.5q0 -27 -3.5 -52.5t-14.5 -53t-18.5 -46.5t-28.5 -49.5t-30 -44.5t-38 -47.5t-37 -43t-43 -48t-41 -45.5l-374 -404h657v-96h-803
v72l445 483q42 46 55 60t46 52.5t44.5 55t32.5 48.5t28 53.5t14 49.5t7 56z" />
    <glyph glyph-name="three" unicode="3" horiz-adv-x="931" 
d="M373 600v92h94q114 0 189 66t75 178q0 108 -74.5 177t-195.5 69q-113 0 -190 -67t-99 -183h-102q25 155 131 249.5t260 94.5q171 0 272 -93.5t101 -242.5q0 -111 -66 -192.5t-164 -100.5q110 -20 182 -100.5t72 -202.5q0 -155 -105.5 -258.5t-285.5 -103.5
q-173 0 -284.5 96t-133.5 260h105q23 -125 104 -193.5t209 -68.5q130 0 209.5 73t79.5 193q0 119 -82.5 188.5t-204.5 69.5h-96z" />
    <glyph glyph-name="four" unicode="4" 
d="M645 1257l-483 -856h471v312h100v-312h236v-94h-236v-307h-100v307h-590v82l494 868h108z" />
    <glyph glyph-name="five" unicode="5" horiz-adv-x="942" 
d="M471 705q-150 0 -242 -119h-90v671h668v-96h-576v-456q42 40 105.5 67t140.5 27q169 0 282 -118.5t113 -291.5q0 -170 -114.5 -288.5t-286.5 -118.5t-282.5 94t-139.5 264h105q28 -128 108.5 -196t208.5 -68q129 0 214 90t85 223t-85 224.5t-214 91.5z" />
    <glyph glyph-name="six" unicode="6" horiz-adv-x="1013" 
d="M219 401q0 -140 88.5 -233.5t222.5 -93.5q133 0 222.5 93.5t89.5 233.5t-90 234t-222 94q-135 0 -223 -93.5t-88 -234.5zM915 973h-104q-70 211 -272 211q-154 0 -255.5 -150.5t-101.5 -398.5q0 -61 4 -90q28 121 127 197.5t224 76.5q172 0 287.5 -120.5t115.5 -295.5
q0 -178 -117 -299.5t-293 -121.5q-128 0 -222 63t-148 176q-74 155 -74 391q0 308 128 486t325 178q152 0 245.5 -80.5t130.5 -222.5z" />
    <glyph glyph-name="seven" unicode="7" horiz-adv-x="878" 
d="M834 1174l-465 -1174h-107l463 1161h-688v96h797v-83z" />
    <glyph glyph-name="eight" unicode="8" horiz-adv-x="985" 
d="M492 72q140 0 231.5 79t91.5 197t-91.5 197.5t-231.5 79.5t-231 -79.5t-91 -197.5t91 -197t231 -79zM492 715q120 0 196 67.5t76 167.5q0 101 -76 168.5t-196 67.5q-119 0 -195 -67.5t-76 -168.5q0 -100 76.5 -167.5t194.5 -67.5zM492 -18q-183 0 -302.5 102.5
t-119.5 259.5q0 117 71.5 206t188.5 120q-96 34 -152.5 110t-56.5 172q0 139 105.5 231.5t265.5 92.5q162 0 267 -92.5t105 -231.5q0 -96 -57 -172t-152 -110q117 -31 188.5 -120t71.5 -206q0 -157 -119.5 -259.5t-303.5 -102.5z" />
    <glyph glyph-name="nine" unicode="9" horiz-adv-x="1013" 
d="M795 856q0 140 -89 234t-223 94q-132 0 -221.5 -93.5t-89.5 -234.5t89.5 -234.5t221.5 -93.5q135 0 223.5 93.5t88.5 234.5zM98 285h105q70 -211 272 -211q154 0 255 150t101 399q0 61 -4 90q-28 -121 -126.5 -198t-223.5 -77q-172 0 -287.5 120.5t-115.5 295.5
q0 178 116.5 300t292.5 122q128 0 222.5 -63.5t148.5 -176.5q74 -155 74 -391q0 -308 -128 -485.5t-325 -177.5q-152 0 -246 80.5t-131 222.5z" />
    <glyph glyph-name="colon" unicode=":" horiz-adv-x="288" 
d="M68 72q0 34 22 57t53 23q32 0 55 -23t23 -57q0 -32 -23 -55t-55 -23q-31 0 -53 23t-22 55zM68 745q0 34 22 57t53 23q32 0 55 -23t23 -57q0 -32 -23 -54.5t-55 -22.5q-31 0 -53 22.5t-22 54.5z" />
    <glyph glyph-name="semicolon" unicode=";" horiz-adv-x="288" 
d="M18 -207l111 205q-26 5 -43.5 24t-17.5 50q0 34 21.5 56t53.5 22q34 0 56 -23t22 -59q0 -35 -31 -91l-98 -184h-74zM68 745q0 34 22 57t53 23q32 0 55 -23t23 -57q0 -32 -23 -54.5t-55 -22.5q-31 0 -53 22.5t-22 54.5z" />
    <glyph glyph-name="less" unicode="&#x3c;" horiz-adv-x="813" 
d="M119 551v96l561 307v-98l-475 -256l475 -256v-100z" />
    <glyph glyph-name="equal" unicode="=" horiz-adv-x="1067" 
d="M154 430v86h761v-86h-761zM154 692v86h761v-86h-761z" />
    <glyph glyph-name="greater" unicode="&#x3e;" horiz-adv-x="813" 
d="M696 647v-96l-563 -307v100l475 256l-475 256v98z" />
    <glyph glyph-name="question" unicode="?" horiz-adv-x="864" 
d="M379 72q0 34 23 57t55 23q31 0 53 -23t22 -57q0 -32 -22 -55t-53 -23q-32 0 -55 23t-23 55zM809 934q0 -24 -3.5 -47.5t-13 -47.5t-16.5 -42t-24 -43t-26 -38t-32 -39.5t-31 -35.5t-34.5 -37.5t-32.5 -34.5q-48 -53 -67 -91.5t-21 -82.5h-96q4 68 28 117t80 111
q11 12 47 50.5t53 59.5t41.5 56.5t35 71t10.5 73.5q0 115 -72 180.5t-191 65.5q-130 0 -206.5 -80.5t-90.5 -216.5h-106q18 177 126 285t277 108q168 0 266.5 -93.5t98.5 -248.5z" />
    <glyph glyph-name="at" unicode="@" horiz-adv-x="1585" 
d="M1122 778l-92 -522q-11 -68 15 -95.5t83 -27.5q128 0 211.5 110.5t83.5 305.5q0 228 -163 373t-420 145q-198 0 -353.5 -91.5t-239 -247.5t-83.5 -347q0 -128 38.5 -232.5t103.5 -175t152.5 -118.5t183.5 -69.5t200 -21.5q236 0 430 93v-84q-199 -88 -430 -88
q-120 0 -230 25t-208.5 80t-170.5 135t-114.5 197t-42.5 259q0 158 55.5 299t154.5 245t242.5 165t311.5 61q147 0 272.5 -46t212 -126.5t135.5 -191.5t49 -238q0 -120 -32.5 -216.5t-88 -156.5t-124.5 -91.5t-146 -31.5q-72 0 -123 34t-61 93q-38 -51 -98.5 -86t-124.5 -35
q-126 0 -196.5 84t-70.5 215q0 112 45.5 211t131.5 162.5t194 63.5q70 0 122.5 -34.5t76.5 -82.5l18 100h90zM944 287l49 284q-23 62 -68.5 100t-105.5 38q-62 0 -116 -31t-89 -80.5t-55 -112t-20 -125.5q0 -100 49.5 -158.5t134.5 -58.5q122 0 221 144z" />
    <glyph glyph-name="A" unicode="A" horiz-adv-x="1185" 
d="M545 1257h96l498 -1257h-105l-164 414h-557l-161 -414h-105zM592 1122l-242 -614h484z" />
    <glyph glyph-name="B" unicode="B" horiz-adv-x="1071" 
d="M741 651q116 -20 185 -104.5t69 -200.5q0 -165 -108 -255.5t-301 -90.5h-424v1257h385q193 0 297 -84t104 -241q0 -116 -57.5 -184.5t-149.5 -96.5zM264 692h283q146 0 222.5 59.5t76.5 176.5t-76.5 176t-222.5 59h-283v-471zM264 602v-508h328q145 0 222 68t77 186
t-77 186t-222 68h-328z" />
    <glyph glyph-name="C" unicode="C" horiz-adv-x="1177" 
d="M80 629q0 146 43 268t117.5 204.5t176 128.5t216.5 46q180 0 303 -98t162 -263h-103q-41 123 -134 193t-228 70q-198 0 -322.5 -149.5t-124.5 -399.5q0 -249 125 -399t322 -150q135 0 228 69.5t134 192.5h103q-39 -165 -162.5 -262.5t-302.5 -97.5q-115 0 -216.5 46
t-176 128.5t-117.5 204.5t-43 268z" />
    <glyph glyph-name="D" unicode="D" horiz-adv-x="1232" 
d="M266 96h279q231 0 367.5 145.5t136.5 387.5t-136.5 387t-367.5 145h-279v-1065zM162 0v1257h383q275 0 442.5 -171t167.5 -457t-167.5 -457.5t-442.5 -171.5h-383z" />
    <glyph glyph-name="E" unicode="E" horiz-adv-x="1054" 
d="M162 1257h780v-96h-678v-465h615v-96h-615v-504h678v-96h-780v1257z" />
    <glyph glyph-name="F" unicode="F" horiz-adv-x="968" 
d="M266 0h-104v1257h729v-96h-625v-479h592v-94h-592v-588z" />
    <glyph glyph-name="G" unicode="G" horiz-adv-x="1224" 
d="M1047 498h-328v92h428v-74q0 -242 -137.5 -388t-366.5 -146q-118 0 -221 45.5t-179 128t-119.5 205t-43.5 268.5t44 268.5t120 205t178.5 128t218.5 45.5q183 0 308 -97.5t165 -263.5h-104q-42 125 -136 194t-233 69q-200 0 -327.5 -149t-127.5 -400q0 -252 127.5 -401.5
t329.5 -149.5q186 0 291 110.5t113 309.5z" />
    <glyph glyph-name="H" unicode="H" horiz-adv-x="1329" 
d="M1063 1257h104v-1257h-104v600h-797v-600h-104v1257h104v-561h797v561z" />
    <glyph glyph-name="I" unicode="I" horiz-adv-x="428" 
d="M266 1257v-1257h-104v1257h104z" />
    <glyph glyph-name="J" unicode="J" horiz-adv-x="966" 
d="M39 348h108q14 -124 90 -196t197 -72q131 0 211 78.5t80 240.5v858h104v-858q0 -204 -109.5 -310.5t-283.5 -106.5q-169 0 -277 99.5t-120 266.5z" />
    <glyph glyph-name="K" unicode="K" horiz-adv-x="1114" 
d="M266 1257v-659l656 659h135l-574 -573l594 -684h-131l-538 612l-142 -143v-469h-104v1257h104z" />
    <glyph glyph-name="L" unicode="L" horiz-adv-x="1030" 
d="M162 0v1257h104v-1161h682v-96h-786z" />
    <glyph glyph-name="M" unicode="M" horiz-adv-x="1492" 
d="M780 0h-65l-453 1051v-1051h-100v1257h114l474 -1103l473 1103h108v-1257h-100v1051z" />
    <glyph glyph-name="N" unicode="N" horiz-adv-x="1261" 
d="M1100 1257v-1257h-70l-768 1092v-1092h-100v1257h100l737 -1048v1048h101z" />
    <glyph glyph-name="O" unicode="O" horiz-adv-x="1269" 
d="M1192 629q0 -287 -157 -467t-400 -180q-241 0 -398 180.5t-157 466.5t157 466.5t398 180.5q243 0 400 -180t157 -467zM1085 629q0 244 -124.5 396.5t-325.5 152.5q-199 0 -324 -153t-125 -396t125 -396t324 -153q201 0 325.5 152.5t124.5 396.5z" />
    <glyph glyph-name="P" unicode="P" horiz-adv-x="1083" 
d="M616 543h-350v-543h-104v1257h454q187 0 292.5 -92t105.5 -264q0 -174 -105 -266t-293 -92zM909 901q0 124 -76 193t-221 69h-346v-524h346q145 0 221 68t76 194z" />
    <glyph glyph-name="Q" unicode="Q" horiz-adv-x="1269" 
d="M1032 -66l-104 134q-127 -86 -293 -86q-241 0 -398 180.5t-157 466.5t157 466.5t398 180.5q243 0 400 -180t157 -467q0 -158 -51 -287t-142 -217l103 -133zM1085 629q0 244 -124.5 396.5t-325.5 152.5q-199 0 -324 -153t-125 -396t125 -396t324 -153q130 0 233 65
l-106 138l72 55l104 -135q147 147 147 426z" />
    <glyph glyph-name="R" unicode="R" horiz-adv-x="1124" 
d="M567 555h-301v-555h-104v1257h444q187 0 291 -91t104 -261q0 -151 -83.5 -239t-235.5 -107l379 -559h-121zM266 1163v-516h336q144 0 220.5 67.5t76.5 190.5q0 125 -76.5 191.5t-220.5 66.5h-336z" />
    <glyph glyph-name="S" unicode="S" horiz-adv-x="1017" 
d="M53 307h109q38 -112 131.5 -171.5t224.5 -59.5q138 0 225.5 67.5t87.5 184.5q0 86 -50.5 143t-166.5 90l-239 68q-143 40 -216 110.5t-73 196.5q0 155 114 247.5t283 92.5q179 0 292 -85t151 -230h-105q-37 104 -121.5 162.5t-216.5 58.5q-128 0 -212.5 -64t-84.5 -176
q0 -94 56.5 -141t183.5 -82l211 -62q154 -43 225.5 -121.5t71.5 -203.5q0 -162 -117 -256t-299 -94q-177 0 -303 85.5t-162 239.5z" />
    <glyph glyph-name="T" unicode="T" horiz-adv-x="1150" 
d="M63 1161v96h1024v-96h-460v-1161h-105v1161h-459z" />
    <glyph glyph-name="U" unicode="U" horiz-adv-x="1239" 
d="M618 -18q-103 0 -189.5 32t-152 94.5t-102.5 162t-37 225.5v761h105v-747q0 -213 103 -322.5t273 -109.5q171 0 275 109.5t104 322.5v747h105v-761q0 -126 -37.5 -225.5t-103.5 -162t-153 -94.5t-190 -32z" />
    <glyph glyph-name="V" unicode="V" horiz-adv-x="1181" 
d="M637 0h-94l-496 1257h109l434 -1114l438 1114h107z" />
    <glyph glyph-name="W" unicode="W" horiz-adv-x="1554" 
d="M735 1257h86l295 -1081l291 1081h102l-342 -1257h-94l-297 1071l-295 -1071h-92l-344 1257h105l290 -1081z" />
    <glyph glyph-name="X" unicode="X" horiz-adv-x="1105" 
d="M1042 1257l-430 -618l447 -639h-119l-389 555l-387 -555h-115l445 637l-433 620h119l373 -536l375 536h114z" />
    <glyph glyph-name="Y" unicode="Y" horiz-adv-x="1095" 
d="M551 633l395 624h113l-459 -720v-537h-104v537l-457 720h115z" />
    <glyph glyph-name="Z" unicode="Z" horiz-adv-x="1062" 
d="M981 96v-96h-905v80l768 1081h-758v96h887v-79l-766 -1082h774z" />
    <glyph glyph-name="bracketleft" unicode="[" horiz-adv-x="636" 
d="M258 1239v-1319h324v-92h-420v1503h420v-92h-324z" />
    <glyph glyph-name="backslash" unicode="\" horiz-adv-x="626" 
d="M109 1331l507 -1503h-98l-508 1503h99z" />
    <glyph glyph-name="bracketright" unicode="]" horiz-adv-x="636" 
d="M379 -80v1319h-324v92h420v-1503h-420v92h324z" />
    <glyph glyph-name="asciicircum" unicode="^" horiz-adv-x="657" 
d="M285 1257h88l233 -370h-108l-170 264l-168 -264h-109z" />
    <glyph glyph-name="underscore" unicode="_" horiz-adv-x="720" 
d="M41 -180v94h639v-94h-639z" />
    <glyph glyph-name="grave" unicode="`" 
d="M651 1065h-100l-178 266h108z" />
    <glyph glyph-name="a" unicode="a" horiz-adv-x="899" 
d="M764 0h-98v86q-32 -39 -102.5 -69.5t-149.5 -30.5q-142 0 -239 76.5t-97 203.5q0 124 98 201.5t242 77.5q74 0 144 -29.5t104 -66.5v161q0 103 -60.5 165.5t-167.5 62.5q-169 0 -221 -156h-100q26 115 113 180.5t208 65.5q151 0 238.5 -85t87.5 -229v-614zM666 207v117
q-22 59 -90.5 97t-151.5 38q-104 0 -177 -50.5t-73 -142.5t73 -143t177 -51q83 0 151.5 38t90.5 97z" />
    <glyph glyph-name="b" unicode="b" horiz-adv-x="1007" 
d="M248 135v-135h-101v1331h101v-557q42 64 118 109t164 45q129 0 221 -66.5t134.5 -171.5t42.5 -235t-42.5 -235t-134.5 -171.5t-221 -66.5q-88 0 -164 44.5t-118 108.5zM248 653v-397q45 -87 117.5 -133.5t156.5 -46.5q140 0 221.5 105.5t81.5 273.5t-81.5 273.5
t-221.5 105.5q-84 0 -156.5 -47t-117.5 -134z" />
    <glyph glyph-name="c" unicode="c" horiz-adv-x="905" 
d="M80 455q0 212 110.5 342.5t290.5 130.5q141 0 232 -76.5t116 -206.5h-104q-20 90 -84 140.5t-160 50.5q-134 0 -216.5 -105t-82.5 -276t82.5 -276t216.5 -105q96 0 160 50t84 140h104q-25 -129 -116 -205.5t-232 -76.5q-180 0 -290.5 130.5t-110.5 342.5z" />
    <glyph glyph-name="d" unicode="d" horiz-adv-x="1007" 
d="M760 0v135q-42 -64 -118.5 -108.5t-164.5 -44.5q-97 0 -174.5 38t-125 104t-72.5 150.5t-25 180.5t25 180.5t72.5 150.5t125 104t174.5 38q88 0 164.5 -45t118.5 -109v557h100v-1331h-100zM760 256v397q-45 87 -118 134t-157 47q-140 0 -221.5 -105.5t-81.5 -273.5
t81.5 -273.5t221.5 -105.5q85 0 157.5 46.5t117.5 133.5z" />
    <glyph glyph-name="e" unicode="e" horiz-adv-x="927" 
d="M737 264h99q-27 -129 -120 -205.5t-233 -76.5q-180 0 -291.5 130.5t-111.5 342.5q0 207 109 340t292 133q177 0 273 -122.5t96 -322.5v-37h-670q1 -171 85 -272.5t218 -101.5q97 0 164.5 51t89.5 141zM481 838q-122 0 -202 -84.5t-95 -227.5h564q-3 84 -31 152.5t-89 114
t-147 45.5z" />
    <glyph glyph-name="f" unicode="f" horiz-adv-x="528" 
d="M551 1331v-94q-44 23 -92 23q-74 0 -120 -52t-46 -145v-154h213v-88h-213v-821h-100v821h-148v88h148v164q0 123 72.5 200t183.5 77q53 0 102 -19z" />
    <glyph glyph-name="g" unicode="g" horiz-adv-x="999" 
d="M752 59v97q-41 -63 -116.5 -106.5t-164.5 -43.5q-96 0 -172 37.5t-123 102t-71.5 146.5t-24.5 175t24.5 174.5t71.5 146.5t123 102.5t172 37.5q88 0 163.5 -44t117.5 -108v133h102v-843q0 -210 -104 -321.5t-279 -111.5q-155 0 -251.5 73t-121.5 204h103
q23 -94 93.5 -141.5t176.5 -47.5q136 0 208.5 86.5t72.5 251.5zM752 274v383q-44 84 -115.5 130.5t-155.5 46.5q-139 0 -219 -101.5t-80 -265.5q0 -165 80 -267t219 -102q84 0 155.5 46t115.5 130z" />
    <glyph glyph-name="h" unicode="h" horiz-adv-x="989" 
d="M145 0v1331h103v-567q45 70 122.5 117t168.5 47q152 0 233.5 -88.5t81.5 -237.5v-602h-100v588q0 111 -58.5 178.5t-175.5 67.5q-90 0 -163.5 -56t-108.5 -141v-637h-103z" />
    <glyph glyph-name="i" unicode="i" horiz-adv-x="393" 
d="M248 909v-909h-103v909h103zM266 1186q0 -29 -20 -49.5t-49 -20.5t-49.5 20.5t-20.5 49.5q0 28 20.5 48.5t49.5 20.5t49 -20.5t20 -48.5z" />
    <glyph glyph-name="j" unicode="j" horiz-adv-x="393" 
d="M248 909v-1040q0 -115 -61 -175.5t-169 -60.5q-30 0 -47 7v90q15 -6 41 -6q67 0 100 33.5t33 121.5v1030h103zM266 1186q0 -29 -20 -49.5t-49 -20.5t-49.5 20.5t-20.5 49.5q0 28 20.5 48.5t49.5 20.5t49 -20.5t20 -48.5z" />
    <glyph glyph-name="k" unicode="k" horiz-adv-x="913" 
d="M754 0l-396 455l-110 -103v-352h-103v1331h103v-860l481 438h135l-432 -391l447 -518h-125z" />
    <glyph glyph-name="l" unicode="l" horiz-adv-x="393" 
d="M248 1331v-1331h-103v1331h103z" />
    <glyph glyph-name="m" unicode="m" horiz-adv-x="1460" 
d="M764 754q42 74 117 124t166 50q134 0 205 -86t71 -228v-614h-100v600q0 108 -49 171t-146 63q-83 0 -148 -53.5t-94 -137.5v-643h-102v600q0 108 -49 171t-146 63q-83 0 -147.5 -53.5t-93.5 -137.5v-643h-103v909h103v-139q36 69 105 113.5t157 44.5q95 0 160 -47
t94 -127z" />
    <glyph glyph-name="n" unicode="n" horiz-adv-x="989" 
d="M145 0v909h103v-145q45 70 122.5 117t168.5 47q152 0 233.5 -88.5t81.5 -237.5v-602h-100v588q0 111 -58.5 178.5t-175.5 67.5q-90 0 -163.5 -56t-108.5 -141v-637h-103z" />
    <glyph glyph-name="o" unicode="o" horiz-adv-x="964" 
d="M885 455q0 -211 -111.5 -342t-292.5 -131q-180 0 -290.5 131t-110.5 342t110.5 342t290.5 131q181 0 292.5 -131t111.5 -342zM782 455q0 172 -82.5 277.5t-218.5 105.5q-135 0 -217 -105.5t-82 -277.5t82 -277.5t217 -105.5q136 0 218.5 105.5t82.5 277.5z" />
    <glyph glyph-name="p" unicode="p" horiz-adv-x="1007" 
d="M248 135v-483h-103v1257h103v-135q42 64 118 109t164 45q129 0 221 -67t134.5 -172t42.5 -234t-42.5 -234t-134.5 -172t-221 -67q-88 0 -164 44.5t-118 108.5zM248 653v-397q45 -87 116.5 -133.5t155.5 -46.5q142 0 223.5 105.5t81.5 273.5t-81.5 273.5t-223.5 105.5
q-84 0 -155.5 -47t-116.5 -134z" />
    <glyph glyph-name="q" unicode="q" horiz-adv-x="1007" 
d="M760 -348v483q-42 -64 -118.5 -108.5t-164.5 -44.5q-97 0 -174.5 38.5t-125 104.5t-72.5 150t-25 180t25 180t72.5 150t125 104.5t174.5 38.5q88 0 164.5 -45t118.5 -109v135h102v-1257h-102zM760 256v397q-45 87 -117 134t-156 47q-142 0 -223.5 -105.5t-81.5 -273.5
t81.5 -273.5t223.5 -105.5q84 0 156 46.5t117 133.5z" />
    <glyph glyph-name="r" unicode="r" horiz-adv-x="616" 
d="M573 915v-100q-40 16 -84 16q-81 0 -144.5 -53t-96.5 -143v-635h-103v909h103v-145q32 71 98.5 117.5t147.5 46.5q36 0 79 -13z" />
    <glyph glyph-name="s" unicode="s" horiz-adv-x="817" 
d="M61 236h103q27 -82 93 -124t161 -42q98 0 159.5 42.5t61.5 125.5q0 58 -41 97t-127 64l-170 47q-104 28 -159.5 82.5t-55.5 147.5q0 115 88.5 183.5t218.5 68.5q139 0 226 -66t112 -182h-100q-53 160 -238 160q-90 0 -149.5 -42t-59.5 -118q0 -61 38 -92t126 -56l162 -45
q227 -60 227 -247q0 -120 -89.5 -189t-231.5 -69q-139 0 -236.5 68t-118.5 186z" />
    <glyph glyph-name="t" unicode="t" horiz-adv-x="608" 
d="M186 211v610h-153v88h153v234h101v-234h235v-88h-235v-600q0 -147 131 -147q64 0 125 35v-97q-58 -30 -135 -30q-103 0 -162.5 57.5t-59.5 171.5z" />
    <glyph glyph-name="u" unicode="u" horiz-adv-x="985" 
d="M840 909v-909h-101v145q-45 -70 -121 -116.5t-167 -46.5q-152 0 -234 88.5t-82 236.5v602h101v-587q0 -112 58 -179t175 -67q90 0 162.5 55t107.5 141v637h101z" />
    <glyph glyph-name="v" unicode="v" horiz-adv-x="884" 
d="M487 0h-88l-362 909h108l299 -768l299 768h105z" />
    <glyph glyph-name="w" unicode="w" horiz-adv-x="1236" 
d="M662 909l217 -749l223 749h98l-274 -909h-88l-220 752l-219 -752h-88l-274 909h100l223 -749l218 749h84z" />
    <glyph glyph-name="x" unicode="x" horiz-adv-x="882" 
d="M819 909l-321 -442l336 -467h-113l-281 389l-282 -389h-109l336 463l-322 446h113l266 -370l269 370h108z" />
    <glyph glyph-name="y" unicode="y" horiz-adv-x="884" 
d="M348 -348h-102l147 360l-356 897h108l299 -770l299 770h105z" />
    <glyph glyph-name="z" unicode="z" horiz-adv-x="851" 
d="M768 88v-88h-688v72l555 749h-545v88h672v-71l-553 -750h559z" />
    <glyph glyph-name="braceleft" unicode="{" horiz-adv-x="684" 
d="M311 436v-424q0 -92 86 -92h232v-92h-230q-82 0 -134 53t-52 137v422q0 92 -86 92h-86v95h86q86 0 86 92v422q0 84 52 137t134 53h230v-92h-232q-86 0 -86 -92v-424q0 -92 -82 -143q82 -54 82 -144z" />
    <glyph glyph-name="bar" unicode="|" horiz-adv-x="419" 
d="M162 -172v1503h96v-1503h-96z" />
    <glyph glyph-name="braceright" unicode="}" horiz-adv-x="684" 
d="M373 12v424q0 90 82 144q-82 51 -82 143v424q0 92 -86 92h-232v92h230q82 0 134 -53t52 -137v-422q0 -92 86 -92h86v-95h-86q-86 0 -86 -92v-422q0 -84 -52 -137t-134 -53h-230v92h232q86 0 86 92z" />
    <glyph glyph-name="asciitilde" unicode="~" horiz-adv-x="831" 
d="M657 674h93q0 -108 -48.5 -171t-134.5 -63q-37 0 -72 15t-61.5 37t-52 44t-52.5 37t-53 15q-49 0 -75.5 -37.5t-26.5 -101.5h-92q0 107 48.5 169t135.5 62q36 0 70.5 -15t61 -36t51.5 -42.5t53 -36.5t55 -15q49 0 74.5 36.5t25.5 102.5z" />
    <glyph glyph-name="uni00A0" unicode="&#xa0;" horiz-adv-x="452" 
 />
    <glyph glyph-name="exclamdown" unicode="&#xa1;" horiz-adv-x="428" 
d="M133 989q0 32 23 55t55 23q31 0 53.5 -23t22.5 -55q0 -33 -22.5 -56.5t-53.5 -23.5q-32 0 -55 23t-23 57zM154 -197l20 865h74l20 -865h-114z" />
    <glyph glyph-name="cent" unicode="&#xa2;" horiz-adv-x="905" 
d="M80 475q0 201 100 330t266 141v176h93v-178q117 -15 191.5 -90t98.5 -192h-104q-20 92 -83.5 143t-160.5 51q-134 0 -216.5 -105t-82.5 -276t82.5 -276t216.5 -105q97 0 160 51.5t84 143.5h104q-24 -119 -98.5 -194.5t-191.5 -90.5v-176h-93v174q-166 14 -266 142.5
t-100 330.5z" />
    <glyph glyph-name="sterling" unicode="&#xa3;" horiz-adv-x="989" 
d="M346 866v-204h346v-84h-346v-299q0 -122 -49 -187h629v-92h-863v92h134q51 77 51 187v299h-185v84h185v204q0 188 97.5 299t256.5 111q137 0 221.5 -73t108.5 -199h-101q-40 180 -229 180q-118 0 -187 -83.5t-69 -234.5z" />
    <glyph glyph-name="yen" unicode="&#xa5;" horiz-adv-x="1056" 
d="M156 537v84h295l-392 636h115l356 -589l357 589h110l-391 -636h295v-84h-321v-158h321v-84h-321v-295h-103v295h-321v84h321v158h-321z" />
    <glyph glyph-name="section" unicode="&#xa7;" horiz-adv-x="907" 
d="M715 176q35 -56 35 -135q0 -115 -84.5 -182.5t-214.5 -67.5q-139 0 -226.5 67.5t-111.5 186.5h100q50 -168 238 -168q88 0 144 43t56 119q0 59 -23.5 90.5t-86.5 75.5l-299 205q-95 64 -141 119.5t-46 136.5q0 73 38 130t102 91q-37 56 -37 137q0 117 84.5 184.5
t214.5 67.5q140 0 227 -68t111 -188h-101q-50 168 -237 168q-88 0 -144.5 -42t-56.5 -118q0 -60 23.5 -91.5t87.5 -76.5l299 -203q94 -64 140 -120t46 -138q0 -73 -37.5 -132t-99.5 -91zM295 492l354 -246q48 20 77.5 59t29.5 92q0 29 -10 53t-34.5 47.5t-42 37t-55.5 40.5
l-356 244q-48 -20 -76 -58.5t-28 -92.5t34.5 -91.5t106.5 -84.5z" />
    <glyph glyph-name="dieresis" unicode="&#xa8;" 
d="M317 1169q0 28 19.5 47t48.5 19q28 0 47 -19t19 -47q0 -29 -19 -48t-47 -19q-29 0 -48.5 19t-19.5 48zM573 1169q0 28 19 47t47 19t48 -19t20 -47q0 -29 -20 -48t-48 -19t-47 19t-19 48z" />
    <glyph glyph-name="copyright" unicode="&#xa9;" horiz-adv-x="1449" 
d="M1372 629q0 -138 -51.5 -259t-139 -205.5t-206.5 -133.5t-250 -49t-249.5 49t-206 133.5t-138.5 205.5t-51 259t51 259t138.5 205.5t206 133.5t249.5 49t250 -49t206.5 -133.5t139 -205.5t51.5 -259zM1307 629q0 165 -79 299t-212 208t-291 74t-291 -74t-212 -208
t-79 -299t79 -299.5t212 -208.5t291 -74t291 74t212 208.5t79 299.5zM375 633q0 183 102 295t258 112q122 0 202 -65.5t105 -175.5h-100q-24 71 -77 110t-130 39q-115 0 -187.5 -87t-72.5 -228q0 -142 72.5 -229t187.5 -87q77 0 130 39.5t77 110.5h100q-25 -110 -106 -176
t-201 -66q-156 0 -258 112.5t-102 295.5z" />
    <glyph glyph-name="ordfeminine" unicode="&#xaa;" horiz-adv-x="581" 
d="M510 657h-88v52q-21 -23 -67.5 -42.5t-96.5 -19.5q-95 0 -159 51.5t-64 137.5q0 83 65 135.5t162 52.5q47 0 91 -18t69 -41v94q0 62 -36.5 99.5t-102.5 37.5q-103 0 -133 -92h-89q17 78 78 124t148 46q104 0 163.5 -57t59.5 -156v-404zM422 801v69q-13 35 -55.5 57.5
t-92.5 22.5q-63 0 -106 -29t-43 -83q0 -56 43.5 -86.5t105.5 -30.5q50 0 92.5 22.5t55.5 57.5z" />
    <glyph glyph-name="guillemotleft" unicode="&#xab;" horiz-adv-x="643" 
d="M340 176h-100l-189 279l189 278h100l-188 -278zM592 176h-100l-189 279l189 278h100l-189 -278z" />
    <glyph glyph-name="registered" unicode="&#xae;" horiz-adv-x="856" 
d="M799 901q0 -161 -108.5 -268t-262.5 -107t-262.5 107t-108.5 268t108.5 268t262.5 107t262.5 -107t108.5 -268zM741 901q0 136 -91 227t-222 91t-222 -91t-91 -227q0 -138 91 -228.5t222 -90.5t222 90.5t91 228.5zM420 860h-62v-151h-67v393h160q62 0 99.5 -32.5
t37.5 -88.5q0 -46 -26 -77t-68 -40l108 -155h-80zM520 981q0 26 -18 42.5t-49 16.5h-95v-118h95q31 0 49 16.5t18 42.5z" />
    <glyph glyph-name="macron" unicode="&#xaf;" 
d="M305 1100v84h412v-84h-412z" />
    <glyph glyph-name="degree" unicode="&#xb0;" horiz-adv-x="647" 
d="M174 1040q0 -63 44 -107t106 -44q63 0 107 44t44 107q0 64 -44 109t-107 45q-62 0 -106 -45t-44 -109zM555 1040q0 -97 -67 -165t-164 -68t-164.5 68t-67.5 165q0 98 67.5 167t164.5 69t164 -69t67 -167z" />
    <glyph glyph-name="plusminus" unicode="&#xb1;" horiz-adv-x="1056" 
d="M485 1014h86v-258h336v-86h-336v-258h-86v258h-335v86h335v258zM150 213v88h757v-88h-757z" />
    <glyph glyph-name="twosuperior" unicode="&#xb2;" horiz-adv-x="538" 
d="M389 1075q0 52 -32.5 82.5t-86.5 30.5q-58 0 -92 -37t-39 -98h-92q9 96 69.5 156.5t153.5 60.5q95 0 151 -53.5t56 -141.5q0 -38 -19.5 -78t-39.5 -64.5t-62 -69.5q-8 -9 -12 -13l-176 -188h315v-78h-436v59l229 250q61 65 87 102.5t26 79.5z" />
    <glyph glyph-name="threesuperior" unicode="&#xb3;" horiz-adv-x="552" 
d="M225 893v72h49q55 0 90 30t35 84q0 48 -35 79.5t-90 31.5q-52 0 -87 -32t-44 -85h-88q12 87 71 142t148 55q97 0 154 -52.5t57 -136.5q0 -54 -31.5 -96.5t-78.5 -54.5q55 -14 89 -56t34 -100q0 -87 -60 -144t-162 -57q-99 0 -160.5 54t-72.5 147h92q9 -58 47 -90.5
t97 -32.5q60 0 95.5 33t35.5 90q0 54 -38.5 86.5t-95.5 32.5h-51z" />
    <glyph glyph-name="acute" unicode="&#xb4;" 
d="M473 1065h-100l170 266h108z" />
    <glyph glyph-name="paragraph" unicode="&#xb6;" horiz-adv-x="913" 
d="M664 -184v1441h88v-1441h-88zM436 -184v878q-59 0 -114.5 10t-107.5 32.5t-91 54.5t-62.5 80t-23.5 106q0 71 35 126.5t93.5 88t127.5 49t143 16.5h90v-1441h-90z" />
    <glyph glyph-name="periodcentered" unicode="&#xb7;" horiz-adv-x="309" 
d="M78 535q0 33 22.5 56t53.5 23q32 0 54.5 -22.5t22.5 -56.5q0 -32 -22.5 -55t-54.5 -23q-31 0 -53.5 23t-22.5 55z" />
    <glyph glyph-name="cedilla" unicode="&#xb8;" 
d="M494 -358h-95l121 260h98z" />
    <glyph glyph-name="onesuperior" unicode="&#xb9;" horiz-adv-x="421" 
d="M303 1260v-676h-88v571l-176 -90v92l207 103h57z" />
    <glyph glyph-name="ordmasculine" unicode="&#xba;" horiz-adv-x="622" 
d="M586 961q0 -140 -75.5 -228t-199.5 -88t-200 88t-76 228t76 226.5t200 86.5t199.5 -86.5t75.5 -226.5zM494 961q0 104 -50 168.5t-133 64.5t-132.5 -64.5t-49.5 -168.5q0 -105 49.5 -169.5t132.5 -64.5t133 64.5t50 169.5z" />
    <glyph glyph-name="guillemotright" unicode="&#xbb;" horiz-adv-x="643" 
d="M403 176h-100l189 279l-189 278h100l189 -278zM152 176h-101l189 279l-189 278h101l188 -278z" />
    <glyph glyph-name="onequarter" unicode="&#xbc;" horiz-adv-x="1316" 
d="M1104 1257l-854 -1257h-92l854 1257h92zM362 1260v-676h-90v571l-176 -90v92l209 103h57zM1047 676l-242 -447h213v154h80v-154h119v-75h-119v-154h-80v154h-311v67l249 455h91z" />
    <glyph glyph-name="onehalf" unicode="&#xbd;" horiz-adv-x="1337" 
d="M1104 1257l-854 -1257h-92l854 1257h92zM362 1260v-676h-90v571l-176 -90v92l209 103h57zM1128 492q0 53 -31 83.5t-85 30.5q-58 0 -93 -38t-40 -99h-93q11 97 71 157t155 60t151 -52.5t56 -139.5q0 -13 -2.5 -26t-5 -24t-9.5 -24.5t-11 -22t-15 -23t-15.5 -21
t-18.5 -22.5t-18.5 -21t-20.5 -22.5t-20 -21.5l-176 -186h318v-80h-439v61l232 248q59 65 84.5 103t25.5 80z" />
    <glyph glyph-name="threequarters" unicode="&#xbe;" horiz-adv-x="1402" 
d="M1190 1257l-854 -1257h-94l854 1257h94zM279 891v72h49q55 0 90 30t35 84q0 50 -35 81.5t-90 31.5q-52 0 -87 -33t-44 -86h-88q12 88 71 142.5t148 54.5q97 0 154 -52.5t57 -136.5q0 -54 -32 -96.5t-79 -54.5q55 -14 89 -55.5t34 -100.5q0 -87 -59.5 -144t-161.5 -57
q-99 0 -161 54.5t-73 148.5h92q9 -59 46.5 -92t97.5 -33t95.5 33.5t35.5 89.5q0 55 -37.5 87t-95.5 32h-51zM1130 676l-241 -447h213v154h82v-154h116v-75h-116v-154h-82v154h-311v67l249 455h90z" />
    <glyph glyph-name="questiondown" unicode="&#xbf;" horiz-adv-x="864" 
d="M485 989q0 -34 -22.5 -57t-54.5 -23q-31 0 -53.5 23.5t-22.5 56.5q0 32 22.5 55t53.5 23q32 0 54.5 -23t22.5 -55zM55 127q0 24 3.5 47.5t13 47.5t16.5 42t24 43t26 38t32 39.5t31 35.5t34.5 37.5t32.5 34.5q48 53 67 91.5t21 82.5h97q-4 -68 -28.5 -116.5t-80.5 -111.5
q-10 -12 -46.5 -51t-53 -59.5t-41 -56.5t-35 -71t-10.5 -73q0 -115 71.5 -180.5t190.5 -65.5q130 0 206.5 80.5t90.5 216.5h106q-18 -177 -126 -285t-277 -108q-168 0 -266.5 93.5t-98.5 248.5z" />
    <glyph glyph-name="Agrave" unicode="&#xc0;" horiz-adv-x="1185" 
d="M545 1257h96l498 -1257h-105l-164 414h-557l-161 -414h-105zM592 1122l-242 -614h484zM641 1362h-104l-179 240h113z" />
    <glyph glyph-name="Aacute" unicode="&#xc1;" horiz-adv-x="1185" 
d="M545 1257h96l498 -1257h-105l-164 414h-557l-161 -414h-105zM592 1122l-242 -614h484zM645 1362h-102l168 240h114z" />
    <glyph glyph-name="Acircumflex" unicode="&#xc2;" horiz-adv-x="1185" 
d="M545 1257h96l498 -1257h-105l-164 414h-557l-161 -414h-105zM592 1122l-242 -614h484zM637 1610l188 -244h-96l-137 172l-137 -172h-97l189 244h90z" />
    <glyph glyph-name="Atilde" unicode="&#xc3;" horiz-adv-x="1185" 
d="M545 1257h96l498 -1257h-105l-164 414h-557l-161 -414h-105zM592 1122l-242 -614h484zM778 1575h72q0 -99 -36.5 -156t-104.5 -57q-35 0 -68.5 20.5t-55 45t-49.5 45t-53 20.5q-36 0 -54.5 -33.5t-18.5 -91.5h-74q0 97 36.5 155t104.5 58q36 0 69.5 -20.5t54.5 -45
t48.5 -45t52.5 -20.5q36 0 55 33t21 92z" />
    <glyph glyph-name="Adieresis" unicode="&#xc4;" horiz-adv-x="1185" 
d="M545 1257h96l498 -1257h-105l-164 414h-557l-161 -414h-105zM592 1122l-242 -614h484zM399 1464q0 29 19.5 48.5t48.5 19.5q28 0 46.5 -19.5t18.5 -48.5q0 -28 -18.5 -47.5t-46.5 -19.5q-29 0 -48.5 19.5t-19.5 47.5zM655 1464q0 29 19 48.5t47 19.5t47.5 -19.5
t19.5 -48.5q0 -28 -19.5 -47.5t-47.5 -19.5t-47 19.5t-19 47.5z" />
    <glyph glyph-name="Aring" unicode="&#xc5;" horiz-adv-x="1185" 
d="M545 1257h96l498 -1257h-105l-164 414h-557l-161 -414h-105zM592 1122l-242 -614h484zM758 1491q0 -69 -48.5 -116.5t-117.5 -47.5t-117.5 47.5t-48.5 116.5q0 70 48.5 118t117.5 48t117.5 -48t48.5 -118zM692 1491q0 43 -29.5 72.5t-70.5 29.5t-70.5 -29.5t-29.5 -72.5
q0 -41 29.5 -70.5t70.5 -29.5t70.5 29.5t29.5 70.5z" />
    <glyph glyph-name="AE" unicode="&#xc6;" horiz-adv-x="1757" 
d="M829 1257h813v-96h-651v-465h588v-96h-588v-504h651v-96h-753v414h-473l-258 -414h-111zM889 1165l-414 -657h414v657z" />
    <glyph glyph-name="Ccedilla" unicode="&#xc7;" horiz-adv-x="1177" 
d="M80 629q0 146 43 268t117.5 204.5t176 128.5t216.5 46q180 0 303 -98t162 -263h-103q-41 123 -134 193t-228 70q-198 0 -322.5 -149.5t-124.5 -399.5q0 -249 125 -399t322 -150q135 0 228 69.5t134 192.5h103q-39 -165 -162.5 -262.5t-302.5 -97.5q-115 0 -216.5 46
t-176 128.5t-117.5 204.5t-43 268zM567 -358h-94l121 260h98z" />
    <glyph glyph-name="Egrave" unicode="&#xc8;" horiz-adv-x="1054" 
d="M616 1362h-104l-178 240h112zM162 1257h780v-96h-678v-465h615v-96h-615v-504h678v-96h-780v1257z" />
    <glyph glyph-name="Eacute" unicode="&#xc9;" horiz-adv-x="1054" 
d="M602 1362h-102l168 240h114zM162 1257h780v-96h-678v-465h615v-96h-615v-504h678v-96h-780v1257z" />
    <glyph glyph-name="Ecircumflex" unicode="&#xca;" horiz-adv-x="1054" 
d="M162 1257h780v-96h-678v-465h615v-96h-615v-504h678v-96h-780v1257zM606 1610l189 -244h-97l-137 172l-137 -172h-96l188 244h90z" />
    <glyph glyph-name="Edieresis" unicode="&#xcb;" horiz-adv-x="1054" 
d="M367 1464q0 29 19 48.5t48 19.5q28 0 47 -19.5t19 -48.5q0 -28 -19 -47.5t-47 -19.5q-29 0 -48 19.5t-19 47.5zM623 1464q0 29 18.5 48.5t46.5 19.5t48 -19.5t20 -48.5q0 -28 -20 -47.5t-48 -19.5t-46.5 19.5t-18.5 47.5zM162 1257h780v-96h-678v-465h615v-96h-615v-504
h678v-96h-780v1257z" />
    <glyph glyph-name="Igrave" unicode="&#xcc;" horiz-adv-x="428" 
d="M266 1257v-1257h-104v1257h104zM268 1362h-104l-178 240h112z" />
    <glyph glyph-name="Iacute" unicode="&#xcd;" horiz-adv-x="428" 
d="M266 1257v-1257h-104v1257h104zM254 1362h-102l167 240h115z" />
    <glyph glyph-name="Icircumflex" unicode="&#xce;" horiz-adv-x="428" 
d="M266 1257v-1257h-104v1257h104zM258 1610l188 -244h-96l-137 172l-137 -172h-96l188 244h90z" />
    <glyph glyph-name="Idieresis" unicode="&#xcf;" horiz-adv-x="428" 
d="M266 1257v-1257h-104v1257h104zM18 1464q0 29 19.5 48.5t48.5 19.5q28 0 47 -19.5t19 -48.5q0 -28 -19 -47.5t-47 -19.5q-29 0 -48.5 19.5t-19.5 47.5zM274 1464q0 29 19 48.5t47 19.5t48 -19.5t20 -48.5q0 -28 -20 -47.5t-48 -19.5t-47 19.5t-19 47.5z" />
    <glyph glyph-name="Eth" unicode="&#xd0;" horiz-adv-x="1261" 
d="M70 604v92h118v561h383q275 0 443 -171t168 -457t-168 -457.5t-443 -171.5h-383v604h-118zM293 96h278q231 0 367.5 145.5t136.5 387.5t-136.5 387t-367.5 145h-278v-465h266v-92h-266v-508z" />
    <glyph glyph-name="Ntilde" unicode="&#xd1;" horiz-adv-x="1261" 
d="M815 1575h72q0 -98 -37 -155.5t-105 -57.5q-29 0 -55.5 13.5t-47 33t-40 38.5t-40.5 32.5t-42 13.5q-36 0 -55 -33.5t-19 -91.5h-73q0 97 36.5 155t104.5 58q36 0 69.5 -20.5t54.5 -45t48.5 -45t52.5 -20.5q36 0 55 33t21 92zM1100 1257v-1257h-70l-768 1092v-1092h-100
v1257h100l737 -1048v1048h101z" />
    <glyph glyph-name="Ograve" unicode="&#xd2;" horiz-adv-x="1269" 
d="M690 1362h-104l-178 240h112zM1192 629q0 -287 -157 -467t-400 -180q-241 0 -398 180.5t-157 466.5t157 466.5t398 180.5q243 0 400 -180t157 -467zM1085 629q0 244 -124.5 396.5t-325.5 152.5q-199 0 -324 -153t-125 -396t125 -396t324 -153q201 0 325.5 152.5
t124.5 396.5z" />
    <glyph glyph-name="Oacute" unicode="&#xd3;" horiz-adv-x="1269" 
d="M676 1362h-103l168 240h115zM1192 629q0 -287 -157 -467t-400 -180q-241 0 -398 180.5t-157 466.5t157 466.5t398 180.5q243 0 400 -180t157 -467zM1085 629q0 244 -124.5 396.5t-325.5 152.5q-199 0 -324 -153t-125 -396t125 -396t324 -153q201 0 325.5 152.5
t124.5 396.5z" />
    <glyph glyph-name="Ocircumflex" unicode="&#xd4;" horiz-adv-x="1269" 
d="M1192 629q0 -287 -157 -467t-400 -180q-241 0 -398 180.5t-157 466.5t157 466.5t398 180.5q243 0 400 -180t157 -467zM1085 629q0 244 -124.5 396.5t-325.5 152.5q-199 0 -324 -153t-125 -396t125 -396t324 -153q201 0 325.5 152.5t124.5 396.5zM680 1610l188 -244h-96
l-137 172l-137 -172h-97l189 244h90z" />
    <glyph glyph-name="Otilde" unicode="&#xd5;" horiz-adv-x="1269" 
d="M821 1575h72q0 -99 -36.5 -156t-104.5 -57q-35 0 -68.5 20.5t-55 45t-49.5 45t-53 20.5q-36 0 -54.5 -33.5t-18.5 -91.5h-74q0 97 36.5 155t104.5 58q36 0 69.5 -20.5t54.5 -45t48.5 -45t52.5 -20.5q36 0 55 33t21 92zM1192 629q0 -287 -157 -467t-400 -180
q-241 0 -398 180.5t-157 466.5t157 466.5t398 180.5q243 0 400 -180t157 -467zM1085 629q0 244 -124.5 396.5t-325.5 152.5q-199 0 -324 -153t-125 -396t125 -396t324 -153q201 0 325.5 152.5t124.5 396.5z" />
    <glyph glyph-name="Odieresis" unicode="&#xd6;" horiz-adv-x="1269" 
d="M440 1464q0 29 19.5 48.5t48.5 19.5q28 0 46.5 -19.5t18.5 -48.5q0 -28 -18.5 -47.5t-46.5 -19.5q-29 0 -48.5 19.5t-19.5 47.5zM696 1464q0 29 19 48.5t47 19.5t47.5 -19.5t19.5 -48.5q0 -28 -19.5 -47.5t-47.5 -19.5t-47 19.5t-19 47.5zM1192 629q0 -287 -157 -467
t-400 -180q-241 0 -398 180.5t-157 466.5t157 466.5t398 180.5q243 0 400 -180t157 -467zM1085 629q0 244 -124.5 396.5t-325.5 152.5q-199 0 -324 -153t-125 -396t125 -396t324 -153q201 0 325.5 152.5t124.5 396.5z" />
    <glyph glyph-name="multiply" unicode="&#xd7;" horiz-adv-x="905" 
d="M395 598l-250 250l62 59l246 -250l245 250l62 -59l-246 -250l246 -250l-62 -59l-245 248l-246 -248l-62 59z" />
    <glyph glyph-name="Oslash" unicode="&#xd8;" horiz-adv-x="1290" 
d="M102 14l131 162q-143 180 -143 453q0 286 157 466.5t398 180.5q216 0 363 -141l106 131l66 -49l-117 -144q139 -178 139 -444q0 -287 -157 -467t-400 -180q-206 0 -354 135l-123 -152zM197 629q0 -226 102 -371l645 799q-121 121 -299 121q-199 0 -323.5 -153
t-124.5 -396zM1096 629q0 214 -99 362l-645 -796q118 -115 293 -115q201 0 326 153t125 396z" />
    <glyph glyph-name="Ugrave" unicode="&#xd9;" horiz-adv-x="1239" 
d="M674 1362h-105l-178 240h113zM618 -18q-103 0 -189.5 32t-152 94.5t-102.5 162t-37 225.5v761h105v-747q0 -213 103 -322.5t273 -109.5q171 0 275 109.5t104 322.5v747h105v-761q0 -126 -37.5 -225.5t-103.5 -162t-153 -94.5t-190 -32z" />
    <glyph glyph-name="Uacute" unicode="&#xda;" horiz-adv-x="1239" 
d="M659 1362h-102l168 240h115zM618 -18q-103 0 -189.5 32t-152 94.5t-102.5 162t-37 225.5v761h105v-747q0 -213 103 -322.5t273 -109.5q171 0 275 109.5t104 322.5v747h105v-761q0 -126 -37.5 -225.5t-103.5 -162t-153 -94.5t-190 -32z" />
    <glyph glyph-name="Ucircumflex" unicode="&#xdb;" horiz-adv-x="1239" 
d="M618 -18q-103 0 -189.5 32t-152 94.5t-102.5 162t-37 225.5v761h105v-747q0 -213 103 -322.5t273 -109.5q171 0 275 109.5t104 322.5v747h105v-761q0 -126 -37.5 -225.5t-103.5 -162t-153 -94.5t-190 -32zM666 1610l188 -244h-96l-137 172l-138 -172h-96l188 244h91z" />
    <glyph glyph-name="Udieresis" unicode="&#xdc;" horiz-adv-x="1239" 
d="M426 1464q0 29 19.5 48.5t48.5 19.5q28 0 46.5 -19.5t18.5 -48.5q0 -28 -18.5 -47.5t-46.5 -19.5q-29 0 -48.5 19.5t-19.5 47.5zM682 1464q0 29 19 48.5t47 19.5t47.5 -19.5t19.5 -48.5q0 -28 -19.5 -47.5t-47.5 -19.5t-47 19.5t-19 47.5zM618 -18q-103 0 -189.5 32
t-152 94.5t-102.5 162t-37 225.5v761h105v-747q0 -213 103 -322.5t273 -109.5q171 0 275 109.5t104 322.5v747h105v-761q0 -126 -37.5 -225.5t-103.5 -162t-153 -94.5t-190 -32z" />
    <glyph glyph-name="Yacute" unicode="&#xdd;" horiz-adv-x="1095" 
d="M551 633l395 624h113l-459 -720v-537h-104v537l-457 720h115zM588 1362h-103l168 240h115z" />
    <glyph glyph-name="Thorn" unicode="&#xde;" horiz-adv-x="1083" 
d="M616 287h-350v-287h-104v1257h104v-256h350q187 0 292.5 -92t105.5 -264q0 -174 -105 -266t-293 -92zM909 645q0 126 -76 194t-221 68h-346v-524h346q145 0 221 68t76 194z" />
    <glyph glyph-name="germandbls" unicode="&#xdf;" horiz-adv-x="1026" 
d="M635 758q127 -19 218 -117t91 -256q0 -184 -106.5 -291.5t-276.5 -107.5q-112 0 -192 47v98q76 -53 188 -53q133 0 210 82t77 229q0 149 -96.5 233.5t-255.5 84.5h-89v90h89q107 0 176 68t69 171q0 97 -62.5 160.5t-168.5 63.5q-125 0 -192.5 -83.5t-67.5 -220.5v-956
h-101v956q0 174 95 284t266 110q151 0 240.5 -89t89.5 -221q0 -107 -57 -179.5t-144 -102.5z" />
    <glyph glyph-name="agrave" unicode="&#xe0;" horiz-adv-x="899" 
d="M764 0h-98v86q-32 -39 -102.5 -69.5t-149.5 -30.5q-142 0 -239 76.5t-97 203.5q0 124 98 201.5t242 77.5q74 0 144 -29.5t104 -66.5v161q0 103 -60.5 165.5t-167.5 62.5q-169 0 -221 -156h-100q26 115 113 180.5t208 65.5q151 0 238.5 -85t87.5 -229v-614zM666 207v117
q-22 59 -90.5 97t-151.5 38q-104 0 -177 -50.5t-73 -142.5t73 -143t177 -51q83 0 151.5 38t90.5 97zM518 1065h-100l-178 266h108z" />
    <glyph glyph-name="aacute" unicode="&#xe1;" horiz-adv-x="899" 
d="M764 0h-98v86q-32 -39 -102.5 -69.5t-149.5 -30.5q-142 0 -239 76.5t-97 203.5q0 124 98 201.5t242 77.5q74 0 144 -29.5t104 -66.5v161q0 103 -60.5 165.5t-167.5 62.5q-169 0 -221 -156h-100q26 115 113 180.5t208 65.5q151 0 238.5 -85t87.5 -229v-614zM666 207v117
q-22 59 -90.5 97t-151.5 38q-104 0 -177 -50.5t-73 -142.5t73 -143t177 -51q83 0 151.5 38t90.5 97zM498 1065h-101l170 266h109z" />
    <glyph glyph-name="acircumflex" unicode="&#xe2;" horiz-adv-x="899" 
d="M502 1319l188 -268h-94l-139 198l-140 -198h-94l189 268h90zM764 0h-98v86q-32 -39 -102.5 -69.5t-149.5 -30.5q-142 0 -239 76.5t-97 203.5q0 124 98 201.5t242 77.5q74 0 144 -29.5t104 -66.5v161q0 103 -60.5 165.5t-167.5 62.5q-169 0 -221 -156h-100
q26 115 113 180.5t208 65.5q151 0 238.5 -85t87.5 -229v-614zM666 207v117q-22 59 -90.5 97t-151.5 38q-104 0 -177 -50.5t-73 -142.5t73 -143t177 -51q83 0 151.5 38t90.5 97z" />
    <glyph glyph-name="atilde" unicode="&#xe3;" horiz-adv-x="899" 
d="M764 0h-98v86q-32 -39 -102.5 -69.5t-149.5 -30.5q-142 0 -239 76.5t-97 203.5q0 124 98 201.5t242 77.5q74 0 144 -29.5t104 -66.5v161q0 103 -60.5 165.5t-167.5 62.5q-169 0 -221 -156h-100q26 115 113 180.5t208 65.5q151 0 238.5 -85t87.5 -229v-614zM666 207v117
q-22 59 -90.5 97t-151.5 38q-104 0 -177 -50.5t-73 -142.5t73 -143t177 -51q83 0 151.5 38t90.5 97zM639 1280h72q0 -99 -36 -157t-104 -58q-34 0 -67 21t-54.5 45.5t-48.5 45.5t-51 21q-35 0 -54.5 -34t-19.5 -93h-71q0 99 36 157t103 58q35 0 68 -21t54.5 -45.5t48 -45.5
t50.5 -21q35 0 54.5 34.5t19.5 92.5z" />
    <glyph glyph-name="adieresis" unicode="&#xe4;" horiz-adv-x="899" 
d="M262 1169q0 28 19.5 47t48.5 19q28 0 46.5 -19t18.5 -47q0 -29 -18.5 -48t-46.5 -19q-29 0 -48.5 19t-19.5 48zM518 1169q0 28 19 47t47 19t47.5 -19t19.5 -47q0 -29 -19.5 -48t-47.5 -19t-47 19t-19 48zM764 0h-98v86q-32 -39 -102.5 -69.5t-149.5 -30.5
q-142 0 -239 76.5t-97 203.5q0 124 98 201.5t242 77.5q74 0 144 -29.5t104 -66.5v161q0 103 -60.5 165.5t-167.5 62.5q-169 0 -221 -156h-100q26 115 113 180.5t208 65.5q151 0 238.5 -85t87.5 -229v-614zM666 207v117q-22 59 -90.5 97t-151.5 38q-104 0 -177 -50.5
t-73 -142.5t73 -143t177 -51q83 0 151.5 38t90.5 97z" />
    <glyph glyph-name="aring" unicode="&#xe5;" horiz-adv-x="899" 
d="M764 0h-98v86q-32 -39 -102.5 -69.5t-149.5 -30.5q-142 0 -239 76.5t-97 203.5q0 124 98 201.5t242 77.5q74 0 144 -29.5t104 -66.5v161q0 103 -60.5 165.5t-167.5 62.5q-169 0 -221 -156h-100q26 115 113 180.5t208 65.5q151 0 238.5 -85t87.5 -229v-614zM666 207v117
q-22 59 -90.5 97t-151.5 38q-104 0 -177 -50.5t-73 -142.5t73 -143t177 -51q83 0 151.5 38t90.5 97zM618 1188q0 -69 -48 -117.5t-117 -48.5t-117.5 48.5t-48.5 117.5t48.5 117.5t117.5 48.5t117 -48.5t48 -117.5zM553 1188q0 42 -29 71t-71 29t-71.5 -29t-29.5 -71
t29.5 -71.5t71.5 -29.5q41 0 70.5 29.5t29.5 71.5z" />
    <glyph glyph-name="ae" unicode="&#xe6;" horiz-adv-x="1497" 
d="M385 72q102 0 173 59.5t101 151.5v161h-243q-104 0 -176 -48t-72 -138t61.5 -138t155.5 -48zM1307 264h98q-27 -129 -119 -205.5t-233 -76.5q-112 0 -200 56.5t-140 156.5q-49 -90 -132.5 -149.5t-199.5 -59.5q-136 0 -223.5 73.5t-87.5 194.5q0 124 98.5 199t243.5 75
h247v82q0 103 -60 165.5t-167 62.5q-171 0 -223 -156h-98q26 115 113 180.5t208 65.5q115 0 192.5 -54.5t104.5 -148.5q52 94 134 148.5t188 54.5q178 0 274 -122.5t96 -322.5v-37h-669q1 -174 84.5 -274t216.5 -100q98 0 165 50.5t89 141.5zM1051 838q-123 0 -203 -84.5
t-94 -227.5h563q-2 84 -29.5 152.5t-88.5 114t-148 45.5z" />
    <glyph glyph-name="ccedilla" unicode="&#xe7;" horiz-adv-x="905" 
d="M80 455q0 212 110.5 342.5t290.5 130.5q141 0 232 -76.5t116 -206.5h-104q-20 90 -84 140.5t-160 50.5q-134 0 -216.5 -105t-82.5 -276t82.5 -276t216.5 -105q96 0 160 50t84 140h104q-25 -129 -116 -205.5t-232 -76.5q-180 0 -290.5 130.5t-110.5 342.5zM416 -358h-94
l120 260h99z" />
    <glyph glyph-name="egrave" unicode="&#xe8;" horiz-adv-x="927" 
d="M737 264h99q-27 -129 -120 -205.5t-233 -76.5q-180 0 -291.5 130.5t-111.5 342.5q0 207 109 340t292 133q177 0 273 -122.5t96 -322.5v-37h-670q1 -171 85 -272.5t218 -101.5q97 0 164.5 51t89.5 141zM481 838q-122 0 -202 -84.5t-95 -227.5h564q-3 84 -31 152.5t-89 114
t-147 45.5zM541 1065h-101l-178 266h109z" />
    <glyph glyph-name="eacute" unicode="&#xe9;" horiz-adv-x="927" 
d="M526 1065h-100l170 266h109zM737 264h99q-27 -129 -120 -205.5t-233 -76.5q-180 0 -291.5 130.5t-111.5 342.5q0 207 109 340t292 133q177 0 273 -122.5t96 -322.5v-37h-670q1 -171 85 -272.5t218 -101.5q97 0 164.5 51t89.5 141zM481 838q-122 0 -202 -84.5t-95 -227.5
h564q-3 84 -31 152.5t-89 114t-147 45.5z" />
    <glyph glyph-name="ecircumflex" unicode="&#xea;" horiz-adv-x="927" 
d="M530 1319l189 -268h-94l-140 198l-139 -198h-94l188 268h90zM737 264h99q-27 -129 -120 -205.5t-233 -76.5q-180 0 -291.5 130.5t-111.5 342.5q0 207 109 340t292 133q177 0 273 -122.5t96 -322.5v-37h-670q1 -171 85 -272.5t218 -101.5q97 0 164.5 51t89.5 141zM481 838
q-122 0 -202 -84.5t-95 -227.5h564q-3 84 -31 152.5t-89 114t-147 45.5z" />
    <glyph glyph-name="edieresis" unicode="&#xeb;" horiz-adv-x="927" 
d="M293 1169q0 28 19 47t48 19q28 0 47 -19t19 -47q0 -29 -19 -48t-47 -19q-29 0 -48 19t-19 48zM549 1169q0 28 18.5 47t46.5 19t48 -19t20 -47q0 -29 -20 -48t-48 -19t-46.5 19t-18.5 48zM737 264h99q-27 -129 -120 -205.5t-233 -76.5q-180 0 -291.5 130.5t-111.5 342.5
q0 207 109 340t292 133q177 0 273 -122.5t96 -322.5v-37h-670q1 -171 85 -272.5t218 -101.5q97 0 164.5 51t89.5 141zM481 838q-122 0 -202 -84.5t-95 -227.5h564q-3 84 -31 152.5t-89 114t-147 45.5z" />
    <glyph glyph-name="igrave" unicode="&#xec;" horiz-adv-x="393" 
d="M248 909v-909h-103v909h103zM252 1065h-100l-179 266h109z" />
    <glyph glyph-name="iacute" unicode="&#xed;" horiz-adv-x="393" 
d="M238 1065h-101l170 266h109zM248 909v-909h-103v909h103z" />
    <glyph glyph-name="icircumflex" unicode="&#xee;" horiz-adv-x="393" 
d="M242 1319l147 -268h-90l-102 192l-103 -192h-90l148 268h90zM248 909v-909h-103v909h103z" />
    <glyph glyph-name="idieresis" unicode="&#xef;" horiz-adv-x="393" 
d="M20 1169q0 28 20 47t48 19t48 -19t20 -47q0 -29 -20 -48t-48 -19t-48 19t-20 48zM240 1169q0 28 18.5 47t46.5 19q29 0 48.5 -19t19.5 -47q0 -29 -19.5 -48t-48.5 -19q-28 0 -46.5 19t-18.5 48zM248 909v-909h-103v909h103z" />
    <glyph glyph-name="eth" unicode="&#xf0;" horiz-adv-x="964" 
d="M283 1026l-27 70l201 65q-97 90 -201 162v8h129q95 -66 168 -139l166 55l24 -67l-133 -45q129 -143 202 -317t73 -359q0 -214 -111.5 -345.5t-292.5 -131.5q-180 0 -290.5 130.5t-110.5 340.5t110 340.5t285 130.5q149 0 246 -119h4q-66 151 -209 299zM782 453
q0 172 -82.5 276.5t-218.5 104.5q-135 0 -217 -104.5t-82 -276.5q0 -171 82 -276t217 -105q136 0 218.5 105t82.5 276z" />
    <glyph glyph-name="ntilde" unicode="&#xf1;" horiz-adv-x="989" 
d="M145 0v909h103v-145q45 70 122.5 117t168.5 47q152 0 233.5 -88.5t81.5 -237.5v-602h-100v588q0 111 -58.5 178.5t-175.5 67.5q-90 0 -163.5 -56t-108.5 -141v-637h-103zM682 1280h72q0 -99 -36 -157t-104 -58q-34 0 -67 21t-54.5 45.5t-48.5 45.5t-51 21
q-35 0 -54.5 -34t-19.5 -93h-71q0 99 36 157t103 58q35 0 68 -21t54.5 -45.5t48 -45.5t50.5 -21q35 0 54.5 34.5t19.5 92.5z" />
    <glyph glyph-name="ograve" unicode="&#xf2;" horiz-adv-x="964" 
d="M885 455q0 -211 -111.5 -342t-292.5 -131q-180 0 -290.5 131t-110.5 342t110.5 342t290.5 131q181 0 292.5 -131t111.5 -342zM782 455q0 172 -82.5 277.5t-218.5 105.5q-135 0 -217 -105.5t-82 -277.5t82 -277.5t217 -105.5q136 0 218.5 105.5t82.5 277.5zM537 1065h-101
l-178 266h109z" />
    <glyph glyph-name="oacute" unicode="&#xf3;" horiz-adv-x="964" 
d="M522 1065h-100l170 266h108zM885 455q0 -211 -111.5 -342t-292.5 -131q-180 0 -290.5 131t-110.5 342t110.5 342t290.5 131q181 0 292.5 -131t111.5 -342zM782 455q0 172 -82.5 277.5t-218.5 105.5q-135 0 -217 -105.5t-82 -277.5t82 -277.5t217 -105.5
q136 0 218.5 105.5t82.5 277.5z" />
    <glyph glyph-name="ocircumflex" unicode="&#xf4;" horiz-adv-x="964" 
d="M526 1319l189 -268h-94l-140 198l-139 -198h-94l188 268h90zM885 455q0 -211 -111.5 -342t-292.5 -131q-180 0 -290.5 131t-110.5 342t110.5 342t290.5 131q181 0 292.5 -131t111.5 -342zM782 455q0 172 -82.5 277.5t-218.5 105.5q-135 0 -217 -105.5t-82 -277.5
t82 -277.5t217 -105.5q136 0 218.5 105.5t82.5 277.5z" />
    <glyph glyph-name="otilde" unicode="&#xf5;" horiz-adv-x="964" 
d="M885 455q0 -211 -111.5 -342t-292.5 -131q-180 0 -290.5 131t-110.5 342t110.5 342t290.5 131q181 0 292.5 -131t111.5 -342zM782 455q0 172 -82.5 277.5t-218.5 105.5q-135 0 -217 -105.5t-82 -277.5t82 -277.5t217 -105.5q136 0 218.5 105.5t82.5 277.5zM664 1280h71
q0 -99 -36 -157t-103 -58q-34 0 -67 21t-54.5 45.5t-48.5 45.5t-51 21q-35 0 -54.5 -34t-19.5 -93h-72q0 99 36 157t104 58q35 0 68 -21t54.5 -45.5t48 -45.5t50.5 -21q35 0 54.5 34.5t19.5 92.5z" />
    <glyph glyph-name="odieresis" unicode="&#xf6;" horiz-adv-x="964" 
d="M289 1169q0 28 19 47t48 19q28 0 47 -19t19 -47q0 -29 -19 -48t-47 -19q-29 0 -48 19t-19 48zM545 1169q0 28 18.5 47t46.5 19t48 -19t20 -47q0 -29 -20 -48t-48 -19t-46.5 19t-18.5 48zM885 455q0 -211 -111.5 -342t-292.5 -131q-180 0 -290.5 131t-110.5 342t110.5 342
t290.5 131q181 0 292.5 -131t111.5 -342zM782 455q0 172 -82.5 277.5t-218.5 105.5q-135 0 -217 -105.5t-82 -277.5t82 -277.5t217 -105.5q136 0 218.5 105.5t82.5 277.5z" />
    <glyph glyph-name="divide" unicode="&#xf7;" horiz-adv-x="1052" 
d="M145 559v88h762v-88h-762zM451 915q0 32 22 55t53 23q30 0 52 -23t22 -55q0 -30 -22 -51.5t-52 -21.5q-31 0 -53 21t-22 52zM451 291q0 31 22 53.5t53 22.5q29 0 51.5 -22.5t22.5 -53.5q0 -32 -22 -54t-52 -22q-31 0 -53 22t-22 54z" />
    <glyph glyph-name="oslash" unicode="&#xf8;" horiz-adv-x="985" 
d="M90 -2l100 127q-100 124 -100 330q0 211 111 342t291 131q145 0 251 -92l86 110l60 -43l-94 -121q100 -130 100 -327q0 -211 -111 -342t-292 -131q-145 0 -252 90l-90 -117zM190 455q0 -155 62 -250l434 557q-79 76 -194 76q-135 0 -218.5 -105.5t-83.5 -277.5zM795 455
q0 147 -62 247l-434 -555q75 -75 193 -75q136 0 219.5 105.5t83.5 277.5z" />
    <glyph glyph-name="ugrave" unicode="&#xf9;" horiz-adv-x="985" 
d="M840 909v-909h-101v145q-45 -70 -121 -116.5t-167 -46.5q-152 0 -234 88.5t-82 236.5v602h101v-587q0 -112 58 -179t175 -67q90 0 162.5 55t107.5 141v637h101zM545 1065h-101l-178 266h109z" />
    <glyph glyph-name="uacute" unicode="&#xfa;" horiz-adv-x="985" 
d="M530 1065h-100l170 266h109zM840 909v-909h-101v145q-45 -70 -121 -116.5t-167 -46.5q-152 0 -234 88.5t-82 236.5v602h101v-587q0 -112 58 -179t175 -67q90 0 162.5 55t107.5 141v637h101z" />
    <glyph glyph-name="ucircumflex" unicode="&#xfb;" horiz-adv-x="985" 
d="M535 1319l188 -268h-94l-140 198l-139 -198h-94l188 268h91zM840 909v-909h-101v145q-45 -70 -121 -116.5t-167 -46.5q-152 0 -234 88.5t-82 236.5v602h101v-587q0 -112 58 -179t175 -67q90 0 162.5 55t107.5 141v637h101z" />
    <glyph glyph-name="udieresis" unicode="&#xfc;" horiz-adv-x="985" 
d="M295 1169q0 28 19 47t48 19q28 0 47 -19t19 -47q0 -29 -19 -48t-47 -19q-29 0 -48 19t-19 48zM551 1169q0 28 18.5 47t46.5 19t48 -19t20 -47q0 -29 -20 -48t-48 -19t-46.5 19t-18.5 48zM840 909v-909h-101v145q-45 -70 -121 -116.5t-167 -46.5q-152 0 -234 88.5
t-82 236.5v602h101v-587q0 -112 58 -179t175 -67q90 0 162.5 55t107.5 141v637h101z" />
    <glyph glyph-name="yacute" unicode="&#xfd;" horiz-adv-x="884" 
d="M348 -348h-102l147 360l-356 897h108l299 -770l299 770h105zM483 1065h-100l170 266h109z" />
    <glyph glyph-name="thorn" unicode="&#xfe;" horiz-adv-x="1007" 
d="M248 135v-483h-103v1679h103v-557q42 64 118 109t164 45q129 0 221 -67t134.5 -172t42.5 -234t-42.5 -234t-134.5 -172t-221 -67q-88 0 -164 44.5t-118 108.5zM248 653v-397q45 -87 116.5 -133.5t155.5 -46.5q142 0 223.5 105.5t81.5 273.5t-81.5 273.5t-223.5 105.5
q-84 0 -155.5 -47t-116.5 -134z" />
    <glyph glyph-name="ydieresis" unicode="&#xff;" horiz-adv-x="884" 
d="M348 -348h-102l147 360l-356 897h108l299 -770l299 770h105zM250 1169q0 28 19 47t48 19q28 0 47 -19t19 -47q0 -29 -19 -48t-47 -19q-29 0 -48 19t-19 48zM506 1169q0 28 18.5 47t46.5 19t48 -19t20 -47q0 -29 -20 -48t-48 -19t-46.5 19t-18.5 48z" />
    <glyph glyph-name="Amacron" unicode="&#x100;" horiz-adv-x="1185" 
d="M545 1257h96l498 -1257h-105l-164 414h-557l-161 -414h-105zM592 1122l-242 -614h484zM387 1372v86h412v-86h-412z" />
    <glyph glyph-name="amacron" unicode="&#x101;" horiz-adv-x="899" 
d="M764 0h-98v86q-32 -39 -102.5 -69.5t-149.5 -30.5q-142 0 -239 76.5t-97 203.5q0 124 98 201.5t242 77.5q74 0 144 -29.5t104 -66.5v161q0 103 -60.5 165.5t-167.5 62.5q-169 0 -221 -156h-100q26 115 113 180.5t208 65.5q151 0 238.5 -85t87.5 -229v-614zM666 207v117
q-22 59 -90.5 97t-151.5 38q-104 0 -177 -50.5t-73 -142.5t73 -143t177 -51q83 0 151.5 38t90.5 97zM252 1100v84h412v-84h-412z" />
    <glyph glyph-name="Abreve" unicode="&#x102;" horiz-adv-x="1185" 
d="M545 1257h96l498 -1257h-105l-164 414h-557l-161 -414h-105zM592 1122l-242 -614h484zM594 1360q-95 0 -153 62.5t-58 176.5h82q0 -76 35.5 -118.5t93.5 -42.5q57 0 93 42.5t36 118.5h80q0 -114 -57 -176.5t-152 -62.5z" />
    <glyph glyph-name="abreve" unicode="&#x103;" horiz-adv-x="899" 
d="M764 0h-98v86q-32 -39 -102.5 -69.5t-149.5 -30.5q-142 0 -239 76.5t-97 203.5q0 124 98 201.5t242 77.5q74 0 144 -29.5t104 -66.5v161q0 103 -60.5 165.5t-167.5 62.5q-169 0 -221 -156h-100q26 115 113 180.5t208 65.5q151 0 238.5 -85t87.5 -229v-614zM666 207v117
q-22 59 -90.5 97t-151.5 38q-104 0 -177 -50.5t-73 -142.5t73 -143t177 -51q83 0 151.5 38t90.5 97zM453 1036q-94 0 -151.5 64.5t-57.5 181.5h82q0 -79 34.5 -124.5t92.5 -45.5t92.5 45.5t34.5 124.5h82q0 -117 -57.5 -181.5t-151.5 -64.5z" />
    <glyph glyph-name="Aogonek" unicode="&#x104;" horiz-adv-x="1185" 
d="M545 1257h96l498 -1257q-64 -110 -83.5 -155t-19.5 -85q0 -57 51 -57q33 0 76 29v-74q-47 -31 -92 -31q-54 0 -85.5 31.5t-31.5 91.5q0 46 22 95t83 155h-25l-164 414h-557l-161 -414h-105zM592 1122l-242 -614h484z" />
    <glyph glyph-name="aogonek" unicode="&#x105;" horiz-adv-x="899" 
d="M666 207v117q-22 59 -90.5 97t-151.5 38q-104 0 -177 -50.5t-73 -142.5t73 -143t177 -51q83 0 151.5 38t90.5 97zM682 0h-16v86q-34 -39 -103.5 -69.5t-148.5 -30.5q-142 0 -239 76.5t-97 203.5q0 124 98 201.5t242 77.5q74 0 144 -29.5t104 -66.5v161q0 103 -60.5 165.5
t-167.5 62.5q-171 0 -223 -156h-98q26 115 113 180.5t208 65.5q151 0 238.5 -85t87.5 -229v-614q-62 -106 -82 -153t-20 -87q0 -57 51 -57q31 0 75 29v-74q-47 -31 -92 -31q-54 0 -85 31.5t-31 91.5q0 47 22.5 100.5t79.5 149.5z" />
    <glyph glyph-name="Cacute" unicode="&#x106;" horiz-adv-x="1177" 
d="M80 629q0 146 43 268t117.5 204.5t176 128.5t216.5 46q180 0 303 -98t162 -263h-103q-41 123 -134 193t-228 70q-198 0 -322.5 -149.5t-124.5 -399.5q0 -249 125 -399t322 -150q135 0 228 69.5t134 192.5h103q-39 -165 -162.5 -262.5t-302.5 -97.5q-115 0 -216.5 46
t-176 128.5t-117.5 204.5t-43 268zM684 1362h-102l168 240h114z" />
    <glyph glyph-name="cacute" unicode="&#x107;" horiz-adv-x="905" 
d="M526 1065h-100l170 266h109zM80 455q0 212 110.5 342.5t290.5 130.5q141 0 232 -76.5t116 -206.5h-104q-20 90 -84 140.5t-160 50.5q-134 0 -216.5 -105t-82.5 -276t82.5 -276t216.5 -105q96 0 160 50t84 140h104q-25 -129 -116 -205.5t-232 -76.5q-180 0 -290.5 130.5
t-110.5 342.5z" />
    <glyph glyph-name="Ccircumflex" unicode="&#x108;" horiz-adv-x="1177" 
d="M80 629q0 146 43 268t117.5 204.5t176 128.5t216.5 46q180 0 303 -98t162 -263h-103q-41 123 -134 193t-228 70q-198 0 -322.5 -149.5t-124.5 -399.5q0 -249 125 -399t322 -150q135 0 228 69.5t134 192.5h103q-39 -165 -162.5 -262.5t-302.5 -97.5q-115 0 -216.5 46
t-176 128.5t-117.5 204.5t-43 268zM688 1610l189 -244h-97l-137 172l-137 -172h-96l188 244h90z" />
    <glyph glyph-name="ccircumflex" unicode="&#x109;" horiz-adv-x="905" 
d="M532 1319l189 -268h-94l-140 198l-139 -198h-94l188 268h90zM80 455q0 212 110.5 342.5t290.5 130.5q141 0 232 -76.5t116 -206.5h-104q-20 90 -84 140.5t-160 50.5q-134 0 -216.5 -105t-82.5 -276t82.5 -276t216.5 -105q96 0 160 50t84 140h104q-25 -129 -116 -205.5
t-232 -76.5q-180 0 -290.5 130.5t-110.5 342.5z" />
    <glyph glyph-name="Cdotaccent" unicode="&#x10a;" horiz-adv-x="1177" 
d="M711 1462q0 -29 -20.5 -49t-49.5 -20t-49.5 20t-20.5 49t20.5 49.5t49.5 20.5t49.5 -20.5t20.5 -49.5zM80 629q0 146 43 268t117.5 204.5t176 128.5t216.5 46q180 0 303 -98t162 -263h-103q-41 123 -134 193t-228 70q-198 0 -322.5 -149.5t-124.5 -399.5q0 -249 125 -399
t322 -150q135 0 228 69.5t134 192.5h103q-39 -165 -162.5 -262.5t-302.5 -97.5q-115 0 -216.5 46t-176 128.5t-117.5 204.5t-43 268z" />
    <glyph glyph-name="cdotaccent" unicode="&#x10b;" horiz-adv-x="905" 
d="M80 455q0 212 110.5 342.5t290.5 130.5q141 0 232 -76.5t116 -206.5h-104q-20 90 -84 140.5t-160 50.5q-134 0 -216.5 -105t-82.5 -276t82.5 -276t216.5 -105q96 0 160 50t84 140h104q-25 -129 -116 -205.5t-232 -76.5q-180 0 -290.5 130.5t-110.5 342.5zM557 1186
q0 -29 -20.5 -49.5t-49.5 -20.5t-49 20.5t-20 49.5q0 28 20 48.5t49 20.5t49.5 -20.5t20.5 -48.5z" />
    <glyph glyph-name="Ccaron" unicode="&#x10c;" horiz-adv-x="1177" 
d="M596 1352l-188 243h96l137 -170l137 170h96l-188 -243h-90zM80 629q0 146 43 268t117.5 204.5t176 128.5t216.5 46q180 0 303 -98t162 -263h-103q-41 123 -134 193t-228 70q-198 0 -322.5 -149.5t-124.5 -399.5q0 -249 125 -399t322 -150q135 0 228 69.5t134 192.5h103
q-39 -165 -162.5 -262.5t-302.5 -97.5q-115 0 -216.5 46t-176 128.5t-117.5 204.5t-43 268z" />
    <glyph glyph-name="ccaron" unicode="&#x10d;" horiz-adv-x="905" 
d="M721 1321l-189 -266h-90l-188 266h94l139 -195l140 195h94zM80 455q0 212 110.5 342.5t290.5 130.5q141 0 232 -76.5t116 -206.5h-104q-20 90 -84 140.5t-160 50.5q-134 0 -216.5 -105t-82.5 -276t82.5 -276t216.5 -105q96 0 160 50t84 140h104q-25 -129 -116 -205.5
t-232 -76.5q-180 0 -290.5 130.5t-110.5 342.5z" />
    <glyph glyph-name="Dcaron" unicode="&#x10e;" horiz-adv-x="1232" 
d="M522 1352l-188 243h96l137 -170l138 170h96l-189 -243h-90zM266 96h279q231 0 367.5 145.5t136.5 387.5t-136.5 387t-367.5 145h-279v-1065zM162 0v1257h383q275 0 442.5 -171t167.5 -457t-167.5 -457.5t-442.5 -171.5h-383z" />
    <glyph glyph-name="dcaron" unicode="&#x10f;" horiz-adv-x="1007" 
d="M1061 1004h-84l67 327h82zM760 0v135q-42 -64 -118.5 -108.5t-164.5 -44.5q-97 0 -174.5 38t-125 104t-72.5 150.5t-25 180.5t25 180.5t72.5 150.5t125 104t174.5 38q88 0 164.5 -45t118.5 -109v557h100v-1331h-100zM760 256v397q-45 87 -118 134t-157 47
q-140 0 -221.5 -105.5t-81.5 -273.5t81.5 -273.5t221.5 -105.5q85 0 157.5 46.5t117.5 133.5z" />
    <glyph glyph-name="Dcroat" unicode="&#x110;" horiz-adv-x="1261" 
d="M70 604v92h118v561h383q275 0 443 -171t168 -457t-168 -457.5t-443 -171.5h-383v604h-118zM293 96h278q231 0 367.5 145.5t136.5 387.5t-136.5 387t-367.5 145h-278v-465h266v-92h-266v-508z" />
    <glyph glyph-name="dcroat" unicode="&#x111;" horiz-adv-x="1007" 
d="M524 1065v76h236v190h100v-190h109v-76h-109v-1065h-100v135q-42 -64 -118.5 -108.5t-164.5 -44.5q-97 0 -174.5 38t-125 104t-72.5 150.5t-25 180.5t25 180.5t72.5 150.5t125 104t174.5 38q88 0 164.5 -45t118.5 -109v291h-236zM760 256v397q-45 87 -118 134t-157 47
q-140 0 -221.5 -105.5t-81.5 -273.5t81.5 -273.5t221.5 -105.5q85 0 157.5 46.5t117.5 133.5z" />
    <glyph glyph-name="Emacron" unicode="&#x112;" horiz-adv-x="1054" 
d="M356 1372v86h412v-86h-412zM162 1257h780v-96h-678v-465h615v-96h-615v-504h678v-96h-780v1257z" />
    <glyph glyph-name="emacron" unicode="&#x113;" horiz-adv-x="927" 
d="M281 1100v84h411v-84h-411zM737 264h99q-27 -129 -120 -205.5t-233 -76.5q-180 0 -291.5 130.5t-111.5 342.5q0 207 109 340t292 133q177 0 273 -122.5t96 -322.5v-37h-670q1 -171 85 -272.5t218 -101.5q97 0 164.5 51t89.5 141zM481 838q-122 0 -202 -84.5t-95 -227.5
h564q-3 84 -31 152.5t-89 114t-147 45.5z" />
    <glyph glyph-name="Ebreve" unicode="&#x114;" horiz-adv-x="1054" 
d="M561 1360q-95 0 -153 62.5t-58 176.5h82q0 -76 35.5 -118.5t93.5 -42.5q57 0 93 42.5t36 118.5h80q0 -114 -57 -176.5t-152 -62.5zM162 1257h780v-96h-678v-465h615v-96h-615v-504h678v-96h-780v1257z" />
    <glyph glyph-name="ebreve" unicode="&#x115;" horiz-adv-x="927" 
d="M737 264h99q-27 -129 -120 -205.5t-233 -76.5q-180 0 -291.5 130.5t-111.5 342.5q0 207 109 340t292 133q177 0 273 -122.5t96 -322.5v-37h-670q1 -171 85 -272.5t218 -101.5q97 0 164.5 51t89.5 141zM481 838q-122 0 -202 -84.5t-95 -227.5h564q-3 84 -31 152.5t-89 114
t-147 45.5zM485 1036q-94 0 -151.5 64.5t-57.5 181.5h82q0 -79 34.5 -124.5t92.5 -45.5t92.5 45.5t34.5 124.5h82q0 -117 -57.5 -181.5t-151.5 -64.5z" />
    <glyph glyph-name="Edotaccent" unicode="&#x116;" horiz-adv-x="1054" 
d="M631 1462q0 -29 -20.5 -49t-49.5 -20t-49 20t-20 49t20 49.5t49 20.5t49.5 -20.5t20.5 -49.5zM162 1257h780v-96h-678v-465h615v-96h-615v-504h678v-96h-780v1257z" />
    <glyph glyph-name="edotaccent" unicode="&#x117;" horiz-adv-x="927" 
d="M737 264h99q-27 -129 -120 -205.5t-233 -76.5q-180 0 -291.5 130.5t-111.5 342.5q0 207 109 340t292 133q177 0 273 -122.5t96 -322.5v-37h-670q1 -171 85 -272.5t218 -101.5q97 0 164.5 51t89.5 141zM481 838q-122 0 -202 -84.5t-95 -227.5h564q-3 84 -31 152.5t-89 114
t-147 45.5zM555 1186q0 -29 -20.5 -49.5t-49.5 -20.5t-49 20.5t-20 49.5q0 28 20 48.5t49 20.5t49.5 -20.5t20.5 -48.5z" />
    <glyph glyph-name="Eogonek" unicode="&#x118;" horiz-adv-x="1054" 
d="M162 1257h780v-96h-678v-465h615v-96h-615v-504h678v-96h-72q-61 -104 -80.5 -152t-19.5 -88q0 -57 51 -57q33 0 76 29v-74q-47 -31 -92 -31q-54 0 -85.5 31.5t-31.5 91.5q0 46 21 96t79 154h-626v1257z" />
    <glyph glyph-name="eogonek" unicode="&#x119;" horiz-adv-x="927" 
d="M481 838q-122 0 -202 -84.5t-95 -227.5h564q-3 84 -31 152.5t-89 114t-147 45.5zM598 6q-52 -24 -115 -24q-180 0 -291.5 130.5t-111.5 342.5q0 207 109 340t292 133q177 0 273 -122.5t96 -322.5v-37h-670q1 -171 85 -272.5t218 -101.5q97 0 164.5 51t89.5 141h99
q-13 -61 -42 -110.5t-83 -106.5q-78 -83 -118 -149t-40 -125q0 -70 53 -70q29 0 76 29v-74q-50 -31 -92 -31q-54 0 -87.5 34t-33.5 93t32 118t97 134z" />
    <glyph glyph-name="Ecaron" unicode="&#x11a;" horiz-adv-x="1054" 
d="M520 1352l-188 243h96l137 -170l137 170h97l-189 -243h-90zM162 1257h780v-96h-678v-465h615v-96h-615v-504h678v-96h-780v1257z" />
    <glyph glyph-name="ecaron" unicode="&#x11b;" horiz-adv-x="927" 
d="M719 1321l-189 -266h-90l-188 266h94l139 -195l140 195h94zM737 264h99q-27 -129 -120 -205.5t-233 -76.5q-180 0 -291.5 130.5t-111.5 342.5q0 207 109 340t292 133q177 0 273 -122.5t96 -322.5v-37h-670q1 -171 85 -272.5t218 -101.5q97 0 164.5 51t89.5 141zM481 838
q-122 0 -202 -84.5t-95 -227.5h564q-3 84 -31 152.5t-89 114t-147 45.5z" />
    <glyph glyph-name="Gcircumflex" unicode="&#x11c;" horiz-adv-x="1224" 
d="M692 1610l189 -244h-97l-137 172l-137 -172h-96l188 244h90zM1047 498h-328v92h428v-74q0 -242 -137.5 -388t-366.5 -146q-118 0 -221 45.5t-179 128t-119.5 205t-43.5 268.5t44 268.5t120 205t178.5 128t218.5 45.5q183 0 308 -97.5t165 -263.5h-104q-42 125 -136 194
t-233 69q-200 0 -327.5 -149t-127.5 -400q0 -252 127.5 -401.5t329.5 -149.5q186 0 291 110.5t113 309.5z" />
    <glyph glyph-name="gcircumflex" unicode="&#x11d;" horiz-adv-x="999" 
d="M557 1319l188 -268h-94l-139 198l-139 -198h-94l188 268h90zM752 59v97q-41 -63 -116.5 -106.5t-164.5 -43.5q-96 0 -172 37.5t-123 102t-71.5 146.5t-24.5 175t24.5 174.5t71.5 146.5t123 102.5t172 37.5q88 0 163.5 -44t117.5 -108v133h102v-843q0 -210 -104 -321.5
t-279 -111.5q-155 0 -251.5 73t-121.5 204h103q23 -94 93.5 -141.5t176.5 -47.5q136 0 208.5 86.5t72.5 251.5zM752 274v383q-44 84 -115.5 130.5t-155.5 46.5q-139 0 -219 -101.5t-80 -265.5q0 -165 80 -267t219 -102q84 0 155.5 46t115.5 130z" />
    <glyph glyph-name="Gbreve" unicode="&#x11e;" horiz-adv-x="1224" 
d="M649 1360q-95 0 -153 62.5t-58 176.5h82q0 -76 35.5 -118.5t93.5 -42.5q57 0 93 42.5t36 118.5h80q0 -114 -57 -176.5t-152 -62.5zM1047 498h-328v92h428v-74q0 -242 -137.5 -388t-366.5 -146q-118 0 -221 45.5t-179 128t-119.5 205t-43.5 268.5t44 268.5t120 205
t178.5 128t218.5 45.5q183 0 308 -97.5t165 -263.5h-104q-42 125 -136 194t-233 69q-200 0 -327.5 -149t-127.5 -400q0 -252 127.5 -401.5t329.5 -149.5q186 0 291 110.5t113 309.5z" />
    <glyph glyph-name="gbreve" unicode="&#x11f;" horiz-adv-x="999" 
d="M752 59v97q-41 -63 -116.5 -106.5t-164.5 -43.5q-96 0 -172 37.5t-123 102t-71.5 146.5t-24.5 175t24.5 174.5t71.5 146.5t123 102.5t172 37.5q88 0 163.5 -44t117.5 -108v133h102v-843q0 -210 -104 -321.5t-279 -111.5q-155 0 -251.5 73t-121.5 204h103
q23 -94 93.5 -141.5t176.5 -47.5q136 0 208.5 86.5t72.5 251.5zM752 274v383q-44 84 -115.5 130.5t-155.5 46.5q-139 0 -219 -101.5t-80 -265.5q0 -165 80 -267t219 -102q84 0 155.5 46t115.5 130zM512 1036q-94 0 -151.5 64.5t-57.5 181.5h82q0 -79 34.5 -124.5t92.5 -45.5
t92.5 45.5t34.5 124.5h82q0 -117 -57.5 -181.5t-151.5 -64.5z" />
    <glyph glyph-name="Gdotaccent" unicode="&#x120;" horiz-adv-x="1224" 
d="M719 1462q0 -29 -20.5 -49t-49.5 -20t-49 20t-20 49t20 49.5t49 20.5t49.5 -20.5t20.5 -49.5zM1047 498h-328v92h428v-74q0 -242 -137.5 -388t-366.5 -146q-118 0 -221 45.5t-179 128t-119.5 205t-43.5 268.5t44 268.5t120 205t178.5 128t218.5 45.5q183 0 308 -97.5
t165 -263.5h-104q-42 125 -136 194t-233 69q-200 0 -327.5 -149t-127.5 -400q0 -252 127.5 -401.5t329.5 -149.5q186 0 291 110.5t113 309.5z" />
    <glyph glyph-name="gdotaccent" unicode="&#x121;" horiz-adv-x="999" 
d="M582 1186q0 -29 -20.5 -49.5t-49.5 -20.5t-49.5 20.5t-20.5 49.5q0 28 20.5 48.5t49.5 20.5t49.5 -20.5t20.5 -48.5zM752 59v97q-41 -63 -116.5 -106.5t-164.5 -43.5q-96 0 -172 37.5t-123 102t-71.5 146.5t-24.5 175t24.5 174.5t71.5 146.5t123 102.5t172 37.5
q88 0 163.5 -44t117.5 -108v133h102v-843q0 -210 -104 -321.5t-279 -111.5q-155 0 -251.5 73t-121.5 204h103q23 -94 93.5 -141.5t176.5 -47.5q136 0 208.5 86.5t72.5 251.5zM752 274v383q-44 84 -115.5 130.5t-155.5 46.5q-139 0 -219 -101.5t-80 -265.5q0 -165 80 -267
t219 -102q84 0 155.5 46t115.5 130z" />
    <glyph glyph-name="Gcommaaccent" unicode="&#x122;" horiz-adv-x="1224" 
d="M571 -375l74 137q-27 5 -44 23t-17 47q0 31 21.5 51.5t53.5 20.5q31 0 51.5 -21.5t20.5 -54.5q0 -28 -29 -84l-63 -119h-68zM1047 498h-328v92h428v-74q0 -242 -137.5 -388t-366.5 -146q-118 0 -221 45.5t-179 128t-119.5 205t-43.5 268.5t44 268.5t120 205t178.5 128
t218.5 45.5q183 0 308 -97.5t165 -263.5h-104q-42 125 -136 194t-233 69q-200 0 -327.5 -149t-127.5 -400q0 -252 127.5 -401.5t329.5 -149.5q186 0 291 110.5t113 309.5z" />
    <glyph glyph-name="gcommaaccent" unicode="&#x123;" horiz-adv-x="999" 
d="M592 1358l-74 -139q26 -5 43 -23.5t17 -46.5q0 -31 -21.5 -52.5t-52.5 -21.5q-32 0 -54 22t-22 54q0 34 31 86l63 121h70zM752 59v97q-41 -63 -116.5 -106.5t-164.5 -43.5q-96 0 -172 37.5t-123 102t-71.5 146.5t-24.5 175t24.5 174.5t71.5 146.5t123 102.5t172 37.5
q88 0 163.5 -44t117.5 -108v133h102v-843q0 -210 -104 -321.5t-279 -111.5q-155 0 -251.5 73t-121.5 204h103q23 -94 93.5 -141.5t176.5 -47.5q136 0 208.5 86.5t72.5 251.5zM752 274v383q-44 84 -115.5 130.5t-155.5 46.5q-139 0 -219 -101.5t-80 -265.5q0 -165 80 -267
t219 -102q84 0 155.5 46t115.5 130z" />
    <glyph glyph-name="Hcircumflex" unicode="&#x124;" horiz-adv-x="1329" 
d="M1063 1257h104v-1257h-104v600h-797v-600h-104v1257h104v-561h797v561zM711 1610l188 -244h-96l-137 172l-138 -172h-96l189 244h90z" />
    <glyph glyph-name="hcircumflex" unicode="&#x125;" horiz-adv-x="989" 
d="M145 0v1331h103v-567q45 70 122.5 117t168.5 47q152 0 233.5 -88.5t81.5 -237.5v-602h-100v588q0 111 -58.5 178.5t-175.5 67.5q-90 0 -163.5 -56t-108.5 -141v-637h-103zM545 1620l188 -244h-96l-137 172l-138 -172h-96l189 244h90z" />
    <glyph glyph-name="Hbar" unicode="&#x126;" horiz-adv-x="1382" 
d="M70 897v90h118v270h105v-270h797v270h104v-270h119v-90h-119v-897h-104v532h-797v-532h-105v897h-118zM293 623h797v274h-797v-274z" />
    <glyph glyph-name="hbar" unicode="&#x127;" horiz-adv-x="989" 
d="M39 1065v76h106v190h103v-190h235v-76h-235v-301q45 70 122.5 117t168.5 47q152 0 233.5 -88.5t81.5 -237.5v-602h-100v588q0 111 -58.5 178.5t-175.5 67.5q-90 0 -163.5 -56t-108.5 -141v-637h-103v1065h-106z" />
    <glyph glyph-name="Itilde" unicode="&#x128;" horiz-adv-x="428" 
d="M266 1257v-1257h-104v1257h104zM399 1575h72q0 -99 -36.5 -156t-104.5 -57q-35 0 -68.5 20.5t-55 45t-49.5 45t-53 20.5q-36 0 -54.5 -33.5t-18.5 -91.5h-74q0 97 36.5 155t104.5 58q36 0 69.5 -20.5t55 -45t49 -45t52.5 -20.5q72 0 75 125z" />
    <glyph glyph-name="itilde" unicode="&#x129;" horiz-adv-x="393" 
d="M332 1280h65q0 -99 -28.5 -157t-81.5 -58q-28 0 -54.5 20.5t-43.5 45t-38 45t-38 20.5q-52 0 -52 -125h-67q0 98 29 156.5t81 58.5q28 0 55.5 -20.5t44.5 -45t37.5 -45t37.5 -20.5q50 0 53 125zM248 909v-909h-103v909h103z" />
    <glyph glyph-name="Imacron" unicode="&#x12a;" horiz-adv-x="428" 
d="M266 1257v-1257h-104v1257h104zM8 1372v86h412v-86h-412z" />
    <glyph glyph-name="imacron" unicode="&#x12b;" horiz-adv-x="393" 
d="M248 909v-909h-103v909h103zM39 1100v84h321v-84h-321z" />
    <glyph glyph-name="Ibreve" unicode="&#x12c;" horiz-adv-x="428" 
d="M266 1257v-1257h-104v1257h104zM213 1360q-95 0 -153 62.5t-58 176.5h82q0 -76 35.5 -118.5t93.5 -42.5q57 0 93 42.5t36 118.5h80q0 -114 -57 -176.5t-152 -62.5z" />
    <glyph glyph-name="ibreve" unicode="&#x12d;" horiz-adv-x="393" 
d="M199 1036q-84 0 -134.5 64.5t-50.5 181.5h78q0 -80 28 -125t79 -45q50 0 78 45.5t28 124.5h78q0 -117 -51 -181.5t-133 -64.5zM248 909v-909h-103v909h103z" />
    <glyph glyph-name="Iogonek" unicode="&#x12e;" horiz-adv-x="428" 
d="M266 1257v-1257q-62 -106 -82 -153t-20 -87q0 -57 51 -57q33 0 76 29v-74q-47 -31 -92 -31q-54 0 -85.5 31.5t-31.5 91.5q0 47 22.5 99t79.5 151h-22v1257h104z" />
    <glyph glyph-name="iogonek" unicode="&#x12f;" horiz-adv-x="393" 
d="M248 909v-909q-63 -107 -83 -153.5t-20 -86.5q0 -57 52 -57q28 0 75 29v-74q-50 -31 -92 -31q-54 0 -86.5 31.5t-32.5 91.5q0 47 23 99t82 151h-21v909h103zM266 1186q0 -29 -20 -49.5t-49 -20.5t-49.5 20.5t-20.5 49.5q0 28 20.5 48.5t49.5 20.5t49 -20.5t20 -48.5z" />
    <glyph glyph-name="Idotaccent" unicode="&#x130;" horiz-adv-x="428" 
d="M266 1257v-1257h-104v1257h104zM283 1462q0 -29 -20.5 -49t-49.5 -20t-49.5 20t-20.5 49t20.5 49.5t49.5 20.5t49.5 -20.5t20.5 -49.5z" />
    <glyph glyph-name="dotlessi" unicode="&#x131;" horiz-adv-x="393" 
d="M248 909v-909h-103v909h103z" />
    <glyph glyph-name="IJ" unicode="&#x132;" horiz-adv-x="1331" 
d="M403 348h109q14 -124 90.5 -196t198.5 -72q131 0 210 78.5t79 240.5v858h104v-858q0 -204 -109.5 -310.5t-283.5 -106.5q-168 0 -277 99.5t-121 266.5zM266 1257v-1257h-104v1257h104z" />
    <glyph glyph-name="ij" unicode="&#x133;" horiz-adv-x="786" 
d="M248 909v-909h-103v909h103zM266 1186q0 -29 -20 -49.5t-49 -20.5t-49.5 20.5t-20.5 49.5q0 28 20.5 48.5t49.5 20.5t49 -20.5t20 -48.5zM641 909v-1040q0 -115 -60.5 -175.5t-168.5 -60.5q-30 0 -47 7v90q15 -6 41 -6q67 0 100 33.5t33 121.5v1030h102zM659 1186
q0 -29 -20 -49.5t-49 -20.5t-49.5 20.5t-20.5 49.5q0 28 20.5 48.5t49.5 20.5t49 -20.5t20 -48.5z" />
    <glyph glyph-name="Jcircumflex" unicode="&#x134;" horiz-adv-x="966" 
d="M39 348h108q14 -124 90 -196t197 -72q131 0 211 78.5t80 240.5v858h104v-858q0 -204 -109.5 -310.5t-283.5 -106.5q-169 0 -277 99.5t-120 266.5zM825 1610l189 -244h-96l-138 172l-137 -172h-96l188 244h90z" />
    <glyph glyph-name="jcircumflex" unicode="&#x135;" horiz-adv-x="393" 
d="M242 1319l147 -268h-90l-102 192l-103 -192h-90l148 268h90zM248 909v-1040q0 -115 -61 -175.5t-169 -60.5q-30 0 -47 7v90q15 -6 41 -6q67 0 100 33.5t33 121.5v1030h103z" />
    <glyph glyph-name="Kcommaaccent" unicode="&#x136;" horiz-adv-x="1114" 
d="M438 -375l74 137q-27 5 -44 23t-17 47q0 31 21.5 51.5t53.5 20.5q31 0 51.5 -21.5t20.5 -54.5q0 -28 -29 -84l-63 -119h-68zM266 1257v-659l656 659h135l-574 -573l594 -684h-131l-538 612l-142 -143v-469h-104v1257h104z" />
    <glyph glyph-name="kcommaaccent" unicode="&#x137;" horiz-adv-x="913" 
d="M356 -375l74 137q-27 5 -44 23t-17 47q0 31 21.5 51.5t53.5 20.5q31 0 51.5 -21.5t20.5 -54.5q0 -28 -29 -84l-63 -119h-68zM754 0l-396 455l-110 -103v-352h-103v1331h103v-860l481 438h135l-432 -391l447 -518h-125z" />
    <glyph glyph-name="kgreenlandic" unicode="&#x138;" horiz-adv-x="913" 
d="M754 0l-396 455l-110 -103v-352h-103v909h103v-438l481 438h135l-432 -391l447 -518h-125z" />
    <glyph glyph-name="Lacute" unicode="&#x139;" horiz-adv-x="1030" 
d="M279 1362h-103l168 240h115zM162 0v1257h104v-1161h682v-96h-786z" />
    <glyph glyph-name="lacute" unicode="&#x13a;" horiz-adv-x="393" 
d="M250 1409h-103l168 240h115zM248 1331v-1331h-103v1331h103z" />
    <glyph glyph-name="Lcommaaccent" unicode="&#x13b;" horiz-adv-x="1030" 
d="M485 -375l74 137q-27 5 -44 23t-17 47q0 31 21.5 51.5t53.5 20.5q31 0 51.5 -21.5t20.5 -54.5q0 -28 -29 -84l-63 -119h-68zM162 0v1257h104v-1161h682v-96h-786z" />
    <glyph glyph-name="lcommaaccent" unicode="&#x13c;" horiz-adv-x="393" 
d="M111 -375l73 137q-27 5 -44 23t-17 47q0 31 22 51.5t54 20.5q31 0 51 -21t20 -55q0 -30 -28 -84l-64 -119h-67zM248 1331v-1331h-103v1331h103z" />
    <glyph glyph-name="Lcaron" unicode="&#x13d;" horiz-adv-x="1030" 
d="M618 930h-83l67 327h82zM162 0v1257h104v-1161h682v-96h-786z" />
    <glyph glyph-name="lcaron" unicode="&#x13e;" horiz-adv-x="393" 
d="M449 1004h-84l67 327h82zM248 1331v-1331h-103v1331h103z" />
    <glyph glyph-name="Ldot" unicode="&#x13f;" horiz-adv-x="1030" 
d="M162 0v1257h104v-1161h682v-96h-786zM807 629q0 -29 -20.5 -49.5t-49.5 -20.5t-49 20.5t-20 49.5q0 28 20 48.5t49 20.5t49.5 -20.5t20.5 -48.5z" />
    <glyph glyph-name="ldot" unicode="&#x140;" horiz-adv-x="608" 
d="M248 1331v-1331h-103v1331h103zM569 666q0 -29 -20 -49.5t-49 -20.5t-49.5 20.5t-20.5 49.5q0 28 20.5 48.5t49.5 20.5t49 -20.5t20 -48.5z" />
    <glyph glyph-name="Lslash" unicode="&#x141;" horiz-adv-x="1054" 
d="M61 504v100l125 49v604h105v-565l321 131v-100l-321 -129v-498h682v-96h-787v555z" />
    <glyph glyph-name="lslash" unicode="&#x142;" horiz-adv-x="473" 
d="M287 1331v-497l135 94v-101l-135 -94v-733h-103v676l-123 -84v100l123 84v555h103z" />
    <glyph glyph-name="Nacute" unicode="&#x143;" horiz-adv-x="1261" 
d="M672 1362h-103l168 240h115zM1100 1257v-1257h-70l-768 1092v-1092h-100v1257h100l737 -1048v1048h101z" />
    <glyph glyph-name="nacute" unicode="&#x144;" horiz-adv-x="989" 
d="M543 1065h-101l170 266h109zM145 0v909h103v-145q45 70 122.5 117t168.5 47q152 0 233.5 -88.5t81.5 -237.5v-602h-100v588q0 111 -58.5 178.5t-175.5 67.5q-90 0 -163.5 -56t-108.5 -141v-637h-103z" />
    <glyph glyph-name="Ncommaaccent" unicode="&#x145;" horiz-adv-x="1261" 
d="M553 -375l74 137q-27 5 -44.5 23t-17.5 47q0 31 22 51.5t54 20.5q31 0 51.5 -21.5t20.5 -54.5q0 -28 -29 -84l-63 -119h-68zM1100 1257v-1257h-70l-768 1092v-1092h-100v1257h100l737 -1048v1048h101z" />
    <glyph glyph-name="ncommaaccent" unicode="&#x146;" horiz-adv-x="989" 
d="M428 -375l74 137q-27 5 -44.5 23t-17.5 47q0 31 22 51.5t54 20.5q31 0 51.5 -21.5t20.5 -54.5q0 -28 -29 -84l-63 -119h-68zM145 0v909h103v-145q45 70 122.5 117t168.5 47q152 0 233.5 -88.5t81.5 -237.5v-602h-100v588q0 111 -58.5 178.5t-175.5 67.5q-90 0 -163.5 -56
t-108.5 -141v-637h-103z" />
    <glyph glyph-name="Ncaron" unicode="&#x147;" horiz-adv-x="1261" 
d="M586 1352l-189 243h97l137 -170l137 170h96l-188 -243h-90zM1100 1257v-1257h-70l-768 1092v-1092h-100v1257h100l737 -1048v1048h101z" />
    <glyph glyph-name="ncaron" unicode="&#x148;" horiz-adv-x="989" 
d="M737 1321l-188 -266h-90l-189 266h95l139 -195l139 195h94zM145 0v909h103v-145q45 70 122.5 117t168.5 47q152 0 233.5 -88.5t81.5 -237.5v-602h-100v588q0 111 -58.5 178.5t-175.5 67.5q-90 0 -163.5 -56t-108.5 -141v-637h-103z" />
    <glyph glyph-name="Eng" unicode="&#x14a;" horiz-adv-x="1261" 
d="M537 -305v108q103 -79 221 -79q124 0 182.5 75t58.5 244l-737 1049v-1092h-100v1257h100l737 -1048v1048h101v-1214q0 -418 -340 -418q-125 0 -223 70z" />
    <glyph glyph-name="eng" unicode="&#x14b;" horiz-adv-x="989" 
d="M754 -121v709q0 111 -58.5 178.5t-175.5 67.5q-90 0 -163.5 -56t-108.5 -141v-637h-103v909h103v-145q45 70 122.5 117t168.5 47q152 0 233.5 -88.5t81.5 -237.5v-733q0 -115 -60 -175.5t-167 -60.5q-28 0 -49 7v90q15 -6 43 -6q67 0 100 33.5t33 121.5z" />
    <glyph glyph-name="Omacron" unicode="&#x14c;" horiz-adv-x="1269" 
d="M430 1372v86h412v-86h-412zM1192 629q0 -287 -157 -467t-400 -180q-241 0 -398 180.5t-157 466.5t157 466.5t398 180.5q243 0 400 -180t157 -467zM1085 629q0 244 -124.5 396.5t-325.5 152.5q-199 0 -324 -153t-125 -396t125 -396t324 -153q201 0 325.5 152.5
t124.5 396.5z" />
    <glyph glyph-name="omacron" unicode="&#x14d;" horiz-adv-x="964" 
d="M276 1100v84h412v-84h-412zM885 455q0 -211 -111.5 -342t-292.5 -131q-180 0 -290.5 131t-110.5 342t110.5 342t290.5 131q181 0 292.5 -131t111.5 -342zM782 455q0 172 -82.5 277.5t-218.5 105.5q-135 0 -217 -105.5t-82 -277.5t82 -277.5t217 -105.5q136 0 218.5 105.5
t82.5 277.5z" />
    <glyph glyph-name="Obreve" unicode="&#x14e;" horiz-adv-x="1269" 
d="M635 1360q-95 0 -153 62.5t-58 176.5h82q0 -76 35.5 -118.5t93.5 -42.5q57 0 93 42.5t36 118.5h80q0 -114 -57 -176.5t-152 -62.5zM1192 629q0 -287 -157 -467t-400 -180q-241 0 -398 180.5t-157 466.5t157 466.5t398 180.5q243 0 400 -180t157 -467zM1085 629
q0 244 -124.5 396.5t-325.5 152.5q-199 0 -324 -153t-125 -396t125 -396t324 -153q201 0 325.5 152.5t124.5 396.5z" />
    <glyph glyph-name="obreve" unicode="&#x14f;" horiz-adv-x="964" 
d="M885 455q0 -211 -111.5 -342t-292.5 -131q-180 0 -290.5 131t-110.5 342t110.5 342t290.5 131q181 0 292.5 -131t111.5 -342zM782 455q0 172 -82.5 277.5t-218.5 105.5q-135 0 -217 -105.5t-82 -277.5t82 -277.5t217 -105.5q136 0 218.5 105.5t82.5 277.5zM481 1036
q-94 0 -151.5 64.5t-57.5 181.5h82q0 -79 34.5 -124.5t92.5 -45.5t92.5 45.5t34.5 124.5h82q0 -117 -57.5 -181.5t-151.5 -64.5z" />
    <glyph glyph-name="Ohungarumlaut" unicode="&#x150;" horiz-adv-x="1269" 
d="M1192 629q0 -287 -157 -467t-400 -180q-241 0 -398 180.5t-157 466.5t157 466.5t398 180.5q243 0 400 -180t157 -467zM1085 629q0 244 -124.5 396.5t-325.5 152.5q-199 0 -324 -153t-125 -396t125 -396t324 -153q201 0 325.5 152.5t124.5 396.5zM571 1362h-92l152 240h94
zM801 1362h-94l151 240h94z" />
    <glyph glyph-name="ohungarumlaut" unicode="&#x151;" horiz-adv-x="964" 
d="M412 1065h-93l152 266h92zM637 1065h-92l151 266h92zM885 455q0 -211 -111.5 -342t-292.5 -131q-180 0 -290.5 131t-110.5 342t110.5 342t290.5 131q181 0 292.5 -131t111.5 -342zM782 455q0 172 -82.5 277.5t-218.5 105.5q-135 0 -217 -105.5t-82 -277.5t82 -277.5
t217 -105.5q136 0 218.5 105.5t82.5 277.5z" />
    <glyph glyph-name="OE" unicode="&#x152;" horiz-adv-x="1720" 
d="M1606 1257v-96h-650v-465h586v-96h-586v-504h650v-96h-916q-275 0 -442.5 171.5t-167.5 457.5t167.5 457t442.5 171h916zM688 96h164v1065h-164q-230 0 -367 -145t-137 -387t137 -387.5t367 -145.5z" />
    <glyph glyph-name="oe" unicode="&#x153;" horiz-adv-x="1624" 
d="M1180 -18q-119 0 -210 61.5t-141 171.5q-48 -108 -139 -170.5t-209 -62.5q-180 0 -290.5 131t-110.5 342t110.5 342t290.5 131q119 0 210 -64.5t138 -175.5q47 111 137.5 175.5t211.5 64.5q177 0 273.5 -122.5t96.5 -322.5v-37h-669q1 -171 84.5 -272.5t216.5 -101.5
q97 0 164.5 51t89.5 141h98q-27 -129 -119.5 -205.5t-232.5 -76.5zM782 455q0 172 -82.5 277.5t-218.5 105.5q-135 0 -217 -105.5t-82 -277.5t82 -277.5t217 -105.5q136 0 218.5 105.5t82.5 277.5zM1178 838q-122 0 -202 -85t-95 -227h563q-2 84 -29.5 152.5t-88.5 114
t-148 45.5z" />
    <glyph glyph-name="Racute" unicode="&#x154;" horiz-adv-x="1124" 
d="M567 555h-301v-555h-104v1257h444q187 0 291 -91t104 -261q0 -151 -83.5 -239t-235.5 -107l379 -559h-121zM266 1163v-516h336q144 0 220.5 67.5t76.5 190.5q0 125 -76.5 191.5t-220.5 66.5h-336zM582 1362h-103l168 240h115z" />
    <glyph glyph-name="racute" unicode="&#x155;" horiz-adv-x="616" 
d="M399 1065h-100l170 266h109zM573 915v-100q-40 16 -84 16q-81 0 -144.5 -53t-96.5 -143v-635h-103v909h103v-145q32 71 98.5 117.5t147.5 46.5q36 0 79 -13z" />
    <glyph glyph-name="Rcommaaccent" unicode="&#x156;" horiz-adv-x="1124" 
d="M567 555h-301v-555h-104v1257h444q187 0 291 -91t104 -261q0 -151 -83.5 -239t-235.5 -107l379 -559h-121zM266 1163v-516h336q144 0 220.5 67.5t76.5 190.5q0 125 -76.5 191.5t-220.5 66.5h-336zM465 -375l74 137q-27 5 -44.5 23t-17.5 47q0 31 22 51.5t54 20.5
q31 0 51.5 -21.5t20.5 -54.5q0 -28 -29 -84l-64 -119h-67z" />
    <glyph glyph-name="rcommaaccent" unicode="&#x157;" horiz-adv-x="616" 
d="M106 -375l74 137q-27 5 -44 23t-17 47q0 31 22 51.5t54 20.5q31 0 51 -21t20 -55q0 -30 -28 -84l-64 -119h-68zM573 915v-100q-40 16 -84 16q-81 0 -144.5 -53t-96.5 -143v-635h-103v909h103v-145q32 71 98.5 117.5t147.5 46.5q36 0 79 -13z" />
    <glyph glyph-name="Rcaron" unicode="&#x158;" horiz-adv-x="1124" 
d="M567 555h-301v-555h-104v1257h444q187 0 291 -91t104 -261q0 -151 -83.5 -239t-235.5 -107l379 -559h-121zM266 1163v-516h336q144 0 220.5 67.5t76.5 190.5q0 125 -76.5 191.5t-220.5 66.5h-336zM496 1352l-189 243h96l138 -170l137 170h96l-188 -243h-90z" />
    <glyph glyph-name="rcaron" unicode="&#x159;" horiz-adv-x="616" 
d="M592 1321l-189 -266h-90l-188 266h94l139 -195l140 195h94zM573 915v-100q-40 16 -84 16q-81 0 -144.5 -53t-96.5 -143v-635h-103v909h103v-145q32 71 98.5 117.5t147.5 46.5q36 0 79 -13z" />
    <glyph glyph-name="Sacute" unicode="&#x15a;" horiz-adv-x="1017" 
d="M53 307h109q38 -112 131.5 -171.5t224.5 -59.5q138 0 225.5 67.5t87.5 184.5q0 86 -50.5 143t-166.5 90l-239 68q-143 40 -216 110.5t-73 196.5q0 155 114 247.5t283 92.5q179 0 292 -85t151 -230h-105q-37 104 -121.5 162.5t-216.5 58.5q-128 0 -212.5 -64t-84.5 -176
q0 -94 56.5 -141t183.5 -82l211 -62q154 -43 225.5 -121.5t71.5 -203.5q0 -162 -117 -256t-299 -94q-177 0 -303 85.5t-162 239.5zM532 1362h-102l168 240h115z" />
    <glyph glyph-name="sacute" unicode="&#x15b;" horiz-adv-x="817" 
d="M444 1065h-100l170 266h109zM61 236h103q27 -82 93 -124t161 -42q98 0 159.5 42.5t61.5 125.5q0 58 -41 97t-127 64l-170 47q-104 28 -159.5 82.5t-55.5 147.5q0 115 88.5 183.5t218.5 68.5q139 0 226 -66t112 -182h-100q-53 160 -238 160q-90 0 -149.5 -42t-59.5 -118
q0 -61 38 -92t126 -56l162 -45q227 -60 227 -247q0 -120 -89.5 -189t-231.5 -69q-139 0 -236.5 68t-118.5 186z" />
    <glyph glyph-name="Scircumflex" unicode="&#x15c;" horiz-adv-x="1017" 
d="M53 307h109q38 -112 131.5 -171.5t224.5 -59.5q138 0 225.5 67.5t87.5 184.5q0 86 -50.5 143t-166.5 90l-239 68q-143 40 -216 110.5t-73 196.5q0 155 114 247.5t283 92.5q179 0 292 -85t151 -230h-105q-37 104 -121.5 162.5t-216.5 58.5q-128 0 -212.5 -64t-84.5 -176
q0 -94 56.5 -141t183.5 -82l211 -62q154 -43 225.5 -121.5t71.5 -203.5q0 -162 -117 -256t-299 -94q-177 0 -303 85.5t-162 239.5zM541 1610l188 -244h-96l-137 172l-138 -172h-96l189 244h90z" />
    <glyph glyph-name="scircumflex" unicode="&#x15d;" horiz-adv-x="817" 
d="M449 1319l188 -268h-94l-140 198l-139 -198h-94l188 268h91zM61 236h103q27 -82 93 -124t161 -42q98 0 159.5 42.5t61.5 125.5q0 58 -41 97t-127 64l-170 47q-104 28 -159.5 82.5t-55.5 147.5q0 115 88.5 183.5t218.5 68.5q139 0 226 -66t112 -182h-100q-53 160 -238 160
q-90 0 -149.5 -42t-59.5 -118q0 -61 38 -92t126 -56l162 -45q227 -60 227 -247q0 -120 -89.5 -189t-231.5 -69q-139 0 -236.5 68t-118.5 186z" />
    <glyph glyph-name="Scedilla" unicode="&#x15e;" horiz-adv-x="1017" 
d="M53 307h109q38 -112 131.5 -171.5t224.5 -59.5q138 0 225.5 67.5t87.5 184.5q0 86 -50.5 143t-166.5 90l-239 68q-143 40 -216 110.5t-73 196.5q0 155 114 247.5t283 92.5q179 0 292 -85t151 -230h-105q-37 104 -121.5 162.5t-216.5 58.5q-128 0 -212.5 -64t-84.5 -176
q0 -94 56.5 -141t183.5 -82l211 -62q154 -43 225.5 -121.5t71.5 -203.5q0 -162 -117 -256t-299 -94q-177 0 -303 85.5t-162 239.5zM420 -358h-94l120 260h99z" />
    <glyph glyph-name="scedilla" unicode="&#x15f;" horiz-adv-x="817" 
d="M61 236h103q27 -82 93 -124t161 -42q98 0 159.5 42.5t61.5 125.5q0 58 -41 97t-127 64l-170 47q-104 28 -159.5 82.5t-55.5 147.5q0 115 88.5 183.5t218.5 68.5q139 0 226 -66t112 -182h-100q-53 160 -238 160q-90 0 -149.5 -42t-59.5 -118q0 -61 38 -92t126 -56l162 -45
q227 -60 227 -247q0 -120 -89.5 -189t-231.5 -69q-139 0 -236.5 68t-118.5 186zM332 -358h-94l120 260h99z" />
    <glyph glyph-name="Scaron" unicode="&#x160;" horiz-adv-x="1017" 
d="M451 1352l-189 243h96l138 -170l137 170h96l-188 -243h-90zM53 307h109q38 -112 131.5 -171.5t224.5 -59.5q138 0 225.5 67.5t87.5 184.5q0 86 -50.5 143t-166.5 90l-239 68q-143 40 -216 110.5t-73 196.5q0 155 114 247.5t283 92.5q179 0 292 -85t151 -230h-105
q-37 104 -121.5 162.5t-216.5 58.5q-128 0 -212.5 -64t-84.5 -176q0 -94 56.5 -141t183.5 -82l211 -62q154 -43 225.5 -121.5t71.5 -203.5q0 -162 -117 -256t-299 -94q-177 0 -303 85.5t-162 239.5z" />
    <glyph glyph-name="scaron" unicode="&#x161;" horiz-adv-x="817" 
d="M637 1321l-188 -266h-91l-188 266h94l139 -195l140 195h94zM61 236h103q27 -82 93 -124t161 -42q98 0 159.5 42.5t61.5 125.5q0 58 -41 97t-127 64l-170 47q-104 28 -159.5 82.5t-55.5 147.5q0 115 88.5 183.5t218.5 68.5q139 0 226 -66t112 -182h-100q-53 160 -238 160
q-90 0 -149.5 -42t-59.5 -118q0 -61 38 -92t126 -56l162 -45q227 -60 227 -247q0 -120 -89.5 -189t-231.5 -69q-139 0 -236.5 68t-118.5 186z" />
    <glyph glyph-name="Tcedilla" unicode="&#x162;" horiz-adv-x="1150" 
d="M500 -375l73 137q-27 5 -44 23t-17 47q0 31 22 51.5t54 20.5q31 0 51 -21t20 -55q0 -30 -28 -84l-64 -119h-67zM63 1161v96h1024v-96h-460v-1161h-105v1161h-459z" />
    <glyph glyph-name="tcedilla" unicode="&#x163;" horiz-adv-x="608" 
d="M186 211v610h-153v88h153v234h101v-234h235v-88h-235v-600q0 -147 131 -147q64 0 125 35v-97q-58 -30 -135 -30q-103 0 -162.5 57.5t-59.5 171.5zM279 -375l73 137q-27 5 -44 23t-17 47q0 31 22 51.5t54 20.5q31 0 51 -21t20 -55q0 -30 -28 -84l-64 -119h-67z" />
    <glyph glyph-name="Tcaron" unicode="&#x164;" horiz-adv-x="1150" 
d="M530 1352l-188 243h96l137 -170l138 170h96l-188 -243h-91zM63 1161v96h1024v-96h-460v-1161h-105v1161h-459z" />
    <glyph glyph-name="tcaron" unicode="&#x165;" horiz-adv-x="608" 
d="M186 211v610h-153v88h153v234h101v-234h235v-88h-235v-600q0 -147 131 -147q64 0 125 35v-97q-58 -30 -135 -30q-103 0 -162.5 57.5t-59.5 171.5zM487 1024h-84l68 328h82z" />
    <glyph glyph-name="Tbar" unicode="&#x166;" horiz-adv-x="1150" 
d="M63 1161v96h1024v-96h-460v-465h239v-92h-239v-604h-105v604h-239v92h239v465h-459z" />
    <glyph glyph-name="tbar" unicode="&#x167;" horiz-adv-x="612" 
d="M57 494v84h131v243h-151v88h151v234h103v-234h233v-88h-233v-243h192v-84h-192v-273q0 -147 131 -147q62 0 123 35v-97q-58 -30 -133 -30q-105 0 -164.5 57.5t-59.5 171.5v283h-131z" />
    <glyph glyph-name="Utilde" unicode="&#x168;" horiz-adv-x="1239" 
d="M805 1575h72q0 -98 -37 -155.5t-105 -57.5q-29 0 -55.5 13.5t-47 33t-40 38.5t-40.5 32.5t-42 13.5q-36 0 -55 -33.5t-19 -91.5h-74q0 97 37 155t105 58q36 0 69.5 -20.5t54.5 -45t48.5 -45t52.5 -20.5q36 0 55 33t21 92zM618 -18q-103 0 -189.5 32t-152 94.5t-102.5 162
t-37 225.5v761h105v-747q0 -213 103 -322.5t273 -109.5q171 0 275 109.5t104 322.5v747h105v-761q0 -126 -37.5 -225.5t-103.5 -162t-153 -94.5t-190 -32z" />
    <glyph glyph-name="utilde" unicode="&#x169;" horiz-adv-x="985" 
d="M840 909v-909h-101v145q-45 -70 -121 -116.5t-167 -46.5q-152 0 -234 88.5t-82 236.5v602h101v-587q0 -112 58 -179t175 -67q90 0 162.5 55t107.5 141v637h101zM672 1280h71q0 -99 -36 -157t-103 -58q-34 0 -67 21t-54.5 45.5t-48.5 45.5t-51 21q-35 0 -54.5 -34
t-19.5 -93h-71q0 99 36 157t103 58q35 0 68 -21t54.5 -45.5t48 -45.5t50.5 -21q35 0 54.5 34.5t19.5 92.5z" />
    <glyph glyph-name="Umacron" unicode="&#x16a;" horiz-adv-x="1239" 
d="M416 1372v86h411v-86h-411zM618 -18q-103 0 -189.5 32t-152 94.5t-102.5 162t-37 225.5v761h105v-747q0 -213 103 -322.5t273 -109.5q171 0 275 109.5t104 322.5v747h105v-761q0 -126 -37.5 -225.5t-103.5 -162t-153 -94.5t-190 -32z" />
    <glyph glyph-name="umacron" unicode="&#x16b;" horiz-adv-x="985" 
d="M840 909v-909h-101v145q-45 -70 -121 -116.5t-167 -46.5q-152 0 -234 88.5t-82 236.5v602h101v-587q0 -112 58 -179t175 -67q90 0 162.5 55t107.5 141v637h101zM285 1100v84h411v-84h-411z" />
    <glyph glyph-name="Ubreve" unicode="&#x16c;" horiz-adv-x="1239" 
d="M621 1360q-95 0 -153 62.5t-58 176.5h82q0 -76 35.5 -118.5t93.5 -42.5q57 0 93 42.5t36 118.5h79q0 -114 -56.5 -176.5t-151.5 -62.5zM618 -18q-103 0 -189.5 32t-152 94.5t-102.5 162t-37 225.5v761h105v-747q0 -213 103 -322.5t273 -109.5q171 0 275 109.5t104 322.5
v747h105v-761q0 -126 -37.5 -225.5t-103.5 -162t-153 -94.5t-190 -32z" />
    <glyph glyph-name="ubreve" unicode="&#x16d;" horiz-adv-x="985" 
d="M840 909v-909h-101v145q-45 -70 -121 -116.5t-167 -46.5q-152 0 -234 88.5t-82 236.5v602h101v-587q0 -112 58 -179t175 -67q90 0 162.5 55t107.5 141v637h101zM489 1036q-93 0 -150.5 64.5t-57.5 181.5h81q0 -79 34.5 -124.5t92.5 -45.5t92.5 45.5t34.5 124.5h82
q0 -117 -57.5 -181.5t-151.5 -64.5z" />
    <glyph glyph-name="Uring" unicode="&#x16e;" horiz-adv-x="1239" 
d="M618 -18q-103 0 -189.5 32t-152 94.5t-102.5 162t-37 225.5v761h105v-747q0 -213 103 -322.5t273 -109.5q171 0 275 109.5t104 322.5v747h105v-761q0 -126 -37.5 -225.5t-103.5 -162t-153 -94.5t-190 -32zM786 1491q0 -69 -48 -116.5t-117 -47.5t-117.5 47.5t-48.5 116.5
q0 70 48.5 118t117.5 48t117 -48t48 -118zM721 1491q0 43 -29.5 72.5t-70.5 29.5t-71 -29.5t-30 -72.5q0 -41 30 -70.5t71 -29.5t70.5 29.5t29.5 70.5z" />
    <glyph glyph-name="uring" unicode="&#x16f;" horiz-adv-x="985" 
d="M655 1188q0 -69 -48.5 -117.5t-117.5 -48.5t-117 48.5t-48 117.5t48 117.5t117 48.5t117.5 -48.5t48.5 -117.5zM590 1188q0 42 -29.5 71t-71.5 29t-71 -29t-29 -71t29.5 -71.5t70.5 -29.5q42 0 71.5 29.5t29.5 71.5zM840 909v-909h-101v145q-45 -70 -121 -116.5
t-167 -46.5q-152 0 -234 88.5t-82 236.5v602h101v-587q0 -112 58 -179t175 -67q90 0 162.5 55t107.5 141v637h101z" />
    <glyph glyph-name="Uhungarumlaut" unicode="&#x170;" horiz-adv-x="1239" 
d="M618 -18q-103 0 -189.5 32t-152 94.5t-102.5 162t-37 225.5v761h105v-747q0 -213 103 -322.5t273 -109.5q171 0 275 109.5t104 322.5v747h105v-761q0 -126 -37.5 -225.5t-103.5 -162t-153 -94.5t-190 -32zM557 1362h-92l151 240h95zM786 1362h-94l152 240h94z" />
    <glyph glyph-name="uhungarumlaut" unicode="&#x171;" horiz-adv-x="985" 
d="M840 909v-909h-101v145q-45 -70 -121 -116.5t-167 -46.5q-152 0 -234 88.5t-82 236.5v602h101v-587q0 -112 58 -179t175 -67q90 0 162.5 55t107.5 141v637h101zM418 1065h-92l151 266h92zM643 1065h-92l151 266h93z" />
    <glyph glyph-name="Uogonek" unicode="&#x172;" horiz-adv-x="1239" 
d="M618 -18q-103 0 -189.5 32t-152 94.5t-102.5 162t-37 225.5v761h105v-747q0 -213 103 -322.5t273 -109.5q171 0 275 109.5t104 322.5v747h105v-761q0 -162 -57.5 -268.5t-167.5 -184.5q-185 -134 -185 -279q0 -29 13.5 -45t35.5 -16q33 0 76 29v-74q-47 -31 -90 -31
q-54 0 -86.5 33t-32.5 92q0 128 125 244q-58 -14 -115 -14z" />
    <glyph glyph-name="uogonek" unicode="&#x173;" horiz-adv-x="985" 
d="M840 909v-909q-63 -107 -83 -153.5t-20 -86.5q0 -57 51 -57q32 0 76 29v-74q-46 -31 -92 -31q-53 0 -85 31.5t-32 91.5q0 46 22.5 97.5t80.5 152.5h-19v145q-45 -70 -121 -116.5t-167 -46.5q-152 0 -234 88.5t-82 236.5v602h101v-587q0 -112 58 -179t175 -67
q90 0 162.5 55t107.5 141v637h101z" />
    <glyph glyph-name="Wcircumflex" unicode="&#x174;" horiz-adv-x="1554" 
d="M735 1257h86l295 -1081l291 1081h102l-342 -1257h-94l-297 1071l-295 -1071h-92l-344 1257h105l290 -1081zM821 1610l189 -244h-97l-137 172l-137 -172h-96l188 244h90z" />
    <glyph glyph-name="wcircumflex" unicode="&#x175;" horiz-adv-x="1236" 
d="M664 1319l188 -268h-94l-140 198l-139 -198h-94l188 268h91zM662 909l217 -749l223 749h98l-274 -909h-88l-220 752l-219 -752h-88l-274 909h100l223 -749l218 749h84z" />
    <glyph glyph-name="Ycircumflex" unicode="&#x176;" horiz-adv-x="1095" 
d="M551 633l395 624h113l-459 -720v-537h-104v537l-457 720h115zM592 1610l188 -244h-96l-137 172l-137 -172h-97l189 244h90z" />
    <glyph glyph-name="ycircumflex" unicode="&#x177;" horiz-adv-x="884" 
d="M348 -348h-102l147 360l-356 897h108l299 -770l299 770h105zM487 1319l189 -268h-94l-140 198l-139 -198h-94l188 268h90z" />
    <glyph glyph-name="Ydieresis" unicode="&#x178;" horiz-adv-x="1095" 
d="M551 633l395 624h113l-459 -720v-537h-104v537l-457 720h115zM354 1464q0 29 19.5 48.5t48.5 19.5q28 0 46.5 -19.5t18.5 -48.5q0 -28 -18.5 -47.5t-46.5 -19.5q-29 0 -48.5 19.5t-19.5 47.5zM610 1464q0 29 19 48.5t47 19.5t47.5 -19.5t19.5 -48.5q0 -28 -19.5 -47.5
t-47.5 -19.5t-47 19.5t-19 47.5z" />
    <glyph glyph-name="Zacute" unicode="&#x179;" horiz-adv-x="1062" 
d="M981 96v-96h-905v80l768 1081h-758v96h887v-79l-766 -1082h774zM610 1362h-102l168 240h115z" />
    <glyph glyph-name="zacute" unicode="&#x17a;" horiz-adv-x="851" 
d="M477 1065h-100l170 266h108zM768 88v-88h-688v72l555 749h-545v88h672v-71l-553 -750h559z" />
    <glyph glyph-name="Zdotaccent" unicode="&#x17b;" horiz-adv-x="1062" 
d="M639 1462q0 -29 -20.5 -49t-49.5 -20t-49 20t-20 49t20 49.5t49 20.5t49.5 -20.5t20.5 -49.5zM981 96v-96h-905v80l768 1081h-758v96h887v-79l-766 -1082h774z" />
    <glyph glyph-name="zdotaccent" unicode="&#x17c;" horiz-adv-x="851" 
d="M768 88v-88h-688v72l555 749h-545v88h672v-71l-553 -750h559zM506 1186q0 -29 -20.5 -49.5t-49.5 -20.5t-49 20.5t-20 49.5q0 28 20 48.5t49 20.5t49.5 -20.5t20.5 -48.5z" />
    <glyph glyph-name="Zcaron" unicode="&#x17d;" horiz-adv-x="1062" 
d="M524 1352l-188 243h96l137 -170l138 170h96l-189 -243h-90zM981 96v-96h-905v80l768 1081h-758v96h887v-79l-766 -1082h774z" />
    <glyph glyph-name="zcaron" unicode="&#x17e;" horiz-adv-x="851" 
d="M670 1321l-189 -266h-90l-188 266h94l139 -195l139 195h95zM768 88v-88h-688v72l555 749h-545v88h672v-71l-553 -750h559z" />
    <glyph glyph-name="florin" unicode="&#x192;" horiz-adv-x="786" 
d="M135 604v86h162l55 309q22 127 94.5 202t184.5 75q59 0 121 -25v-94q-60 29 -121 29q-71 0 -115.5 -51.5t-62.5 -145.5l-54 -299h211v-86h-227l-123 -696q-22 -124 -81 -193t-169 -69q-66 0 -119 24v94q58 -28 117 -28q69 0 103 46t51 136l121 686h-148z" />
    <glyph glyph-name="Aringacute" unicode="&#x1fa;" horiz-adv-x="1185" 
d="M545 1257h96l498 -1257h-105l-164 414h-557l-161 -414h-105zM592 1122l-242 -614h484zM764 1456q0 -60 -50 -101.5t-122 -41.5q-71 0 -121.5 41.5t-50.5 101.5q0 62 50.5 105t121.5 43q72 0 122 -42.5t50 -105.5zM696 1456q0 38 -29.5 62t-74.5 24q-44 0 -74.5 -24
t-30.5 -62q0 -35 31 -58.5t74 -23.5q44 0 74 23.5t30 58.5zM645 1659h-98l119 170h108z" />
    <glyph glyph-name="aringacute" unicode="&#x1fb;" horiz-adv-x="899" 
d="M623 1126q0 -60 -51 -101.5t-123 -41.5q-71 0 -120.5 41.5t-49.5 101.5q0 61 49.5 103.5t120.5 42.5q72 0 123 -42.5t51 -103.5zM555 1126q0 36 -30.5 60t-75.5 24q-43 0 -73 -24t-30 -60t30 -60t73 -24q45 0 75.5 24t30.5 60zM502 1327h-99l119 172h109zM764 0h-98v86
q-32 -39 -102.5 -69.5t-149.5 -30.5q-142 0 -239 76.5t-97 203.5q0 124 98 201.5t242 77.5q74 0 144 -29.5t104 -66.5v161q0 103 -60.5 165.5t-167.5 62.5q-169 0 -221 -156h-100q26 115 113 180.5t208 65.5q151 0 238.5 -85t87.5 -229v-614zM666 207v117q-22 59 -90.5 97
t-151.5 38q-104 0 -177 -50.5t-73 -142.5t73 -143t177 -51q83 0 151.5 38t90.5 97z" />
    <glyph glyph-name="AEacute" unicode="&#x1fc;" horiz-adv-x="1757" 
d="M829 1257h813v-96h-651v-465h588v-96h-588v-504h651v-96h-753v414h-473l-258 -414h-111zM889 1165l-414 -657h414v657zM1268 1362h-103l168 240h115z" />
    <glyph glyph-name="aeacute" unicode="&#x1fd;" horiz-adv-x="1497" 
d="M819 1065h-100l170 266h108zM385 72q102 0 173 59.5t101 151.5v161h-243q-104 0 -176 -48t-72 -138t61.5 -138t155.5 -48zM1307 264h98q-27 -129 -119 -205.5t-233 -76.5q-112 0 -200 56.5t-140 156.5q-49 -90 -132.5 -149.5t-199.5 -59.5q-136 0 -223.5 73.5
t-87.5 194.5q0 124 98.5 199t243.5 75h247v82q0 103 -60 165.5t-167 62.5q-171 0 -223 -156h-98q26 115 113 180.5t208 65.5q115 0 192.5 -54.5t104.5 -148.5q52 94 134 148.5t188 54.5q178 0 274 -122.5t96 -322.5v-37h-669q1 -174 84.5 -274t216.5 -100q98 0 165 50.5
t89 141.5zM1051 838q-123 0 -203 -84.5t-94 -227.5h563q-2 84 -29.5 152.5t-88.5 114t-148 45.5z" />
    <glyph glyph-name="Oslashacute" unicode="&#x1fe;" horiz-adv-x="1290" 
d="M102 14l131 162q-143 180 -143 453q0 286 157 466.5t398 180.5q216 0 363 -141l106 131l66 -49l-117 -144q139 -178 139 -444q0 -287 -157 -467t-400 -180q-206 0 -354 135l-123 -152zM197 629q0 -226 102 -371l645 799q-121 121 -299 121q-199 0 -323.5 -153
t-124.5 -396zM1096 629q0 214 -99 362l-645 -796q118 -115 293 -115q201 0 326 153t125 396zM686 1362h-102l168 240h114z" />
    <glyph glyph-name="oslashacute" unicode="&#x1ff;" horiz-adv-x="985" 
d="M90 -2l100 127q-100 124 -100 330q0 211 111 342t291 131q145 0 251 -92l86 110l60 -43l-94 -121q100 -130 100 -327q0 -211 -111 -342t-292 -131q-145 0 -252 90l-90 -117zM190 455q0 -155 62 -250l434 557q-79 76 -194 76q-135 0 -218.5 -105.5t-83.5 -277.5zM795 455
q0 147 -62 247l-434 -555q75 -75 193 -75q136 0 219.5 105.5t83.5 277.5zM530 1065h-100l170 266h109z" />
    <glyph glyph-name="Scommaaccent" unicode="&#x218;" horiz-adv-x="1017" 
d="M416 -375l73 137q-27 5 -44 23t-17 47q0 31 22 51.5t54 20.5q31 0 51 -21t20 -55q0 -30 -28 -84l-64 -119h-67zM53 307h109q38 -112 131.5 -171.5t224.5 -59.5q138 0 225.5 67.5t87.5 184.5q0 86 -50.5 143t-166.5 90l-239 68q-143 40 -216 110.5t-73 196.5
q0 155 114 247.5t283 92.5q179 0 292 -85t151 -230h-105q-37 104 -121.5 162.5t-216.5 58.5q-128 0 -212.5 -64t-84.5 -176q0 -94 56.5 -141t183.5 -82l211 -62q154 -43 225.5 -121.5t71.5 -203.5q0 -162 -117 -256t-299 -94q-177 0 -303 85.5t-162 239.5z" />
    <glyph glyph-name="scommaaccent" unicode="&#x219;" horiz-adv-x="817" 
d="M328 -375l73 137q-27 5 -44 23t-17 47q0 31 22 51.5t54 20.5q31 0 51 -21t20 -55q0 -30 -28 -84l-64 -119h-67zM61 236h103q27 -82 93 -124t161 -42q98 0 159.5 42.5t61.5 125.5q0 58 -41 97t-127 64l-170 47q-104 28 -159.5 82.5t-55.5 147.5q0 115 88.5 183.5
t218.5 68.5q139 0 226 -66t112 -182h-100q-53 160 -238 160q-90 0 -149.5 -42t-59.5 -118q0 -61 38 -92t126 -56l162 -45q227 -60 227 -247q0 -120 -89.5 -189t-231.5 -69q-139 0 -236.5 68t-118.5 186z" />
    <glyph glyph-name="uni0237" unicode="&#x237;" horiz-adv-x="393" 
d="M248 909v-1040q0 -115 -61 -175.5t-169 -60.5q-30 0 -47 7v90q15 -6 41 -6q67 0 100 33.5t33 121.5v1030h103z" />
    <glyph glyph-name="circumflex" unicode="&#x2c6;" 
d="M557 1319l188 -268h-94l-139 198l-139 -198h-94l188 268h90z" />
    <glyph glyph-name="caron" unicode="&#x2c7;" 
d="M745 1321l-188 -266h-90l-188 266h94l139 -195l139 195h94z" />
    <glyph glyph-name="breve" unicode="&#x2d8;" 
d="M512 1036q-94 0 -151.5 64.5t-57.5 181.5h82q0 -79 34.5 -124.5t92.5 -45.5t92.5 45.5t34.5 124.5h82q0 -117 -57.5 -181.5t-151.5 -64.5z" />
    <glyph glyph-name="dotaccent" unicode="&#x2d9;" 
d="M582 1186q0 -29 -20.5 -49.5t-49.5 -20.5t-49.5 20.5t-20.5 49.5q0 28 20.5 48.5t49.5 20.5t49.5 -20.5t20.5 -48.5z" />
    <glyph glyph-name="ring" unicode="&#x2da;" 
d="M678 1188q0 -69 -48.5 -117.5t-117.5 -48.5t-117.5 48.5t-48.5 117.5t48.5 117.5t117.5 48.5t117.5 -48.5t48.5 -117.5zM612 1188q0 42 -29 71t-71 29t-71 -29t-29 -71t29 -71.5t71 -29.5t71 29.5t29 71.5z" />
    <glyph glyph-name="ogonek" unicode="&#x2db;" 
d="M539 8h82q-66 -115 -86.5 -162t-20.5 -86q0 -57 51 -57q33 0 76 29v-74q-47 -31 -92 -31q-54 0 -85.5 31.5t-31.5 91.5q0 45 22 95.5t85 162.5z" />
    <glyph glyph-name="tilde" unicode="&#x2dc;" 
d="M692 1280h72q0 -99 -36 -157t-103 -58q-34 0 -67.5 21t-55 45.5t-48.5 45.5t-51 21q-35 0 -54 -34t-19 -93h-72q0 99 36 157t103 58q35 0 68 -21t54.5 -45.5t48 -45.5t50.5 -21q35 0 54.5 34.5t19.5 92.5z" />
    <glyph glyph-name="hungarumlaut" unicode="&#x2dd;" 
d="M369 1065h-93l152 266h92zM594 1065h-92l151 266h92z" />
    <glyph glyph-name="Wgrave" unicode="&#x1e80;" horiz-adv-x="1554" 
d="M829 1362h-104l-178 240h112zM735 1257h86l295 -1081l291 1081h102l-342 -1257h-94l-297 1071l-295 -1071h-92l-344 1257h105l290 -1081z" />
    <glyph glyph-name="wgrave" unicode="&#x1e81;" horiz-adv-x="1236" 
d="M662 909l217 -749l223 749h98l-274 -909h-88l-220 752l-219 -752h-88l-274 909h100l223 -749l218 749h84zM674 1065h-101l-178 266h109z" />
    <glyph glyph-name="Wacute" unicode="&#x1e82;" horiz-adv-x="1554" 
d="M821 1362h-102l168 240h114zM735 1257h86l295 -1081l291 1081h102l-342 -1257h-94l-297 1071l-295 -1071h-92l-344 1257h105l290 -1081z" />
    <glyph glyph-name="wacute" unicode="&#x1e83;" horiz-adv-x="1236" 
d="M659 1065h-100l170 266h109zM662 909l217 -749l223 749h98l-274 -909h-88l-220 752l-219 -752h-88l-274 909h100l223 -749l218 749h84z" />
    <glyph glyph-name="Wdieresis" unicode="&#x1e84;" horiz-adv-x="1554" 
d="M582 1464q0 29 19 48.5t48 19.5q28 0 47 -19.5t19 -48.5q0 -28 -19 -47.5t-47 -19.5q-29 0 -48 19.5t-19 47.5zM838 1464q0 29 18.5 48.5t46.5 19.5t48 -19.5t20 -48.5q0 -28 -20 -47.5t-48 -19.5t-46.5 19.5t-18.5 47.5zM735 1257h86l295 -1081l291 1081h102l-342 -1257
h-94l-297 1071l-295 -1071h-92l-344 1257h105l290 -1081z" />
    <glyph glyph-name="wdieresis" unicode="&#x1e85;" horiz-adv-x="1236" 
d="M424 1169q0 28 19.5 47t48.5 19q28 0 46.5 -19t18.5 -47q0 -29 -18.5 -48t-46.5 -19q-29 0 -48.5 19t-19.5 48zM680 1169q0 28 18.5 47t46.5 19t48 -19t20 -47q0 -29 -20 -48t-48 -19t-46.5 19t-18.5 48zM662 909l217 -749l223 749h98l-274 -909h-88l-220 752l-219 -752
h-88l-274 909h100l223 -749l218 749h84z" />
    <glyph glyph-name="Ygrave" unicode="&#x1ef2;" horiz-adv-x="1095" 
d="M551 633l395 624h113l-459 -720v-537h-104v537l-457 720h115zM602 1362h-104l-179 240h113z" />
    <glyph glyph-name="ygrave" unicode="&#x1ef3;" horiz-adv-x="884" 
d="M348 -348h-102l147 360l-356 897h108l299 -770l299 770h105zM498 1065h-101l-178 266h109z" />
    <glyph glyph-name="endash" unicode="&#x2013;" horiz-adv-x="972" 
d="M82 489v84h809v-84h-809z" />
    <glyph glyph-name="emdash" unicode="&#x2014;" horiz-adv-x="1732" 
d="M82 489v84h1569v-84h-1569z" />
    <glyph glyph-name="quoteleft" unicode="&#x2018;" horiz-adv-x="288" 
d="M248 1257l-107 -198q28 -5 46 -24t18 -50q0 -32 -22 -55t-54 -23q-34 0 -56 23t-22 59q0 37 29 90l96 178h72z" />
    <glyph glyph-name="quoteright" unicode="&#x2019;" horiz-adv-x="288" 
d="M41 926l106 198q-28 5 -45.5 24t-17.5 50q0 32 22 55t54 23q34 0 56 -23t22 -59q0 -37 -29 -90l-96 -178h-72z" />
    <glyph glyph-name="quotesinglbase" unicode="&#x201a;" horiz-adv-x="258" 
d="M41 -201l106 199q-28 5 -45.5 24t-17.5 50q0 32 22 55t54 23q34 0 56 -23t22 -59q0 -38 -29 -91l-96 -178h-72z" />
    <glyph glyph-name="quotedblleft" unicode="&#x201c;" horiz-adv-x="540" 
d="M248 1257l-107 -198q28 -5 46 -24t18 -50q0 -32 -22 -55t-54 -23q-34 0 -56 23t-22 59q0 37 29 90l96 178h72zM500 1257l-107 -198q28 -5 46 -24t18 -50q0 -32 -22 -55t-54 -23q-34 0 -56 23t-22 59q0 37 29 90l96 178h72z" />
    <glyph glyph-name="quotedblright" unicode="&#x201d;" horiz-adv-x="540" 
d="M41 926l106 198q-28 5 -45.5 24t-17.5 50q0 32 22 55t54 23q34 0 56 -23t22 -59q0 -37 -29 -90l-96 -178h-72zM293 926l106 198q-28 5 -45.5 24t-17.5 50q0 32 22 55t54 23q34 0 55.5 -22.5t21.5 -59.5q0 -39 -28 -90l-96 -178h-72z" />
    <glyph glyph-name="quotedblbase" unicode="&#x201e;" horiz-adv-x="540" 
d="M41 -201l106 199q-28 5 -45.5 24t-17.5 50q0 32 22 55t54 23q34 0 56 -23t22 -59q0 -38 -29 -91l-96 -178h-72zM293 -201l106 199q-28 5 -45.5 24t-17.5 50q0 32 22 55t54 23q34 0 55.5 -22.5t21.5 -59.5q0 -40 -28 -91l-96 -178h-72z" />
    <glyph glyph-name="dagger" unicode="&#x2020;" horiz-adv-x="614" 
d="M63 1063v80h203v188h82v-188h203v-80h-203v-418h-82v418h-203z" />
    <glyph glyph-name="daggerdbl" unicode="&#x2021;" horiz-adv-x="622" 
d="M66 1069v78h202v184h84v-184h205v-78h-205v-162h205v-78h-205v-184h-84v184h-202v78h202v162h-202z" />
    <glyph glyph-name="bullet" unicode="&#x2022;" horiz-adv-x="679" 
d="M604 532q0 -114 -76 -188t-188 -74q-110 0 -186 74t-76 188t76 188.5t186 74.5q112 0 188 -74.5t76 -188.5z" />
    <glyph glyph-name="ellipsis" unicode="&#x2026;" horiz-adv-x="946" 
d="M68 72q0 34 22 57t53 23q32 0 55 -23t23 -57q0 -32 -23 -55t-55 -23q-31 0 -53 23t-22 55zM395 72q0 34 23 57t55 23q31 0 53.5 -23.5t22.5 -56.5q0 -32 -22.5 -55t-53.5 -23q-32 0 -55 23t-23 55zM725 72q0 33 22.5 56.5t53.5 23.5q32 0 55 -23t23 -57q0 -32 -23 -55
t-55 -23q-31 0 -53.5 23t-22.5 55z" />
    <glyph glyph-name="perthousand" unicode="&#x2030;" horiz-adv-x="1857" 
d="M184 0l815 1257h88l-815 -1257h-88zM76 1014q0 109 75.5 185.5t184.5 76.5q107 0 183.5 -76.5t76.5 -185.5q0 -107 -76.5 -182.5t-183.5 -75.5q-109 0 -184.5 75.5t-75.5 182.5zM1194 244q0 -109 -75.5 -185.5t-182.5 -76.5t-183.5 76.5t-76.5 185.5q0 107 76.5 182.5
t183.5 75.5t182.5 -75.5t75.5 -182.5zM1110 244q0 72 -51 123t-123 51q-73 0 -124.5 -51t-51.5 -123q0 -74 51.5 -126t124.5 -52q72 0 123 52t51 126zM1782 244q0 -109 -75.5 -185.5t-182.5 -76.5q-109 0 -185.5 76.5t-76.5 185.5q0 107 76.5 182.5t185.5 75.5
q107 0 182.5 -75.5t75.5 -182.5zM1698 244q0 72 -51 123t-123 51q-74 0 -126 -51t-52 -123q0 -74 52 -126t126 -52q72 0 123 52t51 126zM160 1014q0 -72 51.5 -123t124.5 -51t124.5 51t51.5 123q0 74 -51.5 126t-124.5 52t-124.5 -52t-51.5 -126z" />
    <glyph glyph-name="guilsinglleft" unicode="&#x2039;" horiz-adv-x="393" 
d="M342 176h-102l-189 279l189 278h102l-188 -278z" />
    <glyph glyph-name="guilsinglright" unicode="&#x203a;" horiz-adv-x="393" 
d="M154 176h-103l189 279l-189 278h103l188 -278z" />
    <glyph glyph-name="fraction" unicode="&#x2044;" horiz-adv-x="417" 
d="M664 1257l-816 -1257h-94l815 1257h95z" />
    <glyph glyph-name="Euro" unicode="&#x20ac;" horiz-adv-x="1103" 
d="M59 702v84h125q35 227 162 358.5t305 131.5q148 0 251.5 -92t137.5 -250h-98q-33 116 -108 182t-183 66q-139 0 -235 -106t-125 -290h452l-18 -84h-444q-2 -25 -2 -73q0 -57 2 -84h419l-18 -84h-389q31 -180 125.5 -282.5t232.5 -102.5q108 0 183 66t108 182h98
q-34 -158 -137.5 -250t-251.5 -92q-175 0 -302 128t-163 351h-127v84h117q-2 27 -2 84q0 48 2 73h-117z" />
    <glyph glyph-name="uni2117" unicode="&#x2117;" horiz-adv-x="1449" 
d="M1372 629q0 -138 -51.5 -259t-139 -205.5t-206.5 -133.5t-250 -49t-249.5 49t-206 133.5t-138.5 205.5t-51 259t51 259t138.5 205.5t206 133.5t249.5 49t250 -49t206.5 -133.5t139 -205.5t51.5 -259zM1307 629q0 165 -79 299t-212 208t-291 74t-291 -74t-212 -208
t-79 -299t79 -299.5t212 -208.5t291 -74t291 74t212 208.5t79 299.5zM795 553h-193v-299h-96v756h289q117 0 183 -58.5t66 -169.5t-66 -170t-183 -59zM950 782q0 66 -40.5 104t-116.5 38h-191v-283h191q77 0 117 37t40 104z" />
    <glyph glyph-name="trademark" unicode="&#x2122;" horiz-adv-x="1175" 
d="M33 1190v67h432v-67h-176v-453h-80v453h-176zM846 737h-58l-155 385v-385h-76v520h94l168 -413l166 413h94v-520h-78v385z" />
    <glyph glyph-name="uni2153" unicode="&#x2153;" horiz-adv-x="1355" 
d="M1104 1257l-854 -1257h-92l854 1257h92zM971 309v72h49q54 0 89.5 30.5t35.5 84.5q0 50 -35 81t-90 31q-52 0 -87.5 -33t-43.5 -86h-88q12 88 70.5 142.5t146.5 54.5q98 0 154.5 -51.5t56.5 -136.5q0 -55 -31 -97.5t-78 -54.5q55 -14 89 -55.5t34 -100.5
q0 -87 -59.5 -143.5t-161.5 -56.5q-99 0 -161 54.5t-73 148.5h93q9 -59 46.5 -92t96.5 -33q60 0 95.5 33t35.5 89q0 55 -37.5 87t-95.5 32h-51zM362 1260v-676h-90v571l-176 -90v92l209 103h57z" />
    <glyph glyph-name="uni2154" unicode="&#x2154;" horiz-adv-x="1464" 
d="M1214 1257l-854 -1257h-94l854 1257h94zM442 1075q0 52 -32 82.5t-86 30.5q-58 0 -92 -37t-39 -98h-93q9 96 69.5 156.5t154.5 60.5q95 0 150.5 -53.5t55.5 -141.5q0 -38 -19.5 -78t-39.5 -64.5t-62 -69.5q-8 -9 -12 -13l-176 -188h316v-78h-437v59l230 250
q61 64 86.5 102t25.5 80zM1081 309v72h49q54 0 88.5 30.5t34.5 84.5q0 50 -34 81t-89 31q-52 0 -88 -33t-45 -86h-88q12 88 71.5 142.5t147.5 54.5q97 0 154 -52t57 -136q0 -55 -31 -97.5t-77 -54.5q54 -14 87.5 -55.5t33.5 -100.5q0 -87 -58.5 -143.5t-160.5 -56.5
q-100 0 -161.5 54t-72.5 149h92q9 -59 46 -92t96 -33q60 0 96.5 33.5t36.5 88.5t-37.5 87t-95.5 32h-52z" />
    <glyph glyph-name="uni215B" unicode="&#x215b;" horiz-adv-x="1351" 
d="M1104 1257l-854 -1257h-92l854 1257h92zM1012 63q64 0 105.5 36.5t41.5 90.5q0 56 -41.5 92.5t-105.5 36.5q-65 0 -106.5 -36.5t-41.5 -92.5q0 -55 41.5 -91t106.5 -36zM1012 393q54 0 89.5 32t35.5 79t-35.5 78.5t-89.5 31.5q-55 0 -91 -31.5t-36 -78.5q0 -48 36 -79.5
t91 -31.5zM1012 -10q-101 0 -168.5 54.5t-67.5 141.5q0 62 36.5 107.5t94.5 60.5q-48 19 -76 59.5t-28 92.5q0 81 59 130.5t150 49.5q89 0 149 -50t60 -130q0 -52 -29.5 -92.5t-77.5 -59.5q58 -15 94.5 -60.5t36.5 -107.5q0 -87 -66 -141.5t-167 -54.5zM362 1260v-676h-90
v571l-176 -90v92l209 103h57z" />
    <glyph glyph-name="uni215C" unicode="&#x215c;" horiz-adv-x="1435" 
d="M1096 63q64 0 105.5 36.5t41.5 90.5q0 56 -41.5 92.5t-105.5 36.5q-65 0 -106.5 -36.5t-41.5 -92.5q0 -55 41.5 -91t106.5 -36zM1096 393q54 0 89.5 32t35.5 79t-35.5 78.5t-89.5 31.5q-55 0 -91 -31.5t-36 -78.5q0 -48 36 -79.5t91 -31.5zM1096 -10q-102 0 -169 54.5
t-67 141.5q0 62 36.5 107.5t94.5 60.5q-48 19 -77 59.5t-29 92.5q0 80 60 130t151 50q89 0 148 -50t59 -130q0 -52 -28.5 -92.5t-76.5 -59.5q58 -15 94.5 -60.5t36.5 -107.5q0 -87 -66.5 -141.5t-166.5 -54.5zM1188 1257l-854 -1257h-94l854 1257h94zM279 893v72h49
q55 0 90 30t35 84q0 48 -35 79.5t-90 31.5q-52 0 -87 -32t-44 -85h-88q12 87 71 142t148 55q97 0 154 -52.5t57 -136.5q0 -54 -32 -96.5t-79 -54.5q55 -14 89 -56t34 -100q0 -87 -59.5 -144t-161.5 -57q-99 0 -161 54t-73 147h92q9 -58 47 -90.5t97 -32.5q60 0 95.5 33
t35.5 90q0 54 -38 86.5t-95 32.5h-51z" />
    <glyph glyph-name="uni215D" unicode="&#x215d;" horiz-adv-x="1439" 
d="M1098 63q64 0 105.5 36.5t41.5 90.5q0 56 -41.5 92.5t-105.5 36.5t-105 -36.5t-41 -92.5q0 -54 41 -90.5t105 -36.5zM1098 393q54 0 89.5 32t35.5 79t-35.5 78.5t-89.5 31.5t-89.5 -31.5t-35.5 -78.5t35.5 -79t89.5 -32zM1098 -10q-101 0 -167.5 54.5t-66.5 141.5
q0 62 36 107.5t93 60.5q-47 19 -75.5 60t-28.5 92q0 81 59 130.5t150 49.5t150 -49.5t59 -130.5q0 -51 -29 -92t-76 -60q57 -15 93 -60.5t36 -107.5q0 -87 -66 -141.5t-167 -54.5zM1192 1257l-856 -1257h-92l854 1257h94zM338 942q-71 0 -117 -57h-76v375h375v-80h-299v-205
q47 43 123 43q95 0 155 -62.5t60 -158.5q0 -97 -61.5 -160.5t-159.5 -63.5q-99 0 -161.5 53.5t-76.5 147.5h93q11 -58 48.5 -90.5t96.5 -32.5q58 0 96.5 42t38.5 104t-38 103.5t-97 41.5z" />
    <glyph glyph-name="uni215E" unicode="&#x215e;" horiz-adv-x="1312" 
d="M973 63q64 0 105.5 36.5t41.5 90.5q0 56 -41.5 92.5t-105.5 36.5t-106 -36.5t-42 -92.5q0 -54 42 -90.5t106 -36.5zM973 393q54 0 89.5 32t35.5 79t-35.5 78.5t-89.5 31.5q-55 0 -91 -31.5t-36 -78.5q0 -48 36 -79.5t91 -31.5zM973 -10q-101 0 -168.5 54.5t-67.5 141.5
q0 61 37 107t94 61q-48 19 -76 59.5t-28 92.5q0 81 59 130.5t150 49.5q89 0 149 -50t60 -130q0 -52 -29.5 -92.5t-77.5 -59.5q58 -15 94.5 -60.5t36.5 -107.5q0 -87 -66 -141.5t-167 -54.5zM1067 1257l-856 -1257h-92l854 1257h94zM535 1190l-238 -608h-90l233 596h-346v79
h441v-67z" />
    <glyph glyph-name="minus" unicode="&#x2212;" horiz-adv-x="1052" 
d="M145 559v88h762v-88h-762z" />
    <glyph glyph-name="approxequal" unicode="&#x2248;" horiz-adv-x="1067" 
d="M154 623v94q100 92 202 92q68 0 177.5 -48t171.5 -48q104 0 210 98v-94q-103 -92 -210 -92q-65 0 -175.5 48t-173.5 48q-98 0 -202 -98zM154 399v93q100 94 202 94q56 0 117 -25t120.5 -49.5t111.5 -24.5q103 0 210 101v-94q-101 -93 -210 -93q-65 0 -175.5 48.5
t-173.5 48.5q-97 0 -202 -99z" />
    <glyph glyph-name="notequal" unicode="&#x2260;" horiz-adv-x="1067" 
d="M154 692v84h467l141 182h92l-141 -182h202v-84h-268l-135 -176h403v-84h-469l-141 -184h-92l141 184h-200v84h266l135 176h-401z" />
    <glyph glyph-name="lessequal" unicode="&#x2264;" horiz-adv-x="817" 
d="M119 631v94l563 236v-95l-459 -188l459 -189v-94zM119 227v88h563v-88h-563z" />
    <glyph glyph-name="greaterequal" unicode="&#x2265;" horiz-adv-x="817" 
d="M698 725v-94l-561 -236v94l457 189l-457 188v95zM698 315v-88h-561v88h561z" />
    <glyph glyph-name="fi" unicode="&#xfb01;" horiz-adv-x="921" 
d="M776 909v-909h-102v909h102zM795 1186q0 -29 -20.5 -49.5t-49.5 -20.5t-49.5 20.5t-20.5 49.5q0 28 20.5 48.5t49.5 20.5t49.5 -20.5t20.5 -48.5zM551 1331v-94q-44 23 -92 23q-74 0 -120 -52t-46 -145v-154h213v-88h-213v-821h-100v821h-148v88h148v164q0 123 72.5 200
t183.5 77q53 0 102 -19z" />
    <glyph glyph-name="fl" unicode="&#xfb02;" horiz-adv-x="921" 
d="M776 1331v-1331h-102v1331h102zM551 1331v-94q-44 23 -92 23q-74 0 -120 -52t-46 -145v-154h213v-88h-213v-821h-100v821h-148v88h148v164q0 123 72.5 200t183.5 77q53 0 102 -19z" />
    <glyph glyph-name="i.dot" horiz-adv-x="393" 
d="M248 909v-909h-103v909h103zM266 1186q0 -29 -20 -49.5t-49 -20.5t-49.5 20.5t-20.5 49.5q0 28 20.5 48.5t49.5 20.5t49 -20.5t20 -48.5z" />
    <glyph glyph-name="space_uni0326" 
d="M434 -375l74 137q-27 5 -44.5 23t-17.5 47q0 31 22 51.5t54 20.5q31 0 51.5 -21.5t20.5 -54.5q0 -28 -29 -84l-63 -119h-68z" />
    <glyph glyph-name="space_uni0326.alt" 
d="M590 1358l-74 -139q26 -5 42.5 -23.5t16.5 -46.5q0 -31 -21 -52.5t-52 -21.5q-32 0 -54 22t-22 54q0 34 31 86l63 121h70z" />
    <glyph glyph-name="space_dotbelowcomb" 
d="M582 -229q0 -28 -20.5 -49t-49.5 -21t-49.5 21t-20.5 49q0 29 20.5 50t49.5 21t49.5 -21t20.5 -50z" />
    <glyph glyph-name="caron.Slovak" 
d="M516 1004h-84l68 327h82z" />
    <glyph glyph-name="cedilla.alt" 
d="M494 -358h-95l121 260h98z" />
    <glyph glyph-name="grave.cap" 
d="M653 1362h-104l-178 240h112z" />
    <glyph glyph-name="acute.cap" 
d="M473 1362h-102l168 240h114z" />
    <glyph glyph-name="circumflex.cap" 
d="M557 1610l188 -244h-96l-137 172l-137 -172h-96l188 244h90z" />
    <glyph glyph-name="caron.cap" 
d="M467 1352l-188 243h96l137 -170l137 170h96l-188 -243h-90z" />
    <glyph glyph-name="tilde.cap" 
d="M696 1575h72q0 -99 -36.5 -156t-104.5 -57q-35 0 -68.5 20.5t-55 45t-49.5 45t-53 20.5q-36 0 -54.5 -33.5t-18.5 -91.5h-74q0 97 36.5 155t104.5 58q36 0 69.5 -20.5t55 -45t49 -45t52.5 -20.5q72 0 75 125z" />
    <glyph glyph-name="macron.cap" 
d="M305 1372v86h412v-86h-412z" />
    <glyph glyph-name="breve.cap" 
d="M512 1360q-95 0 -153 62.5t-58 176.5h82q0 -76 35.5 -118.5t93.5 -42.5q57 0 93 42.5t36 118.5h80q0 -114 -57 -176.5t-152 -62.5z" />
    <glyph glyph-name="dotaccent.cap" 
d="M582 1462q0 -29 -20.5 -49t-49.5 -20t-49.5 20t-20.5 49t20.5 49.5t49.5 20.5t49.5 -20.5t20.5 -49.5z" />
    <glyph glyph-name="dieresis.cap" 
d="M317 1464q0 29 19.5 48.5t48.5 19.5q28 0 47 -19.5t19 -48.5q0 -28 -19 -47.5t-47 -19.5q-29 0 -48.5 19.5t-19.5 47.5zM573 1464q0 29 19 48.5t47 19.5t48 -19.5t20 -48.5q0 -28 -20 -47.5t-48 -19.5t-47 19.5t-19 47.5z" />
    <glyph glyph-name="ring.cap" 
d="M678 1491q0 -69 -48.5 -116.5t-117.5 -47.5t-117.5 47.5t-48.5 116.5q0 70 48.5 118t117.5 48t117.5 -48t48.5 -118zM612 1491q0 43 -29.5 72.5t-70.5 29.5t-70.5 -29.5t-29.5 -72.5q0 -41 29.5 -70.5t70.5 -29.5t70.5 29.5t29.5 70.5z" />
    <glyph glyph-name="hungarumlaut.cap" 
d="M367 1362h-93l152 240h94zM596 1362h-94l151 240h95z" />
    <glyph glyph-name="exclamdown.cap" horiz-adv-x="421" 
d="M133 1186q0 32 23 55t55 23q31 0 53.5 -23t22.5 -55q0 -33 -22.5 -56.5t-53.5 -23.5q-32 0 -55 23t-23 57zM154 0l20 864h74l20 -864h-114z" />
    <glyph glyph-name="questiondown.cap" horiz-adv-x="864" 
d="M485 1186q0 -34 -22.5 -57t-54.5 -23q-31 0 -53.5 23.5t-22.5 56.5q0 32 22.5 55t53.5 23q32 0 54.5 -23t22.5 -55zM55 324q0 27 6 55t12.5 49t24 50t26 43t35 45.5t34 40t39.5 43t36 38.5q48 53 67 91.5t21 82.5h97q-4 -68 -28 -116t-81 -111q-10 -12 -46.5 -51
t-53 -59.5t-41 -56.5t-35 -71t-10.5 -73q0 -115 71.5 -180.5t190.5 -65.5q130 0 206.5 80.5t90.5 216.5h106q-18 -177 -126 -285t-277 -108q-168 0 -266.5 93.5t-98.5 248.5z" />
    <glyph glyph-name="guilsinglleft.cap" horiz-adv-x="393" 
d="M342 354h-102l-189 279l189 278h102l-188 -278z" />
    <glyph glyph-name="guilsinglright.cap" horiz-adv-x="393" 
d="M154 354h-103l189 279l-189 278h103l188 -278z" />
    <glyph glyph-name="guillemotleft.cap" horiz-adv-x="643" 
d="M340 354h-100l-189 279l189 278h100l-188 -278zM592 354h-100l-189 279l189 278h100l-189 -278z" />
    <glyph glyph-name="guillemotright.cap" horiz-adv-x="643" 
d="M403 354h-100l189 279l-189 278h100l189 -278zM152 354h-101l189 279l-189 278h101l188 -278z" />
    <glyph glyph-name="slash.cap" horiz-adv-x="626" 
d="M10 -131l508 1503h98l-507 -1503h-99z" />
    <glyph glyph-name="backslash.cap" horiz-adv-x="626" 
d="M109 1372l507 -1503h-98l-508 1503h99z" />
    <glyph glyph-name="bar.cap" horiz-adv-x="419" 
d="M162 -131v1503h96v-1503h-96z" />
    <glyph glyph-name="periodcentered.cap" horiz-adv-x="309" 
d="M78 616q0 33 22.5 56.5t53.5 23.5q32 0 54.5 -23t22.5 -57q0 -32 -22.5 -54.5t-54.5 -22.5q-31 0 -53.5 22.5t-22.5 54.5z" />
    <glyph glyph-name="bullet.cap" horiz-adv-x="679" 
d="M604 614q0 -114 -76 -188t-188 -74q-110 0 -186 74t-76 188t76 188.5t186 74.5q112 0 188 -74.5t76 -188.5z" />
    <glyph glyph-name="hyphen.cap" horiz-adv-x="657" 
d="M82 567v95h493v-95h-493z" />
    <glyph glyph-name="endash.cap" horiz-adv-x="972" 
d="M82 571v84h809v-84h-809z" />
    <glyph glyph-name="emdash.cap" horiz-adv-x="1732" 
d="M82 571v84h1569v-84h-1569z" />
    <glyph glyph-name="parenleft.cap" horiz-adv-x="665" 
d="M61 612q0 281 148.5 483.5t400.5 268.5v-102q-92 -22 -172.5 -77.5t-142 -137.5t-97.5 -194.5t-36 -240.5q0 -251 129 -427t319 -222v-102q-253 66 -401 268t-148 483z" />
    <glyph glyph-name="parenright.cap" horiz-adv-x="665" 
d="M604 612q0 -281 -148 -483t-401 -268v102q190 46 319.5 222t129.5 427q0 169 -62.5 309t-163 225.5t-223.5 115.5v102q252 -66 400.5 -268.5t148.5 -483.5z" />
    <glyph glyph-name="bracketleft.cap" horiz-adv-x="636" 
d="M258 1272v-1319h324v-92h-420v1503h420v-92h-324z" />
    <glyph glyph-name="bracketright.cap" horiz-adv-x="636" 
d="M379 -47v1319h-324v92h420v-1503h-420v92h324z" />
    <glyph glyph-name="braceleft.cap" horiz-adv-x="684" 
d="M311 469v-424q0 -92 86 -92h232v-92h-230q-82 0 -134 53t-52 137v424q0 92 -86 92h-86v92h86q86 0 86 93v422q0 86 52 138t134 52h230v-92h-232q-86 0 -86 -92v-424q0 -93 -82 -144q82 -51 82 -143z" />
    <glyph glyph-name="braceright.cap" horiz-adv-x="684" 
d="M373 45v424q0 92 82 143q-82 51 -82 144v424q0 92 -86 92h-232v92h230q82 0 134 -52t52 -138v-422q0 -93 86 -93h86v-92h-86q-86 0 -86 -92v-424q0 -84 -52 -137t-134 -53h-230v92h232q86 0 86 92z" />
    <glyph glyph-name="at.cap" horiz-adv-x="1585" 
d="M1122 967l-92 -523q-11 -68 15 -95t83 -27q128 0 211.5 110t83.5 305q0 228 -163 373t-420 145q-198 0 -353.5 -91.5t-239 -247.5t-83.5 -347q0 -128 38.5 -232.5t103 -175t152.5 -118t184 -69t200 -21.5q238 0 430 92v-84q-199 -88 -430 -88q-120 0 -230 25t-208.5 80
t-170.5 135t-114.5 197t-42.5 259q0 158 55.5 299t154.5 245t242.5 165t311.5 61q147 0 272.5 -46t212 -126.5t135.5 -191.5t49 -238q0 -120 -32.5 -216.5t-88 -156t-124.5 -91t-146 -31.5q-72 0 -123 34t-61 93q-38 -51 -98.5 -86t-124.5 -35q-126 0 -196.5 84t-70.5 215
q0 111 45.5 210.5t131.5 162.5t194 63q70 0 122.5 -34.5t76.5 -82.5l18 101h90zM944 475l49 285q-23 61 -68 99t-106 38q-82 0 -148 -52.5t-99 -131t-33 -164.5q0 -100 49.5 -158.5t134.5 -58.5q123 0 221 143z" />
    <glyph glyph-name="Euro.lt" horiz-adv-x="1064" 
d="M43 702v84h147q33 227 155 358.5t292 131.5q142 0 242.5 -92t132.5 -250h-101q-32 117 -102.5 182.5t-173.5 65.5q-131 0 -222 -106t-120 -290h424l-19 -84h-413q-2 -25 -2 -73q0 -57 2 -84h391l-21 -84h-360q31 -181 120.5 -283t219.5 -102q103 0 173.5 65.5
t102.5 182.5h101q-32 -158 -132.5 -250t-242.5 -92q-169 0 -289 127.5t-155 351.5h-150v84h139q-2 27 -2 84q0 48 2 73h-139z" />
    <glyph glyph-name="dollar.lt" horiz-adv-x="1064" 
d="M498 -174v203q-141 11 -241.5 85t-135.5 199h104q38 -97 120.5 -146.5t199.5 -49.5q132 0 214.5 61t82.5 170q0 79 -47 132t-154 83l-219 62q-132 37 -202 104t-70 186q0 141 98.5 225.5t249.5 90.5v182h92v-186q133 -17 219.5 -92.5t118.5 -194.5h-101q-71 203 -309 203
q-118 0 -195 -59.5t-77 -163.5q0 -86 54 -131.5t169 -77.5l193 -54q142 -40 209 -115t67 -192q0 -139 -97.5 -224.5t-250.5 -96.5v-203h-92z" />
    <glyph glyph-name="cent.lt" horiz-adv-x="1064" 
d="M152 475q0 201 100 330t266 141v176h92v-178q117 -15 192 -90t99 -192h-104q-19 91 -82.5 142.5t-161.5 51.5q-134 0 -216.5 -105t-82.5 -276t82.5 -276t216.5 -105q97 0 161 51.5t83 143.5h104q-24 -119 -99 -194.5t-192 -90.5v-176h-92v174q-166 14 -266 142.5
t-100 330.5z" />
    <glyph glyph-name="sterling.lt" horiz-adv-x="1064" 
d="M381 866v-204h346v-84h-346v-299q0 -122 -49 -187h629v-92h-863v92h133q52 79 52 187v299h-185v84h185v204q0 188 97.5 299t256.5 111q136 0 221 -73.5t109 -198.5h-103q-37 180 -227 180q-118 0 -187 -83.5t-69 -234.5z" />
    <glyph glyph-name="yen.lt" horiz-adv-x="1064" 
d="M158 537v84h295l-385 636h114l353 -589l350 589h110l-387 -636h297v-84h-321v-158h321v-84h-321v-295h-105v295h-321v84h321v158h-321z" />
    <glyph glyph-name="florin.lt" horiz-adv-x="1064" 
d="M344 604v86h164l55 309q23 127 94 202t183 75q58 0 121 -25v-94q-60 29 -119 29q-71 0 -116.5 -51.5t-63.5 -145.5l-54 -299h211v-86h-225l-123 -696q-24 -124 -83 -193t-169 -69q-64 0 -117 24v94q58 -28 117 -28q68 0 102.5 46.5t49.5 135.5l121 686h-148z" />
    <glyph glyph-name="zero.lt" horiz-adv-x="1064" 
d="M532 -18q-206 0 -332 179.5t-126 467.5t126 467.5t332 179.5t332.5 -179.5t126.5 -467.5t-126.5 -467.5t-332.5 -179.5zM532 1180q-165 0 -260.5 -152t-95.5 -399t95.5 -399t260.5 -152t261 152t96 399t-96 399t-261 152z" />
    <glyph glyph-name="one.lt" horiz-adv-x="1064" 
d="M150 0v96h385v1039l-373 -193v107l411 211h64v-1164h334v-96h-821z" />
    <glyph glyph-name="two.lt" horiz-adv-x="1064" 
d="M797 930q0 114 -75 182t-198 68q-135 0 -213 -81.5t-92 -219.5h-106q19 179 128 288t283 109q170 0 271.5 -95.5t101.5 -250.5q0 -27 -3.5 -52.5t-15 -53t-19 -46.5t-29 -49.5t-30 -44.5t-38 -47.5t-38 -43t-43.5 -48t-42 -45.5l-385 -404h674v-96h-822v72l455 483
q6 6 17 18q49 52 72.5 78t57.5 68t49.5 71t27.5 66t12 74z" />
    <glyph glyph-name="three.lt" horiz-adv-x="1064" 
d="M432 600v92h98q119 0 197 66t78 178q0 109 -78.5 177.5t-204.5 68.5q-117 0 -197 -67t-102 -183h-106q26 155 136 249.5t269 94.5q177 0 282 -93.5t105 -242.5q0 -111 -68 -192.5t-169 -100.5q113 -20 188.5 -101.5t75.5 -203.5q0 -154 -110 -257t-298 -103
q-180 0 -293.5 95t-136.5 261h105q25 -124 109 -193t216 -69q137 0 220 73t83 193q0 119 -86.5 188.5t-214.5 69.5h-98z" />
    <glyph glyph-name="four.lt" horiz-adv-x="1064" 
d="M674 1257l-486 -856h471v312h101v-312h235v-94h-235v-307h-101v307h-589v82l493 868h111z" />
    <glyph glyph-name="five.lt" horiz-adv-x="1064" 
d="M532 705q-81 0 -147 -33t-109 -86h-88v671h689v-96h-598v-461q42 40 111 69.5t147 29.5q174 0 290.5 -118.5t116.5 -291.5q0 -172 -117.5 -289.5t-294.5 -117.5q-179 0 -293 93.5t-145 264.5h107q28 -128 113 -196t218 -68t221.5 90t88.5 223t-88.5 224.5t-221.5 91.5z
" />
    <glyph glyph-name="six.lt" horiz-adv-x="1064" 
d="M242 401q0 -140 91.5 -233.5t229.5 -93.5q136 0 229 93.5t93 233.5t-93 234t-229 94q-138 0 -229.5 -93.5t-91.5 -234.5zM956 973h-104q-70 211 -281 211q-157 0 -261.5 -150.5t-104.5 -398.5q0 -59 4 -90q29 123 129.5 198.5t230.5 75.5q177 0 295.5 -120.5
t118.5 -295.5q0 -178 -120 -299.5t-300 -121.5q-131 0 -227 63t-152 176q-75 151 -75 391q0 308 130.5 486t331.5 178q156 0 252 -80.5t133 -222.5z" />
    <glyph glyph-name="seven.lt" horiz-adv-x="1064" 
d="M952 1174l-469 -1174h-106l469 1161h-752v96h858v-83z" />
    <glyph glyph-name="eight.lt" horiz-adv-x="1064" 
d="M532 72q145 0 238.5 79t93.5 197t-93.5 197.5t-238.5 79.5q-143 0 -236 -79.5t-93 -197.5t92.5 -197t236.5 -79zM532 715q123 0 201 67.5t78 167.5q0 101 -78 168.5t-201 67.5q-121 0 -199.5 -67.5t-78.5 -168.5q0 -99 79 -167t199 -68zM532 -18q-186 0 -308 102.5
t-122 259.5q0 117 73.5 206t191.5 120q-96 34 -153.5 110t-57.5 172q0 139 106.5 231.5t269.5 92.5q165 0 272 -92.5t107 -231.5q0 -96 -58 -172t-155 -110q120 -31 193.5 -120t73.5 -206q0 -157 -123 -259.5t-310 -102.5z" />
    <glyph glyph-name="nine.lt" horiz-adv-x="1064" 
d="M823 856q0 140 -91.5 234t-229.5 94q-136 0 -229 -94t-93 -234t93 -234t229 -94q138 0 229.5 93.5t91.5 234.5zM109 285h104q70 -211 281 -211q157 0 261.5 150.5t104.5 398.5q0 59 -4 90q-29 -123 -129.5 -199t-230.5 -76q-177 0 -295.5 120.5t-118.5 295.5
q0 178 120 300t300 122q131 0 227 -63.5t152 -176.5q75 -151 75 -391q0 -308 -130.5 -485.5t-331.5 -177.5q-156 0 -252 80.5t-133 222.5z" />
    <glyph glyph-name="period.tab" horiz-adv-x="532" 
d="M188 72q0 34 23 57t55 23t55 -23t23 -57q0 -32 -23 -55t-55 -23t-55 23t-23 55z" />
    <glyph glyph-name="comma.tab" horiz-adv-x="532" 
d="M141 -207l111 205q-28 5 -46 24t-18 50q0 33 22.5 55.5t55.5 22.5t55.5 -23t22.5 -59q0 -35 -31 -91l-100 -184h-72z" />
    <glyph glyph-name="colon.tab" horiz-adv-x="532" 
d="M190 72q0 33 22.5 56.5t53.5 23.5q32 0 55 -23t23 -57q0 -32 -23 -55t-55 -23q-31 0 -53.5 23t-22.5 55zM190 745q0 33 22.5 56.5t53.5 23.5q32 0 55 -23t23 -57q0 -32 -23 -54.5t-55 -22.5q-31 0 -53.5 22.5t-22.5 54.5z" />
    <glyph glyph-name="semicolon.tab" horiz-adv-x="532" 
d="M141 -207l111 205q-27 5 -44.5 24t-17.5 50q0 34 22 56t54 22q34 0 56 -23t22 -59q0 -35 -31 -91l-98 -184h-74zM190 745q0 33 22.5 56.5t53.5 23.5q32 0 55 -23t23 -57q0 -32 -23 -54.5t-55 -22.5q-31 0 -53.5 22.5t-22.5 54.5z" />
    <glyph glyph-name="space.tab" horiz-adv-x="532" 
 />
    <glyph glyph-name="percent.lt" horiz-adv-x="1064" 
d="M39 1024q0 104 72.5 178t175.5 74q104 0 178 -74t74 -178t-74 -177t-178 -73q-103 0 -175.5 73t-72.5 177zM117 1024q0 -70 49.5 -120t120.5 -50q72 0 123 50t51 120q0 72 -51 122t-123 50q-71 0 -120.5 -50t-49.5 -122zM1028 233q0 -104 -73 -177.5t-177 -73.5
t-177 73.5t-73 177.5t73 177t177 73t177 -73t73 -177zM950 233q0 71 -50 120.5t-122 49.5t-122 -49.5t-50 -120.5q0 -72 50 -122t122 -50t122 50t50 122zM82 0l815 1257h88l-815 -1257h-88z" />
    <glyph glyph-name="perthousand.lt" horiz-adv-x="1638" 
d="M84 0l815 1257h90l-815 -1257h-90zM121 1024q0 -70 49.5 -120t120.5 -50q72 0 122 49.5t50 120.5q0 72 -50 122t-122 50q-71 0 -120.5 -50t-49.5 -122zM1032 233q0 -104 -73 -177.5t-177 -73.5t-178 73.5t-74 177.5t74 177t178 73t177 -73t73 -177zM952 233
q0 71 -50 120.5t-120 49.5q-72 0 -122 -49.5t-50 -120.5q0 -72 50 -122t122 -50q71 0 120.5 50t49.5 122zM41 1024q0 104 73 178t177 74t178 -74t74 -178t-74 -177t-178 -73t-177 73t-73 177zM1597 233q0 -104 -72 -177.5t-175 -73.5q-104 0 -178 73.5t-74 177.5t74 177
t178 73q103 0 175 -73t72 -177zM1520 233q0 71 -50 120.5t-120 49.5q-72 0 -123 -50t-51 -120q0 -72 51 -122t123 -50q71 0 120.5 50t49.5 122z" />
    <glyph glyph-name="plus.lt" horiz-adv-x="1064" 
d="M487 983h88v-336h338v-88h-338v-336h-88v336h-335v88h335v336z" />
    <glyph glyph-name="minus.lt" horiz-adv-x="1064" 
d="M152 559v88h761v-88h-761z" />
    <glyph glyph-name="multiply.lt" horiz-adv-x="1064" 
d="M473 598l-248 250l60 59l247 -250l246 250l62 -59l-248 -250l248 -250l-62 -59l-246 248l-247 -248l-60 59z" />
    <glyph glyph-name="divide.lt" horiz-adv-x="1064" 
d="M152 559v88h761v-88h-761zM457 915q0 32 22 55t51 23q31 0 53.5 -23t22.5 -55q0 -30 -22.5 -51.5t-53.5 -21.5q-30 0 -51.5 21.5t-21.5 51.5zM457 291q0 31 22 53.5t51 22.5q31 0 53.5 -22.5t22.5 -53.5q0 -32 -22.5 -54t-53.5 -22q-30 0 -51.5 22t-21.5 54z" />
    <glyph glyph-name="equal.lt" horiz-adv-x="1064" 
d="M152 430v86h761v-86h-761zM152 692v86h761v-86h-761z" />
    <glyph glyph-name="less.lt" horiz-adv-x="1064" 
d="M250 551v96l563 307v-98l-475 -256l475 -256v-100z" />
    <glyph glyph-name="greater.lt" horiz-adv-x="1064" 
d="M813 647v-96l-563 -307v100l475 256l-475 256v98z" />
    <glyph glyph-name="plusminus.lt" horiz-adv-x="1064" 
d="M487 1014h88v-258h334v-86h-334v-258h-88v258h-333v86h333v258zM154 213v88h755v-88h-755z" />
    <glyph glyph-name="lessequal.lt" horiz-adv-x="1064" 
d="M250 631v94l563 236v-95l-459 -188l459 -189v-94zM250 227v88h563v-88h-563z" />
    <glyph glyph-name="greaterequal.lt" horiz-adv-x="1064" 
d="M813 725v-94l-563 -236v94l459 189l-459 188v95zM813 315v-88h-563v88h563z" />
    <glyph glyph-name="notequal.lt" horiz-adv-x="1064" 
d="M152 692v84h466l142 182h92l-141 -182h202v-84h-268l-135 -176h403v-84h-469l-141 -184h-92l141 184h-200v84h266l135 176h-401z" />
    <glyph glyph-name="approxequal.lt" horiz-adv-x="1064" 
d="M152 623v94q100 92 202 92q68 0 177 -48t171 -48q105 0 211 98v-94q-103 -92 -211 -92q-65 0 -175 48t-173 48q-98 0 -202 -98zM152 399v93q100 94 202 94q68 0 177 -49.5t171 -49.5q104 0 211 101v-94q-101 -93 -211 -93q-65 0 -175 48.5t-173 48.5q-97 0 -202 -99z" />
    </font>
</defs>
</svg>
